<?xml version="1.0" encoding="utf-8"?>
<svg version="1.1" id="Layer_1" x="0px" y="0px" viewBox="0 0 3034.2 3781.9" style="enable-background:new 0 0 3034.2 3781.9;" xmlns="http://www.w3.org/2000/svg">
  <defs>
    <radialGradient gradientUnits="userSpaceOnUse" cx="761.05" cy="2700.55" r="79.85" id="gradient-0" spreadMethod="pad">
      <stop offset="0" style="stop-color: rgba(225, 247, 203, 1)"/>
      <stop offset="1" style="stop-color: rgba(174, 233, 114, 1)"/>
    </radialGradient>
    <radialGradient gradientUnits="userSpaceOnUse" cx="606.181" cy="2589.774" r="29.019" id="gradient-1" spreadMethod="pad">
      <stop offset="0" style="stop-color: rgba(225, 247, 203, 1)"/>
      <stop offset="1" style="stop-color: rgba(174, 233, 114, 1)"/>
    </radialGradient>
    <radialGradient gradientUnits="userSpaceOnUse" cx="418.898" cy="2413.95" r="370.602" id="gradient-2" spreadMethod="pad">
      <stop offset="0" style="stop-color: rgba(225, 247, 203, 1)"/>
      <stop offset="1" style="stop-color: rgba(174, 233, 114, 1)"/>
    </radialGradient>
    <radialGradient gradientUnits="userSpaceOnUse" cx="1583.688" cy="2312.9" r="0.287" id="gradient-4" spreadMethod="pad">
      <stop offset="0" style="stop-color: rgba(225, 247, 203, 1)"/>
      <stop offset="1" style="stop-color: rgba(174, 233, 114, 1)"/>
    </radialGradient>
    <radialGradient gradientUnits="userSpaceOnUse" cx="1570.46" cy="3049.119" r="46.46" id="gradient-5" spreadMethod="pad">
      <stop offset="0" style="stop-color: rgba(225, 247, 203, 1)"/>
      <stop offset="1" style="stop-color: rgba(174, 233, 114, 1)"/>
    </radialGradient>
    <radialGradient gradientUnits="userSpaceOnUse" cx="994.327" cy="3626.05" r="25.973" id="gradient-7" spreadMethod="pad">
      <stop offset="0" style="stop-color: rgba(225, 247, 203, 1)"/>
      <stop offset="1" style="stop-color: rgba(174, 233, 114, 1)"/>
    </radialGradient>
    <radialGradient gradientUnits="userSpaceOnUse" cx="1874.8" cy="1299.95" r="105.9" id="gradient-8" spreadMethod="pad">
      <stop offset="0" style="stop-color: rgba(225, 247, 203, 1)"/>
      <stop offset="1" style="stop-color: rgba(174, 233, 114, 1)"/>
    </radialGradient>
    <radialGradient gradientUnits="userSpaceOnUse" cx="1969.05" cy="850.4" r="0.25" id="gradient-9" spreadMethod="pad">
      <stop offset="0" style="stop-color: rgba(225, 247, 203, 1)"/>
      <stop offset="1" style="stop-color: rgba(174, 233, 114, 1)"/>
    </radialGradient>
    <radialGradient gradientUnits="userSpaceOnUse" cx="563.856" cy="2729.958" r="155.444" id="gradient-11" spreadMethod="pad">
      <stop offset="0" style="stop-color: rgba(225, 247, 203, 1)"/>
      <stop offset="1" style="stop-color: rgba(174, 233, 114, 1)"/>
    </radialGradient>
    <radialGradient gradientUnits="userSpaceOnUse" cx="458.45" cy="3141.243" r="102.55" id="gradient-14" spreadMethod="pad">
      <stop offset="0" style="stop-color: rgba(225, 247, 203, 1)"/>
      <stop offset="1" style="stop-color: rgba(174, 233, 114, 1)"/>
    </radialGradient>
    <radialGradient gradientUnits="userSpaceOnUse" cx="1734.981" cy="152.712" r="43.827" id="gradient-15" spreadMethod="pad">
      <stop offset="0" style="stop-color: rgba(225, 247, 203, 1)"/>
      <stop offset="1" style="stop-color: rgba(174, 233, 114, 1)"/>
    </radialGradient>
    <radialGradient gradientUnits="userSpaceOnUse" cx="2318.473" cy="302.894" r="67.921" id="gradient-16" spreadMethod="pad">
      <stop offset="0" style="stop-color: rgba(225, 247, 203, 1)"/>
      <stop offset="1" style="stop-color: rgba(174, 233, 114, 1)"/>
    </radialGradient>
    <radialGradient gradientUnits="userSpaceOnUse" cx="1179.037" cy="351.562" r="63.568" id="gradient-17" spreadMethod="pad">
      <stop offset="0" style="stop-color: rgba(225, 247, 203, 1)"/>
      <stop offset="1" style="stop-color: rgba(174, 233, 114, 1)"/>
    </radialGradient>
    <radialGradient gradientUnits="userSpaceOnUse" cx="1676.393" cy="494.537" r="48.815" id="gradient-18" spreadMethod="pad">
      <stop offset="0" style="stop-color: rgba(225, 247, 203, 1)"/>
      <stop offset="1" style="stop-color: rgba(174, 233, 114, 1)"/>
    </radialGradient>
    <radialGradient gradientUnits="userSpaceOnUse" cx="2128.864" cy="611.29" r="133.824" id="gradient-19" spreadMethod="pad">
      <stop offset="0" style="stop-color: rgba(225, 247, 203, 1)"/>
      <stop offset="1" style="stop-color: rgba(174, 233, 114, 1)"/>
    </radialGradient>
    <radialGradient gradientUnits="userSpaceOnUse" cx="1309.052" cy="644.779" r="86.534" id="gradient-20" spreadMethod="pad">
      <stop offset="0" style="stop-color: rgba(225, 247, 203, 1)"/>
      <stop offset="1" style="stop-color: rgba(174, 233, 114, 1)"/>
    </radialGradient>
    <radialGradient gradientUnits="userSpaceOnUse" cx="2701.121" cy="636.125" r="62.719" id="gradient-21" spreadMethod="pad">
      <stop offset="0" style="stop-color: rgba(225, 247, 203, 1)"/>
      <stop offset="1" style="stop-color: rgba(174, 233, 114, 1)"/>
    </radialGradient>
    <radialGradient gradientUnits="userSpaceOnUse" cx="2521.281" cy="784.534" r="119.443" id="gradient-22" spreadMethod="pad">
      <stop offset="0" style="stop-color: rgba(225, 247, 203, 1)"/>
      <stop offset="1" style="stop-color: rgba(174, 233, 114, 1)"/>
    </radialGradient>
    <radialGradient gradientUnits="userSpaceOnUse" cx="975.428" cy="866.746" r="160.046" id="gradient-23" spreadMethod="pad">
      <stop offset="0" style="stop-color: rgba(225, 247, 203, 1)"/>
      <stop offset="1" style="stop-color: rgba(174, 233, 114, 1)"/>
    </radialGradient>
    <radialGradient gradientUnits="userSpaceOnUse" cx="1626.62" cy="773.285" r="27.9" id="gradient-24" spreadMethod="pad">
      <stop offset="0" style="stop-color: rgba(225, 247, 203, 1)"/>
      <stop offset="1" style="stop-color: rgba(174, 233, 114, 1)"/>
    </radialGradient>
    <radialGradient gradientUnits="userSpaceOnUse" cx="1952.045" cy="897.974" r="38.388" id="gradient-25" spreadMethod="pad">
      <stop offset="0" style="stop-color: rgba(225, 247, 203, 1)"/>
      <stop offset="1" style="stop-color: rgba(174, 233, 114, 1)"/>
    </radialGradient>
    <radialGradient gradientUnits="userSpaceOnUse" cx="2299.574" cy="964.804" r="96.048" id="gradient-27" spreadMethod="pad">
      <stop offset="0" style="stop-color: rgba(225, 247, 203, 1)"/>
      <stop offset="1" style="stop-color: rgba(174, 233, 114, 1)"/>
    </radialGradient>
    <radialGradient gradientUnits="userSpaceOnUse" cx="1549.323" cy="1040.004" r="44.302" id="gradient-28" spreadMethod="pad">
      <stop offset="0" style="stop-color: rgba(225, 247, 203, 1)"/>
      <stop offset="1" style="stop-color: rgba(174, 233, 114, 1)"/>
    </radialGradient>
    <radialGradient gradientUnits="userSpaceOnUse" cx="1905.21" cy="1286.616" r="299.004" id="gradient-29" spreadMethod="pad">
      <stop offset="0" style="stop-color: rgba(225, 247, 203, 1)"/>
      <stop offset="1" style="stop-color: rgba(174, 233, 114, 1)"/>
    </radialGradient>
    <radialGradient gradientUnits="userSpaceOnUse" cx="1177.565" cy="1056.921" r="39.765" id="gradient-30" spreadMethod="pad">
      <stop offset="0" style="stop-color: rgba(225, 247, 203, 1)"/>
      <stop offset="1" style="stop-color: rgba(174, 233, 114, 1)"/>
    </radialGradient>
    <radialGradient gradientUnits="userSpaceOnUse" cx="2158.7" cy="1089.799" r="31.366" id="gradient-31" spreadMethod="pad">
      <stop offset="0" style="stop-color: rgba(225, 247, 203, 1)"/>
      <stop offset="1" style="stop-color: rgba(174, 233, 114, 1)"/>
    </radialGradient>
    <radialGradient gradientUnits="userSpaceOnUse" cx="2910.874" cy="1174.546" r="123.346" id="gradient-32" spreadMethod="pad">
      <stop offset="0" style="stop-color: rgba(225, 247, 203, 1)"/>
      <stop offset="1" style="stop-color: rgba(174, 233, 114, 1)"/>
    </radialGradient>
    <radialGradient gradientUnits="userSpaceOnUse" cx="1634.646" cy="1192.486" r="34.149" id="gradient-33" spreadMethod="pad">
      <stop offset="0" style="stop-color: rgba(225, 247, 203, 1)"/>
      <stop offset="1" style="stop-color: rgba(174, 233, 114, 1)"/>
    </radialGradient>
    <radialGradient gradientUnits="userSpaceOnUse" cx="2577.453" cy="1259.808" r="185.653" id="gradient-34" spreadMethod="pad">
      <stop offset="0" style="stop-color: rgba(225, 247, 203, 1)"/>
      <stop offset="1" style="stop-color: rgba(174, 233, 114, 1)"/>
    </radialGradient>
    <radialGradient gradientUnits="userSpaceOnUse" cx="1458.621" cy="1385.854" r="42.516" id="gradient-35" spreadMethod="pad">
      <stop offset="0" style="stop-color: rgba(225, 247, 203, 1)"/>
      <stop offset="1" style="stop-color: rgba(174, 233, 114, 1)"/>
    </radialGradient>
    <radialGradient gradientUnits="userSpaceOnUse" cx="937.57" cy="1430.547" r="28.375" id="gradient-36" spreadMethod="pad">
      <stop offset="0" style="stop-color: rgba(225, 247, 203, 1)"/>
      <stop offset="1" style="stop-color: rgba(174, 233, 114, 1)"/>
    </radialGradient>
    <radialGradient gradientUnits="userSpaceOnUse" cx="784.156" cy="1570.012" r="71.086" id="gradient-37" spreadMethod="pad">
      <stop offset="0" style="stop-color: rgba(225, 247, 203, 1)"/>
      <stop offset="1" style="stop-color: rgba(174, 233, 114, 1)"/>
    </radialGradient>
    <radialGradient gradientUnits="userSpaceOnUse" cx="925.847" cy="1749.968" r="40.937" id="gradient-38" spreadMethod="pad">
      <stop offset="0" style="stop-color: rgba(225, 247, 203, 1)"/>
      <stop offset="1" style="stop-color: rgba(174, 233, 114, 1)"/>
    </radialGradient>
    <radialGradient gradientUnits="userSpaceOnUse" cx="1106.426" cy="1779.007" r="29.441" id="gradient-39" spreadMethod="pad">
      <stop offset="0" style="stop-color: rgba(225, 247, 203, 1)"/>
      <stop offset="1" style="stop-color: rgba(174, 233, 114, 1)"/>
    </radialGradient>
    <radialGradient gradientUnits="userSpaceOnUse" cx="1306.127" cy="1828.295" r="27.16" id="gradient-40" spreadMethod="pad">
      <stop offset="0" style="stop-color: rgba(225, 247, 203, 1)"/>
      <stop offset="1" style="stop-color: rgba(174, 233, 114, 1)"/>
    </radialGradient>
    <radialGradient gradientUnits="userSpaceOnUse" cx="1527.094" cy="1863.735" r="25.794" id="gradient-41" spreadMethod="pad">
      <stop offset="0" style="stop-color: rgba(225, 247, 203, 1)"/>
      <stop offset="1" style="stop-color: rgba(174, 233, 114, 1)"/>
    </radialGradient>
    <radialGradient gradientUnits="userSpaceOnUse" cx="1677.036" cy="1866.65" r="25.464" id="gradient-42" spreadMethod="pad">
      <stop offset="0" style="stop-color: rgba(225, 247, 203, 1)"/>
      <stop offset="1" style="stop-color: rgba(174, 233, 114, 1)"/>
    </radialGradient>
    <radialGradient gradientUnits="userSpaceOnUse" cx="844.558" cy="1996.85" r="79.229" id="gradient-43" spreadMethod="pad">
      <stop offset="0" style="stop-color: rgba(225, 247, 203, 1)"/>
      <stop offset="1" style="stop-color: rgba(174, 233, 114, 1)"/>
    </radialGradient>
    <radialGradient gradientUnits="userSpaceOnUse" cx="1366.969" cy="2047.323" r="79.573" id="gradient-44" spreadMethod="pad">
      <stop offset="0" style="stop-color: rgba(225, 247, 203, 1)"/>
      <stop offset="1" style="stop-color: rgba(174, 233, 114, 1)"/>
    </radialGradient>
    <radialGradient gradientUnits="userSpaceOnUse" cx="611.251" cy="2052.959" r="34.032" id="gradient-45" spreadMethod="pad">
      <stop offset="0" style="stop-color: rgba(225, 247, 203, 1)"/>
      <stop offset="1" style="stop-color: rgba(174, 233, 114, 1)"/>
    </radialGradient>
    <radialGradient gradientUnits="userSpaceOnUse" cx="771.938" cy="2179.263" r="107.555" id="gradient-46" spreadMethod="pad">
      <stop offset="0" style="stop-color: rgba(225, 247, 203, 1)"/>
      <stop offset="1" style="stop-color: rgba(174, 233, 114, 1)"/>
    </radialGradient>
    <radialGradient gradientUnits="userSpaceOnUse" cx="1364.539" cy="2240.791" r="131.198" id="gradient-47" spreadMethod="pad">
      <stop offset="0" style="stop-color: rgba(225, 247, 203, 1)"/>
      <stop offset="1" style="stop-color: rgba(174, 233, 114, 1)"/>
    </radialGradient>
    <radialGradient gradientUnits="userSpaceOnUse" cx="108.667" cy="2416.289" r="42.223" id="gradient-48" spreadMethod="pad">
      <stop offset="0" style="stop-color: rgba(225, 247, 203, 1)"/>
      <stop offset="1" style="stop-color: rgba(174, 233, 114, 1)"/>
    </radialGradient>
    <radialGradient gradientUnits="userSpaceOnUse" cx="614.457" cy="2256.557" r="54.468" id="gradient-49" spreadMethod="pad">
      <stop offset="0" style="stop-color: rgba(225, 247, 203, 1)"/>
      <stop offset="1" style="stop-color: rgba(174, 233, 114, 1)"/>
    </radialGradient>
    <radialGradient gradientUnits="userSpaceOnUse" cx="1497.912" cy="2342.978" r="54.029" id="gradient-50" spreadMethod="pad">
      <stop offset="0" style="stop-color: rgba(225, 247, 203, 1)"/>
      <stop offset="1" style="stop-color: rgba(174, 233, 114, 1)"/>
    </radialGradient>
    <radialGradient gradientUnits="userSpaceOnUse" cx="1922.986" cy="2336.094" r="54.967" id="gradient-51" spreadMethod="pad">
      <stop offset="0" style="stop-color: rgba(225, 247, 203, 1)"/>
      <stop offset="1" style="stop-color: rgba(174, 233, 114, 1)"/>
    </radialGradient>
    <radialGradient gradientUnits="userSpaceOnUse" cx="1560.287" cy="2354.379" r="47.968" id="gradient-52" spreadMethod="pad">
      <stop offset="0" style="stop-color: rgba(225, 247, 203, 1)"/>
      <stop offset="1" style="stop-color: rgba(174, 233, 114, 1)"/>
    </radialGradient>
    <radialGradient gradientUnits="userSpaceOnUse" cx="805.439" cy="2929.163" r="33.543" id="gradient-53" spreadMethod="pad">
      <stop offset="0" style="stop-color: rgba(225, 247, 203, 1)"/>
      <stop offset="1" style="stop-color: rgba(174, 233, 114, 1)"/>
    </radialGradient>
    <radialGradient gradientUnits="userSpaceOnUse" cx="668.019" cy="3050.338" r="49.663" id="gradient-54" spreadMethod="pad">
      <stop offset="0" style="stop-color: rgba(225, 247, 203, 1)"/>
      <stop offset="1" style="stop-color: rgba(174, 233, 114, 1)"/>
    </radialGradient>
    <radialGradient gradientUnits="userSpaceOnUse" cx="1287.941" cy="1899.314" r="854.216" id="gradient-13">
      <stop offset="0" style="stop-color: rgba(234, 243, 226, 1)"/>
      <stop offset="1" style="stop-color: rgba(182, 213, 154, 1)"/>
    </radialGradient>
    <radialGradient gradientUnits="userSpaceOnUse" cx="1274.531" cy="2364.099" r="735.539" id="gradient-6">
      <stop offset="0" style="stop-color: rgba(246, 229, 169, 1)"/>
      <stop offset="1" style="stop-color: rgba(236, 202, 77, 1)"/>
    </radialGradient>
    <radialGradient gradientUnits="userSpaceOnUse" cx="1200.358" cy="2317.335" r="1200.498" id="gradient-26">
      <stop offset="0" style="stop-color: rgba(255, 255, 255, 1)"/>
      <stop offset="1" style="stop-color: rgba(204, 204, 204, 1)"/>
    </radialGradient>
    <radialGradient gradientUnits="userSpaceOnUse" cx="1057.9" cy="3089.15" r="484.6" id="gradient-3">
      <stop offset="0" style="stop-color: rgba(231, 200, 187, 1)"/>
      <stop offset="1" style="stop-color: rgba(204, 140, 112, 1)"/>
    </radialGradient>
    <radialGradient gradientUnits="userSpaceOnUse" cx="1638.951" cy="3014.689" r="345.051" id="gradient-12">
      <stop offset="0" style="stop-color: rgba(249, 249, 249, 1)"/>
      <stop offset="1" style="stop-color: rgba(198, 198, 198, 1)"/>
    </radialGradient>
    <radialGradient gradientUnits="userSpaceOnUse" cx="1912.528" cy="1294.966" r="439.409" id="gradient-10">
      <stop offset="0" style="stop-color: rgba(182, 240, 238, 1)"/>
      <stop offset="1" style="stop-color: rgba(97, 223, 218, 1)"/>
    </radialGradient>
  </defs>
  <style type="text/css">
	.st0{fill:none;}
</style>
  <g>
    <path class="st0" d="M797.6,2773.3c15.7-14.6,30-31.9,43.3-52.4c-54.5-20.7-105.9-50.6-159.7-93.1 C697.2,2693.7,739.5,2734.6,797.6,2773.3z" style="fill-rule: nonzero; fill: url(#gradient-0); paint-order: fill;"/>
    <path class="st0" d="M602.1,2665.5c4.6-1.6,8.6-4,12.8-6.6c5.8-3.5,12.1-7.3,20.3-9.3c-5.7-16.8-6.5-38.5-7.3-59.5 c-1.1-29.1-2.2-59.2-16-70.7c-5.1-4.2-12-5.9-21-5.2c-10.3,17.9-15.5,49.1-13.2,81.1C580.1,2627.5,589.3,2653.8,602.1,2665.5z" style="fill-rule: nonzero; fill: url(#gradient-1); paint-order: fill;"/>
    <path class="st0" d="M554.2,2435.8c-124.1-20.3-252.3-41.4-354.5-84.5c-0.5,0.4-1.2,1-1.7,1.4c-4,3.4-11.4,9.8-24.1,6 c-15.9-4.7-20.5-34.6-25.7-79.6c-1.3-11.7-2.6-22.8-4.1-29.4c-9-41.5-17.3-65.8-36.4-80c-13,3.2-24.1,15.4-33.1,36.2 c-7.3,17.1-13.1,39.8-17.8,69.6c-14.3,90.7-10.3,207.1,10,289.8c5.7,23,22.8,92.9,52.2,92.9c0.1,0,0.3,0,0.4,0 c28.6-0.7,37-46.9,44.4-87.6c3.9-21.2,7.2-39.6,13.3-51.4c0.4-0.7,0.9-1.4,1.4-2l0.1-0.1c1.2-1.2,2.8-2,4.5-2.3 c87.4-12.5,184.6-16.5,278.6-20.4c28.3-1.2,57.6-2.4,86.1-3.8c9.1-11.5,17-20.4,32.4-24.2c25.6-6.3,43,3.8,57,12 c6.4,3.7,12,7,17.4,8.2c14.2,3.1,33.1,1.4,51.4-0.3c9.2-0.8,18.7-1.7,27.5-1.9c4.2-0.1,8.8,0,13.7,0.2c21.3,0.6,38.2,0.3,42.3-8.5 c-9.1-9.6-25.6-10.3-42.9-11c-5.9-0.2-12.1-0.5-17.9-1.1c-27.1-2.9-56-8-79.3-12.2C617.9,2446.3,585.5,2440.9,554.2,2435.8z M126.6,2599.5c-1.5,0.2-3,0.3-4.4,0.3c-7,0-12.5-2.1-16.5-6.3c-8.7-9-6.5-23.7-5-34.3c0.4-2.5,0.7-4.9,0.8-6.3 c2.1-58-4.9-114.5-12-162.1c-2.6-17.3-6.6-34.5-10.5-51.1c-7.8-33.1-15.1-64.4-11.7-96.4c0.2-1.9,1.1-3.6,2.4-4.9 c10.3-9.8,23.4-4.7,30.2-1.9c2.5,0.8,4.5,2.7,5.3,5.3c25,83.5,40.5,175,44.7,264.5l0.1,1.2C151.7,2545.1,154,2596.4,126.6,2599.5z" style="fill-rule: nonzero; fill: url(#gradient-2); paint-order: fill;"/>
    <path class="st0" d="M753.1,3333c80.9,73.4,174.9,142.4,313.8,151.1c27.8-102.9,79-200.6,128.6-295.1l1.7-3.2c0,0,0,0,0,0 c34.4-65.4,74.8-140.7,119.7-206.8c1.8-2.7,4-6.1,6.2-9.6c13.2-20.8,31.3-49.2,52.4-50.5c10.4-0.7,25.2,5.8,40.7,13.2 c1.3,0.6,2.5,1.2,3.5,1.7c30.1,14.2,53.8,31.9,74.1,55.4l48.7-41.9c-31.4-33.8-68.9-63.3-101.5-79.9c-4.4-2.2-9.5-4-14.4-5.6 c-12.3-4.2-26.2-8.9-31.8-22.7c-9.4-22.9-1.7-43.1,5.6-62.8c4.8-12.9,9.4-25.2,9-37.6c-8.4,1.7-16.9,3.4-25.2,5 c-13.4,2.6-27.2,5.4-40.5,8.3c-9.1,23.1-44.4,36.2-78.7,48.9c-11.3,4.2-22,8.1-31.3,12.3c-37,16.4-70.2,33.5-105.2,51.5 c-25.1,12.9-51,26.3-78.4,39.3c-5.9,2.8-13.7,7.2-21.9,12c-24.7,14.1-52.3,29.8-72.8,29.8c-2.7,0-5.2-0.3-7.6-0.8 c-27.3-6.5-27.7-50.7-28.1-86.2c-0.1-5.1-0.1-10-0.2-14.2c-0.6-17.4-1.2-33.6-1.9-49.2c-0.8-19.2-1.5-37.4-2-56.2 c-7.8-2-16.8-3-25.8-3.8c-7,6.8-14.4,18.1-22.3,30.1c-18.7,28.4-39.9,60.5-71.2,60.5c-0.1,0-0.1,0-0.2,0 c-21.3-0.1-49.6-19.4-86.6-59c-21.2-22.8-39.6-48.2-56.6-72.8c-5.2,3.3-11,5.9-16.6,8.4c-4.6,2-9,4-12.8,6.3 c30.4,42.4,67.1,82.5,109.2,119.4c3.3,2.8,7,5.5,10.9,8.3c13.5,9.7,28.9,20.8,28.2,42.3c-0.7,19.1-20.2,43.2-39.1,64.2l-1.3,1.5 c-35.1,39.1-88.3,74.2-158.1,104.3C600.7,3153.8,661.2,3249.5,753.1,3333z M783.7,2912.8c13.6-16.4,29.6-21.3,39.5-18.9 c4.5,1.1,12.5,4.8,15.1,17.1c1.9,9.2-1.2,19.8-8.9,29.9c-10.5,13.8-26.5,23.2-40.8,24.1c-0.2,0-0.3,0-0.5,0c-2.9,0-5.5-1.6-7-4 c-2.8-0.3-5.2-2-6.4-4.6C768.7,2943.3,772.1,2927,783.7,2912.8z M624.3,3052.5c7.7-2.3,19.8-11.7,30.4-20.1 c10.6-8.3,20.6-16.2,29.3-20c6.2-2.7,14.4-2.2,21.4,1.3c6.3,3.2,10.5,8.3,11.9,14.4c1.7,7.7-1.1,16.2-8.3,25.2 c-5.6,7-13.6,14-23.2,20.2c-13.2,8.5-30.5,16.1-45,16.1c-6.4,0-12.2-1.5-16.9-5c-1.3-1-2.3-2.3-2.8-3.8c-2.2-6.6-3-13.6-2.4-21.4 C618.9,3056.2,621.1,3053.4,624.3,3052.5z" style="fill-rule: nonzero; paint-order: fill; fill: url(#gradient-3);"/>
    <path class="st0" d="M1583.9,2312.9c-0.1,0-0.3,0-0.5,0C1583.6,2312.9,1583.8,2312.9,1583.9,2312.9 C1584,2312.9,1584,2312.9,1583.9,2312.9z" style="fill-rule: nonzero; fill: url(#gradient-4); paint-order: fill;"/>
    <path class="st0" d="M1572.9,3116.7c10.6,4.2,23.9,2.5,40.7-5.2c1.7-0.8,5.4-8.1,1.8-32c-2.7-17.9-8.2-36-10.3-41.4 c-1.8-4.7-3.4-9.4-5-13.9c-5.7-16.1-11.2-31.5-21-44.9l-55.1,53.9c3.8,8.1,7.2,16.8,10.6,25.3 C1544.3,3083.5,1554.5,3109.4,1572.9,3116.7z" style="fill-rule: nonzero; fill: url(#gradient-5); paint-order: fill;"/>
    <path class="st0" d="M1873.2,2395.9c14-3.2,29.8-3.4,45.1-3.5c25.9-0.3,52.7-0.6,70.9-15.1c15-11.9,22.7-31.6,20.5-52.7 c-1.8-17.7-10.7-32.6-23.1-38.9c-22.9-11.5-42.1-4.9-64.3,2.7c-12.7,4.4-25.9,8.9-40.5,10.2c-2.7,0.2-5.3-0.9-6.9-3 c-30.4-37.8-48.3-96.9-54.8-180.5c-5-65-2.4-134.1,1.6-199.9c-5.5,2.2-11.4,3.7-17.2,5.2c-1.1,0.3-2.2,0.6-3.3,0.9 c-3.7,18.1-13.9,35.2-29.7,49.7c-16,14.7-36.3,25.2-57.1,29.6c-33.3,7.1-63-2.4-81.3-25.5c-24.8,18.1-67.1,27.5-105.2,22.6 c-25.8-3.3-46.3-13-58.7-27.5c-19.4,12.1-44.1,19.6-72.1,22c-29.4,2.5-60.2-1.2-86.7-10.4c-34.4-11.9-58.7-31.8-69.6-56.7 c-31,18.6-72.1,25.1-114.4,17.8c-42-7.2-80-27.4-101.4-53.4c-37.5,24.3-92,29.8-138.5,13.3c-33.6-11.9-57.7-34-67.3-61.3 c-24.7,12.8-64.7,19.3-96.4,10.7c-3.4,9.9-6.6,19.2-9.8,28.2c-5.4,15.5-10.6,30.2-16,47c-1.5,4.5-3,10.3-4.6,16.5 c-7.2,27.2-16.1,61.1-38.5,63.7c-10.5,1.2-21.1-5.6-30.6-11.6c-4.6-2.9-9.7-6.2-12.3-6.7c-26.2-5-59.4,5.8-65.7,21.4 c-7.1,17.5,0.4,37.8,8,51.8c9.1,16.8,21.9,30.8,29.2,35.5c3.8,2.4,8.5,4,13,5.6c9.9,3.4,23.4,8.1,23,23.5 c-0.2,7-6.2,13.2-16.8,23.4c-4.1,4-8.4,8.2-11.4,11.8c-22.7,27.5-46.5,62.7-50.7,114.8c-2.8,34.2,4.5,53.6,12.9,75.9 c4.2,11.3,8.6,23,12,37.3c31.1,3.7,61.2,8.8,90.4,13.7c33.5,5.6,68,11.4,103.9,15.2c6-34.7,37-57.6,79.7-57.9 c13.4,0,41.7,3.6,53.3,17.2c4.5,5.3,6.3,11.6,5.2,18.3c-1.1,6.5-3.8,11.3-8.3,14.3c-8.3,5.7-19.5,3.5-31.4,1.1 c-8.1-1.6-16.5-3.3-24.2-2.7c-10.5,0.9-20.8,5.4-25.1,11c-1.9,2.5-2.5,5-2,7.9c0.8,4.6,13.6,7.3,23,9.2 c16.3,3.4,38.6,8.1,37.8,28.9c-0.6,16.2-8.4,19.2-18.5,21.4c-3.7,0.8-7.8,1.7-12.8,4c-0.9,3.3-2.2,6.1-3.3,8.4 c-2.1,4.6-2.9,6.6-2,10.4c1.4,5.7,3.7,7.6,5.4,8.5c7.8,4.5,24.7-0.5,38.3-4.6c11.8-3.5,23-6.8,32.1-6c1.9,0.2,3.7,1,5,2.4 c9.9,10.3,9.4,19.9,7.2,26.2c-6.3,17.9-34.4,29.3-52.3,31.7c-4.3,0.6-8.5,0.8-12.4,0.8c-35.2,0-56.2-21-69.5-39.1 c-23.3,0.2-46.2,1.1-68.3,2.1c-14.6,0.6-29.7,1.3-44.9,1.7c0.2,3.5,0.6,6.9,1.1,10.4c0.7,5.1,1.4,10.3,1.3,16.4 c0.7,0.1,1.3,0.1,1.8,0.2c3.8,0.3,8.1,0.6,11.9,2.7c0.8,0.4,1.5,1,2.1,1.6c43.2,46.7,119.8,106.3,239.7,124.7 c3.4,0.5,7.9,1.1,13.1,1.8c47.3,6,89.7,13.3,88.6,36.8c-0.4,9.7-5,15-8.7,17.8c-12.5,9.5-33.9,4.5-51.2,0.5c-2-0.5-4.3-1-6.5-1.5 c0.4,11,0.7,22,1,32.8c1,36.3,2.1,73.6,5.5,108.1c43.6-18.8,86.5-40.5,131.7-63.4c45.7-23.1,92.8-46.9,141-67.6 c-1.1-0.8-2.1-1.6-3.1-2.6c-4.4-4.6-6.3-11-5.7-19c0.8-9,5-15.1,12.6-18.1c5.7-2.2,12.5-2.4,20.4-2.7c4-0.1,8.2-0.3,12.6-0.7 c0.1,0,0.3,0,0.4,0c116.7-10,230.7-46.4,338.7-108.4c92.4-53,178.7-124.2,249.5-206C1870,2397.2,1871.5,2396.3,1873.2,2395.9z M606.3,2093.5c-1.6-1-2.8-2.4-3.4-4.2c-1.2-3.3-4.5-9-8.1-15c-10.3-17.5-22-37.4-15.9-51.9c1.8-4.2,5.9-9.8,15.4-12.3 c12.8-3.3,26,1.9,36.1,14.1c13.2,16,20.7,44.4,9.5,67.8c-1.3,2.8-4.1,4.6-7.2,4.6h-0.1c-2.4,0-4.6-1-6.1-2.8 c-0.5,0.1-1,0.3-1.4,0.4C620.9,2095.7,613.8,2098.1,606.3,2093.5z M624.8,2305.2c-2,0.3-4,0.5-5.8,0.5c-11.8,0-20.2-6.4-22.4-17.5 c-1.6-8.3,0.6-16.5,6.5-23.7c0.9-1.1,1.9-2.1,2.9-3.1c-4.9,1-10,1.6-14.8,1.6c-6.9,0-13.4-1.2-18.7-3.8 c-7.7-3.9-12.1-10.6-12.4-18.9c-0.2-6.3,2.2-12.2,6.8-17c10.9-11.2,33.5-15.3,49.6-15.4c0.6,0,1.6-0.1,2.7-0.2 c6.3-0.6,23-2.3,25.5,19.4c0.8,7-2,13.9-8,19.7c2.2-0.3,4.2-0.5,6.2-0.5c0.4,0,0.8,0,1.3,0c5.5-0.1,22.4-0.5,24.8,19.1 C671.1,2283.7,643.7,2302.2,624.8,2305.2z M865.5,2218.7c-8.9,23.2-20.7,46.5-27,53.2c-13,13.8-33.4,22.4-56,23.5 c-1.7,0.1-3.4,0.1-5.1,0.1c-21.2,0-41-6.8-55-19.1c-28.2-24.7-36.7-65.5-40.6-99.6c-11.4-6.2-18.8-19.6-17.2-32.3 c1.1-8.6,7.2-18.1,20.7-20.9c1.7-7.2-1.7-10.2-7.6-15.4c-5.6-4.9-12.6-11-12.6-21.7c0-14.7,6.7-20.3,12.3-22.4 c7.9-3,18.4-0.7,31.2,6.9c9.8,5.8,18.6,13.3,23,18.2c1.5,1.7,2.2,3.9,2,6.1c-2.7,29-11,117.3,19.4,145.2 c8.5,7.8,19.6,10.4,33.8,7.8c21.9-4,32.7-37.2,38-64.3c0.3-1.4,0.6-3.6,0.9-6.1c2-14.5,5.1-36.4,18.5-44.7 c3.9-2.4,10.4-4.7,19.2-1.8c0.4,0.1,0.7,0.3,1.1,0.5c5,1.9,11.1,6.3,13.7,16.5C882.9,2167,873.9,2196.9,865.5,2218.7z M923.3,1986.7c-2.3,19.3-19.5,38.8-44.9,50.7c-13.3,6.2-46.8,15.5-73.6,15.5c-9.5,0-18.2-1.2-24.8-4.1 c-8.8-3.9-12.3-9.9-13.6-14.3c-4.5-14.5,5.2-32.6,28.7-53.9c16.3-14.8,36.8-28.4,46.4-32.6c9-4,17-5.4,28.6-6.7 c0.4,0,0.9-0.1,1.3,0c19.4-1.9,33.7,1.6,42.6,10.6C921.9,1959.8,925.1,1971.6,923.3,1986.7z M1287.8,2026c1.3-10,7.7-27.4,36.3-32 c9.7-1.6,23.5,1.4,30.9,3.3c11.5,3,23,7.3,30.9,11.7c9.5,5.2,24,16,36.2,26.7c23.9,21.2,24.4,29.3,24.5,32.3 c0.5,9.6-3.5,17.6-11.7,23.3c-10.4,7.2-26.7,9.8-43.8,9.8c-24.4,0-50.5-5.4-63.4-10.6c-0.5-0.1-1-0.3-1.5-0.5 C1305.7,2080.9,1284.6,2050.9,1287.8,2026z M1333.6,2365.1c-0.6,0-1.3,0-1.9,0c-28,0-51.7-11.1-68.9-32.2 c-15.7-19.3-25.4-46.3-28.2-78.1c-3.2-38.2,0.7-58.4,12.7-65.4c7.2-4.3,16-3.1,26,3.6c1.8,1.2,3.1,3.1,3.5,5.3 c2,11.2,3.4,22.8,4.8,34.1c2.7,22.5,5.2,43.8,12.2,59.6c7.1,16.2,17.7,23.9,34.3,25c48.3,3.1,78.5-49,82.4-99.6 c0.4-5.5-0.1-12.2-0.7-19.3c-1.1-14.3-2.4-30.5,3.2-45.4c5.5-15,23.9-29.8,42.7-34.4c13.8-3.3,26.1-0.8,34.8,7.1 c1.4,1.3,2.3,3,2.5,4.8c3.4,24.7-13.7,32.1-24.9,36.9c-3.4,1.5-6.7,2.9-9.3,4.5v14c10.3-1.6,23.8-1,32.2,9.6 c6.1,7.8,6.6,18.5,1.2,27.2c-6.5,10.6-19.3,15.8-35.1,14.5C1438.3,2320.7,1396.8,2363.9,1333.6,2365.1z M1463.8,2391.4 c-1.7,0-3.5-0.2-5.1-0.7c-4.6-1.2-10.7-4.9-13.8-14.9c-6.1-19.6,16-37.1,27.8-46.5c1.2-0.9,2.2-1.8,3-2.4c2-1.7,4.4-3.8,6.9-6 c12.4-10.9,27.7-24.4,41.8-26.1c11.3-1.4,24.1,3.1,27,16.4c0.1,0.5,0.2,1,0.2,1.4c3.1,19-15.6,31.7-29.4,41.2c-3,2.1-5.9,4-8.1,5.8 c-1.4,1.1-3.6,3.1-6.1,5.4C1493,2378.4,1477.4,2391.4,1463.8,2391.4z M1583.4,2371.1c-8.7,7.9-18.1,14.7-26.7,19.1 c-7.9,4-14.8,6.1-20.8,6.1c-2.4,0-4.7-0.3-6.8-1c-12-3.8-15.5-10.5-16.4-15.4c-2.5-14,13.3-27.8,28.4-39.6l1.7-1.3 c2.4-1.9,5-4.4,7.7-7c8.2-7.8,18.2-17.5,31.7-18.8c0.4-0.1,0.8-0.2,1.2-0.2l0.1,0c12.8-1.9,21.9,4.2,24.6,16.4 C1611.2,2343.9,1591.9,2363.4,1583.4,2371.1z M1897.6,2315.8c7.8-3.9,23.9-10.7,43-12.9c0.7-0.1,1.9-0.3,3.2-0.6 c6.3-1.3,17-3.5,25.2,2.1c4.7,3.3,7.7,8.4,8.8,15.3c1.5,9.5-1.8,17-9.5,22c-5.7,3.6-13.1,5.5-20.9,7.4c-4.4,1.1-9,2.2-13.3,3.7 c-3.9,1.3-9,4.1-14.4,7.1c-10.3,5.7-20.9,11.6-30.6,11.6c-2.7,0-5.2-0.4-7.7-1.4c-5.8-2.3-9.8-7.2-12-14.5 C1866.1,2345.3,1868.4,2330,1897.6,2315.8z" style="fill-rule: nonzero; paint-order: fill; fill: url(#gradient-6);"/>
    <path class="st0" d="M969.8,3693.5c1.4,13.6,4.4,31.7,13.8,39.6c34.7-29.8,35.4-107.5,36.1-170.4c0.1-12.1,0.2-23.8,0.6-34.6 c-16.6-1.4-30.8-5.3-44.5-9.1c-0.5,18.5-1.9,38.8-3.5,60.2C969.5,3619,966.5,3660.2,969.8,3693.5z" style="fill-rule: nonzero; fill: url(#gradient-7); paint-order: fill;"/>
    <path class="st0" d="M1884.1,1289.5c-35.1-30.3-73.7-57.4-115.2-81c66,74.6,138.1,136.9,211.8,182.9 C1951.5,1354,1919.2,1319.8,1884.1,1289.5z" style="fill-rule: nonzero; fill: url(#gradient-8); paint-order: fill;"/>
    <path class="st0" d="M1968.8,850.8c0.2-0.3,0.3-0.5,0.5-0.8C1969.1,850.3,1968.9,850.5,1968.8,850.8z" style="fill-rule: nonzero; fill: url(#gradient-9); paint-order: fill;"/>
    <path class="st0" d="M2024.5,1597.1c64.8,39.7,150.4,86,238.5,91.7c0.1,0,0.2,0,0.3,0c37.2,2.4,65.3-7.5,79-27.7 c13.5-19.9,12.8-49-2-80c-10.7-22.5-31.6-44.3-53.8-67.3c-9.3-9.7-18.9-19.7-27.8-29.8c-27.9-31.8-59.9-62.1-90.3-90.3 c-22-20.4-43.7-40.8-64.6-60.6c-43.5-41-84.6-79.8-125.1-114.9c-29.4-25.6-55.5-49.9-80.7-73.4c-36.1-33.7-70.3-65.5-110.9-98.1 c-3.6-2.9-7.3-5.9-11-8.8c-62.4-50.1-133.2-107-212.3-129c-16.2-4.5-51.5-9.2-59.1-7.9c0,0-0.1,0-0.1,0c-1.9,0.3-3.6,0.1-4.9,0 c-0.2,0-0.4,0-0.6-0.1c-42.1,16.1-22.8,97-12.5,131.3c7.2,23.6,18.9,53.2,29.8,75.5c73.9,150.3,185.5,247.8,312.9,350.8 C1896.5,1512.4,1958.5,1556.5,2024.5,1597.1z M1591.5,1099.9c-3.2,6.3-9.5,10-18.8,11.1c-0.5,0-1,0.1-1.4,0.1 c-5.5,0-11.3-3.3-17.7-9.9c-21.6-22.6-51.8-86.8-48.3-110.4c1.6-10.6,7.5-17.5,17.7-20.6c5.8-1.8,11.6-1.3,16.7,1.4 c12.9,7,18.6,27.4,23.6,45.3c2,7.2,3.9,13.9,5.8,18.3c1.8,4.1,4.9,9.4,8.1,15C1587.6,1068,1598.3,1086.5,1591.5,1099.9z M1668.6,1209c-2.3,18.7-14.2,20.9-19.2,21c-0.1,0-0.3,0-0.4,0c-19.4,0-44.7-28.2-48.1-48.4c-2.1-12.4,3.5-21.9,14.9-25.6 c10.7-3.5,23.1,4.9,29.5,10.2C1658.2,1176.9,1670.5,1194.3,1668.6,1209z M1707.1,1213.2c-40.2-49.4-84.5-108.4-100.6-183.2 c-0.6-2.7,0.3-5.5,2.2-7.4c7.8-7.6,15.7-10.8,23.5-9.2c15.5,3,24.1,22.5,33.1,43.2c2.3,5.2,4.4,10.1,6.6,14.6 c11.5,23.4,23.5,44,30.5,55.5c75.1,26.9,143.8,66.4,204,117.4c55.6,47.1,104.9,103.8,150.8,173.6c0.7,1,1.1,2.2,1.3,3.4 c1,7.9,0,14.8-2.8,20.8c23.5,14.5,44.7,25.3,73.2,39.7c0.3,0.2,0.7,0.4,1,0.6c2.1,1,5,2.4,8.3,3.8c35.8,16.4,70.3,34.3,65.7,56.9 c-1.9,9.3-7.1,13.4-11.1,15.3c-2.8,1.3-5.8,1.8-9,1.8c-11.7,0-25-7.5-33.7-12.4c-0.8-0.5-1.6-0.9-2.3-1.3 c-16.2-9-32.7-17.7-48.6-26c-30.4-16-59-31-87.2-48.9C1876.3,1385.1,1782.2,1305.4,1707.1,1213.2z" style="fill-rule: nonzero; paint-order: fill; fill: url(#gradient-10);"/>
    <path class="st0" d="M681.7,2916.9c16.3-2.9,25.6-19,33.9-33.2c1.3-2.2,2.5-4.3,3.7-6.3c-12.6-12.3-26.1-24.1-39.2-35.6 c-43.3-38.1-88-77.5-110.9-138.5c-36.4-32.9-44.6-105.5-36.9-163.6c-11.7,0.7-23.7,1.1-35.3,1.5c-23.9,0.8-48.5,1.7-70.3,4.8 c1.1,17.5,8.2,27.5,26.4,38.9c3.9,2.5,13,4.9,21.8,7.2c21.2,5.6,47.7,12.6,46.6,32.4c-0.6,10.8-5.5,16.2-9.6,18.9 c-13.1,8.7-34.2,1-52.8-5.7c-7.1-2.6-15.2-5.5-18.6-5.6c-16.4-0.5-26.6,4.6-30.3,15.1c-7,19.7,7.9,51.2,21.3,61.4 c13,9.7,60,28.3,93.2,32.8c3.8,0.5,7.4,0.8,10.8,1.2c7.8,0.7,14.5,1.3,19.9,4c7.2,3.5,10.7,10,10.6,19.2c-0.2,7.7-3.2,14-8.9,18.3 c-15.9,11.9-47.2,4.7-77.9-3.7c-2.7-0.7-5.4-1.5-7.5-2c-12.9,13.8-9.9,21.9-8.9,24.7c4.3,11.5,22.2,22.8,50.3,31.8 c27.6,8.8,56.8,12.8,73.5,13.6c2.6,0.1,5.6-0.2,8.8-0.5c9.7-0.9,21.8-2,29.4,7.6c9.8,12.2,7.6,21.1,4.1,26.3 c-11.4,17-55.2,15.7-77.2,12.5c0.7,2.4,2.1,4.6,4.2,6.7C575.2,2920.8,643.3,2923.7,681.7,2916.9z" style="fill-rule: nonzero; fill: url(#gradient-11); paint-order: fill;"/>
    <path class="st0" d="M1972.9,2848.8c-24.8-24.7-86.9-23.8-132.3-23.1c-15.7,0.2-31.9,0.6-47.5,1c-36.2,0.8-70.4,1.6-100.1,1 c-72.1-1.4-151.4-17.7-242.2-49.8c-1.3,5.7-2.8,11-4.3,16.3c-2,7-3.9,13.7-5.2,20.9c48.3,22.9,95.1,56.2,132.2,94 c23.2,23.8,78,86.4,85,154.3c2,19.8-0.3,39.1-6.8,55.8c-6.5,16.7-16.8,30-29.8,38.5c-21.6,14-48,13.4-74.3-1.7 c-25.8-14.8-38.5-44.4-50.9-73.1c-8.5-19.7-17.2-40.2-30.2-56c-23.7-29-48.3-39.7-84.4-54.1c-29.4,34.6-57.6,76.8-88.2,132.1 c11.7,23.5,28.8,48.9,45.4,67.1c11.1,12.1,33.4,35.1,57.9,53.3c27.1,20,49.9,28.8,66,25.5c12.2-2.6,21.3-12.2,27.5-29.5 c-1.2-2.8-5.3-6.1-9.4-9.3c-8.7-6.8-21.7-17.1-16.2-34.9c2.8-9.1,7.7-14.6,14.6-16.4c14.2-3.7,30,11.1,43.9,24.2 c5.2,4.9,10.6,10,13.9,11.9c17.5,10.4,42.8,18,67.9,20.4c27.6,2.6,51.4-1.5,66.9-11.4c15.2-9.7,22.3-25.1,21.1-45.7 c-5.2-2.5-10.8-3.9-16.3-5.2c-12-2.9-28.5-6.8-26.5-28.8c0.5-5.3,2.9-9.8,7-12.9c11.9-9.1,35.2-5.2,62.1-0.6 c16,2.7,32.6,5.5,43,4.4c18.9-2,43-11.4,61.5-23.8c12.2-8.1,32.3-24.7,30.4-44.3c-0.5-5-7.2-14.4-24.7-25.7 c-14.3-9.3-30.2-16.1-37.8-17.8c-5.7-1.3-14-1.3-21.9-1.4c-16.7-0.1-33.9-0.3-42.5-10.6c-4.2-5-5.6-11.6-4.2-19.4 c3.9-22.2,46.3-19.9,87.4-17.6c12.5,0.7,24.3,1.4,31,0.9c32.5-2.4,65.3-10.9,89.9-23.4c15.6-8,52-29.3,52.2-55.5 C1984.1,2866,1980.5,2856.4,1972.9,2848.8z" style="fill-rule: nonzero; paint-order: fill; fill: url(#gradient-12);"/>
    <path class="st0" d="M1951.1,2462.8c7.7-2.5,13.4-7.2,19.5-12.2c8.2-6.8,17.6-14.4,31.4-14.5c0.1,0,0.1,0,0.2,0 c13.3,0,22.7,5.9,31,11.1c7.6,4.8,14.2,8.9,23.4,9.1c28.9,0.5,50-13.6,64.5-43.1c11.5-23.2,18.3-55.1,20.2-94.7 c4.1-81.2-6.6-180-30.1-278.4c-16.8-70.6-44.8-132.2-67.2-181.7c-5.4-12-10.7-23.5-15.4-34.4c-13,8.1-27.7,14.7-39,9.6 c-4.6-2.1-10.4-7-11.7-18.6c-1.4-12.6,9.7-22.6,19.5-31.4c4.4-3.9,8.9-8,11.6-11.6c0.1-0.3,0.3-0.6,0.5-0.8 c17.8-26.3,33.5-69.4,41.8-102.6c-76.1-42.8-149.9-92.6-225.4-151.8c-64.2-50.3-130.4-108.3-202.2-177c-14.5,1.8-29.1-0.6-44.5-3.3 c-15.8-2.7-32.1-5.4-48.8-3.4c-45.5,5.5-78.9,13-104.9,23.7c-9.4,3.8-19.5,10.5-30.2,17.6c-17.7,11.8-36.1,23.9-55,25.4 c-1.3,0.1-2.6,0.1-4,0.1c-18.7,0-40.8-9.4-62.1-18.6c-11.6-5-22.5-9.6-31.5-12.1c-73-20-152.4-23.8-229.6-11 c-74,12.3-141,38.7-193.8,76.4c-48.1,34.4-90,83.5-114.7,134.7c-14.6,30.2-23.4,61.1-26.3,91.9c-3.2,34.2,1,68.4,12.6,101.6 c0.7,1.9,0.6,4-0.2,5.9c-6.9,15.4-14.8,33.8-22,53.9c-0.4,1.2-1.1,2.3-2.1,3.1c-22.1,20.9-57.7,38.3-95.4,56.8 c-47.4,23.3-96.4,47.3-121.9,79.6c-17.4,22.1-20.4,49.1-8.1,72.3c12,22.6,35.6,36.5,63.2,38.1c-16.9-35.7-12.8-72,11.8-99 c14.8-16.3,35.7-27.5,59-31.8c21.7-3.9,43.9-1.7,64.6,6.5c18.2-59.7,37.3-110.8,58.4-156c1.2-2.5,3.5-4.2,6.3-4.6 c2.7-0.3,5.5,0.8,7.2,2.9c19,23.5,69.3,18,97.3,4c3.6-40.3,9.8-73.6,19-101.5c10.6-32.1,25.4-58.4,45.3-80.6 c27.2-30.1,45.3-41.7,58.6-37.7c5.2,1.6,11.8,6.2,13.8,19.7c1.9,13-11.5,27.1-25.8,42.1c-2.3,2.4-4.5,4.7-6.6,7 c-15.8,17.2-30.9,41.7-41.5,67.3c-8.8,21.3-18.5,53.5-15.1,86c2.8,26.5,16,46.3,38.2,57.4c16,8,35.9,11,57.5,8.8 c20.3-2.1,40.8-8.7,59.5-19.1c-6.1-58.3-0.8-113.5,15.1-156c3.5-9.2,11.9-29.6,21.6-47.8c14.5-27.3,25.9-39.1,37.1-38.1 c10.2,0.8,15.2,6.3,17.6,10.7c7.2,13.2,0.2,33.5-5.1,43.5c-4.6,8.5-9.3,15.6-13.4,21.9c-4.4,6.6-8.2,12.4-10.6,17.9 c-13.1,30.2-17.5,86.8-17.5,107.9c0.1,16.8,2.4,40.8,5.6,49.8c6.2,17.5,24.1,31.1,50.4,38.4c38.3,10.5,85.6,5,110.7-12.5 c-10-41.1-8.8-97.3,3.3-148.2c0.5-2.1,1.1-4.7,1.8-7.7c9.5-42.1,20.6-83,43.1-81.2c6.5,0.5,11.8,3.4,15.3,8.3c8,11,4.9,29.2,1.9,42 c-2.5,10.8-5.3,20.8-7.6,29.6c-1.7,6.1-3.2,11.9-4.5,16.9c-10.8,43.4-13.6,86.2-7.8,120.5c4.5,26.9,16.8,61.9,49.6,76.2 c36,15.8,99.6,13.9,129-11.1c-9-28.9-10.8-64.6-12.6-99.2l-0.3-5.1c-0.2-3-0.5-7.3-1-12.4c-3.4-39.6-5.6-79.5,7.6-94.6 c3.5-4,8-6.2,13.1-6.5c5.3-0.2,10.1,1.7,14,5.5c14.8,14.4,15.3,55.6,14.5,103.9c-0.2,11.7-0.4,21.7,0.1,27.2 c4.6,57.2,18,96.3,35.8,104.5c29.7,13.6,61.8-1.6,90.2-15.3c-6.1-23.9-9.7-47-12.7-79.7c-0.1-1.4-0.3-3.2-0.5-5.2 c-3.1-30.6-4.2-60.7,9.1-74c4.8-4.9,11.2-7.1,18.4-6.4c5.4,0.5,10.1,3.1,13.5,7.3c9.1,11.2,8.4,31.7,6.2,52.3 c-0.2,1.9-0.4,4-0.4,4.7c2,47.5,11.8,101.5,29.2,115.1c13.1,10.2,31.7,10.9,49.7,1.9c18.6-9.4,37-30.3,36.4-56c0-2-1.4-6.8-2.7-11 c-3.7-12.8-8.4-28.8-0.1-38.8c4.6-5.5,11.8-7.8,21.6-6.9c16,1.6,18.6,12.6,20.8,22.4c0.8,3.6,1.7,7.4,3.2,11.8 c32.3-12.7,62.6-32.2,97.2-62.5c1-0.9,2.3-2.1,3.9-3.6c10.2-9.7,25.7-24.5,40-20.2c12,3.6,15.7,10.5,16.7,15.7 c2.6,13.5-9.6,30.2-39.5,54.2l-0.8,0.6c-7.8,6.2-15,11.5-21.4,16.1c-8.7,6.3-16.4,11.9-22.4,17.7c-8.4,76.6-11.3,140.5-8.9,195.2 c3.1,70.7,15.2,124.4,36.1,159.8c17.8-9.2,44.8-13,72.8-10.2c2.3-39.6,2.2-90.6-0.5-129.9c-0.1-1.7-0.7-4.8-1.2-8 c-2.5-14.4-5.9-34.1,3.2-45.4c3.8-4.7,9.2-7.3,15.8-7.6c6-0.3,11.5,1.7,15.8,5.8c12.9,12,13.7,40.4,14.3,63.2 c0.1,4.1,0.2,7.9,0.4,11.3c0.2,3.2,0.3,6.3,0.5,9.5c2.5,46.4,4.8,86.9-4.6,117.9c19.5,10.2,32.8,29.1,37.6,53.9 c7.4,37.5-5.2,81.9-29.9,105.7c-26.8,25.9-69.4,35.4-130.2,29.1c-1.6,2.6-3.4,4.9-5.1,7c-1.2,1.5-2.3,2.9-3.2,4.3 C1910.3,2466.1,1929.2,2469.9,1951.1,2462.8z M824.2,1531.5c-4.3,2.8-8.3,5.5-10.3,7.4c-8.2,8-27.3,30.2-40.9,56.5 c-3.4,6.7-5.8,16.9-8.1,26.8c-4.3,18.6-8.7,37.9-22.4,44c-2.8,1.2-5.7,1.9-8.8,1.9c-5,0-10.3-1.6-16.1-4.7 c-2.3-1.3-3.9-3.6-4.1-6.2c-3.2-32.6,8.3-72.9,31.4-110.6c22.4-36.4,51.8-63.8,78.8-73.4c0,0,0.1,0,0.1,0c6-2.1,13.6-1.2,19.9,2.3 c5.6,3.1,9.4,7.9,10.7,13.6C859,1508.7,838.9,1521.9,824.2,1531.5z M938.8,1454.4c-1.2,0.1-2.7,0.2-4.3,0.2 c-6.1,0-14.3-1.1-20.3-6.1c-1.1-1-2-2.2-2.5-3.6c-2.3-6.8-3-13.6-2.4-21.4c0.1-1.2,0.5-2.3,1.1-3.4c4.7-8.2,15.9-13.6,28.5-13.8 c11.5-0.2,20.8,4,25.5,11.6c0.7,1.1,1.1,2.3,1.2,3.5c0.7,7.6-0.1,14.7-2.4,21.5c-0.4,1.3-1.2,2.4-2.2,3.3 C956.4,1450.6,948.1,1453.7,938.8,1454.4z M949.4,1745c-6,9.2-12.2,18.8-14,26.4c-1.5,6-2,12-2.5,17.3 c-1.1,12.5-2.6,28.1-20.9,29.2c-0.6,0-1.1,0.1-1.7,0.1c-6.3,0-11.8-2.3-16.1-6.6c-7.1-7.2-10.2-19.8-8.9-36.4 c1.3-17,10.7-39.4,19-54.8c8-14.9,19.9-33,32.2-36.8c0.5-0.2,1.1-0.4,1.6-0.5l0.1,0c13.3-2.8,23.5,2.2,27.3,13.4 C970.8,1711.9,959.9,1728.7,949.4,1745z M1129.4,1776.6c-2,8.5-4.1,17.2-4.1,21.3c0,5.3,0.5,10.4,0.8,14.9 c0.9,11,1.7,20.4-4.2,27.1c-3.6,4.1-9,6.2-16.4,6.4c-0.3,0-0.5,0-0.8,0c-6.2,0-11.7-2.2-16-6.3c-10-9.7-11.5-27.5-11.6-42 c-0.2-17.6,1.3-75.6,29.8-84.5c0,0,0,0,0,0c9.4-2.9,16.9-1.8,22.2,3.2C1140.9,1727.6,1135.1,1752.5,1129.4,1776.6z M1330.7,1880.5 c-6.3,5.6-12.6,8.6-18.8,8.9c-0.3,0-0.7,0-1,0c-5.9,0-11.3-2.4-15.9-7.1c-9.5-9.6-15.4-29.7-15.9-53.7c-0.5-24,4.7-44.2,13.8-54.1 c4.7-5,10.4-7.6,16.7-7.5c6.1,0.2,12.5,3,19,8.4c2,1.7,3.1,4.3,2.8,6.9c-2.8,30.3-2.2,60.9,2,91.1 C1333.7,1876.1,1332.7,1878.8,1330.7,1880.5z M1501.1,1378.1c-1.1,20.8-35.1,32.1-64.6,39.6c-0.6,0.2-1.3,0.2-2,0.2 c-1.2,0-2.5-0.3-3.6-0.9c-12.2-6.2-17.3-16.4-13.6-27.4c6.7-19.8,43.6-39.7,65.8-35.4C1495,1356.6,1501.7,1365.5,1501.1,1378.1z M1549,1905.5c-0.6,1.9-2,3.5-3.8,4.4c-5.4,2.9-10.6,4.4-15.9,4.4s-10.6-1.5-15.9-4.4c-1.7-0.9-3.1-2.5-3.7-4.4 c-7.5-21.2-8.6-47.8-8.6-73.4c0-1.8,0.6-3.6,1.7-5c13.1-16.5,23.9-15.6,30.5-11.9c12,6.6,16.6,26.8,18.3,42.6 C1553.7,1875.9,1552.6,1895,1549,1905.5z M1698.4,1905.9c-0.6,1.6-1.8,2.9-3.2,3.8c-5.2,3.2-10.3,4.8-15.2,4.8 c-6.8,0-13-3.1-17.9-9.3c-14.9-18.9-13.9-64.7,1.9-80.3c8.6-8.5,20.6-8.1,31.9,1.1c1.7,1.4,2.8,3.5,3,5.7 c0.3,4.9,0.8,10.4,1.4,16.2C1702.3,1868,1704.5,1890.7,1698.4,1905.9z" style="fill-rule: nonzero; paint-order: fill; fill: url(#gradient-13);"/>
    <path class="st0" d="M514.7,3161.4c16.2-2.1,31.8-4.2,46.3-5.5c-6.2-16-13.2-30.4-19.7-42.8c-20.4,2.6-44.2,6.7-67.4,10.7 c-13.2,2.3-26.9,4.7-40,6.8c-5.8,0.9-11.9,1.7-17.7,2.5c-26.2,3.4-51,6.5-60.3,22.7C395.5,3177.1,458.7,3168.8,514.7,3161.4z" style="fill-rule: nonzero; fill: url(#gradient-14); paint-order: fill;"/>
    <path d="M1694.3,297.5c7.2,5.3,13.9,7.9,19.9,7.9c2.8,0,5.4-0.5,7.9-1.6c15.9-6.9,18.8-32.8,21.4-55.6c0.6-5.3,1.2-10.4,1.9-14.4 c2.3-13.7,4.2-26,6.1-37.9c2-12.9,3.9-25.2,6-36.7c2.6-14.4,5.5-28.7,8.4-42.5c8.1-38.9,15.7-75.7,11.9-105.3 c-0.2-1.2-0.6-2.4-1.3-3.5c-4.8-7.1-17.3-9.2-26-7.1c-7,1.7-11.7,6.2-12.7,12.2c-18.5,85.1-38.9,183.7-46.6,277.5 C1690.9,293.2,1692.1,295.9,1694.3,297.5z" style="fill-rule: nonzero; fill: url(#gradient-15); paint-order: fill;"/>
    <path d="M2274.3,396.2c0.2,0,0.5,0,0.7,0c16.8-0.5,29.5-20.4,38.7-34.9c0.7-1.1,1.4-2.2,2.1-3.3c0,0,0,0,0,0 c10.5-16.3,19.2-31.4,27.7-46c7-12,13.5-23.3,20.8-34.9c1.3-2.2,3.2-4.8,5.1-7.6c9.2-13.2,20.6-29.7,15.9-43.7 c-4.2-12.2-11.3-15.5-16.5-16.1c-13.1-1.5-27.8,12-47.7,43.8l-0.6,1c-1.9,3-3.9,6.1-5.9,9.3c-22.1,35.1-49.5,78.9-63.4,110.9 c-1.1,2.6-0.8,5.6,0.9,7.9C2258.7,391.6,2266.1,396.2,2274.3,396.2z" style="fill-rule: nonzero; fill: url(#gradient-16); paint-order: fill;"/>
    <path d="M1138.4,318.5c9.1,20.4,17.6,39.2,25.9,57.3c7.6,16.6,14.7,32.2,22.3,49.1c0.1,0.3,0.2,0.5,0.3,0.8 c0.7,1.6,1.5,3.3,2.2,5.1c5.4,12.7,12.1,28.4,25.8,32.9c2.3,0.8,4.7,1.1,7.2,1.1c5.3,0,10.8-1.7,16.6-5.2c2.5-1.5,4-4.3,3.9-7.3 c-1.6-29.7-13-53.8-26.2-81.8c-4.2-8.8-8.5-17.9-12.8-28c-3-6.9-6.6-14-10.4-21.5c-4.5-9-9.3-18.2-13.9-29 c-0.7-1.6-1.7-4.7-2.8-8.3c-7.2-22.1-14.8-42.1-29.2-45c-6.5-1.2-13.5,0.5-19.8,4.8c-6.2,4.2-10.8,10.4-11.8,15.6 c-1.5,7.6,4.3,21.1,17.6,48.4C1135.4,312.2,1137.3,316.1,1138.4,318.5z" style="fill-rule: nonzero; fill: url(#gradient-17); paint-order: fill;"/>
    <path d="M1650.5,664.7c0,0,0.1,0,0.1,0c0,0,0.1,0,0.1,0c0,0,0.1,0,0.1,0c23.4-0.2,28.2-35.6,32-64.1c0.6-4.8,1.3-9.4,1.9-13.3 c5-30.8,10-59.1,14.8-86.4c4.4-25.3,9-51.4,13.5-79.2c0.9-5.6,2.5-12.7,4.3-20.4c8.1-35.9,12.9-62.1-0.4-72.9 c-6.5-5.3-15.7-5.4-27.2-0.1c-0.9,0.4-1.7,1-2.4,1.7c-10,10.3-14.8,36.3-20.1,69.1c-0.8,5-1.6,9.8-2.3,13.9 c-5,28.8-9.6,56.6-13.9,83.5c-4.5,27.6-9.1,56.2-14.4,86.1c-0.6,3.4-1.6,7.8-2.7,12.5c-5,21.5-11.1,48.4-0.4,61.8 C1636.3,660.5,1641.5,664.6,1650.5,664.7z" style="fill-rule: nonzero; fill: url(#gradient-18); paint-order: fill;"/>
    <path d="M2009.8,812.8c1.3,0.8,2.8,1.2,4.3,1.2h0.1c0.4,0,0.8,0,1.2-0.1c18.2-2.7,27.5-19.6,34.9-33.2c1.7-3.2,3.4-6.2,5-8.8 c35.5-56.6,71.4-113.5,106-168.5c24.7-39.2,50.3-79.8,75.7-120.3l1.3-2c17.3-27.4,30.9-51.3,21.1-65c-7.9-11.1-25.3-7-31-5.7 c-1.9,0.5-3.6,1.6-4.8,3.3c-28.9,42.3-59.3,91.7-88.8,139.4c-10.7,17.4-21.8,35.4-32.6,52.7c-28.8,46-58.7,94.3-88.9,143.5 c-1,1.7-2.4,3.7-3.9,5.9c-7.1,10.3-16.8,24.4-13.8,38.7C1997.2,801.5,2002,807.9,2009.8,812.8z" style="fill-rule: nonzero; fill: url(#gradient-19); paint-order: fill;"/>
    <path d="M1223.9,496.6c-1.5,2.2-1.8,5.1-0.8,7.6c35.1,83.6,68.9,161.4,100.6,231.4c0.1,0.4,0.3,0.8,0.4,1.2c1,2.3,2.5,5.9,4.1,10.2 c9.1,23.5,23.8,61.6,46.1,61.6c1.8,0,3.7-0.3,5.7-0.8c7.8-2.2,11.6-7,13.4-10.6c5.5-11.3-0.8-26.3-3.4-32.7 c-0.3-0.6-0.5-1.1-0.6-1.5c-10.6-27.8-19.9-47.6-29.8-68.7c-5.3-11.3-10.8-23-16.8-36.7c-8.2-18.5-16.7-36.8-25-54.4 c-9.6-20.7-19.6-42.1-29.5-64.8c-1.4-3.1-2.8-6.6-4.3-10.2c-8.8-21.3-18.7-45.4-35.5-47.1C1239.9,480,1231.6,485.3,1223.9,496.6z" style="fill-rule: nonzero; fill: url(#gradient-20); paint-order: fill;"/>
    <path d="M2748,585.2c-5.6-2.7-11.5-2.7-16.4-0.2c-18,9.2-38.4,27.8-58,45.8c-11.8,10.8-22.9,20.9-31.9,27.5 c-3.1,2.3-4.2,6.4-2.5,9.9c5.4,11.5,12.8,18.4,22,20.3c1.8,0.4,3.6,0.6,5.5,0.6c16.3,0,32.7-14.4,47.3-27.2c2.9-2.6,5.7-5,8.3-7.1 c2.2-1.8,5-4,8-6.3c16.4-12.4,36.8-27.9,33.1-46C2761.8,596.2,2755.1,588.5,2748,585.2z" style="fill-rule: nonzero; fill: url(#gradient-21); paint-order: fill;"/>
    <path d="M2405,879c5.9,4.8,12.4,7.1,19.2,7.1c5,0,10.2-1.3,15.5-3.8c9.8-4.6,19-12.8,27.1-20c3.1-2.7,6-5.3,8.8-7.6 c17-13.8,33.1-27.1,48.8-40c19.6-16.1,39.9-32.8,62.3-50.9c3-2.4,7.1-5.4,11.4-8.6c21.2-15.5,45.2-33,42.4-51.4 c-1.4-9-8.8-15.9-22-20.4c-2.4-0.8-5.1-0.5-7.1,1c-35.8,24.6-77.9,59.2-118.6,92.6c-16,13.1-31.1,25.5-45.5,37.1 c-3,2.4-6.4,4.8-10,7.4c-16.7,11.8-37.5,26.5-35.3,52.1C2402.2,875.6,2403.3,877.7,2405,879z" style="fill-rule: nonzero; fill: url(#gradient-22); paint-order: fill;"/>
    <path d="M845.1,792.2c1.9,1.6,3.8,3.3,5.7,5c0.2,0.3,0.5,0.5,0.7,0.8c83.9,75,154.3,136.7,228.3,200.1 c10.3,8.8,24.2,18.2,36.1,18.2c2.5,0,4.9-0.4,7.1-1.3c4.9-2,11.1-7.1,12.4-20.2c1.2-12.9-12.5-25-29.2-38.4 c-2.4-1.9-4.4-3.5-5.8-4.8c-31.5-27.6-63.3-55.7-94-82.9C951.7,820,895,769.8,839.7,722.8c-0.6-1.3-1.5-2.7-3.1-3.9 c-2.2-1.6-5-2.1-7.9-1.4c-2.1,0.5-3.9,1.8-5,3.7C802.9,755.7,825.3,775.1,845.1,792.2z" style="fill-rule: nonzero; fill: url(#gradient-23); paint-order: fill;"/>
    <path d="M1622.2,822.2c0,0,0.1,0,0.1,0c14.9-0.1,21.7-12,24.8-22.1c3.3-10.6,4.2-23.6,5.1-36.2c0.6-7.8,1.1-15.2,2.2-21.1 c0.4-2.4-0.2-4.8-1.8-6.6c-13-15.2-24.7-12.5-30.5-9.5c-12.2,6.3-18,23.2-20.3,32.8c-3.6,14.5-4.1,30-1.2,41.5 C1603.8,814.5,1611.7,822.2,1622.2,822.2z" style="fill-rule: nonzero; fill: url(#gradient-24); paint-order: fill;"/>
    <path d="M1932.6,949.4L1932.6,949.4c0.4,0,0.9,0.1,1.4,0.1c6.4,0,16.7-4.1,30.7-22.1c10.1-12.9,18.6-28.6,22.8-42 c7.7-24.8-1.5-34.3-7.7-37.7c-1.8-1-3.9-1.3-5.8-0.8c-0.5,0-1.1-0.1-1.6-0.1c-3.2-0.3-7.3-0.7-10.8,0.2 c-13.4,3.7-27.8,26.8-31.9,33.7c-5.3,9-17.5,31.8-15.9,49.1C1914.7,941.1,1921.8,948.4,1932.6,949.4z M1969.3,850 c-0.2,0.3-0.3,0.5-0.5,0.8C1968.9,850.5,1969.1,850.3,1969.3,850z" style="fill-rule: nonzero; fill: url(#gradient-25); paint-order: fill;"/>
    <path d="M2321.2,1479.5c-0.3-0.3-0.5-0.5-0.8-0.8c-5.8-6.3-11.5-12.5-17.2-18.7c-28.5-31.1-55.5-60.4-83.7-86.1 c-29.7-27-57.6-53.4-84.5-79c-42.5-40.3-82.7-78.4-129.7-119c-32.1-27.8-60-53.4-87.1-78.2c-42.4-38.9-82.5-75.6-131.3-114 c-69.6-54.6-174.7-137.1-288.2-130.9c-22.8,1.2-43.3,14.5-57.7,37.4c-12.6,20-19.4,45.5-18.6,69.9c1.9,56.3,23.3,120.7,63.6,191.5 c27.9,49,58.1,96.3,86.3,135.2c-32-3.1-65.3-1.1-99,6.1c-34.1,7.2-67.7,19.5-97.2,35.6c-4.4,2.4-9.3,5.5-14.6,8.7 c-8.7,5.4-23.4,14.5-28.3,14.5c0,0-0.1,0-0.1,0c-6,0-21-6.6-31-10.9c-6.2-2.7-12.1-5.3-16.6-6.8c-54.2-18.4-105.3-30.7-178.3-30.7 c-84.3,0-162,15.2-231.2,45.3c-65,28.3-119.8,68.3-162.7,119.1c-31.4,37.1-58.8,89.2-73.1,139.1c-18.1,62.9-16.3,122.1,5.2,171.5 c-25.2,26-64.2,45.7-105.3,66.5c-53.6,27.1-108.9,55.1-138.4,100.4c-24.8,38.1-24.7,83.1,0.2,120.3c28,41.8,80,62.8,133.4,54.2 c0.9,0.8,1.8,1.5,2.6,2.3c4.2,3.7,8.4,7.4,12.5,11.3c-25.5,25.9-45.1,69-53.2,117.3c-7.9,47-4.2,93,10.1,129.2 c-31.5-7.9-65-13.8-97.7-19.6c-78.2-13.8-159-28.1-209.6-69.4c-5.2-43.6-12.7-88.1-30.9-120.9c-17.3-31.5-37.9-47.8-61.3-48.5 c-27.2-0.9-49.8,13.9-67.3,44c-15,25.9-23.3,58.7-27.7,81.8c-19.9,105.5-16.6,240,8.2,334.7c13.3,51,32.2,105.1,71.4,120.5 c21.6,8.5,41.3,7.8,58.6-2c31-17.6,52.7-63.9,66.3-141.3c19.2-1.5,38.5-3.2,57.2-4.8c33.6-2.9,68.3-5.9,103.2-8.2 c-0.1,22.8,7.9,38,17.5,50.7c-17.1,8.6-28.9,23.7-33.6,43.4c-7.7,32,4.5,72.8,29,96.9c7.2,7,15.2,11.5,22.3,15.5 c3.9,2.2,7.7,4.3,11.2,6.8c-15.2,26.2-11.4,48.4-5.1,62.8c14.2,32.8,51.9,54,83.9,61.1c-1.2,21.5,4.3,39.1,16.5,52.3 c23.4,25.5,68.4,30.7,110.4,30.6c-10.5,7.8-22.9,15.7-38.6,22.5c-5.9,2.6-12.1,4.9-18.1,7.1c-20.3,7.5-39.5,14.6-47.7,32.5 c-5,10.8-5,24.3,0,40.9c-20.1,4.5-43.7,6.6-68.5,8.9c-53.2,4.9-108.3,10-135.1,39.9c-12.7,14.1-17.6,31.3-13.9,48.2 c3.9,18,17,33.4,34.9,41.1c19.8,8.6,44.4,11.7,71,11.7c34,0,71.3-5,106-9.6c23.3-3.1,45.3-6.1,64.3-7.2c41.5,68.3,91,128.2,147,178 c58,51.6,124.8,93.9,198.7,126c-0.4,19.1-2.3,41.5-4.4,65.1c-5.5,64-11.8,136.5,9.4,179.6c9.5,19.5,25.3,30.6,44.4,31.3 c0.6,0,1.2,0,1.8,0c22.5,0,45.9-14.6,58.8-36.9c28-48.2,29.1-133.3,27.5-210.6c2.1-0.7,4.3-1.5,6.6-2.2 c12.7-4.2,25.8-8.6,35.3-17.8c1.1-1,1.8-2.3,2.2-3.8c29.2-116.5,81.2-213.2,131.4-306.7c8.4-15.6,17-31.6,25.5-47.6 c29.4,40.1,89.8,114.3,151.4,139.6c25.8,10.6,51.8,8.9,75.2-4.8c16.2-9.5,30.6-24.7,40.5-42.4c23.9,11.1,52.1,17.1,80.6,17.2 c0.1,0,0.2,0,0.3,0c32.1,0,62.1-7.8,84.6-22c28.6-18.1,44.1-45.1,45-78.5c45.9-0.2,94.3-17.7,122.7-44.8 c18.5-17.8,38.7-49.2,34.7-79.5c-2-15.6-11.1-25.2-19-33.8c-2.5-2.7-4.9-5.3-6.9-7.8c29.6-5.7,67.6-16,98.6-34.4 c39.3-23.3,58.4-54,56.7-91c-1.1-24.9-9.7-45.1-25.6-60.3c-13.9-13.3-33.1-22.6-58.6-28.6c-45.6-10.7-103.8-8.6-160.1-6.6 c-31.8,1.1-61.8,2.2-88.5,1c-90.8-4.1-166.6-19.1-231.6-45.8c-0.9-0.4-1.8-0.7-2.7-1.1c-4.7-1.9-8.1-3.4-10.5-5.1 c145.8-45.5,274.2-122.3,402.6-240.9c10.8,12.9,28.4,21.4,50.8,24.5c35,4.8,74.9-4.7,96.5-22.3c21.1,14.1,46.6,18.3,74,12.2 c36.1-8,70.7-33.4,86-63.2c51.1-99.3,18.9-286.8,2.7-362.8c-27-126.6-65.5-212.2-106-295.3c11-23.5,24.4-53.9,34.7-88.3 c37.8,15,88.3,34.5,137.9,42.7c28.6,4.7,54.1,5.1,75.8,1.1c25.9-4.8,47.3-15.8,63.6-32.9c9.1-9.5,16.7-23.3,21.5-39 c5.1-16.8,6.8-34.9,4.9-52.2C2394,1558.6,2351.9,1512.9,2321.2,1479.5z M1020.3,3528.1c-0.3,10.8-0.5,22.4-0.6,34.6 c-0.6,62.9-1.4,140.7-36.1,170.4c-9.4-7.9-12.4-26-13.8-39.6c-3.4-33.2-0.4-74.5,2.5-114.3c1.5-21.4,3-41.7,3.5-60.2 C989.5,3522.8,1003.6,3526.7,1020.3,3528.1z M1516.5,1107.5c-10.9-22.3-22.6-51.9-29.8-75.5c-10.3-34.2-29.6-115.2,12.5-131.3 c0.2,0,0.4,0,0.6,0.1c1.3,0.1,3,0.3,4.9,0c0,0,0.1,0,0.1,0c7.5-1.3,42.9,3.4,59.1,7.9c79.1,22.1,149.9,78.9,212.3,129 c3.7,3,7.4,5.9,11,8.8c40.6,32.6,74.8,64.4,110.9,98.1c25.2,23.5,51.3,47.8,80.7,73.4c40.4,35.1,81.5,73.9,125.1,114.9 c20.9,19.7,42.6,40.2,64.6,60.6c30.4,28.2,62.4,58.5,90.3,90.3c8.9,10.2,18.5,20.2,27.8,29.8c22.1,23,43,44.8,53.8,67.3 c14.7,31,15.4,60.2,2,80c-13.7,20.3-41.8,30.1-79,27.7c-0.1,0-0.2,0-0.3,0c-88.1-5.7-173.7-52-238.5-91.7 c-66-40.5-128-84.6-195.1-138.8C1701.9,1355.3,1590.4,1257.8,1516.5,1107.5z M1931.8,2933.7c-24.6,12.5-57.4,21-89.9,23.4 c-6.7,0.5-18.5-0.2-31-0.9c-41.1-2.3-83.5-4.7-87.4,17.6c-1.4,7.9,0.1,14.4,4.2,19.4c8.6,10.3,25.9,10.4,42.5,10.6 c8,0.1,16.2,0.1,21.9,1.4c7.7,1.7,23.5,8.5,37.8,17.8c17.4,11.3,24.2,20.7,24.7,25.7c1.9,19.6-18.2,36.1-30.4,44.3 c-18.5,12.4-42.7,21.7-61.5,23.8c-10.4,1.1-26.9-1.7-43-4.4c-27-4.6-50.2-8.5-62.1,0.6c-4.1,3.1-6.5,7.6-7,12.9 c-2,22,14.4,25.9,26.5,28.8c5.4,1.3,11,2.6,16.3,5.2c1.2,20.6-5.9,35.9-21.1,45.7c-15.5,9.9-39.3,14-66.9,11.4 c-25-2.3-50.4-9.9-67.9-20.4c-3.3-2-8.7-7-13.9-11.9c-13.9-13.1-29.7-27.9-43.9-24.2c-6.8,1.8-11.7,7.3-14.6,16.4 c-5.6,17.8,7.5,28.1,16.2,34.9c4.1,3.2,8.2,6.5,9.4,9.3c-6.3,17.3-15.3,26.9-27.5,29.5c-16.1,3.4-38.9-5.4-66-25.5 c-24.5-18.1-46.8-41.2-57.9-53.3c-16.6-18.2-33.7-43.6-45.4-67.1c30.7-55.2,58.8-97.5,88.2-132.1c36.1,14.4,60.6,25.1,84.4,54.1 c12.9,15.8,21.7,36.2,30.2,56c12.3,28.7,25,58.3,50.9,73.1c26.3,15.1,52.7,15.7,74.3,1.7c13-8.5,23.3-21.8,29.8-38.5 c6.5-16.6,8.8-35.9,6.8-55.8c-7-67.8-61.8-130.5-85-154.3c-37.1-37.9-83.9-71.1-132.2-94c1.3-7.2,3.2-13.9,5.2-20.9 c1.5-5.2,3-10.6,4.3-16.3c90.8,32.1,170.1,48.4,242.2,49.8c29.8,0.6,63.9-0.2,100.1-1c15.6-0.4,31.8-0.7,47.5-1 c45.4-0.7,107.5-1.6,132.3,23.1c7.6,7.6,11.2,17.2,11.1,29.4C1983.7,2904.4,1947.4,2925.8,1931.8,2933.7z M628.8,2881.5 c3.5-5.3,5.7-14.1-4.1-26.3c-7.6-9.6-19.7-8.5-29.4-7.6c-3.2,0.3-6.3,0.6-8.8,0.5c-16.6-0.7-45.9-4.7-73.5-13.6 c-28.1-9-45.9-20.3-50.3-31.8c-1-2.8-4.1-10.9,8.9-24.7c2.1,0.5,4.7,1.3,7.5,2c30.7,8.4,62,15.6,77.9,3.7 c5.7-4.2,8.8-10.6,8.9-18.3c0.2-9.2-3.4-15.6-10.6-19.2c-5.4-2.6-12.1-3.2-19.9-4c-3.4-0.3-7-0.6-10.8-1.2 c-33.3-4.5-80.2-23-93.2-32.8c-13.4-10.1-28.3-41.6-21.3-61.4c3.7-10.6,13.9-15.6,30.3-15.1c3.4,0.1,11.5,3,18.6,5.6 c18.6,6.7,39.7,14.4,52.8,5.7c4-2.7,9-8.1,9.6-18.9c1.1-19.8-25.3-26.8-46.6-32.4c-8.8-2.3-17.8-4.7-21.8-7.2 c-18.2-11.4-25.3-21.4-26.4-38.9c21.8-3.1,46.5-4,70.3-4.8c11.7-0.4,23.6-0.8,35.3-1.5c-7.7,58.2,0.5,130.7,36.9,163.6 c22.9,61,67.6,100.4,110.9,138.5c13.1,11.5,26.5,23.4,39.2,35.6c-1.2,2-2.5,4.1-3.7,6.3c-8.3,14.2-17.6,30.3-33.9,33.2 c-38.4,6.8-106.5,3.9-125.8-16.1c-2.1-2.1-3.4-4.3-4.2-6.7C573.7,2897.2,617.4,2898.6,628.8,2881.5z M1523.9,3033.3l55.1-53.9 c9.9,13.4,15.3,28.8,21,44.9c1.6,4.5,3.3,9.2,5,13.9c2.1,5.5,7.5,23.5,10.3,41.4c3.7,23.9,0,31.2-1.8,32 c-16.7,7.8-30.1,9.5-40.7,5.2c-18.4-7.4-28.6-33.2-38.5-58.2C1531.1,3050.1,1527.7,3041.4,1523.9,3033.3z M591,2514.3 c9.1-0.8,16,0.9,21,5.2c13.8,11.5,14.9,41.6,16,70.7c0.8,21.1,1.6,42.7,7.3,59.5c-8.3,2-14.6,5.8-20.3,9.3c-4.2,2.5-8.2,5-12.8,6.6 c-12.9-11.7-22.1-38-24.4-70.2C575.5,2563.4,580.7,2532.2,591,2514.3z M681.1,2627.7c53.8,42.5,105.2,72.5,159.7,93.1 c-13.3,20.5-27.5,37.8-43.3,52.4C739.5,2734.6,697.2,2693.7,681.1,2627.7z M746.7,2465.2c17.3,0.7,33.8,1.4,42.9,11 c-4.1,8.8-21,9.1-42.3,8.5c-4.9-0.1-9.5-0.3-13.7-0.2c-8.7,0.2-18.2,1.1-27.5,1.9c-18.3,1.7-37.2,3.4-51.4,0.3 c-5.4-1.2-10.9-4.4-17.4-8.2c-14-8.1-31.4-18.3-57-12c-15.5,3.8-23.3,12.7-32.4,24.2c-28.6,1.4-57.8,2.6-86.1,3.8 c-94,3.9-191.2,7.9-278.6,20.4c-1.7,0.2-3.3,1-4.5,2.3l-0.1,0.1c-0.6,0.6-1.1,1.3-1.4,2c-6.1,11.9-9.4,30.2-13.3,51.4 c-7.4,40.8-15.8,86.9-44.4,87.6c-0.1,0-0.3,0-0.4,0c-29.4,0-46.5-69.9-52.2-92.9c-20.2-82.6-24.2-199.1-10-289.8 c4.7-29.8,10.5-52.5,17.8-69.6c8.9-20.9,20.1-33.1,33.1-36.2c19.1,14.2,27.4,38.5,36.4,80c1.4,6.6,2.7,17.7,4.1,29.4 c5.2,45,9.8,74.9,25.7,79.6c12.7,3.8,20.1-2.6,24.1-6c0.5-0.5,1.2-1,1.7-1.4c102.2,43.1,230.5,64.1,354.5,84.5 c31.3,5.1,63.8,10.5,95.3,16c23.3,4.1,52.3,9.3,79.3,12.2C734.7,2464.7,740.8,2464.9,746.7,2465.2z M731.5,2944.3l1.3-1.5 c19-21,38.4-45.1,39.1-64.2c0.7-21.6-14.7-32.6-28.2-42.3c-3.9-2.8-7.6-5.5-10.9-8.3c-42.2-36.9-78.9-77-109.2-119.4 c3.9-2.3,8.3-4.2,12.8-6.3c5.6-2.5,11.3-5.1,16.6-8.4c17,24.6,35.4,50.1,56.6,72.8c37,39.6,65.3,59,86.6,59c0.1,0,0.1,0,0.2,0 c31.2,0,52.4-32.2,71.2-60.5c7.9-11.9,15.3-23.3,22.3-30.1c9,0.9,18,1.8,25.8,3.8c0.5,18.9,1.2,37.1,2,56.2 c0.6,15.6,1.3,31.7,1.9,49.2c0.1,4.3,0.2,9.1,0.2,14.2c0.4,35.5,0.8,79.7,28.1,86.2c2.4,0.6,5,0.8,7.6,0.8 c20.5,0,48.1-15.8,72.8-29.8c8.3-4.7,16.1-9.2,21.9-12c27.4-13,53.3-26.4,78.4-39.3c35.1-18,68.2-35.1,105.2-51.5 c9.4-4.2,20-8.1,31.3-12.3c34.3-12.7,69.7-25.8,78.7-48.9c13.3-3,27.1-5.7,40.5-8.3c8.3-1.6,16.8-3.3,25.2-5 c0.4,12.5-4.2,24.8-9,37.6c-7.4,19.6-15,39.9-5.6,62.8c5.6,13.8,19.5,18.5,31.8,22.7c4.9,1.7,10,3.4,14.4,5.6 c32.6,16.5,70.1,46.1,101.5,79.9l-48.7,41.9c-20.2-23.5-44-41.2-74.1-55.4c-1.1-0.5-2.3-1.1-3.5-1.7c-15.5-7.3-30.3-13.8-40.7-13.2 c-21.1,1.2-39.2,29.7-52.4,50.5c-2.3,3.6-4.4,6.9-6.2,9.6c-44.9,66-85.3,141.4-119.7,206.8c0,0,0,0,0,0l-1.7,3.2 c-49.6,94.5-100.8,192.2-128.6,295.1C928,3475.3,834,3406.4,753.1,3333c-92-83.5-152.4-179.1-179.7-284.3 C643.2,3018.5,696.4,2983.4,731.5,2944.3z M1619.5,2604.4c-108,62-222,98.4-338.7,108.4c-0.1,0-0.3,0-0.4,0 c-4.5,0.4-8.6,0.5-12.6,0.7c-7.9,0.3-14.8,0.5-20.4,2.7c-7.6,3-11.9,9.1-12.6,18.1c-0.7,8,1.2,14.4,5.7,19c1,1,2,1.9,3.1,2.6 c-48.2,20.7-95.2,44.5-141,67.6c-45.2,22.9-88.2,44.6-131.7,63.4c-3.4-34.4-4.5-71.8-5.5-108.1c-0.3-10.8-0.6-21.9-1-32.8 c2.2,0.5,4.5,1,6.5,1.5c17.2,4,38.6,9,51.2-0.5c3.7-2.8,8.2-8.2,8.7-17.8c1.1-23.6-41.3-30.9-88.6-36.8c-5.2-0.7-9.8-1.2-13.1-1.8 c-119.9-18.4-196.6-78-239.7-124.7c-0.6-0.6-1.3-1.2-2.1-1.6c-3.7-2-8-2.4-11.9-2.7c-0.5,0-1.2-0.1-1.8-0.2 c0.1-6.1-0.6-11.3-1.3-16.4c-0.5-3.5-0.9-6.8-1.1-10.4c15.2-0.4,30.3-1.1,44.9-1.7c22.2-1,45-1.9,68.3-2.1 c13.3,18.1,34.3,39.1,69.5,39.1c4,0,8.1-0.3,12.4-0.8c18-2.4,46.1-13.8,52.3-31.7c2.2-6.3,2.7-15.9-7.2-26.2 c-1.3-1.4-3.1-2.2-5-2.4c-9-0.8-20.2,2.5-32.1,6c-13.6,4-30.5,9.1-38.3,4.6c-1.7-1-4-2.9-5.4-8.5c-0.9-3.8-0.1-5.8,2-10.4 c1.1-2.3,2.4-5.1,3.3-8.4c5-2.2,9.1-3.1,12.8-4c10.1-2.3,17.9-5.3,18.5-21.4c0.8-20.8-21.5-25.5-37.8-28.9c-9.3-2-22.1-4.6-23-9.2 c-0.5-2.9,0.1-5.4,2-7.9c4.3-5.6,14.6-10.1,25.1-11c7.6-0.6,16,1,24.2,2.7c11.9,2.4,23.1,4.6,31.4-1.1c4.4-3.1,7.2-7.9,8.3-14.3 c1.1-6.7-0.7-13.1-5.2-18.3c-11.6-13.6-39.9-17.2-53.3-17.2c-42.8,0.2-73.7,23.1-79.7,57.9c-35.9-3.7-70.5-9.5-103.9-15.2 c-29.2-4.9-59.3-10-90.4-13.7c-3.4-14.3-7.8-26-12-37.3c-8.4-22.4-15.6-41.7-12.9-75.9c4.2-52.1,28-87.2,50.7-114.8 c3-3.6,7.2-7.8,11.4-11.8c10.6-10.3,16.5-16.4,16.8-23.4c0.3-15.4-13.2-20.1-23-23.5c-4.5-1.6-9.2-3.2-13-5.6 c-7.4-4.6-20.1-18.7-29.2-35.5c-7.5-13.9-15.1-34.2-8-51.8c6.3-15.6,39.5-26.5,65.7-21.4c2.6,0.5,7.8,3.8,12.3,6.7 c9.4,6,20.1,12.8,30.6,11.6c22.3-2.6,31.3-36.5,38.5-63.7c1.6-6.1,3.2-12,4.6-16.5c5.4-16.8,10.5-31.5,16-47 c3.2-9.1,6.4-18.4,9.8-28.2c31.7,8.5,71.7,2.1,96.4-10.7c9.6,27.2,33.7,49.3,67.3,61.3c46.4,16.5,100.9,11.1,138.5-13.3 c21.4,26,59.3,46.2,101.4,53.4c42.3,7.3,83.3,0.8,114.4-17.8c10.9,24.8,35.2,44.7,69.6,56.7c26.5,9.2,57.3,12.9,86.7,10.4 c28-2.3,52.7-9.9,72.1-22c12.4,14.5,32.9,24.2,58.7,27.5c38.1,4.8,80.5-4.6,105.2-22.6c18.3,23,48,32.5,81.3,25.5 c20.9-4.4,41.2-14.9,57.1-29.6c15.8-14.5,26-31.6,29.7-49.7c1.1-0.3,2.2-0.6,3.3-0.9c5.8-1.5,11.7-3.1,17.2-5.2 c-4,65.8-6.7,134.9-1.6,199.9c6.5,83.7,24.4,142.7,54.8,180.5c1.7,2.1,4.3,3.2,6.9,3c14.6-1.3,27.8-5.8,40.5-10.2 c22.2-7.6,41.4-14.3,64.3-2.7c12.4,6.3,21.3,21.2,23.1,38.9c2.2,21.1-5.5,40.8-20.5,52.7c-18.2,14.5-45,14.8-70.9,15.1 c-15.3,0.2-31.1,0.4-45.1,3.5c-1.7,0.4-3.2,1.3-4.3,2.6C1798.2,2480.2,1711.9,2551.4,1619.5,2604.4z M1890.4,2445.6 c1.7-2.1,3.4-4.4,5.1-7c60.8,6.3,103.4-3.2,130.2-29.1c24.7-23.7,37.3-68.2,29.9-105.7c-4.9-24.8-18.1-43.6-37.6-53.9 c9.4-31,7.2-71.5,4.6-117.9c-0.2-3.2-0.3-6.3-0.5-9.5c-0.2-3.4-0.3-7.2-0.4-11.3c-0.6-22.8-1.5-51.2-14.3-63.2 c-4.3-4-9.8-6-15.8-5.8c-6.6,0.3-12,2.9-15.8,7.6c-9.1,11.3-5.7,31-3.2,45.4c0.6,3.3,1.1,6.3,1.2,8c2.7,39.3,2.9,90.2,0.5,129.9 c-28-2.8-55,1-72.8,10.2c-20.9-35.4-33-89.1-36.1-159.8c-2.4-54.7,0.5-118.6,8.9-195.2c6.1-5.8,13.7-11.4,22.4-17.7 c6.4-4.7,13.7-9.9,21.4-16.1l0.8-0.6c30-24,42.2-40.7,39.5-54.2c-1-5.2-4.7-12.1-16.7-15.7c-14.3-4.2-29.8,10.5-40,20.2 c-1.6,1.5-2.9,2.8-3.9,3.6c-34.6,30.3-64.9,49.8-97.2,62.5c-1.5-4.3-2.4-8.2-3.2-11.8c-2.2-9.7-4.8-20.8-20.8-22.4 c-9.8-0.9-17.1,1.4-21.6,6.9c-8.3,10-3.6,26,0.1,38.8c1.2,4.2,2.6,8.9,2.7,11c0.6,25.7-17.9,46.7-36.4,56c-18,9-36.5,8.3-49.7-1.9 c-17.5-13.6-27.3-67.6-29.2-115.1c0-0.7,0.2-2.8,0.4-4.7c2.1-20.6,2.9-41.2-6.2-52.3c-3.5-4.2-8.1-6.8-13.5-7.3 c-7.2-0.7-13.6,1.5-18.4,6.4c-13.2,13.3-12.2,43.4-9.1,74c0.2,2,0.4,3.7,0.5,5.2c2.9,32.8,6.6,55.8,12.7,79.7 c-28.4,13.7-60.5,28.9-90.2,15.3c-17.8-8.2-31.1-47.2-35.8-104.5c-0.5-5.5-0.3-15.5-0.1-27.2c0.8-48.3,0.3-89.5-14.5-103.9 c-3.9-3.8-8.7-5.7-14-5.5c-5,0.2-9.6,2.5-13.1,6.5c-13.2,15.1-11,55-7.6,94.6c0.4,5,0.8,9.4,1,12.4l0.3,5.1 c1.8,34.6,3.6,70.3,12.6,99.2c-29.4,25-93,26.9-129,11.1c-32.8-14.4-45.1-49.4-49.6-76.2c-5.8-34.3-3-77.1,7.8-120.5 c1.2-5,2.8-10.8,4.5-16.9c2.4-8.8,5.1-18.8,7.6-29.6c3-12.7,6.1-31-1.9-42c-3.6-4.9-8.9-7.8-15.3-8.3 c-22.5-1.8-33.6,39.1-43.1,81.2c-0.7,3-1.3,5.7-1.8,7.7c-12.1,50.9-13.3,107.1-3.3,148.2c-25.1,17.4-72.4,23-110.7,12.5 c-26.3-7.2-44.1-20.8-50.4-38.4c-3.2-8.9-5.5-33-5.6-49.8c0-21.1,4.4-77.7,17.5-107.9c2.4-5.5,6.2-11.3,10.6-17.9 c4.1-6.3,8.8-13.4,13.4-21.9c5.3-9.9,12.4-30.3,5.1-43.5c-2.4-4.4-7.5-9.9-17.6-10.7c-11.1-0.9-22.6,10.8-37.1,38.1 c-9.7,18.2-18.1,38.6-21.6,47.8c-15.9,42.5-21.3,97.7-15.1,156c-18.7,10.5-39.1,17-59.5,19.1c-21.6,2.2-41.5-0.8-57.5-8.8 c-22.2-11-35.4-30.9-38.2-57.4c-3.4-32.5,6.3-64.7,15.1-86c10.5-25.6,25.7-50.2,41.5-67.3c2.1-2.2,4.3-4.5,6.6-7 c14.2-14.9,27.7-29,25.8-42.1c-2-13.4-8.7-18.1-13.8-19.7c-13.3-4-31.4,7.6-58.6,37.7c-19.9,22.2-34.7,48.6-45.3,80.6 c-9.2,27.9-15.4,61.2-19,101.5c-28,14-78.3,19.4-97.3-4c-1.7-2.1-4.4-3.2-7.2-2.9c-2.7,0.3-5.1,2.1-6.3,4.6 c-21.1,45.2-40.2,96.3-58.4,156c-20.8-8.2-42.9-10.5-64.6-6.5c-23.3,4.2-44.3,15.5-59,31.8c-24.6,27.1-28.6,63.3-11.8,99 c-27.6-1.6-51.1-15.5-63.2-38.1c-12.4-23.2-9.4-50.2,8.1-72.3c25.5-32.3,74.5-56.3,121.9-79.6c37.7-18.5,73.3-36,95.4-56.8 c0.9-0.9,1.6-2,2.1-3.1c7.1-20.1,15.1-38.5,22-53.9c0.8-1.9,0.9-4,0.2-5.9c-11.6-33.2-15.8-67.4-12.6-101.6 c2.9-30.7,11.7-61.7,26.3-91.9c24.7-51.2,66.6-100.3,114.7-134.7c52.8-37.7,119.8-64.2,193.8-76.4c77.2-12.8,156.6-9,229.6,11 c9,2.5,19.9,7.2,31.5,12.1c21.4,9.2,43.4,18.6,62.1,18.6c1.3,0,2.7,0,4-0.1c18.9-1.4,37.3-13.6,55-25.4 c10.7-7.1,20.8-13.8,30.2-17.6c26.1-10.7,59.4-18.2,104.9-23.7c16.7-2,33,0.7,48.8,3.4c15.4,2.6,30.1,5.1,44.5,3.3 c71.9,68.7,138,126.7,202.2,177c75.6,59.3,149.4,109,225.4,151.8c-8.4,33.3-24,76.3-41.8,102.6c-0.2,0.3-0.3,0.6-0.5,0.8 c-2.7,3.6-7.2,7.7-11.6,11.6c-9.8,8.8-20.9,18.8-19.5,31.4c1.3,11.5,7.1,16.5,11.7,18.6c11.3,5.2,26-1.4,39-9.6 c4.7,10.9,9.9,22.4,15.4,34.4c22.5,49.5,50.4,111.2,67.2,181.7c23.5,98.4,34.2,197.3,30.1,278.4c-2,39.6-8.8,71.5-20.2,94.7 c-14.5,29.5-35.6,43.6-64.5,43.1c-9.3-0.2-15.8-4.3-23.4-9.1c-8.3-5.2-17.7-11.1-31-11.1c-0.1,0-0.1,0-0.2,0 c-13.8,0.1-23.1,7.7-31.4,14.5c-6.1,5-11.9,9.7-19.5,12.2c-21.9,7.1-40.8,3.4-63.9-12.9C1888.2,2448.4,1889.2,2447,1890.4,2445.6z M416.2,3133c5.9-0.8,11.9-1.5,17.7-2.5c13.1-2.1,26.7-4.5,40-6.8c23.1-4,47-8.2,67.4-10.7c6.5,12.5,13.5,26.8,19.7,42.8 c-14.5,1.3-30,3.3-46.3,5.5c-56,7.4-119.1,15.7-158.7-5.6C365.2,3139.6,390,3136.4,416.2,3133z" style="fill-rule: nonzero; paint-order: fill; fill: url(#gradient-26);"/>
    <path d="M2362.7,882.7c-14,11.3-28.1,23.1-42.9,35.6c-12.4,10.4-25.1,21.1-38.8,32.3c-0.4,0.2-0.9,0.5-1.3,0.8 c-1.8,1.5-5.9,4.3-10.6,7.6c-36.5,25.3-71.6,51.8-64.7,73.7c3.2,10.3,9.4,13.9,14.1,15.2c1.7,0.5,3.4,0.7,5.2,0.7 c13.4,0,28.4-12.6,43.8-26.7c2.5-2.3,4.7-4.3,6.2-5.6c17.2-14.1,33-26.7,49.7-40c10.6-8.5,21.6-17.2,33.1-26.5 c1.6-1.3,3.4-2.7,5.3-4.2c15.7-12.3,37.1-29,33.4-45.7c-3-13.5-20.1-17.4-25.7-18.6C2367.1,880.6,2364.6,881.2,2362.7,882.7z" style="fill-rule: nonzero; fill: url(#gradient-27); paint-order: fill;"/>
    <path d="M1569.1,1035.1c-2-4.4-3.8-11.1-5.8-18.3c-5-17.9-10.6-38.3-23.6-45.3c-5.1-2.8-10.8-3.2-16.7-1.4 c-10.1,3.1-16.1,10-17.7,20.6c-3.5,23.6,26.7,87.9,48.3,110.4c6.4,6.6,12.1,9.9,17.7,9.9c0.5,0,1,0,1.4-0.1 c9.3-1,15.6-4.7,18.8-11.1c6.8-13.4-4-31.9-14.3-49.8C1574,1044.5,1570.9,1039.2,1569.1,1035.1z" style="fill-rule: nonzero; fill: url(#gradient-28); paint-order: fill;"/>
    <path d="M2099.1,1520.4c15.9,8.4,32.3,17,48.6,26c0.7,0.4,1.4,0.8,2.3,1.3c8.7,4.9,22,12.4,33.7,12.4c3.2,0,6.2-0.5,9-1.8 c4-1.8,9.2-6,11.1-15.3c4.6-22.6-29.9-40.5-65.7-56.9c-3.3-1.5-6.1-2.8-8.3-3.8c-0.3-0.2-0.6-0.4-1-0.6 c-28.5-14.3-49.6-25.2-73.2-39.7c2.9-5.9,3.8-12.8,2.8-20.8c-0.1-1.2-0.6-2.4-1.3-3.4c-45.8-69.8-95.2-126.5-150.8-173.6 c-60.3-51-128.9-90.5-204-117.4c-7-11.5-19-32.1-30.5-55.5c-2.2-4.5-4.4-9.4-6.6-14.6c-9.1-20.7-17.6-40.2-33.1-43.2 c-7.8-1.5-15.7,1.6-23.5,9.2c-2,1.9-2.8,4.7-2.2,7.4c16.2,74.8,60.4,133.8,100.6,183.2c75.2,92.2,169.2,171.8,304.9,258.2 C2040.1,1489.3,2068.8,1504.4,2099.1,1520.4z M1768.8,1208.5c41.5,23.5,80.1,50.7,115.2,81c35.1,30.3,67.5,64.5,96.6,101.9 C1907,1345.5,1834.8,1283.1,1768.8,1208.5z" style="fill-rule: nonzero; fill: url(#gradient-29); paint-order: fill;"/>
    <path d="M1183.3,1025.7c-11.3-5.6-22.1-7.3-30.3-4.6c-9.7,3.1-15.2,11.6-15.2,23.4c0,0,0,0,0,0c0,13.6,14.7,28.2,28.4,37.4 c6.1,4.1,19.7,12.1,32.2,12.1c3.1,0,6.2-0.5,9-1.7c1.3-0.5,2.5-1.4,3.3-2.6c9.3-12.4,8.8-27.8-1.4-42.2 C1203.1,1038.8,1193.6,1030.9,1183.3,1025.7z" style="fill-rule: nonzero; fill: url(#gradient-30); paint-order: fill;"/>
    <path d="M2174,1062c-12.1-3.3-28.6,2.7-38.3,14c-8.7,10.1-10.7,22.6-5.6,34.3c0.7,1.5,1.8,2.8,3.2,3.6c5.1,3.1,10.8,4.6,16.8,4.6 c7.8,0,16.1-2.6,23.5-7.8c11.8-8.2,18.1-20.5,16.1-31.4C2188,1070.5,2182.3,1064.2,2174,1062z" style="fill-rule: nonzero; fill: url(#gradient-31); paint-order: fill;"/>
    <path d="M3025.4,1130.7c-6-5-13.9-6.9-20.9-5.2c-0.3,0-0.5,0.1-0.8,0.2c-26.9,7.5-61,16.2-97.1,25.4 c-38.6,9.9-78.5,20.1-110.9,29.1c-2.2,0.6-4.1,2.2-5.1,4.2c-3.2,6.6-3.9,14.3-2.1,21.8c1.8,7.2,5.8,13.3,11,16.7 c1.3,0.8,2.8,1.3,4.4,1.3c0.5,0,1,0,1.5-0.1c52.6-9.8,101.3-22.1,153-35.2c7-1.8,14.1-3.6,21.2-5.3c1.6-0.4,3.3-0.8,5.2-1.3 c20.1-4.8,47.6-11.3,49.3-30C3034.9,1143.8,3031.7,1136,3025.4,1130.7z" style="fill-rule: nonzero; fill: url(#gradient-32); paint-order: fill;"/>
    <path d="M1645.3,1166.1c-6.4-5.3-18.7-13.7-29.5-10.2c-11.4,3.7-16.9,13.3-14.9,25.6c3.4,20.2,28.7,48.4,48.1,48.4 c0.1,0,0.3,0,0.4,0c5-0.1,16.8-2.4,19.2-21C1670.5,1194.3,1658.2,1176.9,1645.3,1166.1z" style="fill-rule: nonzero; fill: url(#gradient-33); paint-order: fill;"/>
    <path d="M2752.1,1202c-7.8-5.7-18.8-7-31.1-3.7c-70.5,18.9-171.7,44-245.6,62.4l-0.7,0.2c-6.6,1.6-13.6,3-20.3,4.3 c-21.9,4.2-44.6,8.6-60.2,24c-1.5,1.5-2.4,3.6-2.4,5.7c0,2.1,0.9,4.2,2.4,5.7c8.2,8,18.8,13.1,28.9,18c2.4,1.2,4.9,2.4,7.3,3.6 c1.1,0.6,2.4,0.9,3.6,0.9c0.8,0,1.6-0.1,2.4-0.4c74-22.9,155.5-43,234.2-62.6l7.7-1.9c6.6-1.6,13.2-3,20.2-4.4 c21.1-4.3,42.9-8.7,61.1-20.9c2.3-1.6,3.6-4.2,3.5-7C2762.8,1212.6,2756.9,1205.6,2752.1,1202z" style="fill-rule: nonzero; fill: url(#gradient-34); paint-order: fill;"/>
    <path d="M1483.1,1354.3c-22.2-4.3-59.1,15.6-65.8,35.4c-3.7,11,1.3,21.3,13.6,27.4c1.1,0.6,2.4,0.9,3.6,0.9c0.7,0,1.3-0.1,2-0.2 c29.5-7.5,63.5-18.8,64.6-39.6C1501.7,1365.5,1495,1356.6,1483.1,1354.3z" style="fill-rule: nonzero; fill: url(#gradient-35); paint-order: fill;"/>
    <path d="M963.3,1443c2.3-6.9,3.1-13.9,2.4-21.5c-0.1-1.2-0.5-2.4-1.2-3.5c-4.7-7.6-14.1-11.8-25.5-11.6 c-12.6,0.2-23.8,5.6-28.5,13.8c-0.6,1-1,2.2-1.1,3.4c-0.6,7.8,0.1,14.6,2.4,21.4c0.5,1.4,1.3,2.7,2.5,3.6c6,5,14.2,6.1,20.3,6.1 c1.6,0,3.1-0.1,4.3-0.2c9.2-0.8,17.6-3.8,22.3-8.2C962.2,1445.4,962.9,1444.2,963.3,1443z" style="fill-rule: nonzero; fill: url(#gradient-36); paint-order: fill;"/>
    <path d="M843.8,1475.4c-6.3-3.5-13.9-4.3-19.9-2.3c0,0-0.1,0-0.1,0c-27,9.6-56.5,37-78.8,73.4c-23.2,37.7-34.6,78-31.4,110.6 c0.3,2.6,1.8,5,4.1,6.2c5.7,3.1,11.1,4.7,16.1,4.7c3.1,0,6-0.6,8.8-1.9c13.7-6.1,18.1-25.4,22.4-44c2.3-9.9,4.6-20.1,8.1-26.8 c13.6-26.3,32.7-48.5,40.9-56.5c1.9-1.9,6-4.6,10.3-7.4c14.7-9.6,34.8-22.8,30.3-42.6C853.3,1483.3,849.4,1478.5,843.8,1475.4z" style="fill-rule: nonzero; fill: url(#gradient-37); paint-order: fill;"/>
    <path d="M938.1,1682.8l-0.1,0c-0.6,0.1-1.1,0.3-1.6,0.5c-12.2,3.8-24.2,21.9-32.2,36.8c-8.3,15.4-17.6,37.8-19,54.8 c-1.3,16.6,1.8,29.2,8.9,36.4c4.3,4.3,9.8,6.6,16.1,6.6c0.6,0,1.1,0,1.7-0.1c18.4-1.1,19.8-16.7,20.9-29.2c0.5-5.3,1-11.2,2.5-17.3 c1.9-7.6,8-17.2,14-26.4c10.5-16.3,21.4-33.1,16.1-48.7C961.7,1685,951.5,1680,938.1,1682.8z" style="fill-rule: nonzero; fill: url(#gradient-38); paint-order: fill;"/>
    <path d="M1106.9,1713.4C1106.9,1713.4,1106.9,1713.4,1106.9,1713.4c-28.6,8.9-30.1,67-29.9,84.5c0.1,14.5,1.6,32.3,11.6,42 c4.3,4.2,9.8,6.3,16,6.3c0.3,0,0.5,0,0.8,0c7.4-0.2,12.8-2.3,16.4-6.4c6-6.7,5.2-16.2,4.2-27.1c-0.4-4.5-0.8-9.6-0.8-14.9 c0-4.1,2.1-12.8,4.1-21.3c5.7-24.1,11.5-48.9-0.3-60C1123.8,1711.6,1116.3,1710.5,1106.9,1713.4z" style="fill-rule: nonzero; fill: url(#gradient-39); paint-order: fill;"/>
    <path d="M1331.3,1782.4c0.2-2.6-0.8-5.2-2.8-6.9c-6.5-5.4-12.9-8.3-19-8.4c-6.2-0.2-12,2.4-16.7,7.5c-9.1,9.9-14.3,30.1-13.8,54.1 c0.5,24,6.4,44.1,15.9,53.7c4.6,4.7,10.1,7.1,15.9,7.1c0.3,0,0.7,0,1,0c6.2-0.3,12.5-3.3,18.8-8.9c2-1.8,3-4.4,2.6-7.1 C1329.2,1843.4,1328.5,1812.7,1331.3,1782.4z" style="fill-rule: nonzero; fill: url(#gradient-40); paint-order: fill;"/>
    <path d="M1533.5,1815.3c-6.7-3.7-17.4-4.6-30.5,11.9c-1.1,1.4-1.7,3.2-1.7,5c0,25.6,1,52.2,8.6,73.4c0.7,1.9,2,3.4,3.7,4.4 c5.4,2.9,10.6,4.4,15.9,4.4s10.6-1.5,15.9-4.4c1.8-1,3.1-2.5,3.8-4.4c3.6-10.5,4.7-29.6,2.7-47.6 C1550,1842.1,1545.4,1821.8,1533.5,1815.3z" style="fill-rule: nonzero; fill: url(#gradient-41); paint-order: fill;"/>
    <path d="M1699,1831.7c-0.1-2.2-1.2-4.3-3-5.7c-11.4-9.2-23.3-9.6-31.9-1.1c-15.8,15.6-16.9,61.3-1.9,80.3 c4.8,6.1,11.1,9.3,17.9,9.3c4.9,0,10-1.6,15.2-4.8c1.4-0.9,2.6-2.2,3.2-3.8c6.1-15.2,3.9-37.9,2-58 C1699.8,1842.1,1699.3,1836.6,1699,1831.7z" style="fill-rule: nonzero; fill: url(#gradient-42); paint-order: fill;"/>
    <path d="M871.4,1941.3c-0.4,0-0.9,0-1.3,0c-11.6,1.3-19.7,2.7-28.6,6.7c-9.6,4.2-30.1,17.9-46.4,32.6 c-23.5,21.2-33.2,39.4-28.7,53.9c1.4,4.4,4.8,10.4,13.6,14.3c6.6,2.9,15.3,4.1,24.8,4.1c26.8,0,60.3-9.3,73.6-15.5 c25.5-12,42.7-31.4,44.9-50.7c1.8-15.1-1.4-26.9-9.3-34.8C905.1,1942.9,890.8,1939.4,871.4,1941.3z" style="fill-rule: nonzero; fill: url(#gradient-43); paint-order: fill;"/>
    <path d="M1326.1,2090c0.5,0.2,1,0.4,1.5,0.5c12.9,5.3,39,10.6,63.4,10.6c17.1,0,33.5-2.6,43.8-9.8c8.2-5.7,12.2-13.7,11.7-23.3 c-0.2-3-0.6-11.1-24.5-32.3c-12.2-10.8-26.7-21.5-36.2-26.7c-7.8-4.4-19.4-8.7-30.9-11.7c-7.4-1.9-21.2-4.9-30.9-3.3 c-28.5,4.6-35,22-36.3,32C1284.6,2050.9,1305.7,2080.9,1326.1,2090z" style="fill-rule: nonzero; fill: url(#gradient-44); paint-order: fill;"/>
    <path d="M626.5,2093.9c1.5,1.8,3.7,2.8,6.1,2.8h0.1c3.1,0,5.9-1.8,7.2-4.6c11.1-23.3,3.6-51.8-9.5-67.8 c-10.1-12.3-23.2-17.4-36.1-14.1c-9.6,2.4-13.7,8-15.4,12.3c-6.1,14.5,5.6,34.4,15.9,51.9c3.5,6,6.9,11.7,8.1,15 c0.6,1.8,1.8,3.2,3.4,4.2c7.6,4.5,14.6,2.2,18.8,0.8C625.5,2094.2,626,2094,626.5,2093.9z" style="fill-rule: nonzero; fill: url(#gradient-45); paint-order: fill;"/>
    <path d="M864.5,2132c-0.4-0.2-0.7-0.3-1.1-0.5c-8.8-2.9-15.3-0.6-19.2,1.8c-13.4,8.4-16.5,30.2-18.5,44.7c-0.3,2.5-0.6,4.6-0.9,6.1 c-5.2,27.2-16.1,60.4-38,64.3c-14.2,2.6-25.3,0-33.8-7.8c-30.4-27.9-22.1-116.2-19.4-145.2c0.2-2.2-0.5-4.4-2-6.1 c-4.4-4.9-13.2-12.4-23-18.2c-12.8-7.6-23.3-9.9-31.2-6.9c-5.6,2.1-12.3,7.7-12.3,22.4c0,10.7,7,16.8,12.6,21.7 c5.9,5.2,9.3,8.2,7.6,15.4c-13.5,2.8-19.6,12.2-20.7,20.9c-1.6,12.6,5.8,26.1,17.2,32.3c3.9,34.1,12.4,74.8,40.6,99.6 c14,12.3,33.8,19.1,55,19.1c1.7,0,3.4,0,5.1-0.1c22.6-1.2,43-9.7,56-23.5c6.2-6.7,18.1-30,27-53.2c8.4-21.9,17.4-51.8,12.7-70.2 C875.5,2138.3,869.5,2133.9,864.5,2132z" style="fill-rule: nonzero; fill: url(#gradient-46); paint-order: fill;"/>
    <path d="M1492,2222.2c5.4-8.7,4.9-19.4-1.2-27.2c-8.4-10.7-21.9-11.2-32.2-9.6v-14c2.6-1.7,5.9-3.1,9.3-4.5 c11.3-4.8,28.3-12.2,24.9-36.9c-0.3-1.9-1.1-3.6-2.5-4.8c-8.6-7.9-21-10.4-34.8-7.1c-18.8,4.6-37.2,19.4-42.7,34.4 c-5.5,15-4.3,31.1-3.2,45.4c0.6,7.1,1.1,13.8,0.7,19.3c-3.9,50.6-34.1,102.7-82.4,99.6c-16.6-1-27.2-8.7-34.3-25 c-6.9-15.8-9.5-37-12.2-59.6c-1.3-11.3-2.7-22.9-4.8-34.1c-0.4-2.1-1.6-4-3.5-5.3c-10-6.7-18.8-7.9-26-3.6 c-11.9,7.1-15.9,27.2-12.7,65.4c2.8,31.8,12.5,58.8,28.2,78.1c17.2,21.1,41,32.2,68.9,32.2c0.6,0,1.3,0,1.9,0 c63.2-1.2,104.7-44.4,123.3-128.3C1472.7,2238,1485.5,2232.8,1492,2222.2z" style="fill-rule: nonzero; fill: url(#gradient-47); paint-order: fill;"/>
    <path d="M149.9,2506.4c-4.3-89.6-19.7-181-44.7-264.5c-0.8-2.6-2.8-4.6-5.3-5.3c-6.8-2.9-19.9-8-30.2,1.9c-1.4,1.3-2.2,3.1-2.4,4.9 c-3.4,32,3.9,63.3,11.7,96.4c3.9,16.6,7.9,33.7,10.5,51.1c7.1,47.6,14.1,104.1,12,162.1c-0.1,1.4-0.4,3.8-0.8,6.3 c-1.6,10.7-3.7,25.3,5,34.3c4,4.2,9.6,6.3,16.5,6.3c1.4,0,2.9-0.1,4.4-0.3c27.5-3.1,25.1-54.4,23.3-91.9L149.9,2506.4z" style="fill-rule: nonzero; fill: url(#gradient-48); paint-order: fill;"/>
    <path d="M644.1,2246.3c-0.5,0-0.9,0-1.3,0c-1.9,0-4,0.2-6.2,0.5c6-5.9,8.8-12.7,8-19.7c-2.5-21.6-19.2-20-25.5-19.4 c-1.1,0.1-2.1,0.2-2.7,0.2c-16.1,0.1-38.8,4.2-49.6,15.4c-4.6,4.8-7,10.7-6.8,17c0.2,8.3,4.6,15,12.4,18.9 c5.3,2.7,11.8,3.8,18.7,3.8c4.8,0,9.9-0.6,14.8-1.6c-1,1-2,2-2.9,3.1c-5.9,7.2-8.1,15.3-6.5,23.7c2.2,11.1,10.6,17.5,22.4,17.5 c1.9,0,3.8-0.2,5.8-0.5c18.9-3,46.3-21.4,44.1-39.8C666.5,2245.8,649.6,2246.1,644.1,2246.3z" style="fill-rule: nonzero; fill: url(#gradient-49); paint-order: fill;"/>
    <path d="M1522.2,2353.8c13.8-9.4,32.5-22.2,29.4-41.2c0-0.5-0.1-1-0.2-1.4c-2.9-13.3-15.6-17.8-27-16.4 c-14,1.7-29.4,15.2-41.8,26.1c-2.5,2.2-4.9,4.3-6.9,6c-0.8,0.7-1.9,1.5-3,2.4c-11.8,9.4-33.8,26.8-27.8,46.5 c3.1,10.1,9.2,13.7,13.8,14.9c1.7,0.5,3.4,0.7,5.1,0.7c13.5,0,29.2-13,44.2-26.5c2.5-2.3,4.7-4.2,6.1-5.4 C1516.3,2357.8,1519.2,2355.9,1522.2,2353.8z" style="fill-rule: nonzero; fill: url(#gradient-50); paint-order: fill;"/>
    <path d="M1881.2,2370.1c2.5,1,5.1,1.4,7.7,1.4c9.7,0,20.3-5.9,30.6-11.6c5.4-3,10.5-5.8,14.4-7.1c4.4-1.5,8.9-2.6,13.3-3.7 c7.8-1.9,15.3-3.8,20.9-7.4c7.7-4.9,11-12.5,9.5-22c-1.1-6.9-4.1-12-8.8-15.3c-8.2-5.7-18.8-3.5-25.2-2.1c-1.3,0.3-2.5,0.5-3.2,0.6 c-19.1,2.1-35.1,9-43,12.9c-29.1,14.2-31.5,29.5-28.3,39.8C1871.4,2362.9,1875.5,2367.8,1881.2,2370.1z" style="fill-rule: nonzero; fill: url(#gradient-51); paint-order: fill;"/>
    <path d="M1583.4,2312.9l-0.1,0c-0.4,0-0.8,0.1-1.2,0.2c-13.4,1.3-23.5,11-31.7,18.8c-2.7,2.6-5.3,5.1-7.7,7l-1.7,1.3 c-15.1,11.8-31,25.6-28.4,39.6c0.9,4.9,4.5,11.6,16.4,15.4c2.1,0.7,4.4,1,6.8,1c6,0,13-2,20.8-6.1c8.6-4.4,18-11.2,26.7-19.1 c8.5-7.7,27.8-27.2,24.6-41.8C1605.4,2317.1,1596.2,2311,1583.4,2312.9z M1583.9,2312.9C1584,2312.9,1584,2312.9,1583.9,2312.9 c-0.1,0-0.3,0-0.5,0C1583.7,2312.9,1583.8,2312.9,1583.9,2312.9z" style="fill-rule: nonzero; fill: url(#gradient-52); paint-order: fill;"/>
    <path d="M781.2,2961c1.4,2.5,4.1,4,7,4c0.2,0,0.3,0,0.5,0c14.3-0.9,30.3-10.3,40.8-24.1c7.7-10.1,10.9-20.7,8.9-29.9 c-2.6-12.3-10.6-16-15.1-17.1c-9.9-2.4-26,2.5-39.5,18.9c-11.7,14.1-15,30.4-8.9,43.6C776,2959,778.4,2960.7,781.2,2961z" style="fill-rule: nonzero; fill: url(#gradient-53); paint-order: fill;"/>
    <path d="M621,3081c0.5,1.5,1.5,2.9,2.8,3.8c4.7,3.5,10.5,5,16.9,5c14.5,0,31.8-7.6,45-16.1c9.6-6.2,17.6-13.2,23.2-20.2 c7.2-9,10-17.5,8.3-25.2c-1.3-6.1-5.6-11.2-11.9-14.4c-7-3.5-15.2-4-21.4-1.3c-8.7,3.8-18.7,11.7-29.3,20 c-10.6,8.3-22.6,17.8-30.4,20.1c-3.2,0.9-5.4,3.7-5.7,7C618,3067.3,618.8,3074.3,621,3081z" style="fill-rule: nonzero; fill: url(#gradient-54); paint-order: fill;"/>
  </g>
</svg>