<?xml version="1.0" encoding="utf-8"?>
<svg version="1.1" id="Layer_1" x="0px" y="0px" viewBox="-42.844 0 2281.755 711.588" style="enable-background:new 0 0 2238.911 669.969;" xmlns="http://www.w3.org/2000/svg">
  <g id="Layer_2_00000053523889788211700680000017324045992398278063_" transform="matrix(-1, 0, 0, 1, 2238.617432, 0)">
    <g id="Layer_1-2">
      <path style="fill: rgb(14, 169, 0);" d="M 1800.726 1.853 C 1797.206 4.632 1516.138 11.673 1499.648 9.449 C 1497.239 9.449 1481.12 9.449 1462.592 9.449 C 1425.536 9.449 1419.793 11.487 1419.422 27.977 C 1419.422 33.165 1418.31 37.426 1417.384 37.426 C 1416.458 37.426 1415.717 42.984 1415.902 49.654 C 1415.902 60.03 1417.199 62.253 1423.313 63.92 C 1427.918 65.232 1432.164 67.576 1435.727 70.775 C 1457.205 80.689 1480.186 86.951 1503.724 89.303 C 1507.628 89.203 1511.393 90.749 1514.099 93.564 C 1516.085 96.446 1519.165 98.388 1522.622 98.937 C 1526.513 98.937 1528.921 102.643 1529.477 107.645 C 1530.033 112.648 1531.886 115.056 1539.852 114.871 C 1547.187 114.881 1554.505 115.563 1561.715 116.909 C 1566.81 118.295 1572.183 118.295 1577.278 116.909 C 1597.531 114.897 1617.897 114.278 1638.235 115.056 C 1727.91 115.056 1727.91 115.056 1725.872 121.541 C 1723.834 128.026 1725.872 125.988 1727.539 124.691 C 1729.206 123.394 1731.059 123.765 1731.059 124.691 C 1723.342 129.783 1714.824 133.541 1705.861 135.808 C 1694.071 139.651 1682.557 144.293 1671.399 149.704 C 1664.525 153.241 1657.404 156.275 1650.092 158.783 C 1642.671 161.238 1635.48 164.338 1628.6 168.047 C 1622.354 171.438 1615.688 173.992 1608.775 175.643 C 1602.366 176.981 1596.144 179.096 1590.247 181.942 C 1575.969 190.166 1560.634 196.399 1544.668 200.47 C 1539.786 200.925 1534.952 201.793 1530.216 203.064 C 1525.955 204.546 1523.361 203.99 1523.361 202.138 C 1523.556 200.164 1525.271 198.694 1527.252 198.803 C 1554.204 190.503 1580.572 180.414 1606.181 168.603 C 1624.709 160.821 1602.29 165.268 1581.539 173.791 C 1573.339 177.345 1564.923 180.377 1556.341 182.87 C 1548.541 185.283 1540.924 188.255 1533.552 191.763 C 1522.621 196.58 1509.466 202.139 1504.649 203.991 C 1499.832 205.844 1496.497 208.252 1497.238 208.994 C 1501.763 208.913 1506.205 207.771 1510.207 205.659 C 1517.803 202.509 1521.138 202.139 1520.397 204.547 C 1509.705 212.168 1497.409 217.238 1484.453 219.369 C 1481.488 219.369 1481.859 218.257 1486.12 215.108 C 1490.381 211.958 1490.196 211.402 1478.338 215.108 C 1471.186 216.945 1464.234 219.489 1457.587 222.704 C 1453.655 224.936 1449.088 225.784 1444.618 225.113 C 1440.727 225.113 1438.874 225.113 1438.874 228.263 C 1438.874 231.413 1437.762 231.969 1434.798 229.56 C 1431.834 227.151 1428.313 228.448 1420.346 234.563 C 1415.6 238.707 1409.954 241.688 1403.856 243.271 C 1392.458 244.759 1381.656 249.234 1372.544 256.241 C 1372.544 257.909 1369.58 258.464 1367.171 257.538 C 1364.762 256.612 1362.724 257.538 1362.724 259.391 C 1362.724 261.244 1361.427 262.17 1360.13 261.429 C 1354.094 262.056 1348.304 264.155 1343.27 267.543 C 1335.303 271.619 1327.521 274.213 1324.742 272.916 C 1321.963 271.619 1322.333 272.916 1324.742 274.769 C 1327.151 276.622 1324.742 278.289 1320.666 276.992 C 1316.59 275.695 1315.478 276.066 1315.478 277.918 C 1315.478 279.771 1296.95 290.702 1292.504 288.108 C 1287.424 288.211 1282.477 289.753 1278.238 292.555 C 1271.939 295.89 1268.789 298.669 1271.197 298.854 C 1273.605 299.039 1275.273 298.854 1271.197 302.004 C 1267.121 305.154 1258.228 306.08 1260.636 302.004 C 1263.045 297.928 1260.636 299.966 1257.116 301.078 C 1253.596 302.19 1253.225 303.672 1255.263 304.228 C 1257.301 304.784 1257.857 306.822 1255.263 311.083 C 1252.669 315.344 1246.925 318.865 1246.925 312.751 C 1246.925 306.637 1239.514 306.822 1234.882 312.751 C 1232.844 315.16 1230.065 316.642 1228.953 315.901 C 1211.597 321.068 1195.065 328.679 1179.854 338.505 C 1177.793 340.567 1175.135 341.928 1172.258 342.396 C 1163.425 345.128 1154.815 348.535 1146.504 352.586 C 1121.068 366.195 1094.231 377.004 1066.464 384.825 C 1063.94 384.615 1061.447 385.491 1059.609 387.234 C 1057.892 388.947 1055.549 389.884 1053.124 389.828 C 1046.167 390.933 1039.379 392.926 1032.929 395.757 C 1023.109 399.463 1014.401 402.427 1014.401 402.427 C 1026.612 383.267 1041.178 365.714 1057.756 350.178 C 1060.72 347.399 1064.982 343.137 1066.835 340.914 C 1068.688 338.691 1078.137 330.168 1087.586 322.386 C 1097.035 314.604 1104.261 305.526 1103.335 303.858 C 1102.409 302.19 1107.411 297.929 1115.378 294.965 C 1122.235 292.362 1128.525 288.462 1133.906 283.478 C 1152.43 265.689 1171.913 248.927 1192.269 233.267 C 1196.113 230.129 1200.513 227.741 1205.238 226.226 C 1207.647 226.226 1207.276 225.3 1205.238 224.003 C 1197.086 220.668 1202.088 216.221 1227.101 203.993 C 1248.005 195.278 1267.686 183.881 1285.649 170.087 C 1288.717 166.894 1292.757 164.809 1297.136 164.158 C 1312.761 158.612 1327.636 151.143 1341.417 141.925 C 1340.295 139.653 1338.718 137.635 1336.785 135.996 C 1332.338 131.549 1332.524 131.179 1339.008 131.179 C 1345.492 131.179 1345.307 131.179 1336.044 124.88 C 1330.671 121.174 1326.965 117.098 1327.892 115.616 C 1328.819 114.134 1327.892 112.837 1326.78 112.837 C 1325.668 112.837 1323.26 109.131 1322.333 104.499 C 1320.463 98.759 1316.58 93.89 1311.402 90.788 C 1306.461 87.884 1302.667 83.37 1300.656 78.004 C 1299.544 73.743 1296.765 70.222 1293.986 70.222 C 1291.207 70.222 1289.724 72.075 1290.836 74.854 C 1292.874 80.412 1288.057 84.303 1285.092 79.486 C 1282.128 74.669 1281.757 77.818 1279.348 81.154 C 1276.939 84.489 1275.272 85.786 1271.566 81.154 C 1267.861 76.522 1263.229 75.04 1257.114 81.154 C 1253.275 84.206 1248.767 86.301 1243.959 87.268 C 1238.401 88.38 1235.807 90.418 1236.733 93.012 C 1237.66 95.606 1233.769 101.35 1222.096 102.647 C 1209.911 103.442 1198.065 106.99 1187.449 113.023 C 1186.337 114.876 1181.149 115.246 1174.85 113.023 C 1168.551 110.8 1153.871 108.92 1157.291 136.626 C 1160.711 164.332 1144.835 124.325 1111.67 129.698 C 1106.418 130.335 1101.295 131.773 1096.477 133.959 C 1087.357 138.091 1077.565 140.539 1067.573 141.185 C 1063.751 141.298 1059.982 142.115 1056.456 143.594 C 1051.101 145.715 1045.497 147.147 1039.781 147.855 C 1023.662 150.264 1013.657 154.896 1024.218 155.081 C 1034.779 155.266 1033.297 160.269 1025.7 162.307 C 1014.853 165.974 1003.26 166.866 991.979 164.901 C 980.407 163.563 968.683 165.155 957.888 169.533 C 954.182 170.83 954.182 171.386 957.888 173.053 C 961.594 174.72 956.406 178.056 920.832 188.616 C 906.751 192.877 899.154 190.654 911.012 185.837 C 922.87 181.02 914.347 181.946 901.933 185.837 C 896.418 187.505 891.393 190.494 887.296 194.545 C 876.031 202.858 862.701 207.92 848.758 209.182 C 842.273 209.182 842.273 209.182 848.758 206.218 C 855.243 203.254 853.946 203.439 847.276 203.995 C 840.606 204.551 840.05 206.404 840.606 208.998 C 841.162 211.592 840.606 212.518 836.715 211.407 C 832.824 210.295 832.268 211.407 832.639 212.704 C 833.751 217.151 804.662 227.712 796.695 225.674 C 787.555 226.033 778.646 228.643 770.756 233.27 C 760.01 238.458 753.34 242.719 755.934 242.905 C 758.528 243.09 758.713 244.017 754.452 245.869 C 746.114 249.389 740.186 249.389 742.224 245.869 C 744.262 242.349 729.069 248.463 716.655 254.948 C 711.859 257.321 706.907 259.364 701.833 261.062 C 696.46 263.1 692.94 266.065 694.051 267.917 C 695.163 269.77 694.051 270.14 689.79 269.029 C 666.92 273.25 645.313 282.628 626.61 296.45 C 622.349 301.638 608.082 305.529 611.232 300.711 C 614.382 295.894 611.232 297.932 606.229 300.711 C 602.487 302.573 599.247 305.305 596.78 308.678 C 595.233 310.918 592.809 312.399 590.11 312.754 C 587.851 312.842 585.839 314.208 584.922 316.274 C 583.766 318.503 581.647 320.075 579.178 320.535 L 567.876 323.499 C 563.615 324.796 561.206 323.499 561.206 322.202 C 561.206 320.905 556.574 321.09 548.978 324.796 C 541.382 328.502 537.306 333.504 537.306 335.357 C 537.052 337.078 535.452 338.268 533.731 338.014 C 533.625 337.998 533.519 337.977 533.415 337.951 C 525.234 336.328 516.812 339.23 511.367 345.547 C 501.177 355.737 487.095 362.222 481.537 359.072 C 478.904 357.303 475.335 358.003 473.566 360.636 C 473.503 360.73 473.442 360.826 473.384 360.924 C 471.033 363.636 467.7 365.302 464.12 365.556 C 461.349 365.495 458.673 366.566 456.709 368.52 C 455.597 370.373 453.93 371.114 452.448 370.188 C 447.445 367.038 336.649 420.399 333.87 427.069 C 333.87 428.366 330.164 429.478 327.2 429.478 C 323.653 429.703 320.274 431.068 317.565 433.369 C 316.035 435.167 314.14 436.619 312.007 437.63 C 312.007 437.63 299.037 443.559 284.771 450.785 L 229.187 478.947 C 217.37 484.369 205.92 490.559 194.91 497.475 C 190.955 500.783 186.519 503.47 181.755 505.442 C 176.567 507.851 172.676 510.63 172.676 511.927 C 172.676 513.224 169.897 514.15 166.932 514.15 C 163.302 514.415 159.916 516.075 157.483 518.782 C 155.636 521.117 153.001 522.698 150.072 523.229 C 143.364 526.124 137.12 529.995 131.544 534.716 C 123.021 540.83 108.755 549.909 100.417 554.541 C 92.079 559.173 85.039 564.917 85.039 568.252 C 85.039 576.404 32.79 620.686 23.341 620.686 C 17.8 622.999 12.904 626.623 9.075 631.247 C -0.745 641.437 -1.115 642.364 3.887 647.181 C 8.89 651.998 9.631 651.998 20.562 647.181 C 40.387 637.176 42.425 636.435 42.425 640.882 C 42.425 645.329 36.311 648.664 28.714 653.296 C 21.117 657.928 15.003 663.301 15.003 665.71 C 15.003 668.119 15.003 670.157 16.856 670.157 C 29.058 668.393 40.888 664.637 51.874 659.04 C 54.534 656.778 58.127 655.949 61.509 656.817 C 65.565 657.535 69.741 656.673 73.182 654.408 C 77.883 650.941 83.474 648.885 89.301 648.479 C 93.756 646.558 97.833 643.86 101.344 640.512 C 107.263 633.937 116.179 630.919 124.874 632.545 C 127.653 632.545 130.062 631.619 130.062 629.951 C 130.062 628.283 132.285 626.801 135.435 626.987 C 138.585 627.172 140.438 626.987 135.435 630.878 C 130.432 634.769 128.209 641.995 132.1 641.995 C 135.214 640.618 138.042 638.67 140.438 636.251 C 151.129 628.803 162.406 622.235 174.159 616.611 C 185.288 611.126 196.056 604.937 206.398 598.083 C 209.181 595.727 212.597 594.245 216.218 593.822 C 218.997 593.822 221.406 592.525 221.406 590.858 C 221.304 589.224 222.545 587.816 224.179 587.714 C 224.243 587.71 224.306 587.708 224.37 587.708 C 237.406 583.567 249.859 577.777 261.426 570.477 C 267.278 567.027 273.491 564.231 279.954 562.139 C 285.542 560.348 290.58 557.159 294.591 552.875 C 298.111 548.984 302.743 546.39 305.152 547.317 C 307.561 548.243 309.413 547.317 309.413 545.279 C 309.413 543.241 310.71 542.5 312.007 543.241 C 313.304 543.982 318.492 540.647 323.309 535.83 C 328.126 531.013 332.758 528.234 333.685 529.901 C 334.611 531.568 345.913 528.233 362.033 520.637 C 371.304 517.387 379.815 512.28 387.046 505.629 C 387.046 504.332 387.972 503.776 390.937 504.517 C 411.142 498.894 430.293 490.007 447.632 478.207 C 449.554 476.39 452.037 475.279 454.673 475.057 C 462.565 472.833 470.203 469.79 477.462 465.978 C 497.843 456.158 502.845 454.861 499.51 460.234 C 498.028 462.643 499.51 463.198 503.03 461.531 C 506.55 459.863 511.368 458.567 514.147 457.825 C 516.926 457.084 518.594 454.861 517.482 453.008 C 516.37 451.155 517.482 450.599 517.482 451.526 C 529.637 450.125 541.044 444.94 550.091 436.704 C 552.86 433.888 556.709 432.402 560.652 432.628 C 568.063 432.628 568.248 432.628 563.616 436.704 C 558.984 440.78 558.984 441.521 560.096 442.448 C 572.663 440.571 584.463 435.248 594.187 427.07 C 596.966 423.364 598.819 422.994 600.301 425.588 C 601.783 428.182 607.342 427.256 620.682 421.697 C 627.44 419.314 633.716 415.737 639.21 411.136 C 639.21 409.468 641.248 408.727 642.73 409.654 C 652.182 407.559 661.247 403.996 669.595 399.093 C 678.416 394.335 687.582 390.248 697.016 386.865 C 698.869 386.865 701.277 383.901 702.204 380.566 C 703.13 377.231 705.91 375.008 708.503 375.934 C 712.793 376.449 717.142 375.809 721.102 374.081 C 724.514 372.557 728.137 371.557 731.848 371.117 C 741.41 368.14 750.657 364.23 759.455 359.444 C 768.686 354.607 778.289 350.518 788.173 347.216 C 790.004 347.421 791.653 346.103 791.858 344.272 C 791.873 344.142 791.879 344.011 791.879 343.881 C 792.592 340.688 794.519 337.897 797.252 336.099 C 800.031 333.69 796.14 336.099 788.544 339.619 C 781.945 343.387 774.731 345.959 767.237 347.215 C 760.567 347.215 761.308 346.103 774.463 334.245 C 782.656 326.791 792.221 321.001 802.625 317.199 C 807.197 316.364 811.548 314.598 815.409 312.011 C 801.71 313.076 788.45 317.327 776.686 324.425 C 774.425 327.051 771.241 328.709 767.793 329.057 C 753.47 331.675 739.69 336.686 727.032 343.879 C 724.543 345.987 721.4 347.166 718.139 347.214 C 708.098 349.846 698.398 353.639 689.235 358.516 C 680.589 362.897 671.679 366.733 662.555 370.003 C 645.765 375.857 629.471 383.044 613.827 391.495 C 607.444 395.016 600.577 397.575 593.446 399.091 C 590.773 398.97 588.187 400.058 586.405 402.055 C 584.356 404.246 581.432 405.402 578.438 405.205 C 571.042 406.613 563.914 409.176 557.316 412.801 C 545.273 418.915 542.308 419.471 542.308 415.765 C 542.308 412.059 545.087 411.133 549.534 411.133 C 553.981 411.133 557.686 409.28 558.427 407.057 C 561.113 403.772 564.962 401.648 569.173 401.128 C 574.019 400.467 578.203 397.399 580.29 392.976 C 582.143 386.862 589.183 384.453 591.777 388.9 C 591.777 390.382 591.777 389.826 591.777 388.9 C 590.665 383.712 621.792 368.89 624.571 373.337 C 627.35 377.784 626.98 376.116 626.98 373.337 C 626.98 370.558 631.983 367.408 638.467 364.629 C 644.952 361.85 656.995 356.662 665.332 352.586 C 671.286 349.644 677.486 347.226 683.86 345.36 C 688.021 343.755 691.76 341.22 694.791 337.949 C 699.238 333.688 703.499 331.094 704.426 332.02 C 718.243 330.118 731.433 325.045 742.964 317.198 C 746.114 314.419 749.078 312.937 750.005 313.678 C 760.581 312.542 770.707 308.785 779.464 302.747 C 779.464 299.041 795.583 292.927 808.368 291.445 C 822.224 288.312 835.615 283.392 848.203 276.808 C 859.222 270.719 870.996 266.109 883.221 263.097 C 887.899 262.691 892.411 261.166 896.376 258.65 C 902.096 255.394 908.384 253.256 914.904 252.351 C 922.13 251.239 928.059 249.201 928.059 247.719 C 928.059 246.237 931.209 244.94 935.1 244.94 C 945.105 244.94 958.445 238.085 958.445 232.712 C 958.445 227.339 958.445 228.821 961.409 232.712 C 964.373 236.603 966.412 236.418 979.937 231.786 C 988.83 229.007 998.465 226.042 1000.688 225.672 C 1009.914 224.282 1018.821 221.271 1026.998 216.779 C 1029.221 215.111 1031.815 214.556 1032.742 215.482 C 1038.528 215.842 1044.328 215.022 1049.788 213.073 C 1063.499 209.367 1064.981 209.367 1063.313 213.073 C 1062.289 216.186 1062.917 219.606 1064.98 222.152 C 1067.759 225.672 1064.98 229.934 1049.787 245.497 C 1042.094 252.308 1035.8 260.552 1031.259 269.769 C 1031.177 272.904 1029.304 275.713 1026.442 276.995 C 1019.031 280.145 1000.503 299.784 1000.503 306.269 C 999.656 311.701 997.278 316.778 993.648 320.906 C 989.942 324.982 984.384 332.393 981.42 336.469 C 978.456 340.545 974.565 343.51 972.897 342.583 C 971.229 341.657 971.044 342.583 972.897 345.733 C 974.75 348.883 972.897 351.106 968.636 352.403 C 964.603 353.818 961.544 357.155 960.484 361.296 C 960.484 365.187 956.593 368.522 954.185 368.522 C 951.777 368.522 949.553 370.004 949.553 371.672 C 949.447 373.203 950.602 374.53 952.134 374.636 C 952.262 374.645 952.39 374.645 952.518 374.636 C 959.003 374.636 955.297 382.603 946.404 387.791 C 941.401 390.941 937.325 394.832 937.325 396.87 C 937.325 398.908 936.213 398.723 934.361 395.944 C 932.508 393.165 931.211 392.424 931.211 396.87 C 931.211 401.316 929.914 401.502 928.247 400.576 C 926.579 399.65 923.615 404.467 924.727 415.213 C 924.727 417.992 923.43 420.03 921.392 419.66 C 919.354 419.289 917.501 423.921 917.316 435.594 C 917.131 447.267 918.242 454.122 923.43 458.013 C 928.618 461.904 928.618 463.571 924.356 462.089 C 920.094 460.607 917.686 462.089 918.798 471.538 C 924.616 482.025 933.552 490.442 944.367 495.624 C 949.656 497.731 955.401 498.433 961.042 497.662 C 974.094 495.27 986.632 490.631 998.098 483.951 C 1000.685 481.628 1003.915 480.143 1007.362 479.69 C 1011.992 478.689 1016.52 477.263 1020.887 475.429 C 1057.943 458.198 1088.143 441.523 1063.872 450.787 C 1059.544 452.439 1054.976 453.378 1050.347 453.566 C 1046.271 453.566 1046.456 453.566 1051.273 451.157 C 1056.09 448.748 1065.354 445.599 1112.23 423.55 C 1147.433 406.875 1153.362 405.022 1153.362 407.801 C 1153.362 410.58 1146.877 413.545 1138.91 417.25 C 1095.74 437.075 1076.101 447.636 1078.324 449.859 C 1083.57 449.171 1088.616 447.404 1093.146 444.671 C 1098.374 441.54 1104.165 439.463 1110.192 438.557 C 1112.415 438.557 1114.083 438.557 1114.083 436.334 C 1114.083 434.111 1117.233 432.443 1120.938 431.331 L 1129.276 428.552 C 1131.737 427.39 1134.275 426.399 1136.872 425.588 C 1157.067 418.177 1169.666 408.542 1159.105 408.542 C 1152.064 408.542 1163.737 400.575 1180.783 393.72 C 1186.287 391.194 1192.071 389.328 1198.014 388.162 C 1189.756 394.143 1180.634 398.829 1170.963 402.058 C 1159.846 406.505 1162.996 412.434 1174.298 408.357 C 1178.745 406.689 1190.788 401.131 1200.608 396.129 C 1207.592 392.102 1215.064 388.988 1222.842 386.865 C 1228.445 385.573 1233.736 383.18 1238.405 379.824 C 1246.017 375.105 1254.165 371.311 1262.676 368.522 C 1268.02 367.165 1273.182 365.174 1278.054 362.593 C 1291.623 355.625 1305.832 349.978 1320.483 345.733 C 1331.414 342.027 1349.572 334.431 1360.874 329.243 C 1369.307 325.115 1378.201 322.006 1387.369 319.979 C 1407.403 314.164 1426.777 306.278 1445.176 296.449 C 1447.225 294.897 1449.66 293.936 1452.217 293.67 C 1461.666 290.683 1470.891 287.03 1479.824 282.739 C 1492.052 277.181 1508.727 270.325 1516.88 267.361 C 1525.032 264.397 1532.629 260.876 1532.629 259.394 C 1532.629 257.912 1534.667 257.541 1536.705 258.282 C 1543.817 258.263 1550.838 256.682 1557.271 253.65 C 1578.578 245.498 1580.246 245.683 1570.982 254.947 C 1567.534 257.942 1564.81 261.679 1563.015 265.878 C 1563.015 267.36 1559.68 269.584 1555.418 270.51 C 1551.157 271.436 1547.822 273.474 1547.822 274.957 C 1545.106 280.148 1541.536 284.846 1537.261 288.853 C 1533.021 292.867 1529.4 297.488 1526.515 302.564 C 1526.515 304.046 1524.477 305.158 1522.068 305.158 C 1519.659 305.158 1517.436 306.27 1517.436 307.567 C 1512.912 314.9 1507.701 321.787 1501.873 328.133 C 1489.538 340.321 1479.219 354.392 1471.302 369.821 C 1458.703 394.463 1453.886 412.065 1457.406 420.032 C 1458.666 423.67 1461.776 426.355 1465.558 427.073 C 1468.685 427.232 1471.676 428.402 1474.081 430.408 C 1476.675 433.002 1480.936 433.187 1490.015 430.408 C 1499.094 427.629 1502.429 427.444 1500.576 433.558 C 1498.723 439.672 1500.576 438.931 1500.576 437.819 C 1500.576 436.707 1505.208 437.819 1507.246 440.228 C 1509.627 443.141 1513.722 443.991 1517.066 442.266 C 1525.959 438.931 1538.558 442.266 1535.594 446.157 C 1532.63 450.048 1560.977 450.233 1567.462 444.86 C 1571.944 442.226 1577.09 440.94 1582.284 441.154 C 1590.251 441.154 1596.365 438.004 1620.637 417.253 C 1632.587 407.731 1643.571 397.057 1653.431 385.385 C 1655.654 381.124 1659.175 378.9 1661.769 379.827 C 1664.363 380.754 1671.033 376.863 1678.074 369.822 C 1685.115 362.781 1691.97 356.667 1694.378 355 L 1707.718 346.107 C 1719.667 336.458 1730.992 326.062 1741.624 314.98 C 1769.078 286.493 1802.66 264.633 1839.822 251.059 C 1858.35 243.648 1869.652 237.719 1866.317 237.719 C 1852.43 240.22 1838.959 244.647 1826.297 250.874 C 1823.784 252.371 1820.88 253.081 1817.959 252.912 C 1812.03 252.912 1812.03 252.912 1819.071 249.021 L 1840.378 237.348 C 1852.832 231.147 1865.863 226.182 1879.287 222.526 C 1888.153 220.804 1896.63 217.476 1904.3 212.706 C 1904.3 211.038 1905.597 210.668 1907.45 211.78 C 1909.303 212.892 1910.415 211.78 1910.415 211.78 C 1910.415 211.78 1911.897 209.001 1914.12 209.186 C 1924.753 206.386 1934.837 201.813 1943.95 195.661 C 1950.801 191.31 1958.64 188.761 1966.739 188.25 C 1981.649 185.902 1996.093 181.212 2009.538 174.354 C 2009.538 172.872 2014.17 172.501 2018.246 174.354 C 2022.563 175.243 2027.044 174.002 2030.289 171.019 C 2032.596 168.535 2035.795 167.069 2039.182 166.943 C 2051.516 167.554 2063.758 164.525 2074.385 158.235 C 2076.423 154.529 2079.017 154.344 2089.392 157.123 C 2099.768 159.902 2107.92 160.458 2111.255 157.123 C 2114.59 153.788 2126.448 148.415 2126.448 151.194 C 2126.448 153.973 2134.415 154.714 2138.862 149.526 C 2141.016 146.891 2144.381 145.559 2147.756 146.006 C 2152.484 146.209 2157.191 145.255 2161.467 143.227 C 2166.655 141.004 2169.063 139.151 2166.84 139.151 C 2164.617 139.151 2163.134 137.669 2163.134 136.187 C 2163.134 134.705 2168.878 133.593 2175.918 133.593 C 2195.558 133.593 2207.786 130.258 2209.639 123.773 C 2210.995 119.781 2214.047 116.593 2217.976 115.065 C 2222.608 113.397 2223.72 111.73 2221.126 110.248 C 2218.532 108.766 2216.865 102.281 2221.126 104.134 C 2223.314 105.171 2225.929 104.555 2227.426 102.652 C 2229.007 100.872 2231.57 100.344 2233.725 101.355 C 2239.283 103.578 2239.283 100.243 2233.725 79.677 C 2230.76 69.857 2226.499 61.149 2223.535 61.149 C 2219.571 59.391 2216.033 56.8 2213.16 53.553 C 2207.787 47.809 2207.972 47.624 2215.754 47.624 C 2223.536 47.624 2226.871 42.621 2219.275 39.657 C 2216.681 39.657 2214.643 36.693 2214.643 35.21 C 2214.643 30.207 2202.971 19.461 2199.635 21.499 C 2196.3 23.537 2193.521 20.017 2190.001 16.496 C 2186.481 12.976 2184.257 11.308 2185.369 13.346 C 2186.481 15.384 2185.369 17.237 2182.775 17.237 C 2180.181 17.237 2178.143 15.94 2178.143 14.087 C 2178.143 12.234 2176.661 11.678 2174.993 12.79 C 2173.326 13.902 2170.917 12.79 2169.991 8.343 C 2169.064 3.896 2166.1 2.044 2159.43 2.044 C 2152.76 2.044 2151.093 3.156 2152.019 4.638 C 2152.945 6.12 2148.313 12.79 2133.491 17.237 C 2128.518 18.761 2123.632 20.554 2118.854 22.61 C 2095.85 24.335 2072.749 24.335 2049.745 22.61 C 2016.58 19.09 2011.578 18.534 2011.578 18.163 C 2007.118 17.27 2002.596 16.713 1998.053 16.495 C 1979.385 14.928 1960.825 12.268 1942.469 8.528 C 1926.32 6.117 1910.054 4.571 1893.741 3.896 L 1860.015 0 L 1855.939 7.967 C 1851.307 16.49 1843.71 18.343 1843.71 10.931 C 1843.71 8.152 1842.228 6.855 1840.56 7.967 C 1838.893 9.079 1837.596 7.967 1837.596 6.299 C 1837.596 4.631 1835.743 4.076 1831.482 6.299 C 1827.221 8.522 1825.368 8.893 1825.368 5.187 C 1825.368 1.481 1817.401 -1.112 1815.734 4.261 C 1814.067 9.634 1814.067 7.225 1813.881 4.261 C 1813.695 1.297 1804.061 -1.112 1801.097 1.852 L 1800.726 1.853 Z M 1933.386 14.266 C 1938.112 14.425 1942.687 15.971 1946.541 18.713 C 1946.541 20.195 1948.95 20.751 1951.173 20.01 C 1959.881 17.046 1974.518 16.119 1976 18.528 C 1977.482 20.937 1980.261 20.751 1983.967 20.01 C 1987.868 19.456 1991.811 20.68 1994.713 23.345 C 1998.604 27.236 1998.233 27.977 1991.008 30.941 C 1985.827 32.701 1980.303 33.209 1974.889 32.423 C 1952.983 28.147 1930.691 26.16 1908.374 26.494 C 1871.318 25.568 1856.496 22.047 1856.496 14.08 C 1882.245 10.428 1908.379 10.428 1934.128 14.08 L 1933.386 14.266 Z M 1875.949 42.058 C 1867.426 46.505 1858.903 45.578 1858.903 40.205 C 1858.903 34.832 1873.169 34.276 1879.84 36.314 C 1882.805 36.315 1881.323 39.094 1875.949 42.058 Z M 1128.349 134.698 C 1128.349 138.033 1122.605 139.515 1120.753 136.551 C 1118.9 133.587 1120.753 133.401 1123.717 133.401 C 1126.681 133.401 1128.349 133.401 1128.349 134.698 Z M 1093.146 145.444 C 1090.698 146.369 1087.997 146.369 1085.55 145.444 C 1083.512 145.444 1085.55 143.962 1089.441 143.962 C 1093.332 143.962 1095.369 143.962 1093.146 145.444 Z M 1128.905 152.114 C 1128.905 153.782 1125.57 155.634 1121.309 156.375 C 1112.786 158.043 1110.563 153.596 1118.9 151.558 C 1127.238 149.52 1128.905 149.335 1128.905 151.558 L 1128.905 152.114 Z M 1110.377 156.746 C 1110.377 156.746 1108.154 158.784 1105.745 159.71 C 1103.336 160.636 1101.113 159.71 1101.113 158.413 C 1101.113 157.116 1103.336 155.449 1105.745 155.449 C 1108.154 155.449 1110.377 155.449 1110.377 156.746 Z M 1094.999 160.081 C 1090.75 162.664 1086.024 164.365 1081.103 165.084 C 1071.283 167.493 1066.095 170.828 1063.872 175.83 C 1062.387 179.529 1059.091 182.193 1055.164 182.871 C 1052.432 182.72 1049.777 183.809 1047.938 185.835 C 1042.749 188.71 1036.995 190.417 1031.078 190.838 C 1022.74 191.95 1015.885 193.988 1015.885 195.285 C 1015.885 196.582 1013.106 196.767 1009.771 195.285 C 1006.436 193.803 1004.583 192.506 1005.51 191.024 C 1018.611 184.556 1032.596 180.061 1047.012 177.684 C 1052.2 176.758 1055.535 173.978 1055.72 170.829 C 1055.905 167.679 1056.646 166.753 1057.573 169.532 C 1058.499 172.311 1059.611 172.867 1061.649 169.532 C 1065.355 163.418 1094.999 154.339 1094.999 159.156 L 1094.999 160.081 Z M 1116.306 164.713 C 1114.048 166.295 1111.442 167.311 1108.71 167.677 C 1107.228 167.677 1108.71 166.38 1110.377 164.713 C 1112.641 163.107 1115.237 162.031 1117.973 161.563 C 1119.455 161.563 1118.9 163.045 1116.306 164.713 Z M 1102.039 168.048 C 1098.403 170.538 1094.196 172.068 1089.811 172.495 L 1081.288 172.495 L 1090.552 168.234 C 1101.854 163.231 1106.486 162.861 1102.039 168.234 L 1102.039 168.048 Z M 1000.506 195.099 C 1000.506 196.767 997.356 198.063 993.651 198.063 C 989.946 198.063 987.722 198.063 991.428 195.284 C 995.134 192.505 1000.507 191.393 1000.507 195.284 L 1000.506 195.099 Z M 985.313 197.878 C 984.599 200.477 982.949 202.721 980.681 204.177 C 977.717 206.586 976.234 206.771 976.234 204.177 C 976.234 201.583 974.566 201.768 970.305 204.177 C 966.044 206.586 963.264 206.771 961.967 205.289 C 960.67 203.807 967.896 197.137 975.863 199.175 C 980.495 200.101 982.162 199.175 980.866 197.507 C 979.57 195.839 980.866 194.357 982.163 194.357 C 983.684 194.152 985.083 195.22 985.288 196.741 C 985.306 196.872 985.314 197.004 985.313 197.136 L 985.313 197.878 Z M 951.963 208.809 C 948.185 211.827 943.456 213.403 938.623 213.256 L 928.988 213.256 L 938.067 208.995 C 951.222 203.066 956.595 203.066 951.963 208.995 L 951.963 208.809 Z M 869.699 216.406 C 869.699 218.074 866.735 219.37 863.4 219.37 C 860.065 219.37 858.027 218.073 858.953 216.406 C 860.504 214.526 862.815 213.438 865.252 213.442 C 867.661 213.441 869.699 214.738 869.699 216.406 Z M 1476.858 222.335 C 1475.077 224.332 1472.491 225.421 1469.817 225.299 C 1465.37 225.299 1465.185 225.299 1469.817 222.335 C 1474.449 219.371 1480.007 218.444 1477.414 222.335 L 1476.858 222.335 Z M 1195.42 225.299 C 1195.526 226.933 1194.287 228.343 1192.653 228.449 C 1192.525 228.457 1192.398 228.457 1192.27 228.449 C 1190.633 228.452 1189.303 227.128 1189.3 225.49 C 1189.3 225.426 1189.302 225.362 1189.306 225.299 C 1189.2 223.768 1190.355 222.441 1191.887 222.335 C 1192.015 222.326 1192.143 222.326 1192.271 222.335 C 1193.905 222.233 1195.313 223.474 1195.415 225.108 C 1195.418 225.172 1195.42 225.235 1195.42 225.299 Z M 837.646 228.449 C 835.83 230.378 833.249 231.397 830.605 231.228 C 826.529 231.228 826.714 231.228 831.531 228.449 C 839.869 224.743 839.869 224.743 837.646 228.449 Z M 778.172 248.459 C 771.864 253.687 764.348 257.254 756.309 258.835 C 754.086 258.835 757.791 256.056 764.461 252.906 C 778.727 246.236 778.172 246.421 778.172 248.459 Z M 1800.911 261.984 C 1800.911 263.652 1797.576 265.134 1794.056 265.134 C 1790.536 265.134 1788.127 265.134 1791.647 262.17 C 1795.167 259.206 1800.911 258.464 1800.911 262.17 L 1800.911 261.984 Z M 512.667 367.964 C 484.69 380.007 481.725 379.266 503.403 365.555 C 513.779 358.885 518.411 357.403 520.078 359.997 C 521.745 362.591 518.966 365.185 512.667 367.964 Z M 712.953 367.964 C 713.879 369.817 712.953 371.114 711.471 371.114 C 709.837 371.22 708.427 369.981 708.321 368.347 C 708.313 368.219 708.313 368.092 708.321 367.964 C 708.321 366.296 708.321 365 709.618 365 C 710.915 365 711.842 366.296 712.953 367.964 Z M 583.258 413.728 C 583.261 415.365 581.937 416.695 580.299 416.698 C 580.235 416.698 580.172 416.696 580.108 416.692 C 578.577 416.798 577.25 415.643 577.144 414.111 C 577.135 413.983 577.135 413.855 577.144 413.727 C 577.042 412.093 578.283 410.685 579.917 410.583 C 579.981 410.579 580.044 410.577 580.108 410.577 C 581.742 410.471 583.152 411.71 583.258 413.344 C 583.266 413.472 583.266 413.6 583.258 413.728 Z M 583.258 422.436 C 586.778 424.845 586.408 425.771 581.59 428.365 C 576.772 430.959 575.476 430.403 575.291 425.586 C 575.106 420.768 576.773 418.36 583.258 422.436 Z M 413.357 478.02 C 407.984 483.578 388.715 489.878 388.715 486.358 C 396.58 479.868 405.739 475.131 415.58 472.462 C 417.619 472.461 416.692 474.685 413.357 478.02 Z M 939.735 473.573 C 939.735 473.573 936.956 475.426 933.621 476.167 C 930.286 476.908 927.507 476.167 927.507 475.055 C 927.507 473.943 930.286 472.276 933.621 472.276 C 936.956 472.276 939.735 472.276 939.735 473.573 Z M 355.18 508.035 C 355.18 512.482 348.325 517.669 342.396 517.669 C 336.467 517.669 335.355 516.187 340.728 510.073 C 346.101 503.959 355.18 503.959 355.18 508.035 Z M 327.944 523.784 C 327.944 525.452 325.721 526.934 323.312 526.934 C 320.903 526.934 318.68 528.231 318.68 529.898 C 318.68 531.566 316.642 533.048 313.863 533.048 C 306.637 533.048 310.528 525.822 319.051 523.413 L 327.018 521.004 C 327.017 521.004 327.944 521.931 327.944 523.784 Z M 62.81 607.159 C 54.206 613.244 45.094 618.575 35.574 623.093 C 42.999 615.915 51.661 610.14 61.142 606.047 C 62.81 606.047 63.551 606.047 62.81 607.159 Z M 93.566 640.695 C 93.566 640.695 91.157 643.659 88.193 646.068 C 85.229 648.477 83.376 649.588 87.081 644.586 C 90.787 639.583 93.566 638.101 93.566 640.695 Z"/>
      <path style="fill: rgb(14, 169, 0);" d="M1005.138,140.256c-1.112,1.853,0,2.409,2.779,1.297c2.779-1.112,6.114-4.261,1.668-4.261 C1007.705,137.488,1006.043,138.597,1005.138,140.256z"/>
      <path style="fill: rgb(14, 169, 0);" d="M1638.236,154.337c-10.005,4.076-14.822,6.855-10.376,5.929 c8.893-1.668,37.056-13.525,31.683-13.525C1652.23,148.637,1645.099,151.179,1638.236,154.337z"/>
      <path style="fill: rgb(14, 169, 0);" d="M1006.621,156.375c-6.67,2.779-6.855,3.335-2.038,4.447c3.152,0.708,6.456,0.034,9.079-1.853 C1018.478,154.152,1015.143,152.855,1006.621,156.375z"/>
      <path style="fill: rgb(14, 169, 0);" d="M924.357,179.906c-3.891,2.594-3.891,2.964,0,2.964c2.664,0.071,5.229-1.01,7.041-2.964 c2.409-3.891-1.668-3.891-7.782,0H924.357z"/>
      <path style="fill: rgb(14, 169, 0);" d="M1506.318,190.837c-6.855,4.817-8.893,10.376-3.52,10.376c1.725-0.276,2.986-1.774,2.965-3.52 c0.765-3.172,2.766-5.907,5.558-7.596c7.411-5.744,3.335-5.003-5.002,0L1506.318,190.837z"/>
      <path style="fill: rgb(14, 169, 0);" d="M802.628,222.335c-3.891,2.594-3.891,2.964,0,2.964c2.655,0.024,5.203-1.048,7.041-2.964 c2.409-3.891-1.668-3.891-7.782,0H802.628z"/>
      <path style="fill: rgb(14, 169, 0);" d="M959.745,281.995c-3.335,2.409-4.632,4.447-2.779,4.447c2.865-0.679,5.413-2.313,7.226-4.632 c4.632-5.558,3.15-5.558-4.447,0L959.745,281.995z"/>
      <path style="fill: rgb(14, 169, 0);" d="M936.585,284.959c-5.744,2.223-14.822,5.558-19.825,7.782c-4.35,1.876-8.985,3.003-13.711,3.335 c-3.15,0-2.964,0,0,2.594c2.964,2.594,10.005,1.668,25.198-3.706c7.654-2.222,14.82-5.868,21.122-10.746 c1.668-4.447,0-4.447-13.711,0L936.585,284.959z"/>
      <path style="fill: rgb(14, 169, 0);" d="M889.339,301.264c-1.297,2.038-1.667,4.447,0,5.558c1.668,1.112,5.744,0,4.261-5.558 c-1.482-5.558-1.853-2.964-3.706,0H889.339z"/>
      <path style="fill: rgb(14, 169, 0);" d="M874.146,305.71c-5.197,2.995-10.82,5.182-16.675,6.485c-19.825,4.261-30.571,16.119-11.302,12.414 c19.269-3.706,32.053-11.117,33.721-17.231C881.557,301.264,881.557,300.708,874.146,305.71z"/>
      <path style="fill: rgb(14, 169, 0);" d="M825.974,326.832c-2.964,3.15-5.188,6.299-4.632,6.67c0.556,0.371,12.599-6.855,11.487-9.635 S828.938,323.868,825.974,326.832z"/>
      <path style="fill: rgb(14, 169, 0);" d="M601.786,383.898c-2.409,1.482-3.15,2.964-1.482,2.964c2.71-0.451,5.297-1.461,7.596-2.964 c2.409-1.668,3.15-3.15,1.482-3.15C606.646,381.216,604.05,382.292,601.786,383.898z"/>
    </g>
  </g>
  <path d="M 897.469 121.154 L 971.127 90.428 L 955.855 138.974 L 936.507 80.78" style="fill: rgb(14, 169, 0);"/>
  <text style="fill: rgb(255, 0, 0); font-family: Arial, sans-serif; font-size: 29.3px; white-space: pre;" x="1067.3" y="507.588">gO-iT</text>
</svg>