<?xml version="1.0" encoding="utf-8"?>
<!-- Generator: Adobe Illustrator 27.0.1, SVG Export Plug-In . SVG Version: 6.00 Build 0)  -->
<svg version="1.1" id="Layer_205" xmlns="http://www.w3.org/2000/svg" xmlns:xlink="http://www.w3.org/1999/xlink" x="0px" y="0px"
	 viewBox="0 0 2409.7 1359.7" style="enable-background:new 0 0 2409.7 1359.7;" xml:space="preserve">
<g>
	<path d="M921.6,286.7H750.1c-7.6,0-13.7,6.1-13.7,13.7v308.9c0,3.7,1.4,7.1,4.1,9.6c2.6,2.7,6,4.1,9.6,4.1c14.7,0,30-0.2,44.7-0.5
		c3.6-0.1,7.1-0.1,10.7-0.2l10.8-0.2c15.5-0.2,31.5-0.5,47.2-0.5c0.5-0.1,0.9-0.1,1.3-0.1c21.8,0,40.2,0.4,56.1,1.3h0.9
		c3.4,0,6.7-1.2,9.2-3.5c2.7-2.5,4.3-5.9,4.5-9.6c4.2-98.3,4.1-211.3-0.2-309.9C935,292.5,929,286.7,921.6,286.7z"/>
	<path d="M1338.4,286.7h-171.5c-7.6,0-13.7,6.1-13.7,13.7v308.9c0,3.6,1.5,7.1,4.1,9.7c2.5,2.6,5.9,4,9.6,4c14.6,0,30-0.3,44.9-0.5
		l21.4-0.4c15.9-0.2,32.3-0.5,48.3-0.5h0.1c21.8,0,40.2,0.4,56.1,1.3h0.9c3.4,0,6.7-1.2,9.2-3.5c2.7-2.4,4.3-5.9,4.5-9.6
		c4.2-99.5,4.2-212.5-0.2-309.9C1351.8,292.5,1345.8,286.7,1338.4,286.7z"/>
	<path d="M2015.2,1021.2c-28.1-26-56.4-42.3-117.5-48.7c-5.8-0.7-12.1-1-18.8-1c-57,0-109.4,25-136,49.7
		c-36.8,34-57.9,86.2-57.9,143.2c0,56.9,21.1,109.1,57.9,143.2c34.3,31.9,84.3,50.1,137.1,50.1c53.2,0,105.1-20.1,138.6-53.6
		c32.8-32.7,51.7-86.8,50.6-144.6C2068.2,1103.3,2048,1051.6,2015.2,1021.2z M1914.9,1217.8c-2.6,2.2-5.6,3.9-9,5
		c-8.4,2.9-17,4.4-25.4,4.4h-0.1c-18.6,0-35.2-7.4-46.7-20.7c-13.4-15.8-18.6-38.6-14.5-64.1c0.8-4.9,2.8-9.5,5.8-13.5l0.1-0.1
		c11.9-15.2,21.8-25.2,48.6-25.2c26.7,0,51.9,18.6,61.3,45.4C1944,1174.6,1936.5,1200.4,1914.9,1217.8z"/>
	<path d="M603.2,972.3c-8-1-16.3-1.5-24.8-1.5h-0.1c-77.7,0-148,48.7-179.2,123.9c-30.7,74-15,152.2,42.1,209.2
		c46,46.1,97.8,55.8,133.1,55.8c96.1,0,200.9-73.2,202.6-191.5c0.8-52.8-14.9-98.8-45.3-133.1C701.1,1000.7,656.7,979,603.2,972.3z
		 M584.8,1224.2c-3.5,0.5-6.7,0.7-9.7,0.7h-0.2c-13.9,0-22-5-26.9-8l-0.2-0.1c0-0.1-0.1-0.1-0.1-0.1c-1.2-0.7-2.8-1.4-4.1-1.7
		c-0.1,0-0.1,0-0.2,0c-10.8-2.6-19.1-10.9-21.9-21.6c-4.1-15.9-5.9-27.6-5.8-37.8c0.2-12.7,3.3-23.7,9.7-33.5c2-3,3.6-5.6,5-8
		c4.2-7,7.5-12.5,14.2-16c6.6-3.4,15.4-4.1,28.3-4.1c16.7,0,32.9,7.9,45.8,22.4c11.7,13.1,19,29.9,20.1,46.1
		C641.1,1195.2,619.9,1219.4,584.8,1224.2z"/>
	<path d="M1794.3,286.7h-171.5c-7.6,0-13.7,6.1-13.7,13.7v308.9c0,3.7,1.4,7.1,4.1,9.7c2.5,2.6,5.9,4,9.6,4c15.9,0,32.2-0.3,48-0.6
		l10.7-0.2c16.5-0.2,36.9-0.6,56-0.6c21.8,0,40.2,0.4,56.1,1.3h0.9c3.4,0,6.7-1.2,9.2-3.5c2.7-2.4,4.3-5.9,4.5-9.6
		c4.2-99.5,4.2-212.5-0.2-309.9C1807.7,292.5,1801.7,286.7,1794.3,286.7z"/>
	<path d="M2396,4.7c-99.4,0.6-202,0.9-313.7,0.9c-241.7,0-492.1-1.4-734.3-2.8l-74.6-0.4c-184.8-1-376-2-557.8-2.4h-2.2
		c-49.2,0-145.5,3.7-237.6,28.1c-107.5,28.5-180.2,76.6-215.9,143c-19.7,36.6-25.9,77.7-31.8,124.8c3.6-9.2,7.6-18.1,11.9-26.5
		c14-27.5,38-63.4,73-78.9c22-9.7,48.3-14.2,82.8-14.2c25.5,0,35,0.7,46.9,1.7c3.9,0.3,7.9,0.7,12.9,1l2.5,0.2
		c25.3,1.6,43.4,2.7,62.9,2.7c20,0,30-0.7,43.6-2.3c0.5-0.1,1.1-0.1,1.7-0.1c0.6-0.1,1.1-0.1,1.7-0.1c3.9,0,7.7,0.7,11.3,2.2
		c7.8,3.3,17.6,8.2,25.1,17.8c3.9,5,6,10.8,6.3,17c7.3,147.2,7.3,323.6,0,471.8c-0.7,12.8-9.5,23.7-21.8,27.1
		c-38.6,10.8-88.8,15.8-158,15.8h-0.2c-44.1,0-89.8-2.1-130.2-4L298,727c-0.2,0-0.3,0-0.4,0l-12.8-0.6c-10.6-0.5-20.8-1-30.6-1.4
		c-13.1-0.6-24.4-9.9-27.6-22.6c-18.1-73.5-26.5-179.9-22.6-272.1c-2.3,7.7-4.8,15.4-7.6,23.2c-3.6,9.8-12.2,17.1-22.4,19
		c-9.1,1.7-19.6,2.6-32,2.6c-13.5,0-35.6-1.6-47.7-2.6h-1.6c-0.2,0-0.5,0-0.7,0c-17.6-1.5-33.4-2.8-48.7-2.8
		c-15.5,0-23.5,0.9-32,2.4c-6.8,1.2-11.6,7.3-11.3,14.2C4.2,580,3.5,679.6,2.8,776v4.5C2.4,826.7,2,879,2.3,930
		c0,3.8,1.6,7.4,4.3,10c2.5,2.4,5.9,3.7,9.4,3.7h0.9c11.2-0.6,23-0.9,35-0.9c42.2,0,82.6,3.6,118.2,6.8l4.7,0.4
		c35.7,3.3,69.4,6.3,103.3,6.3c32.6,0,57-2.2,84.1-7.8c15-3.2,32.3-16.3,50.7-30.3l0.6-0.5c18.4-14,39.2-29.8,62.2-37.8
		c27.7-9.5,59.5-14.4,94.6-14.4c71.4,0,143.7,20.4,188.7,53.2c8.7,6.4,15.3,13.2,22.4,20.7c9.4,10.1,15.2,15.8,23.5,17.8
		c15.2,3.7,34.7,5.5,59.7,5.5c22.9,0,44.2-1.3,66.8-2.7l6.6-0.4c0.2,0,0.3,0,0.5,0h0.3c22.6-1.4,50.7-3.2,76.2-3.2h429.9
		c0.6,0,1.2,0.1,1.8,0.2c23.6,0,47.7,1.3,71.1,2.5l3.6,0.2c0.1,0,0.3,0,0.4,0c24.3,1.4,47.9,2.6,70.7,2.6c23.4,0,44.5-1.7,59.2-4.8
		c20.4-4.2,32.6-15.9,48.1-30.6l0.1-0.1c17.3-16.2,36.9-34.7,69.2-46.3c31-11.2,64.8-16.9,100.3-16.9c60.1,0,121.5,16.6,168.5,45.6
		c6.2,3.8,12.9,9.2,19,14c10.3,8.3,17.3,13.7,22.1,16.1c1.1,0.5,2.3,0.9,3.5,1.2c10.4,2,22.5,3,37.1,3c15.4,0,45.3-2.1,68.2-4.1
		c0.2,0,0.5,0,0.7,0h0.2c21.6-1.9,48.5-4.2,72.7-4.2H2396c7.6,0,13.7-6.1,13.7-13.7V18.4c0-3.6-1.5-7.1-4.1-9.7
		C2403.1,6.2,2399.6,4.7,2396,4.7z M1035.9,688.3c-0.7,12.8-9.5,23.7-21.8,27.1c-38.6,10.8-88.8,15.8-158,15.8H856
		c-44.4,0-90.1-2.1-130.5-4l-2.5-0.1h-1.6c-0.1,0-0.3,0-0.4,0c-12.8-0.7-25.9-1.3-41.5-1.9c-13.2-0.6-24.6-9.8-27.7-22.5
		C619.6,574,631,360.6,642.3,211.3c1.1-14.5,12.3-25.9,26.6-27.3c35.1-3.6,74.4-5.2,127.4-5.2c38.1,0,46.4,0.2,56.9,0.4
		c4.1,0,8.4,0.1,15,0.2h1.6h0.1l9.4,0.1c19.8,0.3,42.2,0.6,63.4,0.6c24.4,0,34.4-0.2,49.8-0.6c0.1,0,0.1,0,0.2,0h0.5
		c4,0,7.7,0.7,11.3,2.2c7.8,3.2,17.6,8.2,25.1,17.9c3.8,4.9,6,10.7,6.3,16.9C1043.2,363.7,1043.2,540.1,1035.9,688.3z M1453,688.4
		c-0.7,12.8-9.5,23.7-21.8,27.1c-38.6,10.8-88.8,15.8-158.1,15.8h-0.1c-44.1,0-89.8-2.1-130.1-4l-2.7-0.1c-0.2,0-0.3,0-0.4,0
		l-12.8-0.6c-10.6-0.5-20.8-1-30.6-1.4c-13.1-0.6-24.5-9.8-27.6-22.5c-32.2-128.7-20.8-342.1-9.5-491.4
		c1.1-14.5,12.3-25.9,26.6-27.3c35.1-3.6,74.4-5.2,127.3-5.2c39.7,0,47.6,0.1,59.5,0.4c3.8,0.1,8.1,0.2,14,0.3h1.1h0.1l13.2,0.2
		c19.3,0.2,39.2,0.5,58.5,0.5c23.2,0,34.1-0.2,49.8-0.6c0.1,0,0.1,0,0.2,0h0.6c4,0,7.8,0.7,11.3,2.2c7.7,3.2,17.5,8.1,25.1,17.8
		c3.8,4.9,6,10.7,6.4,16.9C1460.3,363.8,1460.3,540.2,1453,688.4z M1908.7,688.4c-0.7,12.8-9.5,23.7-21.8,27.1
		c-38.6,10.8-88.8,15.8-158.1,15.8c-0.5,0-0.9,0-1.3-0.1c-43.6-0.1-88.8-2.2-128.7-4l-9-0.4c-13.1-0.6-25.6-1.2-37.5-1.6
		c-13.2-0.6-24.6-9.8-27.7-22.5c-32.2-128.7-20.8-342.1-9.5-491.4c1.1-14.5,12.3-25.9,26.6-27.3c35.2-3.6,74.5-5.2,127.4-5.2
		c39.5,0,47.3,0.1,59.2,0.4c3.9,0.1,8.2,0.2,14.3,0.3h0.9h0.1l13.2,0.2c19.2,0.2,39.2,0.5,58.5,0.5c22.9,0,33.9-0.2,49.8-0.6
		c0.1,0,0.1,0,0.2,0h0.6c3.9,0,7.7,0.7,11.3,2.2c7.8,3.2,17.6,8.2,25.1,17.9c3.8,4.9,6,10.7,6.4,16.9
		C1916,363.8,1916,540.2,1908.7,688.4z M2373.2,688.3c-0.6,12.8-9.3,23.7-21.6,27.1c-38.6,10.8-88.9,15.8-158.2,15.8
		c-44.4,0-90.2-2.1-130.7-4l-2.5-0.1h-2.1c-0.1,0-0.3,0-0.4,0c-12.4-0.7-25.4-1.3-41-1.9c-13.2-0.6-24.6-9.8-27.7-22.5
		c-32.2-128.7-20.8-342.1-9.5-491.4c1.1-14.5,12.3-25.9,26.7-27.3c35.2-3.6,74.5-5.2,127.3-5.2c39.7,0,47.6,0.1,59.6,0.4
		c3.9,0.1,8.1,0.2,14,0.3l9.2,0.1c19.9,0.3,42.4,0.6,63.6,0.6c23.6,0,34-0.2,49.8-0.6c0.1,0,0.1,0,0.2,0h0.6c3.9,0,7.7,0.7,11.3,2.2
		c7.8,3.3,17.6,8.2,25.1,17.8c3.9,5,6,10.8,6.3,16.9C2380.5,363.6,2380.5,540,2373.2,688.3z"/>
	<path d="M324.8,622.9c14.9,0,30.1-0.2,44.9-0.5l17.8-0.3c16.1-0.3,34.3-0.6,51.5-0.6c0.5,0,0.9,0,1.3,0.1c21.4,0,39.4,0.4,55.1,1.3
		h0.9c3.5,0,6.7-1.3,9.2-3.6c2.7-2.5,4.3-5.9,4.5-9.6c4.2-99.5,4.2-212.5-0.2-309.9c-0.3-7.4-6.3-13.2-13.7-13.2H371.4
		c-2.9,0-5.7,0.9-8,2.6c-56.9,41.1-54.9,156-53,267.2c0.3,15.7,0.6,34.3,0.7,52.9C311.1,616.8,317.2,622.9,324.8,622.9z"/>
	<path d="M2258.7,286.6h-171.5c-7.6,0-13.7,6.1-13.7,13.7v308.8c0,3.6,1.5,7.1,4.1,9.7c2.5,2.6,5.9,4,9.6,4
		c14.8,0,30.2-0.2,45.1-0.5l21-0.3c15.9-0.2,32.4-0.5,48.5-0.5c0.5,0,0.9,0,1.3,0.1c21.3,0,39.3,0.4,55,1.3h0.9
		c3.5,0,6.7-1.3,9.2-3.6c2.7-2.5,4.3-5.9,4.5-9.6c4.2-98.4,4.1-211.4-0.3-310C2272.1,292.4,2266.1,286.6,2258.7,286.6z"/>
</g>
</svg>
