<?xml version="1.0" encoding="utf-8"?>
<svg id="b" width="469.5" height="469.5" viewBox="0 0 469.5 469.5" xmlns="http://www.w3.org/2000/svg">
  <g id="c">
    <g>
      <path d="m438.6,215.7c.8,2.2.6,2.7,1.5,5.1.2,1.9-.1,3.4-.4,3.1.2.7,0,3,.4,4,.2-1.3.3-2.7.3-4.2,0-.8,0-1.5-.1-2.3,0-.8-.2-1.6-.4-2.4,0-.7.3,0,.5.1-.5-2.2-1.3-4.8-1.7-3.3Z" style="fill: rgb(230, 210, 210);"/>
      <path d="m243.3,19.5c.9,0,1.3,0,1.3,0-.8,0-1.5,0-1.3,0Z" style="fill: rgb(230, 210, 210);"/>
      <path d="m223.2,18.4c.4,0,.8,0,1.2,0-.5,0-.9,0-1.2,0Z" style="fill: rgb(230, 210, 210);"/>
      <path d="m435.6,193.5c.1.6.3,1.2.5,1.6-.1-.5-.2-1-.3-1.5,0,0,0,0-.1,0Z" style="fill: rgb(230, 210, 210);"/>
      <path d="m391,93.2l.6.7c.2.2.5.3.7.4l-1.4-1.1Z" style="fill: rgb(230, 210, 210);"/>
      <path d="m414,125.6c-.4-.8-1.1-.8-1.5-1,.5.3.9.8,1.3,1.5,0,0,.2-.2.1-.5Z" style="fill: rgb(230, 210, 210);"/>
      <path d="m186.5,21.8c0,0,0,0,.2,0,.9-.2.4-.1-.2,0Z" style="fill: rgb(230, 210, 210);"/>
      <path d="m435.5,192.5c0-.5-.2-1.1-.3-1.6.1.7.2,1.2.3,1.6Z" style="fill: rgb(230, 210, 210);"/>
      <path d="m108.7,55c.2,0,.5-.2.8-.3,0,0-.3,0-.8.3Z" style="fill: rgb(230, 210, 210);"/>
      <path d="m165.8,28.2l-1.5.4c.6-.1,1.1-.3,1.5-.4Z" style="fill: rgb(230, 210, 210);"/>
      <path d="m83,76.6c-.3.3-.6.5-1.2,1.1,0,0,.2-.1.3-.2.2-.3.4-.5.9-.9Z" style="fill: rgb(230, 210, 210);"/>
      <path d="m83,76.6c.2-.1.3-.3.5-.4-.2.2-.4.3-.5.4Z" style="fill: rgb(230, 210, 210);"/>
      <path d="m388.9,367.3c.6-.5,1-.7,1.4-.8-.6.1,2.5-3.7-1.4.8Z" style="fill: rgb(230, 210, 210);"/>
      <path d="m435.9,193.4c-.2-.2-.3-.4-.4-.9,0,.4.2.7.2,1.1,0,0,.2,0,.2-.2Z" style="fill: rgb(230, 210, 210);"/>
      <path d="m172.5,433.5c-.4-.1-.9-.2-1.2-.3l1.2.3Z" style="fill: rgb(230, 210, 210);"/>
      <path d="m71,95.5c-.8.6-1.5,1.3-2.3,2-.1.2-.2.4-.3.6l2.5-2.6Z" style="fill: rgb(230, 210, 210);"/>
      <path d="m56.1,114.9c0,.2-.2.3-.2.4,0-.1.2-.3.2-.4Z" style="fill: rgb(230, 210, 210);"/>
      <path d="m155.2,427.7c.3.1.7.2,1.2.3-.4-.1-.8-.2-1.2-.3Z" style="fill: rgb(230, 210, 210);"/>
      <polygon points="169.8 30.7 169.8 30.7 169.8 30.7 169.8 30.7" style="fill: rgb(230, 210, 210);"/>
      <path d="m201.1,23.9c-.2,0-.3,0-.4,0,.2,0,.3,0,.4,0Z" style="fill: rgb(230, 210, 210);"/>
      <path d="m188.8,21.6c.4,0,.9-.2,1.2-.3-.5.1-.9.2-1.2.3Z" style="fill: rgb(230, 210, 210);"/>
      <path d="m79.6,80.5s0,0,0,0c0,0,0,0,0,0Z" style="fill: rgb(230, 210, 210);"/>
      <path d="m168.1,31.5c1.7-.5,3.9-1,3.6-1.3l-1.6.6c-.1,0-.2,0-.3,0,0,0-.9.4-1.7.7Z" style="fill: rgb(230, 210, 210);"/>
      <path d="m439.3,210.3v.6c0-.1,0-.3,0-.6Z" style="fill: rgb(230, 210, 210);"/>
      <path d="m313.6,427.9s0,0,0,0c0,0,0,0,0,0Z" style="fill: rgb(230, 210, 210);"/>
      <path d="m353.7,59.8c-.1-.1,0-.1-.2-.2h-.2c.1,0,.3,0,.3.2Z" style="fill: rgb(230, 210, 210);"/>
      <polygon points="182.1 435.7 182.1 435.9 183 435.9 182.1 435.7" style="fill: rgb(230, 210, 210);"/>
      <path d="m168.1,31.5c-.2,0-.5.1-.7.2-1.5.6-.5.2.7-.2Z" style="fill: rgb(230, 210, 210);"/>
      <path d="m253.5,22.5c-.9,0-1.8,0-2.8,0,1.5.2,2.7.4,2.8,0Z" style="fill: rgb(230, 210, 210);"/>
      <path d="m250.8,22.4c-1.3-.1-2.7-.3-4-.3,1.5.2,2.8.3,4,.3Z" style="fill: rgb(230, 210, 210);"/>
      <path d="m438.1,210.5s0,0,0,0l-.2-1v.9Z" style="fill: rgb(230, 210, 210);"/>
      <path d="m438.3,211.5c0-.4,0-.8-.1-1v1Z" style="fill: rgb(230, 210, 210);"/>
      <path d="m438.6,213.6l-.3-2c0,.7.1,1.6.3,2Z" style="fill: rgb(230, 210, 210);"/>
      <path d="m417.2,130.9c-.6-.9-1-1.4-1.1-1.5-.1,0,.1.4.6,1.6,1.6,2.9.3-.2.4,0Z" style="fill: rgb(230, 210, 210);"/>
      <path d="m316.1,37.5l.5-.3c-2.4-1-.1.2-.5.3Z" style="fill: rgb(230, 210, 210);"/>
      <path d="m293.8,31.6c-1.2-.4-2.3-.7-3.5-1,.8.3,1.5.6,2.3,1h1.3Z" style="fill: rgb(230, 210, 210);"/>
      <polygon points="277.1 23.3 272.8 22.5 275.9 23.1 277.1 23.3" style="fill: rgb(230, 210, 210);"/>
      <path d="m153,432.4c1.2.4,2.4.9,3.7,1.2-.6-.2-1.1-.4-1.7-.6l-2-.6Z" style="fill: rgb(230, 210, 210);"/>
      <path d="m232.5,9.4h1c.3,0,.6,0,.8-.1h-1.8Z" style="fill: rgb(230, 210, 210);"/>
      <path d="m271.7,16c-.9-.3-1.3.2-1.7.4.5,0,1.2,0,2,.1,0,0,0-.3-.3-.5Z" style="fill: rgb(230, 210, 210);"/>
      <path d="m328.8,42c.3.2.7.4,1,.5l-1-.5Z" style="fill: rgb(230, 210, 210);"/>
      <path d="m392.3,109.3c0,0,0,0,0,0-.2-.2-.2-.2,0,0Z" style="fill: rgb(230, 210, 210);"/>
      <path d="m37.4,103.5c0,0,0,0,.1-.1.5-.8.2-.4-.1.1Z" style="fill: rgb(230, 210, 210);"/>
      <path d="m5.8,182c.1-.2.3-.5.4-.8,0,0-.2.2-.4.8Z" style="fill: rgb(230, 210, 210);"/>
      <path d="m318.6,404.6c-.4.2-.8.4-1,.7l1-.7Z" style="fill: rgb(230, 210, 210);"/>
      <path d="m414.5,300.8s0,0,0,0c0,0,0,0,0,0Z" style="fill: rgb(230, 210, 210);"/>
      <path d="m302.6,412.5c.2-.1.4-.2.7-.4-.2.1-.5.3-.7.4Z" style="fill: rgb(230, 210, 210);"/>
      <path d="m302.3,412.7c.1,0,.2-.1.3-.2-.1,0-.2.1-.3.2Z" style="fill: rgb(230, 210, 210);"/>
      <path d="m38.9,101.7c.2-.4.5-.7.7-1.1-.3.4-.5.8-.7,1.1Z" style="fill: rgb(230, 210, 210);"/>
      <polygon points="327 399.3 327.1 399.5 327.7 398.9 327 399.3" style="fill: rgb(230, 210, 210);"/>
      <path d="m237.6,12.4c0,0,.3.1.7.2,0,0-.3-.1-.7-.2Z" style="fill: rgb(230, 210, 210);"/>
      <path d="m261.1,16.3l3.2.9c-1.4-.4-2.4-.7-3.2-.9Z" style="fill: rgb(230, 210, 210);"/>
      <path d="m278.7,21.2c.2,0,.3,0,.4-.1,0,0,0,0,0,0h-.4Z" style="fill: rgb(230, 210, 210);"/>
      <path d="m348.7,59.1s0,0,.1,0l-.8-.6.7.6Z" style="fill: rgb(230, 210, 210);"/>
      <path d="m349.6,59.7c-.3-.3-.6-.5-.8-.6l.8.6Z" style="fill: rgb(230, 210, 210);"/>
      <path d="m351.3,60.9l-1.7-1.2c.5.5,1.2,1.1,1.7,1.2Z" style="fill: rgb(230, 210, 210);"/>
      <path d="m301.8,26.8c-7-3.7,1.3,1.1-6.2-2.2,1.9.8,3.8,1.7,5.7,2.6-.9-.6-2.1-1.5.5-.4Z" style="fill: rgb(230, 210, 210);"/>
      <path d="m277.7,17.5c-1-.2-1.7-.3-1.8-.3,0,0,.4.2,1.5.7,3.2.9,0-.3.3-.4Z" style="fill: rgb(230, 210, 210);"/>
      <path d="m40.2,342.6c-1.3-1.9-2.4-3.9-3-4.9.3,1.1,1.8,3.6,3,4.9Z" style="fill: rgb(230, 210, 210);"/>
      <path d="m304.1,417.6c1.2-.6,2.3-1.1,3.5-1.8-.6.3-1.1.5-1.7.7l-1.8,1Z" style="fill: rgb(230, 210, 210);"/>
      <path d="m230.6,427.8c.7.2,0,.3-.2.5,2.4-.3,5.1-.8,3.6-1.5-2.4.6-2.9.3-5.5,1-2,0-3.5-.5-3.1-.7-.7.1-3.1-.4-4.2,0,1.3.4,2.8.6,4.3.7,1.6.1,3.3.2,5,0Z" style="fill: rgb(230, 210, 210);"/>
      <path d="m408.6,361.4c.3-.2.6-.5.9-.9-.3.3-.6.6-.9.9Z" style="fill: rgb(230, 210, 210);"/>
      <path d="m465.2,253.4c-.1.9-.2,1.3,0,1.4.1-.9.2-1.6,0-1.4Z" style="fill: rgb(230, 210, 210);"/>
      <path d="m468.4,232.6c0,.4,0,.8-.1,1.2,0-.5.2-.9.1-1.2Z" style="fill: rgb(230, 210, 210);"/>
      <path d="m409.5,360.5l2.4-2.2c0-.3-1.3,1.1-2.4,2.2Z" style="fill: rgb(230, 210, 210);"/>
      <path d="m257.5,426.2c-.7,0-1.2.2-1.7.3.6,0,1.1-.1,1.6-.2,0,0,0,0,0-.1Z" style="fill: rgb(230, 210, 210);"/>
      <path d="m367.8,394.6l-.9.5c-.2.2-.4.4-.6.7l1.4-1.2Z" style="fill: rgb(230, 210, 210);"/>
      <path d="m330.7,413.3c.9-.3,1-1,1.2-1.4-.4.4-1,.8-1.7,1.2,0,.1.2.2.5.2Z" style="fill: rgb(230, 210, 210);"/>
      <path d="m170.9,415.7s0,0,0,.1c.2,0,.3,0,0-.1Z" style="fill: rgb(230, 210, 210);"/>
      <path d="m216.9,427.6h-.7c0,0-.2.2-.2.3l.8-.3Z" style="fill: rgb(230, 210, 210);"/>
      <path d="m468,194.1c0,0,0,.1,0,.2.2,1,.1.4,0-.2Z" style="fill: rgb(230, 210, 210);"/>
      <path d="m258.5,426.2c.6,0,1.1,0,1.7-.1-.8,0-1.3,0-1.7.1Z" style="fill: rgb(230, 210, 210);"/>
      <path d="m437.5,111.3c0,.2.1.5.3.9,0,0,0-.3-.3-.9Z" style="fill: rgb(230, 210, 210);"/>
      <path d="m462.6,172.1l-.3-1.6c.1.6.2,1.2.3,1.6Z" style="fill: rgb(230, 210, 210);"/>
      <path d="m415.9,83.7c-.3-.4-.5-.7-1.1-1.3,0,.1.1.2.2.3.3.2.5.5.9,1Z" style="fill: rgb(230, 210, 210);"/>
      <path d="m415.9,83.7c.1.2.3.4.4.6-.2-.2-.3-.4-.4-.6Z" style="fill: rgb(230, 210, 210);"/>
      <path d="m391,59.4c.1.1.3.3.4.5.3.2.6.5.9.7-.4-.4-.8-.8-1.3-1.2Z" style="fill: rgb(230, 210, 210);"/>
      <path d="m79.7,366c-.1-.7,3.8,2.6-.9-1.5.5.6.7,1.1.9,1.5Z" style="fill: rgb(230, 210, 210);"/>
      <path d="m257.5,426.5c.2-.2.5-.3,1-.3-.4,0-.8,0-1.2.1,0,0-.1.2.1.2Z" style="fill: rgb(230, 210, 210);"/>
      <path d="m410,84.1c.3.3.6.7,1,1.1.3.4.6.8,1,1.1-1.1-1.5-2.5-2.8-3.7-4.1.5.6,1.1,1.2,1.7,1.9Z" style="fill: rgb(230, 210, 210);"/>
      <path d="m396.6,70.5c-.6-.8-1.3-1.6-2.1-2.4-.2-.1-.4-.3-.6-.3.9.9,1.8,1.8,2.6,2.7Z" style="fill: rgb(230, 210, 210);"/>
      <path d="m94,382c-.4-.3-.7-.6-1.1-.9.2.2.6.5,1.1.9Z" style="fill: rgb(230, 210, 210);"/>
      <path d="m469.1,212.1c0-2.4.2-4.5.1-6.1l.3,3c0-.9-.2-1.7-.2-2.5,0-.8-.1-1.5-.2-2.3l-.3,1.8c0-1.8-.2-3.3,0-3.3-.5-1.8-.7,1.5-1.5-2.1,0-1.2-.2-3-.4-4.6-.2-1.6-.4-3-.1-3.5.5,3.7.5,3.5.7,3.1.1-.3.3-.7.5.8-.1-.9-.2-1.9-.3-3.1,0-.3.2.2.3.7-.2-3.6-.6-4.4-.9-5.2-.2-.4-.4-.8-.6-1.6-.3-.8-.4-1.9-.8-3.7.6.9.3-1.8,0-3,.6,2.9-.3,1.5-1.1-1.1-.3-2.4-.7-3.6-.9-4.6-.3-1-.6-1.6-.9-2.8.2.9.4,1.8.6,2.8-.6-.9-1.1-3.1-2.1-6.3.2-.3,1,2.9.8,1.7-.8-1.7-1.1-3.7-1.5-6-.5-2.2-1-4.6-2-7-.5-2.3.6-.4.1-2.5-1.2-2.6-1.7-4.1-2.1-5.7-.5-1.5-.8-3.1-2.2-5.9.2,1.8.5,2-1.7-1.7,1.5,3,2.7,6.1,4,9.1l-2.9-5.7c1,2.8,2.5,5.8,3.1,7.5-1.5-2.7-1.2-2.4-1.1-1-.4-2-1.2-3.9-2.1-5.8-.9-1.9-2-3.8-2.7-6.1l1.2-.4c-.6-1.7-1.2-3.3-1.9-4.8-.8-1.5-1.6-2.9-2.4-4.4-.9-1.5-1.7-3-2.7-4.7-1-1.7-2-3.5-3.1-5.5l1.3,2.7c-.5-.4-1.2-1.7-2-3.1-.8-1.4-1.6-3.1-2.5-4.3.5,0-.4-1.6-.8-2.9,0,.1-1-1.3-2-2.8-.5-.8-1-1.5-1.5-2.1-.5-.6-1-1-1.2-1l-1.9-3.7c-1-1.6-1.9-2.7-2.7-3.7-.8-1-1.6-1.7-2.4-2.4-1.5-1.5-3-2.9-5.2-5.8,1.7,1.4-.1-1.3,3.1,2.3-1.5-1.9-2.7-3.6-3-3.5-.7-1.2-4.7-4.7-5.9-6.6-.8-.7-1.3-.6-3.1-2.6,0-.2,0-.2,0-.2-.5-.3-2.9-2.7-1.7-.8-1-1.5-2.4-3.3-4-5-1.7-1.7-3.5-3.5-5.3-5.2-1.8-1.8-3.7-3.3-5.4-4.9-1.7-1.5-3.1-3-4.1-4.2-4.2-3.2-9.1-7.1-13-9.7.3,0,.1-.2.8.4-2.5-2.1-3.5-2.4-4.6-2.8-1.1-.4-2.2-.9-5.2-3.1-2.8-2.6,3.5,1.9,1.7.4,0-.8-2-2-4.3-3.5-.6-.4-1.2-.7-1.8-1.1-.6-.4-1.3-.7-1.9-1.1-1.3-.7-2.5-1.5-3.5-2.3l1.1.6c-1.5-1.2-3.6-2.3-6-3.4-2.4-1.1-5.1-2.3-7.8-3.8,0,0,.3,0,.1-.2-1-.4-2.2-.8-3.6-1.3-1.4-.5-2.9-1.1-4.4-1.7-1.5-.6-3.1-1.3-4.6-1.9-1.6-.6-3.1-1.2-4.5-1.7,1.9.2,2.6.8,1.8-.1-2.5-1,.4,1.1-4.6-.8-1.5-1-5-2.6-5.3-3.3,1.6.6,3.2,1.1,4.8,1.8-1-.9-2.6-1.4-4.2-1.9-1.6-.5-3.2-.9-4.4-1.4l.4-.2c-1.8-.6-3.2-1.1-4.4-1.4-1.2-.3-2.2-.5-3.2-.7-2-.4-4.1-.9-8.1-2.1l.8.5c-4.6-.4-3.6-1.4-8.1-2l-1.1-1.2c-1.5-.3-4.1-.7-7-1.1-2.9-.4-6.1-1-8.8-1.3.8,0,1.8,0,2.8,0,1.1.1,2.3.3,3.5.4,2.4.3,5,.7,6.9.9-2.9-.6-10-2.1-11.6-2,1.2,0,2.7.3,3.9.6-.9,0-1.9-.1-3-.2-1.1,0-2.2-.1-3.4-.3-2.4-.2-5.1-.6-8-1.1.6-.8-3.2-1.3-7.7-1.9-2.9-.4-6.1-.7-8.5-1-.8-.2-1.7-.4-2.5-.5-1.7-.4-3-.6-2.2-.7-3.1-.2-2.1.1,0,.5-2.5-.4-4.6-.7-6.7-.9-1.2-.1-2.4-.3-3.7-.4-1.3,0-2.7-.2-4.3-.4,1,.2,1.9.6.9.5-4.6-.5-5.6-.4-6.3-.3-.4,0-.6.2-1.3.2-1.3,0-2.5,0-3.8,0-1.3-.4,1.5-.7-4-.5-3.9-.3-.8-.7.7-.8-2.9.1-5.6.2-8,.2-2.4,0-4.5-.2-6.1-.1l3-.3c-.9,0-1.7.2-2.5.2-.8,0-1.5.1-2.3.2l1.8.3c-1.8,0-3.3.2-3.3,0-1.8.5,1.5.7-2.1,1.5-1.2,0-3,.2-4.6.4-1.6.2-3,.4-3.5.1,3.7-.5,3.5-.5,3.1-.7-.3-.1-.7-.3.8-.5-.9.1-1.9.2-3.1.3-.3,0,.2-.2.7-.3-3.6.2-4.4.6-5.2.9-.4.2-.8.4-1.6.6-.8.3-1.9.4-3.7.8.9-.6-1.8-.3-3,0,2.9-.6,1.5.3-1.1,1.1-2.4.3-3.6.7-4.6.9-1,.3-1.6.6-2.8.9.9-.2,1.8-.4,2.8-.6-.9.6-3.1,1.1-6.3,2.1-.3-.2,2.9-1,1.7-.8-.8.3-1.6.6-2.5.8.2,0,.4-.2.6-.3-.4.1-.9.3-1.4.5-.9.2-1.8.4-2.8.5-2.2.5-4.6,1-7,2-2.3.5-.4-.6-2.5-.1-2.6,1.2-4.1,1.7-5.7,2.1-1.5.5-3.1.8-5.9,2.2,1.8-.2,2-.5-1.7,1.7,3-1.5,6.1-2.7,9.1-4l-5.7,2.9c2.8-1,5.8-2.5,7.5-3.1-2.7,1.5-2.4,1.2-1,1.1-2,.4-3.9,1.2-5.8,2.1-1.9.9-3.8,2-6.1,2.7l-.4-1.2c-1.7.6-3.3,1.2-4.8,1.9-1.5.8-2.9,1.6-4.4,2.4-1.5.9-3,1.7-4.7,2.7-1.7,1-3.5,2-5.5,3.1l2.7-1.3c-.4.5-1.7,1.2-3.1,2-1.4.8-3.1,1.6-4.3,2.5,0-.5-1.6.4-2.9.8.1,0-1.3,1-2.8,2-.8.5-1.5,1-2.1,1.5-.6.5-1,1-1,1.2l-3.7,1.9c-1.6,1-2.7,1.9-3.7,2.7-1,.8-1.7,1.6-2.4,2.4-.6.6-1.2,1.2-1.9,1.9-1.2.8-2.5,1.6-3.5,2.3-.1-.2,0-.4,1.9-2.2-1.9,1.5-3.6,2.7-3.5,3-.2.1-.4.3-.7.5-.3.2-.6.5-1,.7-.6.5-1.2.9-1.7,1.4-1.1.9-2.2,1.8-3.2,2.7-1,.9-2.1,1.7-3,2.6-.9.9-1.9,1.8-2.8,2.7-1.8,1.7-3.5,3.4-5.3,5.2,0,0,0,0,0-.2-.8.9-1.1,1.3-1.2,1.4-.6.6-1.1,1.2-1.7,1.8-.5.5-1,1-1.6,1.5-.8.8-1.7,1.6-2.6,2.5,0,0,0,0,0,0-1.2,1-2.5,2.3-3.9,3.7-1,1-2,2-3.1,3.1-1.1,1.1-2.1,2.4-3.2,3.6-.7.8-1.4,1.7-2.2,2.5.1-.2.3-.4.4-.6-.3.4-.6.8-.9,1.2-1.1,1.3-2.1,2.5-3.1,3.8-.3.3-.5.6-.7.9-1.5,1.7-2.9,3.2-3.9,4.4l1.6-2.4c-1,1.5-1.9,2.6-2.7,3.7.4-.3.8-.6,1.3-1-.2.2-.3.4-.5.6-.2.3-.4.5-.6.8-.4.6-.7.9-.8.8-.5,1,.2.5.4.8-.2.5-.5,1.1-.9,1.7-1,1.2-2.1,3.2-2.9,4.5-.3.5-.6.9-.9,1.1-.1,0-.2,0-.3,0,3.3-4.6-.5-.3,1.4-3.3-.5.7-1.1,1.6-1.8,2.5-.2.2,0-.3.3-.7-2.5,3.3-2.4,3.8-2.7,4.9-.8,1.3-1.7,2.8-2.5,4.1,0,0-.2.2-.3.3-.4.5-.9,1.3-1.2,1.8.6-1.1.9-1.4,1-1.2,0,.1-.1.2-.2.4v.3c0,.5-.3,1.3-.6,2.1-1.4,2.1-1.9,3.3-2.3,4.2-.5.8-1,1.7-1.5,2.6-1.4,2.9-2.8,5.9-4.1,8.8-.2.3-.3.6-.5.9-.5,1-1,2.1-1.4,3.3-1.1,2-.7,0-1.6,1.7-.9,2.6-1.6,3.9-2.2,5.3-.7,1.4-1.3,2.8-2.2,5.6,1-1.4,1-1.7,0,2.3l3-9-1.1,4.4c-.1.2-.3.5-.4.7-.3,1.3-.8,2.8-1.2,4.2-.2.7-.4,1.4-.6,2.1l-.9-.4c-1.3,3.2-2.1,6.1-2.9,9.3-.3,1.6-.7,3.3-1.1,5.1-.4,1.8-1,3.7-1.5,5.9.3-.9.5-1.8.8-2.7,0,.6-.2,2-.6,3.6v-.9c-.2.9-.3,1.7-.3,2.4,0,.2,0,.3-.1.5-.3,1-.5,1.9-.8,2.8-.3.4-.7,1.6-1.1,2.5.2,0-.3,2.3-.5,4.3-.6,2.5-1.2,5.3-1.7,9.1v-2c-.6,2.6-.4,4.4-.3,6.1,0,.8.2,1.7.2,2.6,0,.9,0,1.9-.1,3.2l-.4.6c0-.3,0-.7,0-1.2,0,.5,0,.9-.1,1.4l-.5.7c-.3,2.3-.6,4.6-.9,7l-.3,1.7-.2,1.7-.3,3.5c-.2,2.3-.4,4.7-.5,7,0,2.3,0,4.7.2,7-.1-.2-.4-.4-.4-1.9,0,2.2-.4,6.5-.2,10,0,3.3.3,5.9.8,5.5-.1.2-.2.8-.2,1.5,0,1,0,2.3.3,3.8.3,2.3.6,4.9,1,7.2,0,.6,0,1.1,0,1.7l-.5-.5c.2.8.4,1.5.6,2.1,0,1,.2,2.1.3,3.1.1-.6.2-1,.3-1.2.2.6.3,1.2.5,2,0,.5.1,1.1.3,1.5.1.7.3,1.5.4,2.5,0,.3,0,.5,0,.6-.1-.3-.3-.6-.4-.7,0-.1,0-.3,0-.5,0,.2,0,.3,0,.5-.2-.3-.4,0-.2,1.9,0-1.4.2-1.1.4-.4.1.9.3,1.5.5,2.2.2.7.4,1.5.7,2.9h0c0,0,0,1.5,0,1.5l-.5-1.5c.3,2,.5,3.1.7,3.9,0,.2,0,.4,0,.6,0,2.1-.9-2.7-1-2.4,1.1,6.3,0,2.8.4,7,.1-.5.4,0,.7,1.1.2.5.3,1.2.5,2,.1.8.3,1.7.5,2.6l-.2-1.3v-1.3c-.1,0-.3-2.6-.3-2.6,1.2,4.4,1.5,6.3,1.7,8.2.1,1,.2,2,.5,3.2.3,1.3.6,2.9,1.5,5-.4-.9-.9-1.7-1.2-2.6.6,1.7,1.5,4.6,2.5,7.7,0,.4-.3.2-1.1-1.2,1.6,3.5,4.1,9.3,5.8,13.9,0,0,0,0,0,0,0,0,0,0,0,.1.1.4.3.8.4,1.1,0,.2,0,.5,0,.7l-.2-.5c.4,1.1.8,2.1,1.2,3,.5,1.5.8,2.5,1.4,3.9-.2.7,2.1,5.6,3.1,8,.4-.4,1.7,2.7.9-.4.1.4-.3-.4-1-2-.2-.3-.4-.8-.5-1,0,0,0,0,.1.1-.7-1.6-1.6-3.6-2.5-5.9.1.2.2.4.4.6,0,0,0,.1,0,.2.6,1.5,1.4,2.9,2.1,4.4.1.4.3.8.4,1.2.2.3.5.6.7.8.3.5.6,1,.8,1.6.4.9.9,1.7,1.3,2.5,1,3.5,2.8,8,2.8,8.9,1,1.7,2.1,3.6,3.2,5.5,1.1,1.9,2.2,3.9,3.4,5.6,1.2,1.8,2.3,3.5,3.4,5,.5.7,1.1,1.4,1.5,2,.5.6,1,1.1,1.5,1.6,1.4,1.8,1.2,2.3,1.5,3.1-.8-1-1.7-2.3-2.2-2.8,1.4,1.8,3.2,4.5,4.9,6.9,1.7,2.3,3.4,4.2,4,4.4,3.1,4.7-2.5-2.1,2.2,4l-.8-.7c4.2,6.4,8.5,10.9,13.2,15.3,1.2,1.1,2.3,2.3,3.5,3.4,1.2,1.1,2.5,2.3,3.7,3.5,1.3,1.2,2.5,2.5,3.8,3.9,1.4,1.3,2.7,2.8,4.2,4.3-.8-.9-1.2-1.3-1.3-1.5,6.8,6.9,14.7,12.8,22.8,18.5,2.1,1.4,4.1,2.7,6.2,4.1l1.5,1,1.6.9c1,.6,2.1,1.3,3.1,1.9,1,.6,2.1,1.3,3.1,1.9l1.5,1,1.6.9c2.1,1.2,4.2,2.4,6.2,3.7.6.3,1.1.6,1.6.9.5.2.9.4,1.3.6.8.3,1.4.6,2,.8,1.2.4,2.2.6,3.7,1.1l.8,1.1c.9.3,1.8.6,2.7.8l2.7.7c3.8,1.2,6.8,3,10.2,4.5,1.7.8,3.5,1.5,5.4,2.3.5.2,1,.4,1.5.5.5.2,1.1.3,1.6.4,1.1.3,2.3.5,3.5.8l-1.1-.8c1.7.5,4.5,1.3,6.8,1.9,2.3.5,4,1,3.7,1.1.4,0,1.3-.2,2.6.4v.4s4.4.7,4.4.7l4.4.5c3.4.7,3.1,1,3.1,1.3,0,.2.2.3.9.6.8.2,2.1.6,4.6.9,3.8.3,10.7.3,9.4,0-1.5-.2-3.8-.7-3.9-1l3.4.2c.3-.4.9-.7,1-1.1.3,0,.8.2,1.5.2l.8-.3c.4,0,.8,0,1.3,0l.6.4c-.3,0-.7,0-1.2,0,.5,0,.9,0,1.4.1h0c0,0-.1,0-.2,0,0,0,.2,0,.3,0l.5.4c2.3.3,4.6.6,7,.9l1.7.3,1.7.2,3.5.3c2.3.2,4.7.4,7,.5,2.3,0,4.7,0,7-.2-.2.1-.4.4-1.9.4,2.2,0,6.5.4,10,.2,3.3,0,5.9-.3,5.5-.8.2.1.8.2,1.5.2,1,0,2.3,0,3.8-.3,3-.3,6.6-.9,9.1-1.2l-.7.6c4.2-1.2,4.3-1.5,10.1-2.4,1.4,0,1.3.3-.6.4,2.3-.1,3.2-.4,4.2-.7,1-.3,2.1-.6,4.9-1l-2,.7c4.8-.8,4.3-.9,6.9-1.8,2.9-.9,8.9-1.8,9.8-1.4.3-.2,1-.6,2.1-1,1-.4,2.3-.8,3.7-1.1.4,0-.5.5-1,.7,2-.4,3.7-.9,5.2-1.3,1.5-.4,2.9-.9,4.1-1.4,2.5-1,4.7-1.8,7.4-2.4.2.2.5.1,1,0-5.6,1.8-10.1,3.2-10.6,3.3.3.5,5.1-.9,1.4,1,3.9-1.7,10.4-4.6,15.1-6.2.2,0,.5,0,.7,0l-.5.2c1.1-.4,2.1-.8,3-1.2,1.5-.5,2.5-.8,3.9-1.4.7.2,5.6-2.1,8-3.1-.4-.4,2.7-1.7-.4-.9.4-.1-.4.3-2,1-.3.2-.8.4-1,.5,0,0,0,0,.1-.1-1.6.7-3.6,1.6-5.9,2.5,1.8-1.1,3.6-2.1,6.4-3,1.1-.9,2.2-1.8,2.9-2.3,3.5-.8,9.8-3.3,10.9-3.3,1.7-1,3.6-2.1,5.5-3.2,1.9-1.1,3.9-2.2,5.6-3.4,1.8-1.2,3.5-2.3,5-3.4.7-.5,1.4-1.1,2-1.5.6-.5,1.1-1,1.6-1.5,1.8-1.4,2.3-1.2,3.1-1.5-1,.8-2.3,1.7-2.8,2.2,1.8-1.4,4.5-3.2,6.9-4.9,2.3-1.7,4.2-3.4,4.4-4,4.7-3.1-2.1,2.5,4-2.2l-.7.8c6.4-4.2,10.9-8.5,15.3-13.2,1.1-1.2,2.3-2.3,3.4-3.5,1.1-1.2,2.3-2.5,3.5-3.7,1.2-1.3,2.5-2.5,3.9-3.8,1.3-1.4,2.8-2.7,4.3-4.2-.9.8-1.3,1.2-1.5,1.3,6.9-6.8,12.8-14.7,18.5-22.8,1.4-2.1,2.7-4.1,4.1-6.2l1-1.5.9-1.6c.6-1,1.3-2.1,1.9-3.1.6-1,1.3-2.1,1.9-3.1l1-1.5.9-1.6c1.2-2.1,2.4-4.2,3.7-6.2.3-.6.6-1.1.9-1.6.2-.5.4-.9.6-1.3.3-.8.6-1.4.8-2,.4-1.2.6-2.2,1.1-3.7l1.1-.8c.3-.9.6-1.8.8-2.7l.7-2.7c1.2-3.8,3-6.8,4.5-10.2.8-1.7,1.5-3.5,2.3-5.4.2-.5.4-1,.5-1.5.2-.5.3-1.1.4-1.6.3-1.1.5-2.3.8-3.5l-.8,1.1c.5-1.7,1.3-4.5,1.9-6.8.5-2.3,1-4,1.1-3.7,0-.4-.2-1.3.4-2.6h.4s.7-4.4.7-4.4l.5-4.4c.7-3.4,1-3.1,1.3-3.1.2,0,.3-.2.6-.9.2-.8.6-2.1.9-4.6.3-3.8.3-10.7,0-9.4-.2,1.5-.7,3.8-1,3.9l.2-3.4c-.4-.3-.7-.9-1.1-1,0-.3.2-.8.2-1.5l-.6-1.5v3.2s0,0,0,0c-.5.5-1,1.9-1.8,5.6,0,1.9,0,3.9-.1,5.8l-.8,1.8c.1-.8.3-1.6.4-2.4l.3-2.4c-.7,2.7-.7,4.4-.8,6.4-.3.4-.7,1.2-.9,2.3,0,1.9,0,3.8,0,5.7-.5.6-.2-2.6-1.3,1-.2,2.7,1.4-2.3.7,2-1.1,2.6-1.2,1.7-1.6,5-.3.3-.3,0-.3-.9-.4,2.9-1.7,6.8-1.6,8.3-.7,1.3-1.3,3.7-1.9,5.6-.7,1.9-1.3,3.5-1.7,3.2,0,.5-.3,1.7-.6,3.2-.4,1.5-.7,3.1-1.2,4.4.8-4.9-3.8,9.2-4.4,7.5-.5,3.7-4.9,11.9-7.6,17.7,0-.4.3-1,.6-1.5-1.8,3.1-2.5,3.9-3.8,5.7.5.8-2.2,5.7-3.3,8.5-1.6,1.6-1.4.9-1,0,.4-1,.9-2.3.2-2,.8.2-3.6,6.7-2.3,5.8-2.3,2.5-1.8,2.3-3.3,3.3.6,1.1-1.7,2.6-2.8,5.2-3.3,3.6-1.5.4-4.5,4.8-1.9,1.7.9-2.1.8-2.2-3.4,4.2-1,2.5-1.3,3.6-3.9,5.1-2.4,1.9-4.1,3.4-.6.8-1.1,1.6-1.6,2.4-.5.7-1,1.4-1.5,2.1-1,1.4-1.9,2.6-2.9,3.7-.2,0-.7.5-.3-.1-.6.9-1.4,1.9-2.4,3-1,1.1-2.1,2.2-3.3,3.4-1.1,1.2-2.3,2.3-3.4,3.5-1.1,1.1-2.1,2.2-2.9,3.1-.3.2-.5.3-.6.3.9-.2,1.2,0,1.3.3-1.8,1.6-3,3.4-4.1,3.6,1.1-1,1.1-1.2,1.5-1.8l-1.8,1.9c-2.2,1,2.4-2.5,2.1-2.9-3.4,3.6-7.7,7.6-10.7,9.9-1.1,0,6.7-5.8,2.4-3.1l4.7-3.5c-2.1,1-1.4.4-.7-.1.7-.6,1.5-1.3-.5-.4-6.1,4.7-6.4,5.9-12.7,10.3-1.2,1.4.8.1-.3,1.5-1.1.9-2,1.6-2.8,2.2-.8.6-1.6,1-2.2,1.4-1.3.7-2.2,1.1-3.1,1.4-.9.3-1.6.6-2.6,1.1-.5.3-1,.6-1.6,1-.6.4-1.3.9-2.1,1.5-1.5,1.5-1.7,2.7-6.9,5.3.4-.6.9-1.1,1.3-1.7-1.6,1-2.6,1.6-3.4,2.1-.7.5-1.1.9-1.6,1.2-.9.7-1.8,1.5-5.4,3.1,1.1-1,5.1-3.1,4-2.6-2.4.9-3.1,1.5-3.7,2-.6.5-1,1.1-2.8,1.9l-1.1-.3c-1.8.9-3.6,1.8-5.4,2.8-.5.2-.9.5-1.4.7-.5.2-1,.4-1.4.7-1,.5-1.9.9-2.9,1.4-2,.9-3.9,1.9-5.9,2.8-2,.8-4.1,1.7-6.2,2.5.4-.4,1.7-1.1-.3-.6-1.3.5-2.6,1.1-3.9,1.6-1.4.4-2.7.9-4.1,1.4-1.4.4-2.8.9-4.2,1.3l-2.1.6-2.2.5c-2.9.7-5.7,1.4-8.5,2-2.7.5-5.4,1-8,1.4,1.1-.3.8-.3.5-.3-.5-.1-.8-.1,3.3-1.6-1.1.3-2.1.7-3.2,1l-3.2.9c1.2-.1,2.7-.3-.1.7,1.1-.2,1.9-.4,2.4-.5-1.3.5-2.5,1-3.8,1.4-.9.2-1.8,0-.8-.3-4.2.5-.1.4-2.1,1-2.2.4-3,.2-1.9-.2.2,0,.3,0,.5,0l.7-.9c.9-.3,2.7-.8,2.5-.4,3.3-1.5-.7,0,1.2-1.1,4.6-.6,11.8-4.4,13.2-3.7,1.4-1-4.2,1.1.2-.9,1.7.6,5.2-2.3,9.2-3.5-1,1-4.7,2.3-.7,1.1,1-1,2.9-1.6,4.9-2.5,2-.8,4.2-1.6,5.7-2.4,0-.2.4-.5,1.1-.9.4-.2.8-.4,1.3-.7.5-.3,1-.6,1.6-.9,2.3-1.3,5.3-2.8,7.8-4.4,0,.2,2.3-1.1,5.4-2.9,1.5-.9,3.2-1.8,4.8-2.8,1.6-1,3.1-1.9,4.2-2.6v.2c.2-.6,1.5-1.7,3.1-2.9,1.7-1.2,3.6-2.8,5.2-4.1.2.5-.3,1.1-2,2.6l3.1-2.4c.6-.8,1.5-1.6,3.4-3.2-.1.4-.3.7-.4,1.1,2-1.6,3.9-3.5,6-5.3,1-1,2.1-1.9,3.3-2.9,1.1-1,2.3-2.1,3.6-3.1,0-.4-2.2.8-2.2.2.6-.4,1.5-1.1,2.5-2-.1.2-.3.5-.6.8.2-.3.7-.8,1.2-1.3.3-.3.6-.6,1-.9,0,0,.1-.1.2-.2l-1.7,2.3c2.4-1.9.9-1.4,2.7-3,.3.4,1.5-1,1.5-.6-.4.5-1.6,1.3-2.2,2.1.5-.4,1.1-.9,1.6-1.4.5-.5,1.1-.9,1.6-1.4,1-.8,1.9-1.5,2.4-1.8-.3,0-.4-.4,1-1.9,3.6-3.7,1.7-.9,3.9-2.9.6-1.1,3.1-3.4,2.7-3.9,1-1.1,1.4-1.1,2-1.5.4-.5,1.1-1.4,1.9-2.4.8-1,1.6-2.1,2.4-3,1.5-1.9,2.5-3.3,1.3-2.4l-.5.5c0-.1.2-.2.3-.4.5-.6.9-1.3,1.4-1.9.8-1,1.6-2,2.5-3.1.4-.5.9-1.1,1.3-1.6.2-.3.4-.6.7-.9.1-.2.3-.3.4-.5,1.3-1.6,2.4-3.2,3.6-4.9.8-1.1,1.6-2.3,2.4-3.4.4-.5.7-1,1.1-1.6.3-.4.5-.7.8-1.1,0,0,.1-.2.2-.3.2-.3.5-.7.7-1,2.6-2.6,5.8-5.8,3.9-4.6l-.3.3c0,0,0-.1.1-.2,0,0,.1,0,.2,0h.2c-.1,0-.3,0-.4,0,0,0,0-.1.1-.2,1.4-1.5,2.7-3.2,4.2-4.7.8-.8,1.5-1.6,2.3-2.4l1.2-1.2,1.1-1.2c3-3.3,6.1-6.5,8.5-10.1h.2c.7-.9,1.5-2,2.3-3.1l1.2-1.6c.4-.6.7-1.1,1.1-1.7,1.5-2.2,2.8-4.3,3.6-5.9.9-1.2,2.2-2.8,2.1-2.1,1.9-3.4,2-3.9,5.2-8.5-1.7,3.6,1-1-1.8,3.6.7-1.1,1.3-1.9,1.8-2.6.5-.8.9-1.4,1.3-2.1.8-1.4,1.5-2.9,2.6-5.4-.2.9.4.2,1.2-1.1.8-1.3,1.6-3.1,2.1-4.2l-1.9,3c1.1-2.5,2.2-4.6,3.3-6.7v1.5c.7-1.1,1.3-2.3,1.9-3.4.5-1.1,1-2.3,1.4-3.4.8-2.2,1.6-4.4,2.3-6.5.6-2.1,1.2-4.1,1.9-6.1.3-1,.7-1.9,1.1-2.8.2-.5.4-.9.6-1.4.2-.5.4-.9.6-1.4.2-1.4-.3,0-.8,1.3-.6,1.3-1.2,2.7-1,1.5l.7-1.7c.2-.6.4-1.1.6-1.7.4-1.1.9-2.1,1.3-3.1.8-1.9,1.5-3.4,1.7-4.1,1.1-3.1,1.1-4.7,1.2-6.3,0-1.6.3-3.2,1.1-6.5-.4.8-1.2,1.5-.5-3.6.9-4.7,2.1-5.6,1.7-2.6-.2,1.1-.4,1.7-.4,1.6-.2,1.5-.4,3.6.2,1.7v-.7c.1-.9.5-2.4.8-3.9.5,2,.3,2.7,1,5.1,0,2.1-.5,3.6-.7,3.2.1.7-.4,3.2,0,4.3.4-1.3.6-2.8.7-4.4,0-.8.1-1.6.1-2.5,0-.9-.1-1.7-.2-2.6.2-.8.3,0,.5.2-.3-2-.7-4.3-1.2-4.1,0,0,0-.2,0-.2.4-1.7.6-3,.7-2.2,0-.8,0-1.3,0-1.6,0-.2,0-.3,0-.5,0,.1-.1.1-.2,0,.2-1.6.4-3.1.6-4.6.1-1.2.3-2.4.4-3.7,0-1.3.2-2.7.4-4.3-.2,1-.6,1.9-.5.9.5-4.6.4-5.6.3-6.3-.1-.7-.3-.9-.4-4.1.4-3.6.9,1.3.7-5,.3-3.9.7-.8.8.7-.1-2.9-.2-5.6-.2-8ZM18.6,330.6c.3.7.7,1.6,1.2,2.7,0,0,.1.1.1.2-.2-.1-.3-.2-.5-.5-.8-1.5-.9-2.1-.8-2.4Zm314.7,119.1s.1-.1.2-.1c-.1.2-.2.3-.5.5-1.5.8-2.1.9-2.4.8.7-.3,1.6-.7,2.7-1.2Zm-10.6,0c-.5.2-1.2.5-2.4,1,0,0,0,0,0,0,1-.4,1.9-.7,2.4-.9Zm-8.1,3c.4,0,.1.4-.9.7.5-.3-1.9.3-3.5.7,1.2-.4,2.8-.9,4.4-1.4Zm6.7-429.4l-2.8-.3c1.8.6,3.7,1.1,5.5,1.8,1.8.7,3.6,1.4,5.4,2.2,1.8.8,3.6,1.4,5.4,2.3l5.3,2.5c3.6,1.6,6.9,3.6,10.4,5.3.9.4,1.7.9,2.6,1.3.8.5,1.7.9,2.5,1.4,1.7.9,3.3,1.9,5,2.7-.9-.3-1-.2-2.2-.9,1.2,1.1,3.8,2.5,5.9,3.8,2.2,1.3,4.1,2.3,4.2,2.2,1.9,1.3.2.6,1.3,1.6,1.3,1,3,2,4.5,3,1.5,1,2.9,1.8,3.5,2.5.1.2-.3-.1-.8-.4,1,.7,2.6,1.8,3.9,2.8,1.5,1.2,2.6,2,2,1.1,2.1,1.9,4.3,3.5,6.3,5.1,2,1.6,3.8,3.2,5.4,4.8.7.4,1.4,1,2.2,1.7.8.7,1.6,1.5,2.3,2.3,1.5,1.5,2.9,2.9,3.6,2.9-.5.2,1.2,2,3.2,4.2,2,2.2,4.5,4.6,5.9,5.8-1-.7,1.8,2.6.6,1.8,2.6,3.1,5.2,5.8,5.1,5,2,3.3,4.4,6.1,6.6,8.7,2.1,2.6,3.9,5,4.5,7.1,7.2,9.7,13,19.4,17.9,29.1-.5,0-1.9-2.7-3.2-5.3-1.3-2.6-2.6-5.1-3-4.6,5,9,8.4,14.1,11.8,23.7.8,2.5-.9-1.3-1.4-2,1,2.4,1.9,4.7,2.8,7.1.8,2.4,1.5,4.7,2.3,7,.4,1.2.8,2.3,1.1,3.4.3,1.2.6,2.3.9,3.4.6,2.3,1.3,4.5,2,6.7.2-1.8,2.5,6.4,3,7.3-.9-1.2-.4,1-.2,3,.2,2.1.3,3.9-.8,1.6.3,1.2.7,2.6.9,2.3.2,1.8.1,2.3-.5.6.6,3.2.9,4.2,1.2,5.1.2.9.4,1.8.7,4.8-.2,0-.4-1.2-.7-1.8.3,1.5.7,2.9,1,4.7.1.9.3,1.8.4,2.8,0,1,.1,2.1.1,3.4,0,0,0,0,0,0-.2-.7-.4-1.4-.5-2.1-.6-2.1-1-3.7-.9-5l.2.5c-2.5-8.9-.8-.7-3.3-7.2.1-1.6.3-3.3.4-4.9l-.9-.7c-.3-.9-.8-2.7-.4-2.5-1.5-3.3,0,.7-1.1-1.2-.6-4.6-4.4-11.8-3.7-13.2-1-1.4,1.1,4.2-.9-.2.6-1.7-2.3-5.2-3.5-9.2,1,1,2.3,4.7,1.1.7-1-1-1.6-2.9-2.5-4.9-.8-2-1.6-4.2-2.4-5.7-.2,0-.5-.4-.9-1.1-.2-.4-.4-.8-.7-1.3-.3-.5-.6-1-.9-1.6-1.3-2.3-2.8-5.3-4.4-7.8.2,0-1.1-2.3-2.9-5.4-.9-1.5-1.8-3.2-2.8-4.8-1-1.6-1.9-3.1-2.6-4.2h.2c-.6-.2-1.7-1.5-2.9-3.1-1.2-1.7-2.8-3.6-4.1-5.2.5-.2,1.1.3,2.6,2l-2.4-3.1c-.8-.6-1.6-1.5-3.2-3.4.4.1.7.3,1.1.4-1.6-2-3.5-3.9-5.3-6-1-1-1.9-2.1-2.9-3.3-1-1.1-2.1-2.3-3.1-3.6-.6.1,2.4,4.9-2.6,0,0-.4.2-.9,1.6.3-.4-.4-1.6-1.4-2.4-2.4l2.3,1.7c-1.9-2.4-1.4-.9-3-2.7.4-.3-1-1.5-.6-1.5.5.4,1.3,1.6,2.1,2.2-.4-.5-.9-1.1-1.4-1.6-.5-.5-.9-1.1-1.4-1.6-.8-1-1.5-1.9-1.8-2.4,0,.3-.4.4-1.9-1-3.7-3.6-.9-1.7-2.9-3.9-1.1-.6-3.4-3.1-3.9-2.7-1.1-1-1.1-1.4-1.5-2-.5-.4-1.4-1.1-2.4-1.9-.1,0-.2-.2-.3-.3-1.4-1.8-3-3.7-4.6-5.5-1.7-1.9-3.5-3.8-5-5.5-.8-.9-1.4-1.7-2.1-2.5-.7-.8-1.2-1.5-1.7-2.2-1.9-1.8-4-3.9-6.2-5.9-2.2-1.9-4.3-3.8-6.1-5.4.3.1.2-.1.8.5-2.3-2.4-3.4-2.8-4.4-3.3-1.1-.5-2.2-1.1-5-3.7-2.6-3,3.3,2.3,1.6.5,0-.4-.4-1-1.2-1.7-.4-.3-.8-.7-1.3-1.1-.5-.4-1.1-.7-1.6-1.1-2.3-1.6-5.1-3.4-6.9-5.3l1,.7c-.7-.7-1.6-1.3-2.6-2-1-.6-2.1-1.3-3.3-2-1.2-.7-2.4-1.4-3.7-2.2-1.3-.8-2.7-1.5-4-2.4,0,0,.3,0,.1-.2-1-.4-2.3-1-3.6-1.6-1.3-.6-2.8-1.4-4.3-2.1-3.1-1.4-6.3-3.1-9.1-4.4,2,.3,2.6,1,1.8,0-2.5-1.2.3,1.1-4.7-1.1-1.4-1-4.5-2.7-5.1-3.5.2,0,.4,0,.5.1l4.1,1.9c-.7-.7-1.8-1.2-2.8-1.7,2.3.2,2.9-.4,9.1,2.6Zm30.4,26.9c1.1.7,2.1,1.4,2.8,1.9.7.5,1.2.8,1.3.7,1.8,1.6.2.6,1.2,1.8,1.2,1.2,2.8,2.3,4.4,3.4,1.5,1.1,2.8,2.2,3.2,2.9.1.2-.3,0-.7-.4,2.1,1.8,6.6,6.1,5.6,4.4,3.2,3.6,6.7,6.5,9.4,9.5-1.1-.8-2.2-1.7-3.3-2.5-1.8-1.5-3.6-2.7-5.5-4-1.3-.9-2.7-1.8-4-2.7-2.6-2.6-5.8-5.9-4.7-4l.4.5c0,0-.2-.2-.3-.3-1.6-1.4-3.3-2.8-4.9-4.4-.8-.8-1.6-1.5-2.4-2.3l-1.2-1.2-1.2-1.1c-3.3-3-6.5-6.1-10.1-8.5v-.2c-.9-.7-2-1.5-3.1-2.3l-1.6-1.2c-.6-.4-1.1-.7-1.7-1.1-2.2-1.5-4.3-2.8-5.9-3.6-.9-.6-2-1.5-2.2-1.9l1,.6c6.9,4.1,13.5,8.4,19.9,12.7-.8-.4-1-.3-2.2-1.2,1.2,1.2,3.5,3,5.7,4.4Zm46.9,55.4c.4.5.8.9,1.2,1.4.8.9,1.5,1.9,2.3,3,.2,1.2-1.7-2-2.2-1.9,2,2.8,4.8,5.1,6.2,8-.6-.8-1.3-1.7-1.9-2.6-.6-.8-1.3-1.6-1.9-2.4-.7-.8-1.3-1.6-2-2.3-1.3-1.5-2.5-3-3.7-4.2-.2-.2-.4-.4-.6-.5l-.8-1.3c-.6-.7-1.4-1.6-2.8-3.6h.3c0,.2.1.4.2.6,0,0,0-.2-.2-.4l.7.3c-.2-.2-.3-.5-.5-.7,0,0,0,0,0,0,2.3,4.3,1.2,0,4.9,5.6h-.4c.4.3.8.8,1.2,1.2Zm22.5,34.9h0s0,0,0,0c0,0,0,0,0,0Zm16.1,139.8c-.1.6-.2,1.1-.2,1.6,0,.2-.1.4-.2.5h0c-.2,1.5-.3,3.2-.7,5.1h-.2s-.1,1.2-.1,1.2c-.1.5-.2,1-.4,1.5-.4.8-.7-.9-1-.4.1,1.2-.5,3.7-1.2,6.4-.7,2.6-1.3,5.4-1.4,6.8.1-.9-.3-1.1-.4-.8,0,.6,0,1.3,0,1.9-.8,2-1,2.2-1.2,1.8-1,3-.6,2.6-.3,2.3l-.8,2.6c0-.2,0-.4.2-1.1-.6,1.7-1.1,3.3-1.7,4.9,0-.1,0-.2,0-.3,0,.2,0,.3-.1.4-.1.3-.2.6-.3.9-.4.9-.5.6-.7,1,1-3.6,1.9-7.3,2.7-10.7.1-.3.3-.6.4-.9,1.8-4.7,1.6-5.4,2.2-8.4l.9-.9c.3-1.7.5-3.5.8-5.3.4-1.8.9-3.5,1.5-5.1.5-1.6,1.1-3.2,1.6-4.9.3-.8.5-1.6.8-2.5,0,.5-.1.9-.2,1.3.1-.7.3-1.5.4-2.3.2-.6.3-1.2.5-1.9.2-1.1.4-2.2.6-3.3,0,.6.3.3.4.6-.4,1.5-.9,3.5-1.8,7.7Zm-11.5,39.9c0,.1,0,.2-.1.3-.1.2-.2.5-.4.8.2-.7.4-1.3.6-2,0,.1,0,.4,0,.6,0,0,0,.2-.1.3Zm-80.1,97.1c-1.5,1.1-3.7,2.1-3.6,1.8l.4-.3c-2.1,1.5-4.6,3-7.1,4.3,2.8-2.3,5.1-4.5,6.5-6.1,1.6-1.4,2.1-1.3,2.9-1.7-.4.5-1,.9-1.4,1.3-.5.4-.9.8-1.1,1,.8-.7,1.8-1.6,2.9-2.6,1.1-1,2.2-2,3.2-2.9,1-.9,2-1.8,2.7-2.6.7-.8,1.1-1.4,1.2-1.7,4.2-3.5-1.8,2.6,3.6-2.6l-.6.9c1.5-1.2,2.8-2.3,4.1-3.5,1.2-1.2,2.4-2.4,3.4-3.6.7-.8,1.4-1.6,2.1-2.4,0,0,.1-.1.2-.2.2-.2.4-.4.5-.6l1.3-.8c.7-.6,1.6-1.4,3.6-2.8l-.5,1c2.1-1.4,4.2-2.9,6.4-4.5,2.2-1.7,4.5-3.5,7.3-5.2,0-.6-5.1,1.8.3-2.5.4,0,.9.3-.5,1.5.5-.4,1.6-1.4,2.6-2.1-.6.7-1.2,1.4-1.9,2.1,2.5-1.6,1-1.3,2.9-2.7,0,.1.3,0,.6,0-.2.2-.3.4-.5.6-.1.2-.3.3-.4.5-.2.2-.4.3-.5.5,0,0,.2-.1.2-.2-.9,1-1.8,2-2.9,3.1.3.5-1.9,2.6-3.1,4.6-2.1,1.9-4.4,3.8-6.7,5.9-2.4,2-5,4-7.5,6.3-.9.8-1.3,1.3-1.6,1.6-.3.3-.3.4-.3.4,0,.1.4,0-.4.8-.6-.2-5.9,4.1-3.4,1.6-1.6,1.3-2.9,2.4-4.1,3.2-1.2.9-2.3,1.7-3.5,2.6-1.2.9-2.4,1.8-3.8,2.9-1.5,1-3.2,2.2-5.3,3.7,1.1-.4,2.2-1,1.7-.5Zm-66.4,30.8c-.2,0-.7,0-1.7.1.3,0-.9.5-1.6.9-1.8.6-3.6,1.1-5.4,1.5-2.9-.4,3.9-.6,3-1.6,1.3-.3,2.3-.5,2.9-.6.6-.1.9-.2,1.1-.2h-.6c.2,0,.4,0,.6,0h0c.8-.1,1.5-.2,2.3-.3-.2,0-.4.1-.6.2Zm-21.1,6.7c-2.3.5-3.1.3-1.7-.2-3.5.9-8.4,2.4-13.6,3.2-5.1,1-10.4,1.4-14.2,1.4l1.5-.3c-1.5,0-2.6.3-3.6.4-1,.1-1.8.3-2.6.5-1.6.3-3.2.6-5.9.5l1.1-.2c-.8,0-1.6,0-2.4,0-.8,0-1.6,0-2.5,0-1.6,0-3.3,0-4.9,0-3.3,0-6.6-.3-9.8-.5-1.6-.1-3.2-.2-4.7-.4-1.5-.2-3-.4-4.5-.6-1.4-.2-2.8-.4-4.2-.7-.7-.1-1.3-.2-2-.4-.6-.2-1.2-.3-1.8-.5-.5.1-1.7,0-3.2-.2-1.4-.5-3.3-1.1-6.2-2-1.4-.4-2.4-.5-3.6-.6-1.1-.1-2.4-.3-4.1-.8v-.7c.1,0-4.6-.8-4.6-.8l-2.2-1.5-3.1-1c1.2.5,2.5,1.3,2.3,1.4-4.9-1.5-11.6-4.8-11.5-5.3l-5.7-2.1-2.8-1.1-2.8-1.2c.4-.1,2.2.7,3.7,1.2-6.1-2.1-.8-1.1-6.4-3.1.6.5-.6.2-.7.2-1.2-.9-3.4-1.9-5.7-3.3-2.3-1.3-4.9-2.7-7.1-3.8h1.1c-.5-.2-1-.5-1.5-.8-.5-.3-1-.6-1.5-.9-1-.6-2-1.2-3-1.8-1-.6-2-1.2-3.1-1.8-1-.6-2.1-1.2-3.1-1.9-4.1-2.7-8.3-5.3-12.3-8.4,2.8,2.3,1.6,2.5-.8.8l-.5-1.3c-1.8-.8,2.3,2.1-1.1.1-3-2.3-1.5-2.1.3-1-1.3-.9-2.6-1.7-3.8-2.6,0-.3.8.3,1.2.2-1.7-.9-5.7-5.5-8.2-6.7v-.3c-1.9-1.7-3.5-3.1-5-4.4-1.5-1.3-2.8-2.4-4-3.7-1.2-1.2-2.4-2.3-3.7-3.5-1.2-1.2-2.6-2.4-4-4-.4.2-1.5-1-2.9-2.2-.3-.4-.7-.7-1-1.1-1.2-1.2-2.1-2.5-3.2-3.8-1.1-1.3-2.2-2.7-3.5-4.3,0,0,0,0-.1,0-1-1.3-2-2.5-3-3.9-1-1.4-2.1-2.9-3.2-4.3-1.1-1.3-1.6-1.8-1.9-2-.3-.6-.7-1.1-1-1.7-.8-1.4-1.7-2.8-2.6-4.3-.4-.7-.9-1.4-1.4-2.2-.4-.8-.9-1.5-1.3-2.3-2.2-3.3-1.6-2-2.1-2.2-.2-.3-.4-.6-.6-.9-.2-.6-.8-1.9-1.3-2.8-.6-1.2-.9-2,.1-.5-2-3.7-3.3-6.1-4.8-8.8-1.1-2-2.2-4.3-3.8-7.3-2.2-4.8-4.3-9.6-5.8-14.3l.4,1.6c-.2-.1-.3-.3-.5-.5,0-.2-.1-.3-.2-.5-.2-.8-.5-1.5-.7-2.3-.5-2.2-1-5.1-2-7.5.4,1.1,1,1.2.8,1-.7-3-1.6-6-2.7-9.4-.5-1.7-.9-3.5-1.5-5.5-.3-1-.5-2-.8-3-.1-.5-.3-1.1-.4-1.6,0-.4-.2-.9-.3-1.3.7,1.7,1.5,3.6,2.2,5.5,0,0-.2-.2-.2,0,.5.9,1.1,2,1.7,3.3.6,1.3,1.3,2.6,2,4,1.4,2.8,2.8,5.9,4.2,8.4-1.3-1.4-1.4-2.2-1.4-1,1.2,2.3.4-1,2.8,3.5.5,1.6,1.9,5.1,1.7,5.7-.8-1.4-1.5-2.9-2.2-4.3.2,1.3.9,2.7,1.7,4.1.8,1.3,1.8,2.7,2.3,3.8h-.4c3.7,6.4,4.6,6,8.7,12.8l-.2-.8c1.5,1.7,1.9,2.4,2.3,3.3.4.8.8,1.7,2.3,3.3v1.5c.6.6,1.2,1.3,1.9,2.2.8.9,1.7,1.9,2.6,2.9.9,1.1,1.9,2.2,2.9,3.3.9,1.1,1.9,2.2,2.7,3.1-1.2-.9-2.7-2.6-4.3-4.3-1.6-1.8-3.2-3.6-4.5-5,1.7,2.3,6,7.7,7.2,8.6-.8-.9-1.8-1.9-2.4-2.9,1.7,1.7,3.8,3.7,6.1,6.1,0,0,0,.2.1.3.1-.2,1.8,2.3,3.2,4,.1.6,1.3,2.1,2.9,3.8.2.4.4.8.7,1.2,4.3,5.8,5.8,5.8,10.3,11-1.7-1.3.2,1.3-3.1-2,1.5,1.7,2.8,3.4,3,3.2.4.6,1.5,1.7,2.7,2.9,1.3,1.1,2.6,2.4,3.1,3.3.8.6,1.3.5,3.1,2.4,0,.2,0,.2,0,.2.2.1.8.7,1.3,1,.6.4,1,.6.3-.3,4.2,5.8,14.4,13.4,18.8,17.8,1,.7,2.1,1.5,3.1,2.3,1.1.8,2.2,1.5,3.3,2.3,2.2,1.5,4.4,3.1,6.3,4.3-.3,0-.1.2-.8-.3,5.1,3.7,3.8,1.2,9.6,5.3,1.4,1.2.5.8-.4.3-1-.5-2-1.3-1.2-.5,0,.9,2,1.9,4.3,3.1,2.4,1.2,5.1,2.7,7.1,4l-1.1-.5c3.1,2,8.2,3.8,13.6,6.2,0,0-.3,0-.1.2,1,.3,2.2.7,3.5,1.1,1.3.5,2.8.9,4.3,1.4,3,1,6.1,2.2,8.9,3-1.9,0-2.6-.6-1.7.3,2.5.8-.4-1,4.5.5,1.5.8,4.9,2.3,5.3,2.9-1.6-.4-3.1-1-4.6-1.5,1.1.7,2.6,1.3,4.1,1.6,1.6.4,3.1.6,4.3,1.1l-.4.2c7.2,2,7.5,1.1,15.3,3l-.8-.4c2.2.1,3.1.3,4,.6.9.3,1.7.6,3.9.7l1.2,1c.7,0,1.7.2,2.9.3,1.2,0,2.5.1,3.9.2,1.4,0,2.9.2,4.3.3,1.4.1,2.9.2,4.2.3-1.5.2-3.7.1-6.1,0-2.4-.1-4.8-.2-6.7-.3,2.8.4,9.7,1.2,11.2,1-1.2,0-2.6,0-3.7-.3,3.6,0,8.2-.1,13.9.3-.6.8,3.2,1,7.5,1.1,4.4.3,9.4,0,11.5.6,1.3-.1,2.5-.2,3.8-.3,1.3-.1,2.5-.2,3.8-.3,2.5-.2,5.1-.3,7.7-.5,2.6-.3,5.3-.5,8-.8.7,0,1.4-.2,2.1-.2.7-.1,1.4-.2,2.1-.3.6-.1,1.2-.2,1.8-.3-1.4.3-2.7.7-4,1l-3.7,1.6c-.9.2-1.7.2-.8-.2-4,.8-.1.4-2,1.2ZM330.1,37.8c1.7-.1,5.5,4.3,9.6,6.9-1-.6-1.6-.4-1.3-.3,2.5,2.1,5.2,3.9,8.1,6.3,1.5,1.1,3,2.4,4.7,3.7,1.7,1.3,3.3,2.8,5.2,4.4l-1.1-.6c.3.3.6.7,1,1-1.8-1-3.6-1.9-5-2.4-1.3-.7-3-2.1-2.3-2-1.8-.9-2.8-1.4-4-1.9-1.2-.6-2.6-1.3-5.1-2.7,3.8,1.4-1.1-.9,3.8,1.6-2.3-1.2-3.7-2-5.1-2.8-.5-.2-1-.5-1.5-.7h.3c0,0-4.5-2.2-4.5-2.2-.4-.4-.7-.8-.6-.9,0-.1.5,0,1.6.6-2.7-2.3-2.8-1.4-5.1-3.5-.2-.2,0-.2.2,0l-3.1-1.6c.7.2-.2-.8,1.6.4-1.3-.9-2.4-1.7-3.6-2.3-1.1-.6-2.2-1.1-3.1-1.5-1.8-.9-3.2-1.5-4.1-2.4l.5.2c-1.9-1-3-1.4-3.5-1.6-.6-.2-.6-.1-.7,0,0,.2.1.6-2.9-.5l-3.3-3.3-1,.2c-.8-.4-2.4-1.1-2-1.2-3.2-.9.4.5-1.5,0-1.9-1.1-4.6-2.3-6.9-3.2-2.4-.9-4.4-1.7-4.6-2.3-1.6-.1,3.7,1.8-.7.5-.4-.7-1.7-1.1-3.3-1.6-1.6-.4-3.5-.8-5.3-1.7,1.3-.1,4.8,1.3,1.2-.4-1.3,0-3.1-.6-5-1.3-1.9-.7-3.9-1.5-5.5-1.8-.2.3-1.9,0-4.3-.7-2.4-.6-5.5-1.3-8.2-1.7.4-.3-10.2-2.4-15.3-3.3h.2c-.5.2-2.1.2-4.1,0-1,0-2-.2-3.1-.3-1.1-.1-2.1-.1-3.1-.2.2-.4.9-.6,3-.6-1.2-.1-2.4-.2-3.7-.3-.9.2-2,.2-4.4.1l1-.5c-1.2,0-2.4-.1-3.7-.1-1.2,0-2.5,0-3.8,0-1.3,0-2.7,0-4.1,0-.7,0-1.4,0-2.2,0-.7,0-1.5,0-2.3,0-.3.5,5,1.3-1.6,1.8-.2-.3-.5-.7,1.2-.9-.6,0-2,.3-3.2.2l2.6-.5c-2.8-.1-1.5.4-3.8.4,0-.4-1.7-.2-1.4-.6.6,0,2,.1,2.9,0-1.3,0-2.7,0-3.9-.1-1.2,0-2.3,0-2.8-.2.2.2,0,.5-1.8.7-3.2.2-2.9,0-3.2-.2,1.6-.2,3.2-.4,4.9-.6,0,0,0,0,.1,0,0,0,0,0,0,0,1.9-.2,3.8-.5,5.8-.9.4,0,.9,0,1.4,0,.5,0,1.1,0,1.6,0,1.2,0,2.4,0,3.8,0,2.8,0,5.9-.4,9.1-.5,1.6,0,3.2-.1,4.8-.2,1.6,0,3.2-.1,4.7,0,3.1,0,5.9.2,8.2.6l-.5-.4c1.2-.2,1.9,0,2.6,0,.6.2,1.2.4,2.1.5-.2-.3-2.6-.5-1.1-.6,1.2,0,2.5.1,3.7.2,1.1.1,2.2.3,3.3.4,1.3.2,2.7.4,4,.6,2.6.5,5.3,1,7.9,1.6,1.3.2,2.6.6,3.9.9l3.9,1,3.9,1,3.8,1.2c2.6.8,5.1,1.6,7.6,2.5,2.5.9,5,1.8,7.5,2.8,1.8.6,3,1.1,3.9,1.2.3,0,.5.1.8.1,2.9,1.3,5.7,2.6,8.5,4.1,1.4,1.6-5.4-2.4-3.6-.8,1.1.5,2.2,1,3.3,1.5,1.1.6,2.2,1.1,3.3,1.7,2.2,1.1,4.5,2.2,6.7,3.4,2.2,1.2,4.3,2.5,6.5,3.7.5.3,1.1.6,1.6.9.5.3,1,.7,1.5,1,1,.7,2,1.4,2.9,2.1l-1.4-1.1Zm31.2,27c0,0-.1-.2-.2-.3-.4-.2-.9-.6-1.4-1,.7.5,1.5.9,2.2,1.3,0,0,0,0,0,0-.3-.1-.6-.1-.7-.1Zm44.6,57.9c0,.3,0,.5-.1.8-.2-.5-.5-1.1-.7-1.6,0-.1-.1-.3-.2-.4.3.3.6.7,1,1.3Zm-73.1,298c-.7.5-1.6,1.1-2.9,1.9l1.1-1.7c-3,2.1-3.7,2.9-4.5,3.7-.8.8-1.6,1.7-5,3.5.5-.5,1.7-1.3,2.6-2,.9-.7,1.6-1.2,1.1-.9-1.1.6-1.8,1-2.4,1.3-.5.3-.8.6-1.1.9-.5.6-.9,1.1-2.5,2.1l-1-.2c-3.1,2.1-6.5,4.1-9.9,6.2l-2.3,1.1-2.2,1-2.2.9c-4.2,1.3,2.4-1.2-.8-.5-2.4,1-4.5,1.9-6.6,2.6-2.1.6-4,1.1-5.8,1.6-.9.2-1.8.5-2.8.7l-1.4.4c-.5.1-.9.2-1.4.3-1.9.4-3.8.9-5.8,1.5-.8,0-1.8,0-2.9.2-1.1,0-2.3.2-3.6.4-1.3.2-2.7.4-4.1.7-1.4.3-2.9.6-4.4.7-3,.4-6.1.9-9,1.2-2.9.2-5.6.3-7.9.3l.5.3c-2.3.5-2.8,0-4.5,0,.3.3,2.5.3,1.1.5-2.4.1-4.9.2-7.4.3-1.2,0-2.5.1-3.7,0-1.2,0-2.5,0-3.7-.1-1.2,0-2.5,0-3.8-.1-1.3,0-2.5,0-3.8-.2-2.5-.2-5-.5-7.5-.7l-1.9-.2-1.9-.3-3.7-.6c-2.5-.4-5-.7-7.5-1.3-2.5-.5-4.9-1-7.4-1.5-2.4-.6-4.9-1.2-7.3-1.8-3.5-.8-4.6-.8-6-.7-1.3,0-2.9-.1-7.2-1.8h2.7c-.9-.1-1.8-.3-2.7-.6-.9-.3-1.8-.5-2.7-.8-1.8-.5-3.6-1.1-5.3-1.7-1.8-.5-3.5-1.3-5.3-1.9l-5.2-2.1c-3.4-1.5-6.8-3.1-10.2-4.6-3.3-1.7-6.6-3.2-9.9-4.8.8.3.9.2,2.2.8-2.5-1.8-9.8-5.6-10-5.3-1.9-1.3-.3-.6-1.3-1.5-2.4-1.9-6.8-3.6-7.9-4.9-.1-.2.4.1.8.4-2.1-1.3-7-5.1-5.9-3.6-2.2-1.6-4.2-3.2-6.2-4.7-1-.7-1.9-1.5-2.8-2.2-.5-.4-.9-.7-1.3-1.1-.4-.4-.8-.8-1.2-1.1-1.1-.6-2.5-1.9-3.9-3.1,1,.7,1.9,1.4,2.9,2.1.3.3.6.7,1,1,.2.1.4.2.6.3l-.8-.8c2,1.4,4,2.9,6.2,4.3,1.2,1.2,3,2.6,5.1,4.2,2.1,1.6,4.7,3.2,7.3,4.9.7.4,1.3.9,2,1.3.7.4,1.4.8,2.1,1.2,1.4.8,2.8,1.6,4.1,2.4,2.7,1.7,5.4,3.1,7.8,4.4-1.4-.9.6-.5,2.3.3,2.2,1.4,6.7,2.4,5.9,3l-.8-.4c1.4,1.5,6.3,3.6,10.2,5l1-.7c2.4,1.3,5.2,2.7,8.3,3.7,1.5.5,3.1,1.1,4.7,1.6.8.2,1.6.5,2.4.7.8.2,1.6.4,2.4.6,3.1.8,6.1,1.6,8.6,2.2,2.6.6,4.7,1.2,6,1.9,1.3.1,2.7.5,4.2.6,1.4.2,2.9.4,4.2.5l-.2.5c1.8.4,3.3.7,4.8.9,1.5.3,2.9.4,4.3.6,1.4.2,2.9.4,4.6.6.8,0,1.7.2,2.7.3,1,0,2,.1,3.1.2l-1.8.3c2.5.2,4.1,0,5.7-.4.8-.1,1.5-.3,2.4-.4.9,0,1.8-.1,3-.1l1.4.9c2.2,0,4.4.2,6.6.3h1.6c0,0,1.6,0,1.6,0h3.3c2.2,0,4.4,0,6.6-.2,2.2-.2,4.3-.5,6.5-.8-.1.1-.4.4-1.8.5,4,0,15-1.1,14.4-2,1.1.5,9.1-1.6,13.3-2.7l-.6.7c3.7-1.6,3.8-1.8,9.2-3.2,1.3-.2,1.2.2-.5.4,1.1-.2,1.8-.4,2.4-.6.6-.2,1-.4,1.4-.6.9-.4,1.9-.8,4.5-1.4l-1.8.9c4.3-1.2,4-1.2,6.2-2.4,2.6-1.1,8.1-2.6,8.9-2.4.5-.5,2.6-1.8,5.1-2.6.4,0-.5.5-.9.7,1.8-.6,3.3-1.2,4.7-1.8,1.4-.6,2.5-1.3,3.6-1.8,2.2-1.2,4.2-2.2,6.7-3,.2.1.5,0,.9-.1-1.3.7-2.6,1.3-3.8,1.8-1.2.5-2.2,1-3.1,1.4-1.5.6-2.4,1-2.5,1.1.3.4,4.6-1.4,1.4.8,1.7-1,4-2.4,6.4-3.7,2.4-1.4,4.8-2.9,7-3.8.2,0,.4-.1.6-.1l-.4.3c1-.5,1.8-.9,2.6-1.4,1.3-.7,2.2-1.1,3.5-1.8,0,0,.2,0,.4,0-.2.3-.5.7-.8,1.1-.4.4-.9.9-1.6,1.5ZM31.1,319c-.4-.8-.9-1.6-1.3-2.4-.9-1.6-1.7-3.3-2.6-5-.9-1.6-1.6-3.4-2.3-5.1l-2.2-5.2c-1.4-3.5-2.6-7-4-10.4-1.1-3.5-2.4-7-3.6-10.4.4.8.5.8,1,2.1-.4-3-2.9-10.9-3.4-10.8-.4-2.2.2-.6.1-2-.1-1.1-.5-2.4-.9-3.7-.2-1.9-.4-3.9-.5-5.8,0,0,0-.2,0-.2,0,.1,0,.2.1.3.3.8.6,1.3,1.1,2.5.5,1.4,1,3.6,1.4,5.5.4,1.9.7,3.5.6,4,.5.5,1.7,2.8,2.4,5.5,0,.4-.5-.5-.7-1,.3.9.5,1.8.8,2.7.3.8.6,1.6.9,2.3.6,1.4,1.1,2.7,1.7,3.9.5,1.2,1,2.3,1.5,3.5.5,1.1,1,2.3,1.4,3.6-.1.2,0,.5,0,1-.6-1.4-1.2-2.8-1.7-4-.5-1.2-.9-2.4-1.3-3.3-.6-1.6-.9-2.5-1-2.7-.5.2,1.2,4.9-.9,1.4,1.7,3.7,5.4,9.7,7.2,14.3,0,.2.1.5.1.7l-.3-.4c.5,1,1,1.9,1.5,2.8.3.8.6,1.5.9,2.1.3.7.6,1.5.9,2.3,0,.3.2.6.4,1,.6,1.5,1.3,3.2,2,4.9.4.9.8,1.8,1.2,2.7.4.9.9,1.7,1.3,2.5.1.3.3.5.4.8,0,.6-.6,0-.1,1.4,1.2,2.5,1.6,3.9,2.2,5.4.2.7.5,1.4.8,2.2-.7-.9-1.2-1.4-1.8-1.9-.9-.9-1.9-2.1-3.8-6.4l1.9,2c-.5-.8-1-1.6-1.5-2.4ZM223.7,11.9h2.3c.8,0,1.5,0,2.3,0l4.6.2c-.7-.5-1.2-.4-3.1-.9,1.2-.2,3.8-.2,6.1,0-4.2,0,0,.7,1.7,1.2-.3-.2.3-.3.2-.4,4.7,1.4.9-.8,7.4.5l-.4.2c.6,0,1.2,0,1.8,0,.6,0,1.2.1,1.8.2,1.2.1,2.4.3,3.7.5,1,.7-2.6-.2-2.9.2,3.7.6,7.4.2,10.6,1.5-1.6-.2-3.8-.7-5.4-.8,1.8.6,2.7.9,3.6,1.2.9.2,1.6.4,3,.7h-.3c2,.5,4.1,1,6.1,1.6-.5-.2-1-.4-1.5-.5,2.4-.2,4.7.5,7.2,1.1,1.2.3,2.5.7,3.9,1,1.4.4,2.8.7,4.4,1-6.1-1.1-1.1.2-1.7.6,1.5.7,3.7,1.6,3,1.5,1.5.2,2.6.7,3.9,1.2,1.3.6,2.7,1.1,4.8,1.5.1.2,3,1.1,2.1,1.4,3.6,1.2-.7-.6-.3-.8,5.8,1.5,12.5,6.1,20.5,9.1,3.3,1.5,5.3,2.4,7.3,3.2,1,.4,2,.8,3.1,1.3,1.1.5,2.3,1.2,3.8,2,1.8,1.5-2-.4-2-.4,1.5,1.1,2.9,2,4.2,2.9,1.4.9,2.8,1.6,4.2,2.5-.3-.1-.4,0-.3,0-.1,0-.2-.1-.3-.2.3,0-.7-.7-2.1-1.4-1.8-.9-3.7-1.8-5.5-2.7-.1,0-.2-.1-.3-.2-1.1-.8-2.3-1.7-3.1-1.9.6.4,1.4.9,2.1,1.5-1.8-.9-3.4-1.6-4.8-2-1.3-.6-3-1.7-2.3-1.7-1.7-.7-2.7-1-3.9-1.5-1.1-.5-2.5-1.1-4.9-2.2,3.6,1.1-1.1-.8,3.7,1.2-4.5-1.9-5.4-2.7-10.4-4,1.9,0-3.3-1.8-5.5-2.4l3.1,1.4c-2.5-.8-4.6-1.5-6.8-2.3l1.4-.2c-2.3-1-4.6-1.6-6.8-2.2-2.2-.5-4.3-1.1-6.4-1.3-2.1-.3-4.1-.7-6-1.1-1-.2-1.9-.5-2.8-.7-.9-.2-1.9-.5-2.8-.9-2.7,0,5.3,1.3,2.8,1.4-4.5-.9-9-2.7-10.4-2.9-3.1-.6-4.6-.5-6.1-.5-.8,0-1.5,0-2.5,0-1,0-2.2-.2-3.8-.3.8.3,1.5,1-3.3.8-4.5-.4-5.5-1.4-2.6-1.4,1.1,0,1.6.2,1.6.3,1.5,0,3.4,0,1.6-.3l-.6.2c-1.1-.2-3.3-.4-4.9-.6-1.7-.2-2.9-.3-2.1-.4-3,.1-2,.3,0,.5-2.4-.2-4.5-.2-6.5-.3-1.2,0-2.3,0-3.6,0-1.3,0-2.6,0-4.1,0,1,.1,1.9.4.9.4-4.4,0-5.4.1-6,.3-.3,0-.5.2-1,.3-.5.1-1.3.2-2.8.4-3.4-.1,1.2-1-4.9-.2-3.7,0-.8-.6.6-.9-1.4.2-2.7.4-4,.5-1.3.2-2.5.3-3.6.3-2.3.1-4.3.2-5.9.3l2.9-.6c-1.7.3-3.1.5-4.6.7.6,0,1.1.2,1.7.2-1.7.1-3.1.4-3.1.2-1.7.6,1.5.5-1.9,1.6-2.3.2-6.8,1.4-7.7,1,6.5-1.1.3-.6,3.8-1.4-.9.2-1.9.3-3,.5-.3,0,.2-.2.7-.3-6.8.9-2.9,1.4-9.9,3,.4-.3,0-.3-.7-.3-.7,0-1.6.3-2.1.5,2.8-.8,1.5.2-1,1.2-4.5,1-4.7,1.5-7,2.2l2.7-.6c-.4.3-1.1.6-2.2.9-1,.4-2.3.8-3.8,1.4-.3-.2,2.7-1.1,1.6-.9-1.6.9-3.5,1.3-5.6,1.9-1,.3-2.2.5-3.3.9-1.1.4-2.2.8-3.3,1.4-2.2.6-.4-.5-2.4,0-2.5,1.2-3.9,1.6-5.4,2.2-1.4.5-2.9,1-5.5,2.4,1.7-.3,1.9-.5-1.6,1.6l8.5-4.2-5.3,3.1c2.6-1.1,5.4-2.8,7-3.3-2.5,1.4-2.3,1.3-.9,1.1-1.9.5-3.7,1.4-5.4,2.3-1.8,1-3.6,1.9-5.7,2.8l-.4-1.1c-3.1,1.3-5.8,2.8-8.6,4.6-1.4.9-2.8,1.8-4.4,2.8-1.6,1-3.3,1.9-5.2,3.1.8-.4,1.7-.9,2.5-1.3-.8,1-4.6,3-6.9,4.7,0-.5-1.6.4-2.7.8.3.2-5.3,3.7-5.5,4.9-1.2.6-2.4,1.2-3.5,1.9-5.8,4.3-5.8,5.8-11,10.3,1.3-1.7-1.3.2,2-3.1-1.7,1.5-3.4,2.8-3.2,3-.6.4-1.7,1.5-2.9,2.7-1.1,1.3-2.4,2.6-3.3,3.1-.6.8-.5,1.3-2.4,3.1-.2,0-.2,0-.2,0-.1.2-.7.8-1,1.3-.2.2-.3.4-.3.5-.2.2-.4.3-.6.5-1.9,1.7-3.8,3.5-5.5,5-.9.8-1.7,1.4-2.5,2.1-.8.7-1.5,1.2-2.2,1.7-1.8,1.9-3.9,4-5.9,6.2-1.9,2.2-3.8,4.3-5.4,6.1.1-.3-.1-.2.5-.8-2.4,2.3-2.8,3.4-3.3,4.4-.5,1.1-1.1,2.2-3.7,5-3,2.6,2.3-3.3.5-1.6-.4,0-1,.4-1.7,1.2-.3.4-.7.8-1.1,1.3-.4.5-.7,1.1-1.1,1.6-1.6,2.3-3.4,5.1-5.3,6.9l.7-1c-.7.7-1.3,1.6-2,2.6-.6,1-1.3,2.1-2,3.3-.7,1.2-1.4,2.4-2.2,3.7-.8,1.3-1.5,2.7-2.4,4,0,0,0-.3-.2-.1-.4,1-1,2.3-1.6,3.6-.6,1.3-1.4,2.8-2.1,4.3-1.4,3.1-3.1,6.3-4.4,9.1.3-2,1-2.6,0-1.8-1.2,2.5,1.1-.3-1.1,4.7-1,1.4-2.7,4.5-3.5,5.1,0-.2,0-.4.1-.5l1.9-4.1c-.7.7-1.2,1.8-1.7,2.8.2-2.3-.4-2.9,2.6-9.1l-.3,2.8c.6-1.8,1.1-3.7,1.8-5.5.7-1.8,1.4-3.6,2.2-5.4.8-1.8,1.4-3.6,2.3-5.4h0c0-.3.2-.5.4-.8l2.1-4.5c1.6-3.6,3.6-6.9,5.3-10.4v.6c.2-.5.5-1,.8-1.5.3-.5.6-1,.9-1.5.6-1,1.2-2,1.8-3,.6-1,1.2-2,1.8-3.1.6-1,1.2-2.1,1.9-3.1,2.7-4.1,5.3-8.3,8.4-12.3-.8.9-1.3,1.4-1.6,1.5.4-.6.7-1.1,1-1.7.2-.4.4-.7.6-1l.4-.2c.2-.5.1-.5,0-.4.6-.9,1.1-1.5,1.5-1.9.2-.1-.1.3-.4.8.1-.2.3-.5.5-.7-.1.4-.4.8-.7,1.4.9-1.3,1.7-2.6,2.6-3.8.3,0-.3.8-.2,1.2.9-1.7,5.5-5.7,6.7-8.2h.3c1.7-1.9,3.1-3.5,4.4-5,1.3-1.5,2.4-2.8,3.7-4,1.2-1.2,2.3-2.4,3.5-3.7,1.2-1.2,2.4-2.6,4-4-.2-.4,1-1.5,2.2-2.9.4-.3.7-.7,1.1-1,1.2-1.2,2.5-2.1,3.8-3.2,1.3-1.1,2.7-2.2,4.3-3.5,0,0,0,0,0-.1,1.3-1,2.5-2,3.9-3,1.4-1,2.9-2.1,4.3-3.2,1.3-1.1,1.8-1.6,2-1.9.6-.3,1.1-.7,1.7-1,1.4-.8,2.8-1.7,4.3-2.6.7-.4,1.4-.9,2.2-1.4.8-.4,1.5-.9,2.3-1.3,3.3-2.2,2-1.6,2.2-2.1.3-.2.6-.4.9-.6.6-.2,1.9-.8,2.8-1.3,1.2-.6,2-.9.5.1,3.7-2,6.1-3.3,8.8-4.8,2-1.1,4.3-2.2,7.3-3.8,4.8-2.2,9.6-4.3,14.3-5.8l-1.6.4c.1-.2.3-.3.5-.5.2,0,.3-.1.5-.2.8-.2,1.5-.5,2.3-.7,2.2-.5,5.1-1,7.5-2-1.1.4-1.2,1-1,.8,3-.7,6-1.6,9.4-2.7,1.7-.5,3.5-.9,5.5-1.5,1-.3,2-.5,3-.8.5-.1,1.1-.3,1.6-.4.6-.1,1.1-.2,1.7-.4l-1.1.5c1.8-.2,4.2-.5,6.6-.9,1.2-.2,2.4-.4,3.6-.5,1.2-.1,2.3-.2,3.2-.3,1.1-.4,3.4-.6,2-.9,1.5,0,3,0,4.5-.1,1.5,0,3,0,4.4-.2,2.9-.2,5.7-.5,8.6-.7,1.4,0,2.8-.2,4.2-.3,1.4,0,2.8-.2,4.1-.1,2.7,0,5.5.2,8.1.6-1.3,0-3.1.2-2.1.2Zm129,47l.8.6c-.2-.2-.5-.4-.8-.6.7.1,1.5.6,2.5,1.3-1.5-1-2.4-1.5-1.6-.6l.5.4c-.1,0-.2-.1-.4-.2-.5-.3-1-.6-1.5-1,.1,0,.3,0,.4,0Zm-78.4-28.9c-4.8-.9-5.7-2-2.7-1.7,1.2.2,1.7.3,1.6.4,1.6.2,3.6.4,1.8-.2h-.7c-1.2-.2-3.4-.6-5.2-1-1.8-.3-3-.5-2.2-.7-3.2-.2-2.1.1,0,.5-2.6-.4-4.7-.7-6.9-.9-1.2-.1-2.5-.3-3.8-.4-1.3-.1-2.8-.2-4.4-.4,1,.2,1.9.6.9.5-4.7-.5-5.8-.4-6.4-.3-.7.1-1,.3-4.2.3-3.6-.5,1.3-.9-5.1-.7-3.9-.4-.8-.7.7-.9-1.5,0-2.9,0-4.3,0-1.4,0-2.7,0-3.9,0-2.4,0-4.6-.3-6.3-.3l3.1-.3c-1.9.2-3.4.2-4.9.2l1.8.5c-.9,0-1.8,0-2.4,0-.6,0-1,0-1-.1-1.9.5,1.5.7-2.2,1.5-2.4,0-7.3.8-8.2.2,6.9-.3.6-.6,4.1-1-.9,0-2,.1-3.2.2-.3,0,.2-.2.7-.2-1.8,0-3,0-3.7.2-.8.1-1.2.3-1.6.5-.8.4-1.7.8-5.5,1.3.9-.5-1.8-.5-3.1-.2,1.5-.2,1.9,0,1.6.1-.3.2-1.4.6-2.8,1-4.8.5-5.2,1.1-7.7,1.5l2.9-.3c-.5.3-1.3.5-2.4.7-.6.1-1.2.2-1.9.4-.7.1-1.5.4-2.3.6-.3-.2,3-.9,1.8-.7-1.8.7-3.9,1-6.2,1.3-2.3.3-4.8.6-7.3,1.5-2.4.4-.4-.6-2.5-.2-2.8,1-4.4,1.3-6,1.6-1.6.3-3.2.7-6.1,1.9,1.9,0,2.1-.3-1.9,1.5l4.8-1.7c1.6-.6,3.2-1.2,4.8-1.6-2,.8-4,1.7-6,2.6,1.5-.5,3-1,4.3-1.5,1.4-.5,2.6-.8,3.5-1-2.9,1.2-2.6,1-1.1,1-2.1.1-4.1.9-6.1,1.7-2,.8-4.1,1.6-6.5,2.1l-.3-1.2c-3.5,1-6.5,2.3-9.7,3.7-1.6.7-3.2,1.6-5,2.4-1.8.8-3.7,1.7-6,2.5l2.9-1c-.5.5-1.8,1.1-3.4,1.7-1.5.7-3.3,1.5-4.6,2.2,0-.3-.4-.2-1,0,.6-.4,1.2-.8,1.7-1.1,1.8-1.1,3.5-2.1,5.2-3.1.8-.5,1.7-1,2.6-1.5.4-.2.9-.5,1.3-.7.5-.2.9-.4,1.4-.7,1.9-.9,3.9-1.8,6.1-2.8,2.4-.9-1.2,1-1.9,1.4,1.1-.5,2.2-1.1,3.3-1.6,1.1-.5,2.2-.9,3.3-1.4,2.2-.9,4.4-1.7,6.6-2.6,2.2-.8,4.4-1.5,6.5-2.2,1.1-.4,2.1-.8,3.2-1.2,1.1-.4,2.1-.7,3.1-1.1-1.7,0,5.9-2.8,6.8-3.4-2.2,1.6,8.6-1.7,4.4.8,1.1-.3,2.5-.8,2.1-1.1,1.7-.3,2.2-.3.6.4,1.5-.4,2.5-.7,3.2-.9.7-.2,1.2-.4,1.6-.5.9-.3,1.7-.6,4.5-1,0,.2-1.1.5-1.6.8,2.7-.9,5.5-1.8,10.3-2.2-.2.1.2.2-.7.4,1.9-.3,3.6-.5,5.3-.8.5,0,.9-.2,1.3-.2.4,0,.9-.1,1.3-.2.9-.1,1.8-.2,2.7-.4,1.8-.2,3.6-.5,5.5-.7,1.9-.2,4-.2,6.2-.1-2.6.9,3.1.2,3.6.9.8,0,1.6-.1,2.4-.2h2.4s-1.9-.5-1.9-.5c2.1,0,4.1,0,6,0,1.9,0,3.8-.1,5.6.2h-1.6s-1.6.1-1.6.1c1.3,0,2.6,0,4,.2l4,.2-4.5-.6c4.3,0-.4-1,5.2-.3-1.2,0,4.3.3,6.4,1.1h0c2.1,0,4.3,0,7.4.6.8.3-.8.7-.3,1,1.1-.2,3.5.3,6,.6,2.5.4,5.1.8,6.5.8-.9,0-1,.3-.7.5h1.8c1.9.5,2.1.6,1.8.9,5.7,1.4-1.6-1.3,5.1.6-.5,0-.3,0-1.4-.1,6.8,1.9,13.3,3.3,19.3,5.7,1.6,1.3-5.4-1.6-3.6-.3,1,.3,1.9.6,2.9.9-.3.2,5.7,1.8,3.5,1.7-4.7-1.3-9.3-3.7-10.8-4-3.2-.9-4.8-1-6.4-1.1-1.6,0-3.3-.2-6.7-.9.8.4,1.5,1.2-3.6.6Zm2.7,6.1c.9,0,4.8.4,7.2.9-2.3,0,0,.5,2.5,1.3,2.6.8,5.6,1.7,4.9,2,.9,0,2.1.1,3.4.5,1.3.4,2.9.8,4.5,1.3,1.6.5,3.3,1.1,4.9,1.6,1.6.6,3.2,1.1,4.6,1.6-.3,0-1-.1-1.5-.4,3.1,1.3,3.9,1.9,5.8,2.9.7-.5,5.5,1.4,8.3,2.2,3.4,2.4-2.7-.2-1.8,1,0-.3,1.7.2,3.3.8,1.5.6,2.9,1.2,2.4.6,2.6,1.8,2.3,1.4,3.4,2.7.9-.6,2.7,1.1,5.2,1.9,3.7,2.7.6,1.4,5,3.6,1.9,1.4-2.1-.5-2.1-.5,4.4,2.5,2.4.6,3.6.7,5.2,3.1,2.1,2,3.6,3.4,1.6.9,3.2,1.7,4.6,2.3,1.4.7,2.6,1.4,3.8,2.3.1.2.5.6,0,.3.9.5,2,1.1,3.1,1.9.6.4,1.2.8,1.8,1.2.6.5,1.2.9,1.8,1.4,2.4,1.9,4.9,3.7,7,4.9.2.3.3.4.3.5-.3-.8-.2-1.1.1-1.3,1.7,1.5,3.5,2.4,3.9,3.4-1.1-.9-1.3-.9-1.9-1.2l1.9,1.4c1.2,1.9-2.6-2-3-1.6,1.8,1.4,3.9,2.9,5.8,4.4.6.5,1.2,1,1.7,1.4,0,0,0,.1.1.2l1.2,1c.6.6,1.2,1.2,1.7,1.7,0,1-6.2-5.6-3.2-1.9l-1.9-2-2-1.9c2.5,3.6-2.5-2.2-.3,1.1.7.6,1.3,1.1,1.8,1.6.5.5,1,1,1.4,1.4.9.8,1.7,1.5,2.4,2.2,1.5,1.4,3.1,2.6,5.5,5.3,1,.6.6,0,.8-.1.3.3.6.7,1.2,1.4,0,.5-.4,0-1.3-.8.9,1,2.1,2.4,3.1,3.6,1,1.3,1.9,2.5,2.5,2.9.6,1.3,1.9,3.1,3,4.7,1,1.6,1.8,3,1.4,3.1.6.6,3.1,3.7,4.5,5.8-1.7-1.6-.4.3.9,2.7,1.3,2.4,2.8,5.2,2,4.9.6.6,1.4,1.6,2,2.8.7,1.2,1.4,2.6,2.2,4.1.8,1.5,1.6,3.1,2.3,4.6.7,1.6,1.4,3,2.2,4.4-.2-.3-.6-.8-.8-1.3,1.3,3.1,1.4,4.1,2.1,6.1.9.1,2.9,4.9,4.3,7.4,0,.4.1.8.1,1,0,0,0,0,0,0,0,0,0,0,0,0,0,1.8-1.9-2.9-2.1-1.6.3-.2,1.1,1.4,1.7,2.9.6,1.5,1.2,2.9,1.3,2.1.5,3.1.6,2.6.5,4.4,1.1.2,1.1,2.7,2.3,5.1.6,3.7-.2,2.3.4,4.2h-.5c-.7-2.7-1.8-5.6-3.2-8.5-.7-1.5-1.4-2.9-2.2-4.4-.4-.7-.7-1.5-1.1-2.2-.4-.7-.8-1.4-1.2-2.1-1.6-2.8-3.2-5.4-4.5-7.7-1.4-2.2-2.4-4.2-2.9-5.6-.8-1-1.6-2.3-2.5-3.4-.9-1.2-1.8-2.3-2.6-3.3l.5-.2c-1-1.5-1.9-2.8-2.7-4-.8-1.2-1.7-2.3-2.6-3.5-.9-1.2-1.8-2.3-2.9-3.7-.5-.7-1.1-1.4-1.7-2.1-.6-.7-1.3-1.5-2.1-2.3l1.5,1.1c-1.6-1.9-3-2.9-4.3-3.8-.7-.4-1.3-.9-2-1.4-.7-.5-1.4-1.2-2.2-2l-.3-1.6c-1.5-1.6-3-3.2-4.5-4.8l-1.1-1.2-1.2-1.2-2.3-2.3c-1.6-1.5-3.1-3.1-4.8-4.5-1.7-1.4-3.4-2.7-5.2-4,.2,0,.5,0,1.6.9-3-2.9-12.1-10.4-11.6-8.6.4-.8-7.3-5.3-11.4-7.7h.9c-3.8-1.6-4-1.5-8.8-4.3-1.1-.7-.8-1,.7,0-.9-.7-1.5-1-2.1-1.3-.5-.3-1-.4-1.4-.6-.9-.4-1.9-.8-4.2-2.2l1.9.7c-3.9-2.2-3.7-1.9-6.1-2.7-2.6-1-7.6-3.9-8-4.6-.7,0-3.1-.6-5.5-1.8-.3-.3.7,0,1.1.1-1.7-.8-3.2-1.5-4.6-2.1-1.4-.5-2.7-.9-3.9-1.3-2.4-.7-4.5-1.4-6.8-2.6,0-.2-.3-.4-.7-.6,1.4.4,2.8,1,4,1.4,1.2.5,2.3.9,3.2,1.2,1.5.6,2.4.9,2.6,1,.1-.5-4.3-2.3-.4-1.6-1.9-.5-4.5-1.2-7.1-1.9-2.7-.7-5.4-1.4-7.6-2.2-.2-.1-.4-.2-.5-.4h.5c-1-.3-2-.6-2.9-.7-1.4-.5-2.3-.8-3.7-1.2-.2-.3-1.5-.7-3.1-1.1-1.6-.4-3.4-.9-4.6-1.1,0,.6-2.9-.2-.3.9,0,0,.8,0,2.1.4.4,0,.8.2,1,.2,0,0-.1,0-.2,0,1.5.4,3.5.9,5.8,1.5-1.9-.2-3.9-.5-6.4-1.5-1.3,0-2.7.1-3.5.1-1.5-.7-3.8-1.5-5.8-2.3-1-.4-1.9-.7-2.7-.9-.7-.2-1.3-.5-1.5-.6-1.8-.2-3.8-.5-5.9-.8-1-.2-2-.3-3.1-.4-1,0-2-.2-3-.3-2-.2-3.9-.3-5.6-.4-1.7,0-3.2.1-4.4.3-2.1,0-2.4-.5-3.1-.7,1.2,0,2.6,0,3.3,0-1.1,0-2.3,0-3.7-.1-.7,0-1.4,0-2.1-.1-.7,0-1.4,0-2.1,0-2.7,0-5,.1-5.5.5-2.6-.2-1.9-.4-1.4-.5.2,0,.4,0,.1-.1-.3,0-1.2,0-3,0l1-.2c-3.6-.2-6.8-.2-9.9,0-3.1.3-6,.8-9,1.2-3,.5-5.9,1.1-9.2,1.5-1.6.2-3.3.5-5.1.7-1.8.2-3.6.4-5.6.6,1.1,0,1.6-.1,1.9,0-1.1.2-2.2.3-3.4.5-1.1.2-2.2.4-3.3.7-2.2.5-4.5.9-6.7,1.4-2.2.6-4.4,1.2-6.7,1.9-1.1.3-2.2.6-3.3,1l-3.3,1.1c-2.2.7-4.4,1.4-6.6,2.2-2.2.8-4.3,1.6-6.4,2.4-1.1.4-2.2.8-3.2,1.2-1.1.4-2.1.9-3.1,1.3-2.1.8-4.2,1.6-6.3,2.4-4.6,2-4.9,2.7-7.5,4.4h-1.3c-1.5,1-2.9,2.1-4.3,3.1-1.6,1-3.1,1.8-4.6,2.6-1.5.8-3,1.5-4.6,2.3-1.6.8-3.2,1.6-4.9,2.6-1.7,1.1-3.4,2.3-5.2,3.9l1.2-.4c-1.4,1-3.6,2.5-5.4,3.8-1.7,1.4-3.1,2.4-3,2-.2.3-.6,1-1.8,1.7l-.3-.2c-1,.9-2.1,1.8-3.1,2.8l-3,2.9c-2.5,2-2.5,1.6-2.8,1.5,0,0-.2,0-.4,0,.9-1,1.7-1.9,2.6-2.8,2-1.9,4-3.7,6.2-5.3-.9.9-2.1,2.3-1.3,1.6l1.6-1.6c.5-.5,1.1-1,1.7-1.6l3.4-3.1c-.9.1-1.1.6-2.8,1.6.7-1,2.5-2.8,4.3-4.3-2.9,3,.5.5,2.1-.4-.3,0,0-.4-.2-.4,4.3-2.3,0-1.2,5.6-4.9v.4c.3-.4.8-.8,1.2-1.2.5-.4.9-.8,1.4-1.2.9-.8,1.9-1.5,3-2.3,1.2-.2-2,1.7-1.9,2.2,3-2.2,5.4-5.2,8.6-6.5-1.3,1-3.2,2.2-4.4,3.3,1.7-.8,2.6-1.3,3.4-1.7.8-.4,1.4-.9,2.6-1.6h-.2c1.8-.9,3.6-2,5.5-3-.5.2-1,.5-1.5.7,1.6-1.8,3.7-3,5.9-4.3,1.1-.6,2.3-1.3,3.5-2,1.2-.7,2.5-1.4,3.8-2.4-5,3.5-.7.9-.8,1.7,1.5-.6,3.7-1.5,3.2-1,1.2-.9,2.3-1.4,3.6-1.9,1.3-.5,2.7-1.1,4.5-2.3.3.1,2.9-1.3,2.5-.6,3.4-1.7-1,0-.8-.3,5.2-3.1,13.2-4.5,21-8,3.4-1.3,5.5-2.1,7.5-2.9,1-.4,2-.8,3.1-1.3.5-.2,1-.3,1.6-.5,1.1-.2,2.2-.5,3.3-.7.2.2-2.4,1.1-2.4,1.1,1.8-.3,3.5-.6,5-1,1.6-.4,3.1-.8,4.8-1.2-.7.3,0,.3,1.2.3,2.8-.5,1.7-1,5.4-1.4-.6.3-1.3.8-2.6,1.3,1.6-.4,3.2-.8,4.8-1.2,1.6-.3,3.3-.7,5-1,.9.2-2,.8-3.2,1.1,3.8-.6,9.8-1.6,11-2.1h-1.9c.5,0,0,.4-.9.6-3.2.8-4.7.4-5,.2l2.4-.4c-.3,0-.6-.1-.9-.2.4-.1.7-.3.5-.4,1.8-.1,2.4,0,.6.5,1.6-.3,2.7-.5,3.5-.6.8-.1,1.3-.3,1.8-.4,1-.2,1.9-.4,4.9-.6,0,.2-1.2.4-1.8.7,1.5-.3,3-.6,4.8-.9,1.8-.2,3.8-.3,6.4-.3-.3.1.2.2-.7.3,2,0,3.9-.2,5.7-.3.1,0,.2,0,.4,0-.2.3-.7.7-.8,1-.3,0-.8,0-1.4,0l-1.4.7,3-.3s0,0,0,0c.5.4,1.9.8,5.4,1.2l5.4-.4,1.7.6c-1.5-.1-3-.1-4.5-.2,1.3.3,2.3.3,3.3.3,1,0,1.8,0,2.8-.2.4.3,1.2.5,2.2.7l5.4-.5c.6.4-2.4.5,1.1,1.1,2.5,0-2.3-1.1,1.8-.9,2.5.7,1.7,1,4.8,1,.4.3-.3.4-1.5.3,1.4,0,3.1.2,4.8.4,1.6.2,3.1.4,3.8.3,1.3.5,3.5.9,5.4,1.2,1.9.4,3.4.8,3.1,1.2Zm126.1,84.3c-.3-.4-.7-.9-1-1.3-.9-1.4-1.7-2.8-2.3-4.1,0,0,.1.1.2.2,1.1,1.7,2.1,3.4,3.1,5.3Zm-4.5-7.7c-.1-.3-.3-.5-.4-.8.2.3.4.6.6.9h-.2Zm30.5,113.6h0s0,0,0-.1c0,0,0,.1,0,.1Zm-10.1,63.6c-.3.5-.5,1.2-.7,2,.3-1,.5-2,.8-2.9,0,.4,0,.7,0,.9Zm-6.2,18.7c-1,2.7-2.2,5.8-2.5,5-.2,3.7-4.2,11.9-6.3,17.8,0-.3.2-1,.5-1.5-1.6,3.1-2.3,3.9-3.4,5.8.3.4-.1,1.8-.7,3.5-.7,1.7-1.5,3.6-2,5-2.7,3.4.4-2.7-.9-1.9.7.1-2.9,6.9-1.7,5.9-2.1,2.6-1.6,2.3-3.1,3.4.6,1-1.4,2.7-2.3,5.4-2.9,3.7-1.5.5-4,5-1.6,1.9.6-2.2.6-2.2-2.9,4.4-.7,2.5-1,3.7-3.3,5.4-2.1,2.1-3.6,3.7-2.2,3.3-3.4,6.2-5.1,8.5-.2,0-.6.5-.3-.1-1.1,1.8-3,4.2-5,6.7-1,1.3-2,2.5-3,3.7-1,1.2-1.8,2.3-2.5,3.4-.3.2-.5.3-.6.3.2,0,.4-.1.6-.2-1,.6-2.2,1.5-3.9,3.4-.4.6-.7,1.1-1.1,1.6-3,1.8,2.7-2.6-.8-.6-1.2,1.2-2.2,2.2-3,3.1h0c-1.8,1.3-2.7,2.1-3.3,2.8-1.9,1.2-3.6,2.3-5.8,3.4-1.3,0,2.3-1.5,2.2-2-3.4,1.9-6.4,4.3-9.8,5.3,1.4-.8,3.6-1.9,5-2.7-3.7,1-4.1,1.4-6.7,2.5h.3c-.5.1-1.1.3-1.6.6.5-.2,1-.4,1.4-.6l-1.6.6-1.7.6c.7-.2,1.3-.4,1.8-.6-1.5.6-2.9,1.1-4.4,1.6l1.6-.5c-2,1.6-4.2,2.6-6.7,3.6-2.5.9-5.3,1.8-8.2,3.4,5.7-3,.8-.8,1.1-1.6-1.6.4-4.1,1.1-3.5.7-2.8,1.4-5,1.1-9,3.1-.1,0-.9.2-1.6.3-.7.2-1.3.2-1-.1-3.8,1.2,1,.1.8.4-2.8,1.1-6.2,1.8-9.9,2.5,1.2-.5,2.4-1,3.5-1.5l.2-1.2c2.6-.7,5.6-1.8,8.5-3.2,1.5-.7,2.9-1.4,4.4-2.2.7-.4,1.5-.7,2.2-1.1.7-.4,1.4-.8,2.1-1.2,2.8-1.6,5.4-3.2,7.7-4.5,2.2-1.4,4.2-2.4,5.6-2.9,1-.8,2.3-1.6,3.4-2.5,1.2-.9,2.3-1.8,3.3-2.6l.2.5c1.5-1,2.8-1.9,4-2.7,1.2-.8,2.3-1.7,3.5-2.6,1.2-.9,2.3-1.8,3.7-2.9.7-.5,1.4-1.1,2.1-1.7.7-.6,1.5-1.3,2.3-2.1l-1.1,1.5c1.9-1.6,2.9-3,3.8-4.3.4-.7.9-1.3,1.4-2,.5-.7,1.2-1.4,2-2.2l1.6-.3c1.6-1.5,3.2-3,4.8-4.5l1.2-1.1,1.2-1.2,2.3-2.3c1.5-1.6,3.1-3.1,4.5-4.8,1.4-1.7,2.7-3.4,4-5.2,0,.2,0,.5-.9,1.6,2.9-3,10.4-12.1,8.6-11.6.8.4,5.3-7.3,7.7-11.4v.9c1.6-3.8,1.5-4,4.3-8.8.7-1.1,1-.8,0,.7.7-.9,1-1.5,1.3-2.1.3-.5.4-1,.6-1.4.4-.9.8-1.9,2.2-4.2l-.7,1.9c2.2-3.9,1.9-3.7,2.7-6.1,1-2.6,3.9-7.6,4.6-8,0-.7.6-3.1,1.8-5.5.3-.3,0,.7-.1,1.1.8-1.7,1.5-3.2,2.1-4.6.5-1.4.9-2.7,1.3-3.9.7-2.4,1.4-4.5,2.6-6.8.2,0,.4-.3.6-.7-.4,1.4-1,2.8-1.4,4-.5,1.2-.9,2.3-1.2,3.2-.6,1.5-.9,2.4-1,2.6.3,0,.9-1.2,1.3-1.7-.2,1.3-.8,4.8-1.5,7.1.2-2.4-.5-.1-1.5,2.6Zm-77.5,109s0,0,0,0c0,0,0,0,0,0,0,0,0,0,0,0Zm.9-1.2c-.8.5-1.7,1-2.6,1.5,1.1-.9,2.2-1.7,3.6-2.5-.3.3-.7.6-1.1,1Zm-10.6,2c.3-.4,1.5-1.2-.3-.5-1.1.6-2.3,1.3-3.5,1.9-.6.3-1.2.6-1.8.9-.6.3-1.2.6-1.9.8-2.5,1.1-5,2.2-7.6,3.3-2.6.9-5.2,1.9-7.7,2.8-.6.2-1.3.4-1.9.7-.6.2-1.3.4-1.9.6-1.3.4-2.5.7-3.7,1.1l-3.5,1.8c-.9.3-1.7.2-.8-.2-3.8.9,0,.4-1.8,1.1-2.1.7-2.9.5-1.6,0-6.4,2.6-18.9,5.8-26.3,6.3l1.4-.4c-1.4.2-2.5.4-3.4.6-.9.2-1.7.5-2.4.7-1.5.5-3,.9-5.6.9l1-.2c-6.2.5-12.6,1.1-18.8,1.1-1.5,0-3,0-4.5,0-1.5,0-2.9-.1-4.3-.2-1.4,0-2.8-.2-4-.3-1.3,0-2.5-.2-3.7-.4-.9.4-4,0-6.9-.2-.7,0-1.5-.1-2.1-.2-.7,0-1.3-.1-1.9-.2-1.1,0-1.9,0-2.2.2-3.5-.7-4.7-1.1-6.3-1.5-1.6-.4-3.5-.9-8.3-2-2.6-.5-4,0-7.2-.7v-.6c0,0-4.4-.4-4.4-.4-.7-.4-1.4-.9-2.1-1.3l-3-.7c1.2.4,2.4,1,2.2,1.1-2.3-.5-5.1-1.4-7.3-2.2-2.2-.9-3.7-1.7-3.8-1.9l-5.5-1.6c-1.8-.5-3.6-1.2-5.4-1.8.2-.1,1.3.2,2.4.5-2.5-.8-1.9-.9-2.3-1.2,7.1,1.9,14.3,3.4,19.4,4.8h-.8c1.9.4,3.4.4,5.7,1-.1.1-.8.2,0,.3,1,0,5.2.3,7.7.9h-2.2c2.5.5,4.7.8,6.8.9,2.1.2,4,.3,5.8.4,3.7,0,7.2,0,11.4,0,0,.4,1.9.8,4.4,1,2.5.3,5.5.5,7.5.4h-.1c3,0,5.7,0,8.3-.2,2.6-.3,5.1-.5,7.5-.8,2.4-.2,4.8-.7,7.3-1.1,2.5-.4,5-.8,7.7-1.4,1.7,0,4-.3,6.6-.6,2.6-.4,5.6-1.1,8.6-1.7.8-.2,1.5-.3,2.3-.5.8-.2,1.5-.4,2.3-.6,1.6-.4,3.1-.8,4.6-1.2,3.1-.7,6-1.7,8.7-2.4-.1,0-.2,0-.3,0,3.3-.7,3.5-.8,3.4-1-.1-.2-.5-.4,2.7-1.4l4.8.6.7-.8c.9-.2,2.7-.5,2.4-.2,3.3-1.2-.6-.1,1.2-1,2.2-.3,5.2-1.1,7.8-1.8,2.6-.6,4.7-1.3,5.3-1,1.4-.9-4.2.9.3-.8.8.3,2.1-.1,3.7-.8,1.6-.6,3.5-1.4,5.5-1.9-1,1-4.8,1.9-.7,1.1,1-.9,2.9-1.5,4.9-2.1,2-.6,4.3-1.1,5.8-1.8,0-.4,1.6-1.2,4-2.2,1.2-.5,2.5-1.1,3.9-1.6,1.4-.6,2.8-1.3,4.1-2,0,.1,1.3-.4,3.3-1.2-1.4.9-2.8,1.9-4.3,2.9-1.6,1.1-3.2,2.3-5,3.3-3.4,2.1-6.9,4.4-10.6,6.3Zm2.2-1c-.5.2-1.1.6-2.2,1.2,0,0,0,0,0,0,.9-.5,1.7-.9,2.2-1.1Zm-11.1,5.5c1.1-.5,2.5-1.1,4-1.8.4,0,.2.4-.8.8.4-.3-1.8.5-3.2,1ZM14.7,258.1c-.5-2.3-.3-3.1.2-1.7-.9-3.3-2.3-7.9-3.1-12.7h0c0-.9,0-1.6,0-2.4l.2-4.6c-.5.7-.4,1.2-.9,3.1-.2-1.2-.2-3.8,0-6.1,0,4.2.7,0,1.2-1.7-.2.3-.3-.3-.4-.2,1.4-4.7-.8-.9.5-7.4l.2.4c0-.6,0-1.2,0-1.8,0-.6.1-1.2.2-1.8.1-1.2.3-2.4.5-3.7.7-1-.2,2.6.2,2.9.6-3.7.2-7.4,1.5-10.6-.2,1.6-.7,3.8-.8,5.4.6-1.8.9-2.7,1.2-3.6.2-.9.4-1.6.7-3v.3c.4-1.6.8-3.2,1.2-4.8-.3,2.7-.5,5.4-.4,6.3,0-1.2,0-2.6.3-3.7,0,3.6.1,8.2-.3,13.9-.8-.6-1,3.2-1.1,7.5-.3,4.4,0,9.4-.6,11.5.1,1.3.2,2.5.3,3.8.1,1.3.2,2.5.3,3.8.2,2.5.3,5.1.5,7.7.3,2.6.5,5.3.8,8,0,.7.2,1.4.2,2.1.1.7.2,1.4.3,2.1.1.6.2,1.2.3,1.8-.3-1.4-.7-2.7-1-4l-1.6-3.7c-.2-.9-.2-1.7.2-.8-.8-4-.4-.1-1.2-2Zm-2.6,29.1s0,0,0-.1c0,0,0,0,0,0v-.2c0,0,0-.3,0-.3,0,.1,0,.3,0,.4,0,.2,0,.5.1.7l-.2-.6Zm13.9-129.9c.8-1.8,1.6-3.6,2.4-5.4.9-1.8,1.9-3.5,2.8-5.3l1.4-2.6.7-1.3.8-1.3c3.4-5.8,7-11.4,10.6-16.9-.1.3-.3.5-.4.8-1.2,2.4-2.7,5.1-4,7.1l.5-1.1c-2,3.1-3.8,8.2-6.2,13.6,0,0,0-.3-.2-.1-.3,1-.7,2.2-1.1,3.5-.5,1.3-.9,2.8-1.4,4.3-1,3-2.2,6.1-3,8.9,0-1.9.6-2.6-.3-1.7-.8,2.5,1-.4-.5,4.5-.8,1.5-2.3,4.9-2.9,5.3.4-1.6,1-3.1,1.5-4.6-.7,1.1-1.3,2.6-1.6,4.1-.4,1.6-.6,3.1-1.1,4.3l-.2-.4c-1.2,4.4-1.4,6.3-1.7,8.8-.1.4-.3.8-.4,1.2-.4,1.6-.8,3.5-1.7,5.3-.1-1.3,1.3-4.8-.4-1.2,0,1.3-.6,3.1-1.3,5-.7,1.9-1.5,3.9-1.8,5.5.3.2,0,1.9-.7,4.3-.6,2.4-1.3,5.5-1.7,8.2-.3-.4-2.4,10.2-3.3,15.3v-.2c.2.5.2,2.1,0,4.1,0,1-.2,2-.3,3.1,0,.3,0,.5,0,.8-.1-1.7-.2-3.2-.2-4.6l.3,1.5c0-1.5-.3-2.6-.4-3.6-.1-1-.3-1.8-.5-2.6-.3-1.6-.6-3.2-.5-5.9l.2,1.1c0-.8,0-1.6,0-2.4,0-.8,0-1.6,0-2.5,0-1.6,0-3.2,0-4.7.3-1.7.7-3.5,1-5.2.2-1.3.6-2.6.9-3.9l1-3.9,1-3.9,1.2-3.8c.8-2.6,1.6-5.1,2.5-7.6.9-2.5,1.8-5,2.8-7.5.6-1.8,1.1-3,1.2-3.9.2-.9.2-1.6.3-2.3,0-.7.2-1.5.6-2.6.2-.6.5-1.2.8-2,.2-.4.4-.8.6-1.3.3-.5.5-.9.8-1.5-.2.9-.4,1.9-.5,2.8.6-1.9,1.5-3.6,2.2-5.5ZM125,49.8c.1,0,.2,0,.4,0,0,0,0,0-.2,0,.2-.1.4-.2.6-.4,1.1-.7,2.3-1.4,3.4-2.1,1.2-.6,2.3-1.3,3.5-1.9,0,.2-.6.7-1.6,1.3-.5.3-1,.6-1.6.9-.6.3-1.2.7-1.8,1-.5.3-1,.6-1.5.9-.3,0-.6.2-.8.2.1.1-1.4.8-3.1,1.7-1.6.9-3.3,2-3.5,2.6l-1.1.4c.4-.3.8-.5,1.2-.8.6-.4,1.1-.8,1.7-1.1.6-.4,1.2-.7,1.7-1.1.9-.6,1.8-1.1,2.7-1.6Zm20.4-4c-2.7,1.1-5.3,2.3-4.9,2.7,3.5-1.7,6.5-3.1,9.4-4.4,1.5-.6,3-1.1,4.5-1.7-.3,0-.7.1-1,.2,2-.8,4.1-1.6,6.3-2.4l-.5.8c-.8.3-2.5.9-2.3.6-2.9,1.6.6,0-1,1.1-2.1.5-4.8,1.6-7.2,2.7-2.3,1.1-4.3,1.9-4.9,1.7-1.2,1.1,3.9-1.4-.2.8-.8-.2-2,.4-3.5,1.2-1.4.8-3.1,1.9-5,2.6.8-1,4.3-2.5.6-1.1-.8.9-2.6,1.8-4.4,2.6-1.9.8-3.8,1.7-5.2,2.6.1.4-1.4,1.3-3.5,2.6-2.1,1.3-4.8,3-7,4.6.1-.5-8.9,5.5-13.1,8.5v-.2c-.1.6-1.3,1.7-2.8,3-.7.6-1.6,1.3-2.4,2-.8.7-1.6,1.4-2.3,2.1-.2-.4.2-1,1.7-2.5-.9.8-1.9,1.6-2.8,2.4-.5.7-1.3,1.6-3,3.2l.3-1c-.9.8-1.8,1.6-2.7,2.5-.9.9-1.7,1.8-2.6,2.8-.9.9-1.9,1.9-2.9,2.9-.5.5-1,1-1.6,1.5-.5.5-1.1,1.1-1.6,1.6.1.6,4.4-2.6.1,2.4-.4,0-.9-.2.2-1.5-.4.4-1.2,1.6-2.1,2.4l1.5-2.2c-2.1,1.9-.7,1.3-2.3,3-.3-.3-1.4,1-1.4.6.4-.4,1.5-1.3,2-2.1-.9.9-1.9,1.9-2.9,2.7-.9.8-1.7,1.5-2.1,1.8.3,0,.4.4-.8,1.8-3.2,3.7-1.4.9-3.5,3-.6,1-2.7,3.3-2.3,3.7-.9,1.1-1.3,1.2-1.7,1.5-.7,1.1-2.5,3.4-3.8,5.3-1.3,1.9-2.1,3.3-1,2.3l.4-.5c0,.1-.1.2-.2.4-1.1,1.8-2.2,3.5-3.5,5.2-1.1,1.7-2.2,3.3-3.4,5-.3.4-.6.8-.9,1.3-.1.2-.3.4-.4.6-1.4,2.1-2.8,4.3-4,6.4l.5-2.1-2.3,4.5c-.4.4-.8.7-.9.6-.1,0,0-.5.6-1.6-2.3,2.7-1.4,2.8-3.5,5.1-.2.2-.2,0,0-.2l-1.6,3.1c.2-.7-.8.2.4-1.6-.7,1-1.3,1.9-1.9,2.7.6-1.3,1.2-2.7,1.8-4,1.7-3.3,3.2-6.6,4.8-9.9-.3.8-.2.9-.8,2.2,1.8-2.5,5.6-9.8,5.3-10,1.3-1.9.6-.3,1.5-1.3,1.9-2.4,3.6-6.8,4.9-7.9.2-.1-.1.4-.4.8,1.3-2.1,5.1-7,3.6-5.9,1.6-2.2,3.2-4.2,4.7-6.2.7-1,1.5-1.9,2.2-2.8.4-.5.7-.9,1.1-1.3.4-.4.8-.8,1.1-1.2,1.2-2.1,4.7-5.4,5.9-7.2.5-.4,1-.8,1.5-1.2,0-.1.2-.2.3-.4.8-.7,1.9-1.8,3-2.9.4-.3.8-.7,1.2-1,1.5-1.2,2.8-2.2,3.2-2.9,0,0,.2-.2.3-.2.5,0,2.4-1.3,4.5-3,2.4-1.8,5.2-4,6.5-5.3-.8,1,2.7-1.6,1.8-.5,3.4-2.4,6.5-4.6,5.6-4.7,1.8-.8,3.4-1.9,5-2.8,1.6-1,3.1-2,4.5-3,1.4-1,2.7-1.9,4-2.6,1.3-.7,2.5-1.2,3.6-1.3,5.3-3.3,10.6-6,15.8-8.6,2.6-1.2,5.3-2.4,7.8-3.6,1.3-.6,2.6-1.1,3.9-1.6,1.3-.5,2.6-1,3.9-1.6,0,.5-2.9,1.6-5.7,2.7Zm21.5-7.2c.1.2.2.4-2.5,1.6h-4.4c1.8-.6,3.7-1.2,5.7-1.8,1.3-.3,1,0,.2.2-.8.3-2,.9-2.4,1.1,1.1-.4,2.2-.8,3.3-1.1Zm28.3-7.5c1.1-.3,2.3-.7,3.2-1,.8-.2,1.4-.4,1.6-.5-2.3,1.4,7.3-.4,5.5.8-1.3,0-2.9.3-4.6.6-1.4.2-2.8.7-4.2,1-1.4.3-2.7.7-3.9.9l.8-.5c.6-.1.9-.3.8-.4h-.2c0,0,.4-.2.4-.2l-2,.6h0c-.1,0-.2,0-.3,0,0,0-1,.4-1.9.6.3,0,.7-.1,1.1-.2l-1.7.6c-.3,0-.5,0-.7,0,.3,0,.8-.2,1.3-.3-.3,0-.5,0-.7.2-.3,0-.5.1-.6.2-.2,0-.3,0-.3-.1,1.2-.3,2.4-.5,3.6-.8-.9-.1.7-.7,2.7-1.3Zm-113.1,66.5c.7-.7,1.2-1.4,1.8-2.1.5-.1,1.2-.5,2-1.1l3.5-4.1c.7-.1-1.4,2,1.5,0,1.7-1.8-2.4.8.7-1.9,2.3-1.3,1.9-.5,4.1-2.7.5,0,0,.4-.8,1.3,1-.9,2.4-2.1,3.6-3.1,1.3-1,2.5-1.9,2.9-2.5,1.3-.6,3.1-1.9,4.7-3,1.6-1,3-1.8,3.1-1.4.6-.6,3.7-3.1,5.8-4.5-1.6,1.7.3.4,2.7-.9,2.4-1.3,5.2-2.8,4.9-2,.6-.6,1.6-1.4,2.8-2,1.2-.7,2.6-1.4,4.1-2.2,1.5-.8,3.1-1.6,4.6-2.3,1.6-.7,3-1.4,4.4-2.2-.3.2-.8.6-1.3.8,3.1-1.3,4.1-1.4,6.1-2.1.1-.9,4.9-2.9,7.4-4.3,4.1-.7-2,1.7-.6,2-.2-.3,1.4-1.1,2.9-1.7,1.5-.6,2.9-1.2,2.1-1.3,3.1-.5,2.6-.6,4.4-.5.2-1.1,2.7-1.1,5.1-2.3,4.5-.7,1.4.6,6.1-1,2.4-.3-1.8,1.2-1.8,1.2,4.9-1.3,2.1-1.3,3.1-2,5.9-1.5,2.9,0,5-.1,1.8-.5,3.4-1.1,4.9-1.6,1.5-.5,2.9-.8,4.3-1.1.2,0,.8,0,.2.3,1-.3,2.2-.6,3.5-.9.7-.1,1.4-.3,2.1-.4.7,0,1.5-.2,2.2-.3,3-.4,6.1-.8,8.4-1.4.4,0,.5,0,.6.1-.8-.3-.9-.7-.8-1,2.3-.2,4.2-.8,5.1-.3-1.4,0-1.5.3-2.1.5l2.4-.4c2.2.5-3.2.5-3.2,1,2.3-.3,4.8-.7,7.2-1,2.4-.2,4.6-.4,6.4-.3.8.7-8.4.4-3.6.9h-2.8c0,0-2.8,0-2.8,0,4.3.8-3.3.2.6,1,.9,0,1.7,0,2.4-.1.7,0,1.4,0,2,0,1.2,0,2.2-.1,3.2-.2,2-.1,4-.4,7.6-.1,1.6-.3-.5-.6,1.1-.9,2.6-.1,4.4,0,5.7.1,1.4.2,2.3.5,3.1.7,1.7.5,3,1,6.8.8,2-.3,2.8-1,8.1,0l-1.9.5c3.5.5,4.5.3,5.6.3,1.1,0,2.2,0,5.8.8-1.3,0-5.5-.7-4.5-.4,4.6,1.4,3.4.1,7,.7.2.3.4.5.6.8,1.8.4,3.7.7,5.6,1.1,1.9.4,3.9.7,5.8,1.2,3.9.9,8,1.7,11.9,3-.5,0-1.9-.2-.1.6,1.3.4,2.5.7,3.8,1.1.6.2,1.3.4,1.9.6.6.2,1.3.5,1.9.7,2.6,1,5.2,2,7.7,3,2.5,1.2,5,2.3,7.4,3.5.6.3,1.2.6,1.8.9.6.3,1.2.6,1.7.9,1.1.6,2.3,1.2,3.4,1.8l3.7,1.2c.8.4,1.3,1,.4.7,3.3,2.1.4-.2,2.1.5,2,1.1,2.4,1.7,1.1,1.2,6.4,2.7,17.5,9.3,23,14.1l-1.3-.7c1.1.8,2.1,1.5,2.9,2,.8.5,1.5.9,2.2,1.3,1.4.7,2.7,1.5,4.6,3.3l-.9-.5c4.7,4,9.7,8.2,14.1,12.5,1.1,1.1,2.2,2.1,3.3,3.1,1,1.1,2,2.2,2.9,3.2.9,1,1.8,2.1,2.7,3,.8,1,1.6,1.9,2.3,2.9.9.4,2.8,2.8,4.7,5,.5.6.9,1.1,1.4,1.6.4.5.8,1,1.2,1.5.7.8,1.3,1.4,1.7,1.4,1.9,3,2.5,4.1,3.4,5.5.8,1.4,1.8,3.1,4.5,7.3,1.5,2.2,2.8,2.9,4.6,5.6l-.5.4,2.9,3.4c.2.8.4,1.6.6,2.4l1.6,2.6c-.6-1.1-1-2.4-.8-2.3,1.3,2,2.6,4.6,3.6,6.8.9,2.2,1.4,3.9,1.3,4l2.7,5c.9,1.7,1.7,3.4,2.5,5.1-.2-.1-.8-1.1-1.4-2.2,2,3.8-.5.6,2,5.1-.2-.7.5.2.7.3.2.7.5,1.5.8,2.5.3,1,.7,2.1,1.1,3.3.4,1.2.9,2.4,1.4,3.6.5,1.2.9,2.4,1.3,3.5l-.7-.7c.6,2,1.3,4.1,2,6.1.3,1,.7,2.1,1,3.2.3,1.1.6,2.2.9,3.3.4,1.6.9,3.2,1.3,4.8,0,.4,0,1.2.2,2.5,0-.4.1-.8.2-1.1,0,.2,0,.3.1.5.2.8.4,1.6.5,2.4.1,1,.3,2.1.4,3.1,0,.6,0,1,.1,1.4,0-.4,0-.8,0-1.3,0,.6.2,1.2.3,1.9,0,0,0,.1,0,.2,0-.2-.1-.4-.2-.8,0,.4,0,.8.1,1.2,0,0,0,0,.1,0,0,.6.1,1.2.1,1.8,0,0,0-.2,0-.2,0,.2,0,.5,0,.7,0,1.3.1,2.5,0,3.5-.7.8-.4-8.4-.9-3.6v-2.8c0,0,0-2.8,0-2.8-.8,4.3-.2-3.3-1,.6,0,.9,0,1.7.1,2.4,0,.7,0,1.4,0,2,0,1.2.1,2.2.2,3.2.1,2,.4,4,.1,7.6.3,1.6.6-.5.9,1.1.1,2.6,0,4.4-.1,5.7-.2,1.4-.5,2.3-.7,3.1-.5,1.7-1,3-.8,6.8.3,2,1,2.8,0,8.1l-.5-1.9c-.5,3.5-.3,4.5-.3,5.6,0,1.1,0,2.2-.8,5.8,0-1.3.7-5.5.4-4.5-1.4,4.6-.1,3.4-.7,7-.3.2-.5.4-.8.6-.4,1.8-.7,3.7-1.1,5.6-.4,1.9-.7,3.9-1.2,5.8-.9,3.9-1.7,8-3,11.9,0-.5.2-1.9-.6-.1-.4,1.3-.7,2.5-1.1,3.8-.2.6-.4,1.3-.6,1.9-.2.6-.5,1.3-.7,1.9-1,2.6-2,5.2-3,7.7-1.2,2.5-2.3,5-3.5,7.4-.3.6-.6,1.2-.9,1.8-.3.6-.6,1.2-.9,1.7-.6,1.1-1.2,2.3-1.8,3.4l-1.2,3.7c-.4.8-1,1.3-.7.4-2.1,3.3.2.4-.5,2.1-1.1,2-1.7,2.4-1.2,1.1-2.7,6.4-9.3,17.5-14.1,23l.7-1.3c-.8,1.1-1.5,2.1-2,2.9-.5.8-.9,1.5-1.3,2.2-.7,1.4-1.5,2.7-3.3,4.6l.5-.9c-4,4.7-8.2,9.7-12.5,14.1-1.1,1.1-2.1,2.2-3.1,3.3-1.1,1-2.2,2-3.2,2.9-1,.9-2.1,1.8-3,2.7-1,.8-1.9,1.6-2.9,2.3-.4.9-2.8,2.8-5,4.7-.6.5-1.1.9-1.6,1.4-.5.4-1,.8-1.5,1.2-.8.7-1.4,1.3-1.4,1.7-3,1.9-4.1,2.5-5.5,3.4-1.4.8-3.1,1.8-7.3,4.5-2.2,1.5-2.9,2.8-5.6,4.6l-.4-.5-3.4,2.9c-.8.2-1.6.4-2.4.6l-2.6,1.6c1.1-.6,2.4-1,2.3-.8-2,1.3-4.6,2.6-6.8,3.6-2.2.9-3.9,1.4-4,1.3l-5,2.7c-1.7.9-3.4,1.7-5.1,2.5.1-.2,1.1-.8,2.2-1.4-3.8,2-.6-.5-5.1,2,.7-.2-.2.5-.3.7-.7.2-1.5.5-2.5.8-1,.3-2.1.7-3.3,1.1-1.2.4-2.4.9-3.6,1.4-1.2.5-2.4.9-3.5,1.3l.7-.7c-2,.6-4.1,1.3-6.1,2-1,.3-2.1.7-3.2,1-1.1.3-2.2.6-3.3.9-2.2.6-4.4,1.3-6.7,1.9-2.3.5-4.6,1-6.9,1.5,2.4-.4,2.8,0,1.8.4-.2,0-.4,0-.6,0,.7-.2,0-.3-1.2-.5-2.9.3-1.9.9-5.8.8.7-.3,1.5-.7,2.9-1-3.4.5-6.8.9-10.4,1.1-1-.3,2.2-.6,3.4-.8-2,.1-4.6.3-6.9.4-1.1.1-2.2.2-3,.2-.8,0-1.5.2-1.8.3l1.9.2c-.5-.1.1-.5,1-.5,3.4-.5,5,.1,5.2.3l-2.6.2c1.1.5,3.1.5,5.4.3-1.8.2-3.7.4-4.8.8l-.3-.2c-2.3.3-4.4.5-6.2.8-1.8.2-3.5.3-5.1.5-1.6.1-3.1.3-4.8.4-1.6.1-3.3.1-5.2.2-.1.6-3.1.5-5.4,1-2.8-.2-5.8-.4-8.9-.6-3.1-.2-6.4-.7-9.8-.8-1.2,0-1.9,0-2.3,0-.4,0-.5,0-.5.1,0,.1.3.3-.8.3-.3-.6-7.1-1.3-3.5-1.3-2-.2-3.7-.4-5.2-.6-1.5-.2-2.9-.4-4.3-.6-1.4-.2-2.9-.4-4.7-.7-1.8-.3-3.8-.7-6.4-1.1,1.1.4,2.3.8,1.6.8-1.9-.3-4.1-1.1-3.8-1.3h.5c-5.7-.9-12.2-3-18.1-5.4-3-1.1-5.9-2.4-8.6-3.5-1.3-.5-2.7-1-3.9-1.5-1.2-.5-2.4-.9-3.5-1.2l.5.2-4.5-1.7-2.3-.8-2.2-.9c-3.9-2,2.5.8-.3-.9-2.4-1-4.5-1.9-6.5-2.8-1.9-1-3.6-2-5.3-3-.8-.5-1.7-1-2.5-1.4l-1.2-.7c-.4-.3-.8-.5-1.2-.8-1.4-.9-2.9-1.8-4.6-2.7-.4-.3-.7-.5-1.1-.8-.5-.5-1.1-1-1.8-1.5-.9-.7-1.8-1.5-2.9-2.3-.5-.4-1-.8-1.6-1.2-1.4-1.1-2.6-2.2-3.8-3.1-1.2-1-2.4-2-3.7-3.1-1.2-1.1-2.5-2.3-3.9-3.6-.5.3-2.6-1.9-4.6-3.1-1.9-2.1-3.8-4.4-5.9-6.7-2-2.4-4-5-6.3-7.5-.8-.9-1.3-1.3-1.6-1.6-.3-.3-.4-.3-.4-.3-.1,0,0,.4-.8-.4.2-.6-4.1-5.9-1.6-3.4-1.3-1.6-2.4-2.9-3.2-4.1-.9-1.2-1.7-2.3-2.6-3.5-.9-1.2-1.8-2.4-2.9-3.8-1-1.5-2.2-3.2-3.7-5.3.4,1.1,1,2.2.5,1.7-1.1-1.5-2.1-3.7-1.8-3.6l.3.4c-1.5-2.1-3-4.6-4.3-7.1,2.3,2.8,4.5,5.1,6.1,6.5,1.4,1.6,1.3,2.1,1.7,2.9-.5-.4-.9-1-1.3-1.4-.4-.5-.8-.9-1-1.1.7.8,1.6,1.8,2.6,2.9,1,1.1,2,2.2,2.9,3.2.9,1,1.8,2,2.6,2.7.8.7,1.4,1.1,1.7,1.2,3.5,4.2-2.6-1.8,2.6,3.6l-.9-.6c1.2,1.5,2.3,2.8,3.5,4.1,1.2,1.2,2.4,2.4,3.6,3.4,2.4,2.2,4.7,4.2,7.3,6,4.7,3.6,9.5,7.2,15.2,12.2-.2-.2-.3-.3-.3-.4,1.8,1.5,3.7,2.9,5.6,4.3,1,.7,1.9,1.4,2.9,2.1,1,.7,2,1.3,3,2,2,1.3,4,2.6,6.1,3.9l6.3,3.6c1,.6,2.1,1.2,3.1,1.8l3.2,1.7c2.1,1.1,4.2,2.3,6.3,3.4,2.1,1,4.3,2.1,6.4,3.2,1,.5,2.1,1.1,3.1,1.6,1,.5,2.1,1,3.1,1.5,4.8,2.2,5.5,2.1,8.6,2.9l.8,1,5.4,1.2c3.7,1.2,6.8,2.4,10.2,3.9.8.3,1.7.7,2.6,1.1.9.4,1.8.7,2.8,1,2,.6,4.1,1.1,6.6,1.5l-1.1-.7c3.4,1.1,11,2.3,10.3,2.7.4,0,1.2-.2,2.5.3v.3c2.9.5,5.8.7,8.7,1,3.3.7,3,1,3.1,1.3,0,.2.2.3.9.6.4.1.9.3,1.6.4.7.1,1.7.3,2.9.4,3.7.3,10.5.3,9.1,0-1.5-.2-3.7-.7-3.8-1l3.3.2c.3-.4.8-.7.9-1,.3,0,.8.2,1.5.2l1.5-.6h-3.1s0,0,0,0c-.4-.5-1.9-1-5.5-1.7h-5.7c-.6-.3-1.2-.6-1.7-.8,1.6.3,3.1.4,4.7.6-1.3-.4-2.4-.5-3.4-.6-1,0-1.9,0-2.9-.1-.4-.3-1.2-.6-2.3-.9h-5.6c-.6-.5,2.6-.3-1-1.2-2.6-.1,2.3,1.4-2,.7-2.6-1-1.7-1.2-4.9-1.5-.4-.3.3-.4,1.6-.2-1.4-.2-3.2-.5-4.9-.8-1.7-.3-3.2-.7-3.9-.6-2.6-1.3-9.3-2.3-8.7-3.2-.9,0-4.9-.8-7.4-1.5,2.4.2.1-.5-2.6-1.5-2.7-1-5.8-2.2-5-2.5-3.7-.2-11.9-4.2-17.8-6.3.3,0,1,.2,1.5.5-3.1-1.6-3.9-2.3-5.8-3.4-.4.3-1.8-.1-3.5-.7-1.7-.7-3.6-1.5-5-2-3.4-2.7,2.7.4,1.9-.9-.1.7-6.9-2.9-5.9-1.7-2.6-2.1-2.3-1.6-3.4-3.1-1,.6-2.7-1.4-5.4-2.3-3.7-2.9-.5-1.5-5-4-1.9-1.6,2.2.6,2.2.6-4.4-2.9-2.5-.7-3.7-1-5.4-3.3-2.1-2.1-3.7-3.6-3.3-2.2-6.2-3.4-8.5-5.1,0-.2-.5-.6.1-.3-1.8-1.1-4.2-3-6.7-5-1.3-1-2.5-2-3.7-3-1.2-1-2.3-1.8-3.4-2.5-.2-.3-.3-.5-.3-.6.3.8.2,1.2-.1,1.3-1.8-1.6-3.7-2.6-3.9-3.6,1,1,1.3,1,1.9,1.3-.7-.5-1.3-1-2-1.6-.6-1,0-.5.9.3.8.8,1.9,1.7,2.1,1.5-.5-.4-1-.8-1.5-1.2-.5-.4-1-.8-1.4-1.2-1-.8-2-1.7-2.9-2.5-1.9-1.6-3.7-3.2-4.9-4.6,0-.5,1.5,1.1,2.7,2.1,1.2,1.1,2.1,1.9.5,0l4,4.2c-2.4-3.9,2.5,2.5.4-1.2-2.6-2.7-4.3-4.1-5.8-5.5-1.5-1.5-3-3-5.5-5.8-1.5-1,0,.8-1.5-.2-3.8-3.8-4.8-5.8-5.6-7.4-.9-1.6-1.4-3-4.1-5.8-.8-.7-1.5-1-2.4-1.8-.4-.4-.9-.9-1.5-1.6-.5-.7-1.1-1.6-1.9-2.9l1.7,1.1c-2.1-3-2.9-3.7-3.7-4.5-.8-.8-1.7-1.6-3.5-5,.5.5,1.3,1.7,2,2.6.7.9,1.2,1.6.9,1.1-.6-1.1-1-1.8-1.3-2.4-.3-.5-.6-.8-.9-1.1-.6-.5-1.1-.9-2.1-2.5l.2-1c-2.1-3.1-4.1-6.5-6.2-9.9l-1.1-2.3-.9-2c-.1-.4-.3-.8-.4-1.2-.3-.9-.6-1.7-.9-2.6,0,.1.2.4.4.7,0,.2.1.3.2.5,0-.1,0-.2,0-.3.3.6.7,1.2.3-.3-1-2.4-1.9-4.5-2.6-6.6-.6-2.1-1.1-4-1.6-5.8,0-.3-.2-.6-.2-.9.1,0,.4.2.8,1-.3-1.1-.8-2.5-1.1-2.1-.3-1.7-.3-2.2.4-.6-.4-1.5-.7-2.5-.9-3.2-.2-.7-.4-1.2-.5-1.6-.3-.9-.6-1.7-1-4.5.2,0,.5,1.1.8,1.6-.9-2.7-1.8-5.5-2.2-10.3.1.2.2-.2.4.7-.3-1.9-.5-3.6-.8-5.3,0-.5-.2-.9-.2-1.3,0-.4-.1-.9-.2-1.3-.1-.9-.2-1.8-.4-2.7-.2-1.8-.5-3.6-.7-5.5-.2-1.9-.2-4-.1-6.2.9,2.6.2-3.1.9-3.6,0-.8-.1-1.6-.2-2.4v-2.4s-.5,1.9-.5,1.9c0-2.1,0-4.1,0-6,0-1.9-.1-3.8.2-5.6v1.6s.1,1.6.1,1.6c0-1.3,0-2.6.2-4l.2-4-.6,4.5c0-4.3-1,.4-.3-5.2,0,1.2.3-4.3,1.1-6.4h0c0-2.1,0-4.3.6-7.4.3-.8.7.8,1,.3-.2-1.1.3-3.5.6-6,.4-2.5.8-5.1.8-6.5,0,.9.3,1,.5.7v-1.8c.5-1.9.6-2.1.9-1.8,1.4-5.7-1.3,1.6.6-5.1,0,.5,0,.3-.1,1.4,1.9-6.8,3.3-13.3,5.7-19.3,1.3-1.6-1.6,5.4-.3,3.6,2.7-8.9,6-18.4,10-26.5l-.8,1.5c-.4-1.6,3.5-5.8,5.2-10-.5,1-.2,1.6-.2,1.2,1.6-2.6,3.1-5.4,4.8-8.6.9-1.6,1.8-3.2,2.9-4.9.5-.9,1-1.8,1.6-2.7.2-.4.5-.8.7-1.2.3-.5.7-1,1-1.4l-.3.8c1.2-1.4,2.6-3.4,4-5.3,0,0,.1-.2.2-.2,0,.2.2.3.6,0,.8-1.7,1.3-2.2,2-3.5.5-.6,1-1.2,1.5-1.8.1-.2.3-.5.4-.7.7-.6,1.1-.8,1.1-.6.3-.6,2.2-2.1,2.6-3.1-1,.7-2,1.6-3,2.6.2-.4.3-.6-.3-.2,1.1-1.1,2.1-2.2,3.1-3.3.9-.9,1.8-1.9,2.7-2.9l.2-.3s0,0,0,0c0,0,0,0,0-.1.6-.7,1.2-1.4,1.8-2.1.1,0,.2,0,.3,0l-2.2,2.3c0,.4,0,1,.2,1.3-.3.2-.6.5-1,1l-.5,1.5,1.9-2.3s0,0,0,0c.6,0,1.9-.8,4.6-3l3.5-4.1,1.6-.8c-1.2,1-2.2,2-3.3,3.1,1.1-.7,1.8-1.5,2.5-2.1Zm201.3-45.3c.5.1,1.2.4,2.3.7,0,0,0,0,0,0-1-.3-1.8-.6-2.3-.7Zm11.8,4c-1.1-.4-2.5-1-4.1-1.5-.3-.3.2-.4,1.1,0-.6,0,1.6.9,3,1.5Zm126.9,221.5c-.1.3-.2.5-.3.7.1-.7.2-1.5.4-2.3,0,.2,0,.7-.1,1.6Zm-4.9,5.6c-.1.5-.4,1.2-.7,2.3,0,0,0,0,0,0,.3-1,.6-1.8.7-2.3Zm-4,11.8c.4-1.1,1-2.5,1.5-4.1.3-.3.4.2,0,1.1,0-.6-.9,1.6-1.5,3Zm-160.6,132.6c1-.1,2-.2,3-.3l-3.5.8c-.2-.1.2-.3.5-.4Zm3.2-.4c.7,0,1.4-.2,2.1-.2h-.3c0,.1-.3,0-.3,0-.5.3-.4.3-.1.3l-1.4.7,1.6-.3c-.2,0-.4.2-.7.3-3.2.5-2.6-.2-.9-.7Zm2.9.2s0,0,0,0h0s0,0,0,0ZM17.8,205.7c.1-2.4.2-4.8.3-6.7-.2,1.1-.4,2.8-.6,4.5,0,.2-.2.5-.2.7-.2-2.4.5-4.7,1.1-7.2.3-1.2.7-2.5,1-3.9.4-1.4.7-2.8,1-4.4-.9,5.3,0,2.2.4,1.7,0,.4-.2.7-.3,1-.3.9-.6,1.7-.7,3.9l-1,1.2c0,.7-.2,1.7-.3,2.9,0,1.2-.1,2.5-.2,3.9,0,1.4-.2,2.9-.3,4.3-.1,1.4-.2,2.9-.3,4.2-.2-1.5-.1-3.7,0-6.1Zm26.3-65.7c.9-1.4,1.6-2.8,2.5-4.2-.1.3,0,.4,0,.3-.2.4-.4.7-.6,1.1h-.2c-1.2,2-2.3,4.5-3.4,6.8,0,.1-.1.2-.2.3-.8,1.1-1.7,2.3-1.9,3.1.4-.6.9-1.4,1.5-2.1-.9,1.8-1.6,3.4-2,4.8-.6,1.3-1.7,3-1.7,2.3-.7,1.7-1,2.7-1.5,3.9-.5,1.1-1.1,2.5-2.2,4.9,1.1-3.6-.8,1.1,1.2-3.7-1.9,4.5-2.7,5.4-4,10.4,0-1.9-1.8,3.3-2.4,5.5l1.4-3.1c-.8,2.5-1.5,4.6-2.3,6.8l-.2-1.4c-.3.8-.6,1.5-.9,2.3,0-.4,0-.8,0-1.1,0-1.3.1-2.9,1.8-7.2v2.7c.1-.9.3-1.8.6-2.7.3-.9.5-1.8.8-2.7.1-.5.3-.9.4-1.4,1.4-2.9,2.9-5.9,4.2-9.2,1.5-3.3,2.4-5.3,3.2-7.3.4-1,.8-2,1.3-3.1.5-1.1,1.2-2.3,2-3.8,1.5-1.8-.4,2-.4,2,1.1-1.5,2-2.9,2.9-4.2Zm-20.7,57.6c-.2,1.1-.5,2.2-.8,3.2.2-1.2.4-2.3.7-3.4,0,0,0-.1,0-.2,0,0,0,.2,0,.4Zm-3.5,29.8c0-1.2,0-2.5.1-3.8,0-1.2,0-2.5.2-3.7.2.2.4,1.1.3,3.9-.2,1.8-.4,3-.7,3.7,0,0,0,0,0-.1ZM84.1,81.7l-.2.2c0,0,0-.2,0-.3,0,0,0,0,.1,0Zm-36.9,40.8c-1.1,1.3-.8.7-.4-.2.8-1,1.8-2.2,2.6-3.5-.4.8-1,1.9-2.3,3.7ZM10.8,257.3c-.2.1-.3.2-.5,0-.2-1.3-.5-2.4-.6-2.7.4-.9.8-1.5,1.1,2.1l-.2-.6c0,.4.2.8.2,1.1Zm-2.4-13c.2.6.3,1.3.5,2.2,0,.3.1.5.2.8,0,1.2,0,2.5,0,3.9,0,.3,0,.6,0,.9-.2-1.7-.5-3.3-.7-4.9-.2-1.2-.3-2.4-.5-3.5,0-.4,0-.7-.1-1.1.2.6.4,1.1.6,1.7Zm11.5,28.8c0,.1,0,.3,0,.4,0,0,0-.1,0-.2.1.2.2.3.4.3.1.8.2,1.4,0,1.4.2.6.4.6.5.5,0,.4.2.7.2,1,.1.6.2.9.2,1.1v-.6c0,.2,0,.4,0,.6h0c.1.8.2,1.5.3,2.3,0-.2-.1-.4-.2-.6,0-.2,0-.7-.1-1.7,0,.3-.5-.9-.9-1.6-.6-1.8-1.1-3.6-1.5-5.4.3-2.3.5,1.3,1.1,2.7Zm15.1,49.1c0,.2.2.3.3.5,0,0,0,0-.1,0,0-.1-.1-.3-.1-.4Zm115.3,103.5c-.2,0-.7,0-.8,0-.3-.2-.7-.4-1.2-.6.7.2,1.3.4,2,.6Zm210.8-30.4s0,0,0,0l.2-.2s0,0-.1.1Zm-.1,0s0,0,0,0c-.2.3-.5.6-.9.9-.1,0-.2.1-.3.2l1.1-1.1Zm-1.9,1.8c0,0-.1,0-.2.1l.2-.2s0,0,0,0Zm-12.1,8.7c-.3,0-.5,0-.8-.1.5-.2,1.1-.5,1.6-.7.1,0,.3-.1.4-.2-.3.3-.7.6-1.3,1ZM278.3,46.9c-.7-.2-1.6-.4-2.7-.7,0,0-.1,0-.2,0,.2,0,.4-.1.7-.1,1.6.3,2.1.6,2.3.8Zm-8.7-16c-.5,0-.9,0-1.4,0-1-.2-2.1-.4-3.2-.5.6,0,1.3,0,1.9.2.5,0,1,.1,1.5.2.4,0,.7.2,1.1.2h0Zm-19-2.2h-1.4c-1.1-.1-1.8-.3-2.2-.4,1.2,0,2.4.2,3.7.4,0,0,0,0,0,0Zm51.3,6.1c-.3-.1-.6-.2-.9-.4,1.6.5,3.1,1,4.7,1.6-.3,0-.5-.2-.8-.2-1-.3-2-.7-3-1Zm-119.4-22.6s0,0,.1,0c0,0,0,0,0,0h.2c0,0,.3,0,.3,0-.1,0-.3,0-.4,0-.2,0-.5,0-.7.1l.6-.2Zm10.9-1.8c0,0-.1,0-.2,0,0,0,.1,0,.2,0,0,0,0,0,0,0ZM37.7,329.7c.2.1.6.9,1.7,2.8l-4.2-8.5,3.1,5.3c0-.2-.2-.4-.3-.6.9,1.6,1.8,3.2,2.7,4.8.1.3.2.6.4.9l-.6.2c-.8-1.4-1.6-2.7-2.4-4.1-.2-.3-.3-.5-.4-.7Zm304.2,82.8c-.5.3-1,.5-1.4.8.4-.5.8-.9,1.1-1.2,1-.3,2.2-.9,3.4-1.4-1.3.9-2.2,1.4-3.1,1.9Zm35.7-28.4c2-1.7,1.6-1.1,1.3-.6-.1.2-.2.4,0,.2.2-.2.9-.8,2.1-2.1l-.5.9c2.7-2.4,4.9-4.7,7-7,2-2.4,3.7-4.8,5.5-7.2,1.8-2.4,3.4-5,5.4-7.6,1-1.3,2-2.7,3.1-4.1,1.1-1.4,2.3-2.9,3.6-4.4-.7.8-1.1,1.3-1.3,1.4.7-.9,1.4-1.8,2-2.7.6-.9,1.3-1.9,1.9-2.8,1.3-1.9,2.5-3.8,3.7-5.8.6-1,1.1-2,1.7-3v.4c-.1,0-1,2.3-1,2.3l-.9,2.2c-2,3.9.8-2.5-.9.3-1,2.4-1.9,4.5-2.8,6.5-1,1.9-2,3.6-3,5.3-.5.8-1,1.7-1.4,2.5l-.7,1.2c-.3.4-.5.8-.8,1.2-.9,1.4-1.8,2.9-2.7,4.6-.3.4-.5.7-.8,1.1-.5.5-1,1.1-1.5,1.8-.7.9-1.5,1.8-2.3,2.9-.1.2-.2.3-.3.5-.4.3-.8.7-1.2,1-2.3,2-4.6,3.8-6.8,5.8-2.2,2-4.5,3.7-6.8,5.4-1,.8-2.1,1.5-3.2,2.2.9-1,1.5-1.7,1.6-2.1Zm53.7-121.8c-.2,3.1-.7,6.4-.8,9.8,0,1.2,0,1.9,0,2.3,0,.4,0,.5.1.5.1,0,.3-.3.3.8-.6.3-1.3,7.1-1.3,3.5-.2,2-.4,3.7-.6,5.2-.2,1.5-.4,2.9-.6,4.3-.2,1.4-.4,2.9-.7,4.7-.3,1.8-.7,3.8-1.1,6.4.4-1.1.8-2.3.8-1.6-.3,1.9-1.1,4.1-1.3,3.8v-.5c-.2,1.5-.5,3-.9,4.5-.4,1-.7,2-1,2.9,0-.3.1-1,.4-1.5-1.3,3.1-1.9,3.9-2.9,5.8.5.7-1.4,5.5-2.2,8.3-2.4,3.4.2-2.7-1-1.8.3,0-.2,1.7-.8,3.3-.6,1.5-1.2,2.9-.6,2.4-1.8,2.6-1.4,2.3-2.7,3.4.6.9-1.1,2.7-1.9,5.2-2.7,3.7-1.4.6-3.6,5-1.4,1.9.5-2.1.5-2.1-2.5,4.4-.6,2.4-.7,3.6-3.1,5.2-2,2.1-3.4,3.6-.9,1.6-1.7,3.2-2.3,4.6-.7,1.4-1.4,2.6-2.3,3.8-.2.1-.6.5-.3,0-.5.9-1.1,2-1.9,3.1-.4.6-.8,1.2-1.2,1.8-.5.6-.9,1.2-1.4,1.8-1.9,2.4-3.7,4.9-4.9,7-.3.2-.4.3-.5.3.8-.3,1.1-.2,1.3.1-1.5,1.7-2.4,3.5-3.4,3.9.9-1.1.9-1.3,1.2-1.9l-1.4,1.9c-1.9,1.2,2-2.6,1.6-3-1.4,1.8-2.9,3.9-4.4,5.8-1.5,1.8-3,3.5-4.3,4.8-1,0,5.6-6.2,1.9-3.2l2-1.9,1.9-2c-3.6,2.5,2.2-2.5-1.1-.3,0,0,0,0-.1.1.6-.8,1.2-1.5,1.7-2.3.7-1,1.3-2,2-3,1.3-2,2.6-4,3.9-6.1l3.6-6.3c.6-1,1.2-2.1,1.8-3.1l1.7-3.2c1.1-2.1,2.3-4.2,3.4-6.3,1-2.1,2.1-4.3,3.2-6.4.5-1,1.1-2.1,1.6-3.1.5-1,1-2.1,1.5-3.1,2.2-4.8,2.1-5.5,2.9-8.6l1-.8,1.2-5.4c1.2-3.7,2.4-6.8,3.9-10.2.3-.8.7-1.7,1.1-2.6.4-.9.7-1.8,1-2.8.6-2,1.1-4.1,1.5-6.6l-.7,1.1c1.1-3.4,2.3-11,2.7-10.3,0-.4-.2-1.2.3-2.5h.3c.5-2.9.7-5.8,1-8.7.7-3.3,1-3,1.3-3.1.2,0,.3-.2.6-.9.1-.4.3-.9.4-1.6.1-.7.3-1.7.4-2.9.3-3.7.3-10.5,0-9.1-.2,1.5-.7,3.7-1,3.8v-1.4c.2-.4.2-.8.3-1.3,0-.2,0-.4,0-.6,0,0,.1,0,.2,0v-.4c0-.7,0-1.4,0-2.1,0-1,.2-2,.3-3,.2-2,.3-3.9.4-5.6,0-1.7-.1-3.2-.3-4.4,0-2.1.5-2.4.7-3.1,0,1.2,0,2.6,0,3.3,0-1.1,0-2.3.1-3.7,0-.7,0-1.4.1-2.1,0-.7,0-1.4,0-2.1,0-.6,0-1.2,0-1.7.2,1.6.4,3,.5,4.4.2,1.8.3,3.5.5,5.1.1,1.6.3,3.1.4,4.8.1,1.6.1,3.3.2,5.2.6.1.5,3.1,1,5.4-.2,2.8-.4,5.8-.6,8.9Zm-52.7-178.8c2,2.2,3.7,4.5,5.4,6.8.8,1,1.5,2.1,2.2,3.2-.7-.7-1.4-1.2-1.8-1.4-.3-.3-.6-.7-.9-1.2v-.2c.2,0,.3,0,.1,0h0c-.5-.6-1-1.1-1.4-1.7h.1c-1.5-1.6-2.9-3.1-4.4-4.5-2-2.5-1.6-2.5-1.5-2.8,0,0,0-.2,0-.4.2.2.5.4.7.6.5.6.9,1.1,1.4,1.6Zm-11.4-13.7c0,0,0-.1-.1-.5.4.6.9,1.3,1.3,1.9-1.1-1-1.2-1.2-1.2-1.4Zm-1,2.5l.3.2s0,0,0,0c0,0,0,0,.1,0,.7.6,1.4,1.2,2.1,1.8,0,.1,0,.2,0,.3l-2.3-2.2c-.4,0-1,0-1.3.2-.2-.3-.5-.6-1-1l-1.5-.5,2.3,1.9s0,0,0,0c0,.3.2.8.7,1.6-1.7-1.2-3.4-2.3-5.1-3.7-1.3-1-2.7-2-4.1-3.1-1.4-1.1-2.9-2.3-4.4-3.6.8.7,1.3,1.1,1.4,1.3-.9-.7-1.8-1.4-2.7-2-.9-.6-1.9-1.3-2.8-1.9-1.9-1.3-3.8-2.5-5.8-3.7-2-1.1-4-2.3-6-3.4-1-.6-2-1.1-3-1.7l-3.1-1.5c-2.1-1-4.1-2.1-6.2-3.1-2.1-1-4.2-1.9-6.3-2.8-1-.5-2.1-1-3.1-1.4-1-.4-2.1-.9-3.1-1.3-2.1-.9-4.1-1.8-6.2-2.7-4.7-1.8-5.4-1.6-8.4-2.2l-.9-.9c-1.7-.3-3.5-.5-5.3-.8-1.8-.4-3.5-.9-5.1-1.5-1.6-.5-3.2-1.1-4.9-1.6-.8-.3-1.6-.5-2.5-.8.5,0,.9.1,1.3.2-.7-.1-1.5-.3-2.3-.4-.6-.2-1.2-.3-1.9-.5-1.1-.2-2.2-.4-3.3-.6,1.1-.2-.9-.8,3.8.1-.6,0,.5.1,2.1.4.8.2,1.7.3,2.5.6.8.2,1.6.5,2.1.7h0c2.2.2,4.6.5,7.8,1.4.8.4-.9.7-.4,1,1.2-.1,3.7.5,6.4,1.2,2.6.7,5.4,1.3,6.8,1.4-.9-.1-1.1.3-.8.4.6,0,1.3,0,1.9,0,2,.8,2.2,1,1.8,1.2,6,2-1.6-1.6,5.4,1.1-.6-.1-.3,0-1.5-.3,3.6,1.2,7,2.5,10.4,3.6,1.7.6,3.4,1.1,5,1.8,1.6.7,3.2,1.4,4.8,2.1,1.6,1.5-5.6-2.2-3.7-.7,2.3.9,4.7,1.9,7,2.8,2,.8,4,1.7,6,2.6,1.1.7,2.3,1.4,3.6,2.1.9.5,1.8,1,2.7,1.6.4.2.8.5,1.2.7.5.3,1,.7,1.4,1l-.8-.3c1.4,1.2,3.4,2.6,5.3,4,0,0,.2.1.2.2-.2,0-.3.2,0,.6,1.7.8,2.2,1.3,3.5,2,.6.5,1.2,1,1.8,1.5.2.1.5.3.7.4.6.7.8,1.1.6,1.1.6.3,2.1,2.2,3.1,2.6-.7-1-1.6-2-2.6-3,.4.2.6.3.2-.3,1.1,1.1,2.2,2.1,3.3,3.1.9.9,1.9,1.8,2.9,2.7Zm73,192.6c0,.6,0,1.3-.2,1.9,0,.5-.1,1-.2,1.5,0,.4-.2.7-.2,1.1h0c0-.4,0-.8,0-1.3.2-1,.4-2.1.5-3.2Zm1.6-14.4v-1.4c.1-1.1.3-1.8.4-2.2,0,1.2-.2,2.4-.4,3.7,0,0,0,0,0,0Zm-1.3-39.3c.1.8.3,1.3.4,1.8.2,1,.4,1.9.6,4.9-.2,0-.4-1.2-.7-1.8.3,1.5.6,3,.9,4.8.2,1.8.3,3.8.3,6.4-.1-.3-.2.2-.3-.7,0,2,.2,3.9.3,5.7,0,.1,0,.2,0,.4-.3-.2-.7-.7-1-.8,0-.3,0-.8,0-1.4l-.7-1.4.3,3s0,0,0,0c-.4.5-.8,1.9-1.2,5.4l.4,5.4-.6,1.7c.1-1.5.1-3,.2-4.5-.3,1.3-.3,2.3-.3,3.3,0,1,0,1.8.2,2.8-.3.4-.5,1.2-.7,2.2l.5,5.4c-.4.6-.5-2.4-1.1,1.1,0,2.5,1.1-2.3.9,1.8-.7,2.5-1,1.7-1,4.8-.3.4-.4-.3-.3-1.5,0,1.4-.2,3.1-.4,4.8-.2,1.6-.4,3.1-.3,3.8-.4,1.1-.8,3-1.1,4.6,0-3.3,0-6.5,0-10.2.4,0,.8-1.9,1-4.4.3-2.5.5-5.5.4-7.5h.1c0-2.8-.1-5.6-.3-8.2-.3-2.6-.5-5.1-.8-7.5-.2-2.4-.7-4.8-1.1-7.3-.4-2.5-.8-5-1.4-7.7,0-1.7-.3-4-.6-6.6-.4-2.6-1.1-5.6-1.7-8.6-.2-.8-.3-1.5-.5-2.3-.2-.8-.4-1.5-.6-2.3-.4-1.6-.8-3.1-1.2-4.6-.7-2.9-1.5-5.6-2.2-8.1-.2-1.6-.4-3.2-.5-5,0,1.1.1,1.6,0,1.9-.2-1.1-.3-2.2-.5-3.4-.2-1.1-.4-2.2-.7-3.3-.5-2.2-.9-4.5-1.4-6.7-.2-.6-.3-1.2-.5-1.9,0-.2.2,0,.7,1.6-1-6-.6-2.2-1.1-3.1-.3-1.1-.6-2.2-.9-3.3-.3-1.1-.6-2.2-1-3.3l-1.1-3.3c-.7-2.2-1.4-4.4-2.2-6.6,0,0,0,0,0-.1.5,1,.7,1.7.1-.9-.9-1-1.5-2.9-2.1-4.9-.6-2-1.1-4.3-1.8-5.8-.4,0-1.2-1.6-2.2-4-.2-.5-.5-1.1-.7-1.7-.2-.5-.4-1-.6-1.6-.5-1-.8-1.8-1.2-2.5-.4-.8-.7-1.5-1.1-2.2.1,0-.4-1.3-1.2-3.3.9,1.4,1.9,2.8,2.9,4.3,1.1,1.6,2.3,3.2,3.3,5,2.1,3.4,4.4,6.9,6.3,10.6-.4-.3-1.2-1.5-.5.3.6,1.1,1.3,2.3,1.9,3.5.3.6.6,1.2.9,1.8.3.6.6,1.2.8,1.9,1.1,2.5,2.2,5,3.3,7.6.9,2.6,1.9,5.2,2.8,7.7.2.6.4,1.3.7,1.9.2.6.4,1.3.6,1.9.4,1.3.7,2.5,1.1,3.7l1.8,3.5c.3.9.2,1.7-.2.8.8,3.6.5.6,1,1.6.1.8.2,1.6.4,2.5,0,0-.2-.3-.3-.6.1.3.3.7.4,1,.1.8.3,1.6.5,2.4l.2.2c-.2-.3-.3-1-.4-1.8.2.6.5,1.3.7,2l-.3-.2c0,.1.2.2.3.2.6,1.8,1.2,3.8,1.7,5.9,0,.2,0,.5,0,.7.3,1.7.6,1.9.9,2.7.1.5.2.9.3,1.4,0,.4.1.8.2,1.3-.3-.6-.8-1.3-1.3-2.6.4,1.6.8,3.2,1.2,4.8.3,1.6.7,3.3,1,5-.2.9-.8-2-1.1-3.2.6,3.8,1.6,9.8,2.1,11v-1.9c0,.5-.4,0-.6-.9-.8-3.2-.4-4.7-.2-5l.3,1.9v-.2c.2,1.4.3,2.5.5,3.4,0,0,0,0,0,0,0,.4.1.7.2,1Zm-.3-3.1l-.2-.8c0-.2,0-.4.1-.6,0,.5,0,1,.1,1.4Zm-6-26.8c0,.4.1.6.1.8,0-.3,0-.5-.1-.8Zm-10.1-28.5c-.5-1.1-1.1-2.5-1.8-4,0-.4.4-.2.8.8-.3-.4.5,1.8,1,3.2Zm-4.4-9s0,0,0,0c-.5-.9-.9-1.7-1.1-2.2.2.5.6,1.1,1.2,2.2Zm8.1,10.2c-1.2-2.2-2.2-4.2-3-6.7.1-.2,0-.5-.1-.9.7,1.3,1.3,2.6,1.8,3.8.2.4.4.9.6,1.3.3,1,.7,1.9,1,2.9,0-.3-.1-.6-.1-.8.2.5.4.8.5,1.2.3.8.6,1.6.9,2.4-.5-1.1-1.1-2.1-1.6-3.1Zm-5.6-12.9c0-.2,0-.4-.1-.5.6,1.4,1.2,2.6,1.8,3.9-.6-1.1-1.2-2.3-1.7-3.3Zm-3.9-8c0,.2.2.3.2.5,0-.1-.2-.3-.2-.5Zm-3.4-3.5c-.7-.7-1.5-1.3-1.9-1.7-.4-1.2-1.1-2.6-1.7-4.1,1,1.2,1.8,2.6,2.6,4.1.3.6.7,1.1,1,1.7Zm-23.3-33.9c-.4-.6-.8-1.1-1.2-1.7.8.8,1.8,1.8,2.6,2.8-1-1-1.4-1.3-1.4-1.1Zm-11.3-14.7s0,0,0,0c0,0,.1.1.2.2,0,0-.1-.1-.2-.2Zm-15.9-14.6c-.4-.3-.8-.4-.9-.3-.6-.5-.9-.8-1.1-1.1.6.4,1.2.8,1.8,1.2,0,0,.1.1.2.2Zm-107.2,397.6c-1.2,0-2.3.1-3.4.2,1-.2,2.1-.4,3.2-.6,2.7-.5,5.3-.9,7.5-1.4-.1,0-.1.1-.2.2-.1,0-.3,0-.4.1,0,0-.2,0-.3,0,0,0,.2,0,.2,0-.7.2-1.3.4-1.9.6-.8.3-1.6.5-2.4.8-.8,0-1.6.1-2.4.2Zm11.4-3c.8-.4,1.7-.8,3.8-1.3-.8.2-1.5.5-2.3.8-.5.2-1,.3-1.5.5Zm38.8-16.3l-5.2,2.2c-3.5,1.4-7,2.6-10.4,4-3.5,1.1-7,2.4-10.4,3.6.8-.4.8-.5,2.1-1-3,.4-10.9,2.9-10.8,3.4-2.2.4-.6-.2-2-.1-3,.3-7.3,2.3-9,2.1-.2,0,.4-.2.9-.3-2.4.6-8.5,1.4-6.7,1.6-2.7.4-5.2.7-7.7,1-1.2.2-2.4.3-3.5.5-.4,0-.7,0-1.1.1.6-.2,1.1-.4,1.7-.6.6-.2,1.3-.3,2.2-.5.9-.2,1.9-.4,3.4-.8,1.4-.2,1.3.2-.5.4,4.5-.6,3.4-1.3,8.9-2.1l-1.9.8c1.2-.2,2-.4,2.6-.6.6-.2,1.1-.3,1.5-.5.8-.3,1.3-.6,2.5-1.1,1.4-.5,3.6-1,5.5-1.4,1.9-.4,3.5-.7,4-.6.5-.5,2.8-1.7,5.5-2.4.4,0-.5.5-1,.7.9-.3,1.8-.5,2.7-.8.8-.3,1.6-.6,2.3-.9,1.4-.6,2.7-1.1,3.9-1.7,1.2-.5,2.3-1,3.5-1.5,1.1-.5,2.3-1,3.6-1.4.2.1.5,0,1,0-1.4.6-2.8,1.2-4,1.7-1.2.5-2.4.9-3.3,1.3-1.6.6-2.5.9-2.7,1,.2.5,4.9-1.2,1.4.9,3.7-1.7,9.7-5.4,14.3-7.2.2,0,.5-.1.7-.1l-.4.3c1-.5,1.9-1,2.8-1.5.8-.3,1.5-.6,2.1-.9.7-.3,1.5-.6,2.3-.9.3,0,.6-.2,1-.4,1.5-.6,3.2-1.3,4.9-2,.9-.4,1.8-.8,2.7-1.2.9-.4,1.7-.9,2.5-1.3,1.6-.8,2.9-1.6,3.8-2.3.8-.2,1.8-.3.1.6,9.4-4.2,19.9-11.3,26.9-15.4-1.8,1.3-3.6,2.7-5.5,3.9-2.1,1.4-4.2,2.8-6.3,4.2-2.2,1.3-4.3,2.6-6.4,3.8-3.1,1.9-3.8,2.7-4.7,3.7-.9.9-2.1,1.9-6.4,3.8l2-1.9c-.8.5-1.6,1-2.4,1.5-.8.4-1.6.9-2.4,1.3-1.6.9-3.3,1.7-5,2.6-1.6.9-3.4,1.6-5.1,2.3Zm29.6-11.7c-.7.5-1.3,1-2.1,1.4.6-.4,1.3-.9,2.1-1.4Zm3.4-2.3l.2-.4c-.7.5-1.3,1-2,1.5h-.1c1.7-1.4,2.4-1.9,3.3-2.3.6-.3,1.2-.6,2.2-1.3-.3.5-1.1,1.2-3.5,2.5Zm105.6-208.3s0,0,.2.2v.3c-.1-.2-.1-.4-.2-.5Zm-15.4-60.8c0-.2.1-.1.2,0,.3.8.5,1.6.8,2.4-.3-.7-.7-1.6-1-2.4Zm-4.6-13.4c-.3-.4-.5-.8-.8-1.3-.2-.5-.4-.9-.5-1.4-1.1-2.6-2.2-5-2.6-5-.4-.8-.8-1.5-1.2-2.2-.3-.6-.5-1-.7-1.5.5.9.8,1.3,0-1-.4-.3-.7-.8-1.1-1.4-.2-.5-.6-1.4-1.2-2.4,0-.2-.2-.4-.3-.7-.8-1.9-1.7-3.8-2.6-5.2-.4.1-1.3-1.4-2.6-3.5-1.3-2.1-3-4.8-4.6-7,.5.1-5.5-8.9-8.5-13.1h.2c-.6-.1-1.7-1.3-3-2.8-.6-.7-1.3-1.6-2-2.4-.7-.8-1.4-1.6-2.1-2.3.4-.2,1,.2,2.5,1.7-.8-.9-1.6-1.9-2.4-2.8-.7-.5-1.6-1.3-3.2-3l1,.3c-.8-.9-1.6-1.8-2.5-2.7-.9-.9-1.8-1.7-2.8-2.6-.9-.9-1.9-1.9-2.9-2.9-.4-.4-.7-.8-1.1-1.1-1.2-1.7-2.4-3.5-2.7-4.3,0,.3-.4.4-1.7-1.2-3.1-3.6-1.1-1.9-2.2-3.6,2.3,1.5,4.7,3.1,7.3,5l-1.2-.5c1.5,1.3,3.5,2.9,5.4,4.6.9.8,1.8,1.5,2.7,2.3,0,.5,1.3,2.4,3,4.5,1.8,2.4,4,5.2,5.3,6.5-1-.8,1.6,2.7.5,1.8,2.4,3.4,4.6,6.5,4.7,5.6.8,1.8,1.9,3.4,2.8,5,1,1.6,2,3.1,3,4.5,1,1.4,1.9,2.7,2.6,4,.7,1.3,1.2,2.5,1.3,3.6,3.3,5.3,6,10.6,8.6,15.8,1.2,2.6,2.4,5.3,3.6,7.8.6,1.3,1.1,2.6,1.6,3.9.3.7.5,1.4.8,2.1-.2-.4-.4-.8-.7-1.2Zm-406-7.5c-.3,1.2-.5,1.8-.5,2.1-.4,1-.8,1.9-1.2,2.7.6-1.9,1.2-3.7,1.7-4.8Zm252.7,321.5c-.4,0-.8.1-1.2.2.9-.5-1.3-.2,2.4-1.7.3,0,.7,0,1-.2,1.3.1,2.6.2,3.8.3-1.7.4-3.8.9-6.1,1.3Zm35.8-13.6c-.7.4-1.4.8-2.1,1.2,2.8-1.7,3-2,2.5-1.9,0,0,0,0,0,0,2.1-1,4.1-1.9,5.9-2.9-.5.5-1,.8-1.3,1-1,.5-1.9.9-2.9,1.5-.7.3-1.3.7-2,1.1Zm9.4-4.9c-1,.6-2.1,1.2-3.3,1.7,0-.3.2-.6,2.6-1.9.5-.1,1.1-.4,1.7-.6-.3.3-.7.5-1,.7Zm148.2-210.9c-.7-2.8-.5,3.2-1.3,3.6,0,.8,0,1.7,0,2.5l-.2,2.5.6-2c-.3,2.2-.4,4.3-.5,6.3-.1,2-.3,3.9-.8,5.8,0-1.1.2-2.2.2-3.3-.1,1.4-.4,2.7-.6,4.1l-.7,4.1,1.1-4.6c-.4,4.5,1.1-.3-.2,5.5,0-.6-.1.5-.5,2-.3,1.5-.9,3.4-1.4,4.5h0c-.3,2.2-.5,4.5-1.5,7.6-.5.8-.6-.9-1-.4,0,1.1-.7,3.6-1.4,6.2-.3,1.3-.7,2.6-1,3.7-.3,1.1-.6,2.1-.7,2.8.2-.9-.2-1.1-.4-.8v1.9c-1,1.9-1.1,2.1-1.3,1.7-1.1,2.9-.7,2.5-.4,2.3.2-.1.3-.2.2.1-.1.4-.3,1.2-1.2,2.8.2-.5,0-.3.4-1.5-1.5,3.4-2.8,6.7-4.1,9.9-1.4,3.2-2.8,6.3-4.4,9.3-1.6,1.4,2.4-5.4.8-3.6-.5,1.1-1,2.2-1.5,3.3-.6,1.1-1.1,2.2-1.7,3.3-1.1,2.2-2.2,4.5-3.4,6.7-1.2,2.2-2.5,4.3-3.7,6.5-.3.5-.6,1.1-.9,1.6-.3.5-.7,1-1,1.5-.7,1-1.4,2-2.1,2.9l1.1-1.4c.1,1.7-4.3,5.5-6.9,9.6.6-1,.4-1.6.3-1.3-2.1,2.5-3.9,5.2-6.3,8.1-1.1,1.5-2.4,3-3.7,4.7,0,0-.1.1-.2.2.4-.6.7-1.2,1.1-1.8.8-1.4,1.6-2.8,2.4-4.1,1.7-2.7,3.1-5.4,4.4-7.8-.9,1.4-.5-.6.3-2.3,1.4-2.2,2.4-6.7,3-5.9l-.4.8c1.5-1.4,3.6-6.3,5-10.2l-.7-1c1.3-2.4,2.7-5.2,3.7-8.3.5-1.5,1.1-3.1,1.6-4.7.2-.8.5-1.6.7-2.4.2-.8.4-1.6.6-2.4.8-3.1,1.6-6.1,2.2-8.6.6-2.6,1.2-4.7,1.9-6,.1-1.3.5-2.7.6-4.2.2-1.4.4-2.9.5-4.2l.5.2c.4-1.8.7-3.3.9-4.8.3-1.5.4-2.9.6-4.3.2-1.4.4-2.9.6-4.6,0-.8.2-1.7.3-2.7,0-1,.1-2,.2-3.1l.3,1.8c.2-2.5,0-4.1-.4-5.7-.1-.8-.3-1.5-.4-2.4,0-.9-.1-1.8-.1-3l.9-1.4c0-2.2.2-4.4.3-6.6v-1.6c0,0,0-1.6,0-1.6v-3.3c0-2.2,0-4.4-.2-6.6-.1-1.4-.3-2.7-.5-4.1,0-.5,0-.9,0-1.3l.3,3.1c0-1-.1-2-.2-2.9,0,.1,0,.3,0,.5,0-2.7-.6-8.8-1.2-12.1,0-.5,0-1,0-1.5,0-.3.2.2.2.7,0-1.8,0-3-.2-3.7-.1-.8-.3-1.2-.5-1.6-.4-.8-.8-1.7-1.3-5.5.5.9.5-1.8.2-3.1.2,1.5,0,1.9-.1,1.6-.2-.3-.6-1.4-1-2.8-.5-4.8-1.1-5.2-1.5-7.7l.3,2.9c-.3-.5-.5-1.3-.7-2.4-.1-.6-.2-1.2-.4-1.9-.1-.7-.4-1.5-.6-2.3.2-.3.9,3,.7,1.8-.7-1.8-1-3.9-1.3-6.2-.3-2.3-.6-4.8-1.5-7.3-.4-2.4.6-.4.2-2.5-1-2.8-1.3-4.4-1.6-6-.3-1.6-.7-3.2-1.9-6.1,0,1.9.3,2.1-1.5-1.9l1.7,4.8c.6,1.6,1.2,3.2,1.6,4.8-.8-2-1.7-4-2.6-6,.5,1.5,1,3,1.5,4.3.5,1.4.8,2.6,1,3.5-1.2-2.9-1-2.6-1-1.1-.1-2.1-.9-4.1-1.7-6.1-.8-2-1.6-4.1-2.1-6.5l1.2-.3c-1-3.5-2.3-6.5-3.7-9.7-.7-1.6-1.6-3.2-2.4-5-.8-1.8-1.7-3.7-2.5-6l1,2.9c-.5-.5-1.1-1.8-1.7-3.4-.7-1.5-1.5-3.3-2.2-4.6.5,0-.2-1.7-.5-3-.1.1-.8-1.4-1.7-3.1-.9-1.6-2-3.3-2.6-3.5l-1.5-4c-.8-1.7-1.7-3-2.4-4-.8-1.1-1.4-1.9-2.1-2.7-1.4-1.7-2.7-3.3-4.7-6.4,1.6,1.6,0-1.4,3,2.6-1.3-2.1-2.5-3.9-2.8-3.8-.2-.4-.7-1.1-1.3-2,.8.7,1.6,1.5,2.4,2.2,2.1,2.1,4.2,4.2,6.2,6.4,1,1.1,1.9,2.2,2.8,3.4.9,1.2,1.7,2.3,2.5,3.6-.9-1.1-2.3-2.4-1.6-1.5l3.2,3.7c1.1,1.2,2.1,2.5,3.1,3.8,0-.9-.5-1.2-1.5-3.1,1,.8,2.8,2.9,4.3,4.8-2.9-3.3-.6.5.3,2.2,0-.3.5,0,.5-.1.6,1.1,1,1.7,1.2,2.1.3.3.5.4.7.5.5.2,1.1.6,2.9,3.7l-.4-.2c1.6,2.1,3.3,3.9,4.6,6.4.1,1.3-1.7-2.2-2.2-2.1,2.1,3.4,5,6.1,6.4,9.5-1-1.4-2.3-3.4-3.3-4.8,1.4,3.7,1.9,3.9,3.2,6.6v-.3c-.1,0,2.8,6,2.8,6l-.7-1.6c.9.9,1.7,1.9,2.4,3,.7,1.1,1.2,2.3,1.8,3.5.6,1.2,1.2,2.5,1.9,3.9.3.7.7,1.3,1.1,2,.4.7.8,1.4,1.2,2.1-1.7-2.8-2-3-1.9-2.5.1.5.6,1.6.2,1.5.5,1.6,1.3,4.1.9,3.5.9,1.3,1.3,2.6,1.8,4,.2.7.5,1.4.9,2.2.3.8.7,1.7,1.3,2.7-.1.3,1.1,3.2.4,2.7,1.6,3.8,0-1,.4-.8.7,1.4,1.3,3,1.9,4.8.5,1.8,1,3.6,1.5,5.6.3,1,.5,2,.8,3,.3,1,.6,2,.8,3.1.5,2.1,1.2,4.3,2,6.4.3.9.6,1.8.8,2.5.2.8.4,1.5.6,2.1.4,1.3.7,2.4,1.1,3.5s.7,2.2,1.1,3.4c.4,1.2.7,2.6,1,4.3,0,.2,0,.3,0,.5,0,1.8-1-2.1-1-2.1.2,3.7.7,6.6,1.4,9.9,0,.1,0,.3,0,.4-.2-.2-.2.5-.3,1.5,0,.9.2,1.4.3,1.8,0,.4,0,.8,0,1.1,0,.3,0,.7,0,1,0-.3-.2-.6-.3-1,0,.5.2,1,.2,1.5,0,.6-.1,1.2-.2,1.8Zm1.6,14.9c0,.3-.1.6-.2,1,0-.4.1-.7.2-1.1,0,0,0,0,0,0Z" style="fill: rgb(230, 210, 210);"/>
      <path d="m239,428c.1,0,.3,0,.6,0h-.6Z" style="fill: rgb(230, 210, 210);"/>
      <path d="m459.7,177c.2.8.3,1.3.5,1.2l-.5-1.7c0-.1,0-.2,0-.3,0,0-.4-1-.7-1.8.3.9.4,1.9.6,2.7Z" style="fill: rgb(230, 210, 210);"/>
      <path d="m377,54.3c-.2-.1-.4-.2-.5-.3.1,0,.3.2.5.3Z" style="fill: rgb(230, 210, 210);"/>
      <path d="m411.9,80s0,0,0,0c0,0,0,0,0,0Z" style="fill: rgb(230, 210, 210);"/>
      <path d="m468,196.4c0,.5.1,1,.2,1.4,0-.6-.1-1.1-.2-1.4Z" style="fill: rgb(230, 210, 210);"/>
      <polygon points="459.8 176.1 459.8 176.1 459.8 176.1 459.8 176.1" style="fill: rgb(230, 210, 210);"/>
      <path d="m18.6,283.6s0,0,0,0c0,0,0,0,0,0Z" style="fill: rgb(230, 210, 210);"/>
      <path d="m321.6,413.2c-.2.2-.2.3-.3.4,0,0,0,0,0,0l.2-.4Z" style="fill: rgb(230, 210, 210);"/>
      <path d="m459.1,174.3c0-.2-.1-.5-.2-.7-.5-1.6-.2-.5.2.7Z" style="fill: rgb(230, 210, 210);"/>
      <path d="m460.9,263.6c.1-1,.2-1.9.4-2.9-.4,1.6-.7,2.8-.4,2.9Z" style="fill: rgb(230, 210, 210);"/>
      <path d="m412.3,86.7s0,0,0,0c-.1-.2-.3-.3-.4-.5l.4.5Z" style="fill: rgb(230, 210, 210);"/>
      <path d="m461.3,260.7c.4-1.3.6-2.8.8-4.1-.4,1.6-.6,2.9-.8,4.1Z" style="fill: rgb(230, 210, 210);"/>
      <path d="m239.5,426.7s0,0-.1,0h1s-.9,0-.9,0Z" style="fill: rgb(230, 210, 210);"/>
      <path d="m239.4,426.8h-1c.5,0,.9,0,1,0Z" style="fill: rgb(230, 210, 210);"/>
      <path d="m236.3,427h2.2c-.7-.1-1.7-.2-2.2,0Z" style="fill: rgb(230, 210, 210);"/>
      <path d="m298.9,423.1c8.1-1.4-1.8,0,6.5-2.1l-6.3,1.5c1.2,0,2.7-.1-.2.6Z" style="fill: rgb(230, 210, 210);"/>
      <path d="m324.7,415.2c-3.3,1.3.1.3,0,.5,2-.9,2.5-1.2,0-.5Z" style="fill: rgb(230, 210, 210);"/>
      <path d="m437.1,326.2l.3.6c1.4-2.3-.2-.1-.3-.6Z" style="fill: rgb(230, 210, 210);"/>
      <polygon points="446.4 304.1 447.9 300.6 446.5 302.8 446.4 304.1" style="fill: rgb(230, 210, 210);"/>
      <polygon points="457.2 287.9 458.5 283.6 457.5 286.8 457.2 287.9" style="fill: rgb(230, 210, 210);"/>
      <path d="m396.1,63.2l.2,1c1.4,1.1,2.2.8-.2-1Z" style="fill: rgb(230, 210, 210);"/>
      <path d="m297.8,11.4c2.3.7,4.5,1.5,5.7,1.7-1-.6-3.9-1.6-5.7-1.7Z" style="fill: rgb(230, 210, 210);"/>
      <polygon points="29.5 117.3 27.7 121 28.6 119.3 29.5 117.3" style="fill: rgb(230, 210, 210);"/>
      <path d="m389.9,386.1c.3-.2.6-.6.9-1l-.9,1Z" style="fill: rgb(230, 210, 210);"/>
      <path d="m390.8,385.1c.8-.8,1.6-1.6,2.3-2.5,0-.3-1.2,1.2-2.3,2.5Z" style="fill: rgb(230, 210, 210);"/>
      <path d="m351.7,424.1l-.8.6c-.2.2-.4.5-.5.7l1.3-1.4Z" style="fill: rgb(230, 210, 210);"/>
      <path d="m315.8,446.7c.9-.4.9-1.1,1.1-1.5-.4.5-1,.9-1.7,1.3,0,.1.2.2.6.2Z" style="fill: rgb(230, 210, 210);"/>
      <path d="m374.7,404.1c.1,0,.3,0,.4-.1,0,0-.2,0-.4.1Z" style="fill: rgb(230, 210, 210);"/>
      <path d="m200.6,466.9h-.7c0,0-.2.2-.2.3l.9-.3Z" style="fill: rgb(230, 210, 210);"/>
      <path d="m444.6,211.2c0,0,0,.1,0,.2.1,1,0,.4,0-.2Z" style="fill: rgb(230, 210, 210);"/>
      <path d="m419.6,124.4c0,.2,0,.6.2,1,0,0,0-.3-.2-1Z" style="fill: rgb(230, 210, 210);"/>
      <path d="m440.3,188.5l-.2-1.7c0,.7.1,1.2.2,1.7Z" style="fill: rgb(230, 210, 210);"/>
      <path d="m377.6,66.9c.1.2.3.4.4.6.3.2.6.5.8.8l-1.2-1.4Z" style="fill: rgb(230, 210, 210);"/>
      <path d="m396.2,96.4l-3.3-4.6c.9,1.3,2.1,3,3.3,4.6Z" style="fill: rgb(230, 210, 210);"/>
      <path d="m364,60.4c-.2-.2-.4-.3-.6-.5.2.1.4.3.6.5Z" style="fill: rgb(230, 210, 210);"/>
      <path d="m440.7,226.5c0-.2,0-.3,0-.5,0,.2,0,.4,0,.5Z" style="fill: rgb(230, 210, 210);"/>
      <path d="m21.4,335.5c.1.2.2.3.3.6,0-.3-.2-.7-.3-1-.1-.2-.3-.3-.4-.5.1.3.3.6.4.8Z" style="fill: rgb(230, 210, 210);"/>
      <path d="m389.9,386.1c-.1.1-.3.3-.4.3.1,0,.1,0,.2-.1l.2-.2Z" style="fill: rgb(230, 210, 210);"/>
      <path d="m436.8,282.4c.1-1,.2-1.9.3-3-.3,1.6-.7,2.9-.3,3Z" style="fill: rgb(230, 210, 210);"/>
      <path d="m396.6,96.9s0,0,0,0c-.1-.2-.2-.3-.4-.5l.4.5Z" style="fill: rgb(230, 210, 210);"/>
      <path d="m309.9,449.8c2-1.2,2.4-1.5,0-.5-3.2,1.7.2.3,0,.5Z" style="fill: rgb(230, 210, 210);"/>
      <path d="m382.4,71.2v1.1c1.4,1.3,2.2,1.1,0-1.1Z" style="fill: rgb(230, 210, 210);"/>
      <path d="m221.3,29.2c-.8,0-1.6.2-2.4.4-.7,0,0-.3.1-.5-2.2.5-4.8,1.3-3.3,1.7,2.2-.8,2.7-.6,5.1-1.5,1.9-.2,3.4.1,3.1.4.7-.2,3,0,4-.4-1.3-.2-2.7-.3-4.2-.3-.8,0-1.5,0-2.3.1Z" style="fill: rgb(230, 210, 210);"/>
      <path d="m59.5,116.1c-.2.2-.5.6-.8.9l.8-.9Z" style="fill: rgb(230, 210, 210);"/>
      <path d="m58.7,117.1l-2,2.4c0,.3,1.1-1.2,2-2.4Z" style="fill: rgb(230, 210, 210);"/>
      <path d="m193.5,33.9c.6-.1,1.2-.3,1.6-.5-.5.1-1,.2-1.5.3,0,0,0,0,0,.1Z" style="fill: rgb(230, 210, 210);"/>
      <path d="m93.2,78.6l.7-.6c.2-.2.3-.5.4-.7l-1.1,1.4Z" style="fill: rgb(230, 210, 210);"/>
      <path d="m125.6,55.5c-.8.4-.8,1.1-1,1.5.3-.5.8-.9,1.5-1.3,0-.1-.2-.2-.5-.1Z" style="fill: rgb(230, 210, 210);"/>
      <path d="m72.8,98.4c-.1,0-.3,0-.4.1,0,0,.2,0,.4-.1Z" style="fill: rgb(230, 210, 210);"/>
      <path d="m276.9,36.2s0,0,0,0c-.2,0-.3,0,0,0Z" style="fill: rgb(230, 210, 210);"/>
      <path d="m192.5,34c-.5,0-1.1.2-1.6.3.7-.1,1.2-.2,1.6-.3Z" style="fill: rgb(230, 210, 210);"/>
      <path d="m55,360.9c0-.2-.2-.5-.3-.8,0,0,0,.3.3.8Z" style="fill: rgb(230, 210, 210);"/>
      <path d="m76.6,386.5c-.1-.2-.3-.3-.4-.5.2.2.3.4.4.5Z" style="fill: rgb(230, 210, 210);"/>
      <path d="m76.6,386.5c.3.3.5.6,1.1,1.2,0,0-.1-.2-.2-.3-.3-.2-.5-.4-.9-.9Z" style="fill: rgb(230, 210, 210);"/>
      <path d="m101.3,409c-.1-.1-.3-.3-.4-.5-.3-.2-.6-.4-.9-.6l1.3,1.1Z" style="fill: rgb(230, 210, 210);"/>
      <path d="m367.3,80.6c-.5-.6-.7-1-.8-1.4.1.6-3.7-2.5.8,1.4Z" style="fill: rgb(230, 210, 210);"/>
      <path d="m193.4,33.6c-.2.2-.4.3-.9.4.4,0,.7-.2,1.1-.2,0,0,0-.2-.2-.2Z" style="fill: rgb(230, 210, 210);"/>
      <path d="m80.5,389.9s0,0,0,0c0,0,0,0,0,0Z" style="fill: rgb(230, 210, 210);"/>
      <path d="m427.7,314.4c.1-.3.2-.7.3-1.2-.1.4-.2.8-.3,1.2Z" style="fill: rgb(230, 210, 210);"/>
      <path d="m23.9,268.4c0,.2,0,.3,0,.4,0-.2,0-.3,0-.4Z" style="fill: rgb(230, 210, 210);"/>
      <path d="m114.9,413.4c.2,0,.3.2.4.3-.1,0-.3-.2-.4-.3Z" style="fill: rgb(230, 210, 210);"/>
      <path d="m210.3,30.2h.6c-.1,0-.3,0-.6,0Z" style="fill: rgb(230, 210, 210);"/>
      <path d="m59.8,115.8c-.1.1-.1,0-.2.2v.2c0-.1,0-.3.2-.3Z" style="fill: rgb(230, 210, 210);"/>
      <polygon points="435.7 287.4 435.9 287.5 435.9 286.6 435.7 287.4" style="fill: rgb(230, 210, 210);"/>
      <path d="m98.9,77.1c.1,0,.3-.1.7-.3,0,0-.3.1-.7.3Z" style="fill: rgb(230, 210, 210);"/>
      <path d="m118.3,63.2l2.9-1.6c-1.3.7-2.2,1.2-2.9,1.6Z" style="fill: rgb(230, 210, 210);"/>
      <path d="m134.2,54.2c.2-.2.2-.3.2-.4,0,0,0,0,0,0l-.2.4Z" style="fill: rgb(230, 210, 210);"/>
      <path d="m31.5,301.4c0,.2.1.5.2.7.6,1.5.2.5-.2-.7Z" style="fill: rgb(230, 210, 210);"/>
      <path d="m22.5,216c0,.9,0,1.8,0,2.8.2-1.5.4-2.7,0-2.8Z" style="fill: rgb(230, 210, 210);"/>
      <path d="m22.4,218.8c-.1,1.3-.3,2.7-.3,4,.2-1.5.3-2.8.3-4Z" style="fill: rgb(230, 210, 210);"/>
      <path d="m210.5,31.5s0,0,0,0l-1,.2h.9Z" style="fill: rgb(230, 210, 210);"/>
      <path d="m211.5,31.2c-.4,0-.8,0-1,.1h1Z" style="fill: rgb(230, 210, 210);"/>
      <path d="m213.6,31l-2,.3c.7,0,1.6-.1,2-.3Z" style="fill: rgb(230, 210, 210);"/>
      <path d="m185.7,35.3l-.2.3c.1,0,.2-.2.2-.3Z" style="fill: rgb(230, 210, 210);"/>
      <path d="m185.3,35.8l.2-.2c-1,.6-5.4.7-6.9,1.5,1.7-.4,4.4-.6,6.7-1.3Z" style="fill: rgb(230, 210, 210);"/>
      <path d="m130.9,52.3c-.9.6-1.4,1-1.5,1.1,0,.1.4-.1,1.6-.6,2.9-1.6-.2-.3,0-.4Z" style="fill: rgb(230, 210, 210);"/>
      <path d="m37.5,153.5l-.3-.5c-1,2.4.2.1.3.5Z" style="fill: rgb(230, 210, 210);"/>
      <path d="m30.6,179.3c.3-.8.6-1.5,1-2.3v-1.3c-.4,1.2-.8,2.3-1,3.5Z" style="fill: rgb(230, 210, 210);"/>
      <path d="m96.2,405.6c0-.3-.1-.6-.2-1-1.4-1.1-2.1-.7.2,1Z" style="fill: rgb(230, 210, 210);"/>
      <path d="m192.8,450.1c-2.2-.4-4.4-1.1-5.6-1.3,1,.6,3.8,1.3,5.6,1.3Z" style="fill: rgb(230, 210, 210);"/>
      <path d="m432.4,316.5c.4-1.2.9-2.4,1.2-3.7-.2.6-.4,1.1-.6,1.7l-.6,2Z" style="fill: rgb(230, 210, 210);"/>
      <path d="m16,197.9c-.3.9.2,1.3.4,1.7,0-.5,0-1.2.1-2,0,0-.3,0-.5.3Z" style="fill: rgb(230, 210, 210);"/>
      <path d="m42.3,140.1c0-.2.2-.3.2-.4l-.2.4Z" style="fill: rgb(230, 210, 210);"/>
      <path d="m42.3,140.3h0c0,0,0,0,0,0Z" style="fill: rgb(230, 210, 210);"/>
      <path d="m42,140.7c0-.1.2-.3.2-.4l-.2.4Z" style="fill: rgb(230, 210, 210);"/>
      <path d="m109.3,77.2c0,0,0,0,0,0-.2.2-.2.2,0,0Z" style="fill: rgb(230, 210, 210);"/>
      <path d="m204.7,44.8c-.7-.1-1.2-.2-1.6-.4.5.4-4.3.9,1.6.4Z" style="fill: rgb(230, 210, 210);"/>
      <path d="m404.6,150.9c.2.4.4.8.7,1l-.7-1Z" style="fill: rgb(230, 210, 210);"/>
      <path d="m300.8,55.1s0,0,0,0c0,0,0,0,0,0Z" style="fill: rgb(230, 210, 210);"/>
      <path d="m412.7,167.2c0-.1-.1-.2-.2-.3,0,.1.1.2.2.3Z" style="fill: rgb(230, 210, 210);"/>
      <path d="m261.6,458.5c.2,0,.3,0,.5-.1-.1,0-.3,0-.5.1Z" style="fill: rgb(230, 210, 210);"/>
      <path d="m271,45.8s0,0,0,0c0,0,0,0,0,0Z" style="fill: rgb(230, 210, 210);"/>
      <path d="m412.5,166.9c-.1-.2-.2-.4-.4-.7.1.2.3.5.4.7Z" style="fill: rgb(230, 210, 210);"/>
      <path d="m273.3,46.4c.2,0,.4,0,.6,0-.3,0-.6-.1-.8-.2-.2,0-.4,0-.7-.1.3.1.6.2.9.4Z" style="fill: rgb(230, 210, 210);"/>
      <polygon points="399.3 142.6 399.5 142.5 398.9 141.8 399.3 142.6" style="fill: rgb(230, 210, 210);"/>
      <path d="m12.4,232c0,0,.1-.3.2-.7,0,0-.1.3-.2.7Z" style="fill: rgb(230, 210, 210);"/>
      <path d="m16.3,208.5l.9-3.2c-.4,1.4-.7,2.4-.9,3.2Z" style="fill: rgb(230, 210, 210);"/>
      <path d="m59.1,120.8s0,0,0-.1l-.6.8.6-.7Z" style="fill: rgb(230, 210, 210);"/>
      <path d="m59.7,119.9c-.3.3-.5.6-.6.8l.6-.8Z" style="fill: rgb(230, 210, 210);"/>
      <path d="m60.9,118.3l-1.2,1.7c.5-.5,1.1-1.2,1.2-1.7Z" style="fill: rgb(230, 210, 210);"/>
      <path d="m17.5,191.8c-.2,1-.3,1.7-.3,1.8,0,0,.2-.4.7-1.5.9-3.2-.3,0-.4-.3Z" style="fill: rgb(230, 210, 210);"/>
      <path d="m417.6,165.4c-.6-1.2-1.1-2.3-1.8-3.5.3.6.5,1.1.7,1.7l1,1.8Z" style="fill: rgb(230, 210, 210);"/>
      <path d="m361.4,60.9c-.2-.3-.5-.6-.9-.9.3.3.6.6.9.9Z" style="fill: rgb(230, 210, 210);"/>
      <path d="m232.6,1.1c.4,0,.8,0,1.2.1-.5,0-.9-.2-1.2-.1Z" style="fill: rgb(230, 210, 210);"/>
      <path d="m360.5,60l-2.2-2.4c-.3,0,1.1,1.3,2.2,2.4Z" style="fill: rgb(230, 210, 210);"/>
      <path d="m426.5,213.8c0-.6-.1-1.1-.2-1.6,0,0,0,0-.1,0,0,.7.2,1.2.3,1.7Z" style="fill: rgb(230, 210, 210);"/>
      <path d="m394.6,101.8l.5.9c.2.2.4.4.7.6l-1.2-1.4Z" style="fill: rgb(230, 210, 210);"/>
      <path d="m413.3,138.8c-.3-.9-1-1-1.4-1.2.4.4.8,1,1.2,1.7.1,0,.2-.2.2-.5Z" style="fill: rgb(230, 210, 210);"/>
      <path d="m377.4,77.5c0-.1,0-.3,0-.4,0,0,0,.2,0,.4Z" style="fill: rgb(230, 210, 210);"/>
      <path d="m194.1,1.6c0,0,.1,0,.2,0,1-.2.4-.1-.2,0Z" style="fill: rgb(230, 210, 210);"/>
      <path d="m111.3,32.1c.2,0,.6-.1.9-.3,0,0-.3,0-.9.3Z" style="fill: rgb(230, 210, 210);"/>
      <path d="m172.1,7l-1.6.3c.6-.1,1.2-.2,1.6-.3Z" style="fill: rgb(230, 210, 210);"/>
      <path d="m364.5,390.7c.6-.5,1.1-.7,1.5-.9-.7.1,2.6-3.8-1.5.9Z" style="fill: rgb(230, 210, 210);"/>
      <path d="m196.4,1.5c.5,0,1-.1,1.4-.2-.6,0-1.1.1-1.4.2Z" style="fill: rgb(230, 210, 210);"/>
      <path d="m54.3,92.5c-.1.2-.2.4-.3.5,0-.1.2-.3.3-.5Z" style="fill: rgb(230, 210, 210);"/>
      <path d="m283.6,450.9s0,0,0,0c0,0,0,0,0,0Z" style="fill: rgb(230, 210, 210);"/>
      <path d="m361.6,61.3c0-.1,0-.1-.1-.2v-.2c0,.1,0,.3.1.4Z" style="fill: rgb(230, 210, 210);"/>
      <path d="m415.7,144.8c-.9-2-1.2-2.5-.5,0,1.3,3.3.3-.1.5,0Z" style="fill: rgb(230, 210, 210);"/>
      <polygon points="302.8 23.1 304.1 23.2 300.6 21.7 302.8 23.1" style="fill: rgb(230, 210, 210);"/>
      <path d="m271.8,28.6c.9.1,1.3.1,1.4,0-.9-.1-1.6-.2-1.4,0Z" style="fill: rgb(230, 210, 210);"/>
      <path d="m250.6,25.4c.5,0,.8,0,1.3.1-.5,0-1-.2-1.3-.1Z" style="fill: rgb(230, 210, 210);"/>
      <path d="m464.8,227.5c0,.7.2,1.3.3,1.8,0-.6-.2-1.1-.2-1.7,0,0,0,0-.1,0Z" style="fill: rgb(230, 210, 210);"/>
      <path d="m424.1,117.8l.6.8c.2.2.5.4.7.5l-1.4-1.3Z" style="fill: rgb(230, 210, 210);"/>
      <path d="m446.7,153.7c-.4-.9-1.1-.9-1.5-1.1.5.4.9,1,1.3,1.7.1,0,.2-.2.2-.6Z" style="fill: rgb(230, 210, 210);"/>
      <path d="m404.1,94.9c0-.1,0-.3-.1-.4,0,0,0,.2.1.4Z" style="fill: rgb(230, 210, 210);"/>
      <path d="m453.8,315.7s0,0,.1,0c0-.2,0-.3-.1,0Z" style="fill: rgb(230, 210, 210);"/>
      <path d="m466.9,268.9v.7c0,0,.2.2.3.2l-.3-.9Z" style="fill: rgb(230, 210, 210);"/>
      <path d="m211.2,24.9c0,0,.1,0,.2,0,1-.1.4,0-.2,0Z" style="fill: rgb(230, 210, 210);"/>
      <path d="m464.7,226.5c0-.6-.1-1.1-.2-1.7,0,.8.1,1.3.2,1.7Z" style="fill: rgb(230, 210, 210);"/>
      <path d="m188.5,29.3l-1.7.2c.7,0,1.2-.1,1.7-.2Z" style="fill: rgb(230, 210, 210);"/>
      <path d="m66.9,92c.2-.1.4-.3.6-.4.2-.3.5-.6.8-.8l-1.4,1.2Z" style="fill: rgb(230, 210, 210);"/>
      <path d="m394.5,405.2c.7-.4,1.2-.6,1.6-.7-.7,0,3.1-3.6-1.6.7Z" style="fill: rgb(230, 210, 210);"/>
      <path d="m465.1,227.5c-.2-.2-.3-.5-.4-1,0,.4,0,.8.1,1.2,0,0,.2.1.2-.1Z" style="fill: rgb(230, 210, 210);"/>
      <path d="m96.4,73.3l-4.6,3.3c1.3-.9,3-2.1,4.6-3.3Z" style="fill: rgb(230, 210, 210);"/>
      <path d="m155.3,449.5c-.5-.2-.9-.3-1.2-.4l1.2.4Z" style="fill: rgb(230, 210, 210);"/>
      <path d="m78.8,87.4c-.9.5-1.8,1.1-2.6,1.8-.1.2-.3.4-.4.6l3-2.4Z" style="fill: rgb(230, 210, 210);"/>
      <path d="m467.1,245.7c0,.2,0,.5,0,.7,0-.1,0-.4,0-.7Z" style="fill: rgb(230, 210, 210);"/>
      <path d="m459.1,298.7c0-.2,0-.5,0-.7,0,.3,0,.5,0,.7Z" style="fill: rgb(230, 210, 210);"/>
      <path d="m226.5,28.9c-.2,0-.3,0-.5,0,.2,0,.4,0,.5,0Z" style="fill: rgb(230, 210, 210);"/>
      <path d="m213.6,25c.5,0,1,0,1.4-.2-.6,0-1.1.1-1.4.2Z" style="fill: rgb(230, 210, 210);"/>
      <polygon points="192.5 32.4 192.5 32.4 192.5 32.4 192.5 32.4" style="fill: rgb(230, 210, 210);"/>
      <path d="m306.3,458.8s0,0,0,0c0,0,0,0,0,0Z" style="fill: rgb(230, 210, 210);"/>
      <path d="m335.5,448.2c.2-.1.3-.2.6-.3-.3,0-.7.2-1,.3-.2.1-.3.3-.5.4.3-.1.6-.3.8-.4Z" style="fill: rgb(230, 210, 210);"/>
      <polygon points="165.4 452.7 165.4 452.9 166.3 453 165.4 452.7" style="fill: rgb(230, 210, 210);"/>
      <path d="m425.4,124c0,.1.1.3.3.7,0,0-.1-.3-.3-.7Z" style="fill: rgb(230, 210, 210);"/>
      <path d="m439,145.4l1.5,3.3c-.6-1.4-1.1-2.4-1.5-3.3Z" style="fill: rgb(230, 210, 210);"/>
      <path d="m447.6,163c.2.2.3.2.4.2,0,0,0,0,0,0l-.4-.2Z" style="fill: rgb(230, 210, 210);"/>
      <path d="m282.4,32.8c-1-.1-1.9-.2-3-.3,1.6.3,2.9.7,3,.3Z" style="fill: rgb(230, 210, 210);"/>
      <path d="m96.9,73s0,0,0,0c-.2.1-.3.2-.5.4l.5-.4Z" style="fill: rgb(230, 210, 210);"/>
      <path d="m463.9,219.2l-.3-.3c0,.2.2.2.3.3Z" style="fill: rgb(230, 210, 210);"/>
      <path d="m463.5,218.7l.2.2c-.5-1.2-.3-5.8-1.1-7.5.4,1.8.3,4.7.8,7.3Z" style="fill: rgb(230, 210, 210);"/>
      <path d="m458.7,185.3c-.1-1.2-.3-2.7.7.1-.9-4.1-.9-3.7-1-3.2-.1.5-.1.8-1.6-3.3.3,1.1.7,2.1,1,3.2l.9,3.2Z" style="fill: rgb(230, 210, 210);"/>
      <path d="m449.8,159.6c-1.2-2-1.5-2.4-.5,0,1.7,3.2.3-.2.5,0Z" style="fill: rgb(230, 210, 210);"/>
      <path d="m347.7,53.7l.6-.3c-2.5-1.3-.1.2-.6.3Z" style="fill: rgb(230, 210, 210);"/>
      <path d="m323.1,45.8c.5,0,.9,0,1.4,0-1.2-.5-2.5-.8-3.7-1.2l2.4,1.2Z" style="fill: rgb(230, 210, 210);"/>
      <path d="m71.2,87.1h1.1c1.3-1.4,1.1-2.2-1.1,0Z" style="fill: rgb(230, 210, 210);"/>
    </g>
  </g>
</svg>