<?xml version="1.0" encoding="utf-8"?>
<!-- Generator: Adobe Illustrator 27.4.1, SVG Export Plug-In . SVG Version: 6.00 Build 0)  -->
<svg version="1.1" xmlns="http://www.w3.org/2000/svg" xmlns:xlink="http://www.w3.org/1999/xlink" x="0px" y="0px"
	 viewBox="0 0 512 512" style="enable-background:new 0 0 512 512;" xml:space="preserve">
<g id="Layer_1">
	<path d="M50.4,166.6c19.8,0,36-15.6,36-34.7s-16.1-34.7-36-34.7s-36,15.6-36,34.7S30.5,166.6,50.4,166.6z M50.4,109.3
		c13.2,0,24,10.2,24,22.7s-10.8,22.7-24,22.7s-24-10.2-24-22.7S37.1,109.3,50.4,109.3z"/>
	<path d="M460.6,166.6c19.8,0,36-15.6,36-34.7s-16.1-34.7-36-34.7s-36,15.6-36,34.7S440.8,166.6,460.6,166.6z M460.6,109.3
		c13.2,0,24,10.2,24,22.7s-10.8,22.7-24,22.7s-24-10.2-24-22.7S447.4,109.3,460.6,109.3z"/>
	<path d="M256,502c135.9,0,246-110.1,246-246c0-26.5-4.2-54.2-12-77.9c-1-3.1-4.4-4.8-7.6-3.8c-3.1,1-4.8,4.4-3.8,7.5
		c7.3,22.6,11.4,49,11.4,74.2c0,129.2-104.8,234-234,234c-62.1,0-121.6-24.7-165.5-68.5C27.9,358.7,6,266,34,181.8
		c1.1-3.1-0.5-6.6-3.7-7.6s-6.6,0.5-7.6,3.7c0,0.1,0,0.1-0.1,0.2c-43,128.9,26.6,268.3,155.5,311.3C203.2,497.7,229.5,502,256,502z"
		/>
	<path d="M88.5,89.1c1.6,0,3-0.6,4.2-1.7C136.2,45.4,194.4,21.9,255,22c58.4,0,115.3,23.3,160.2,65.5c2.4,2.3,6.2,2.2,8.5-0.3
		c2.3-2.4,2.2-6.2-0.3-8.5C376.2,34.4,316.4,10,255,10C191.3,9.9,130.1,34.6,84.4,78.8c-2.4,2.3-2.5,6.1-0.2,8.5
		C85.3,88.5,86.9,89.1,88.5,89.1z"/>
	<path d="M385.9,377.7c-0.2-1.4-0.4-2.7-0.6-4c-0.4-3.3-3.3-5.7-6.6-5.3c-3.3,0.4-5.7,3.3-5.3,6.6c0.2,1.5,0.4,3.2,0.7,4.8
		c0.5,3.3,3.6,5.5,6.9,4.9s5.5-3.6,4.9-6.9C386,377.8,385.9,377.8,385.9,377.7L385.9,377.7z"/>
	<path d="M391.1,428c1.3,3,4.9,4.4,7.9,3s4.4-4.9,3-7.9c-5.4-12.1-9-21-11.7-28.8c-1.1-3.1-4.5-4.8-7.6-3.7s-4.8,4.5-3.7,7.6
		C381.9,406.4,385.6,415.6,391.1,428z"/>
	<path d="M348.1,273.9c4.3-11.1-1.5-24.8-16.1-39.1c14.7-14.2,20.4-28,16.1-39.1c-4.6-12-20-18.4-43.4-18.1
		c-6.6,0.1-13.2,0.7-19.7,1.6c-1.5-6.4-3.3-12.8-5.6-18.9c-8.1-21.9-19.7-33.9-32.5-33.9s-24.4,12-32.5,33.9
		c-2.3,6.2-4.1,12.5-5.6,18.9c-6.5-0.9-13.1-1.5-19.7-1.6c-23.3-0.3-38.7,6.1-43.4,18.1c-4.3,11.1,1.4,24.8,16.1,39.1
		c-14.7,14.2-20.4,28-16.1,39.1c4.5,11.7,20.1,18.1,42.6,18.1c6.8-0.1,13.7-0.7,20.5-1.6c1.5,6.4,3.3,12.8,5.6,18.9
		c8.1,21.9,19.7,33.9,32.5,33.9s24.4-12,32.5-33.9c2.3-6.2,4.1-12.5,5.6-18.9c6.8,1,13.6,1.5,20.5,1.6
		C328,292.1,343.5,285.7,348.1,273.9z M188.9,280.1c-17.4,0.2-29.4-3.7-32-10.5c-2.4-6.3,2.8-16.2,14-26.8
		c10.4,8.2,21.6,15.3,33.5,21.2c0.5,5,1.2,9.9,2,14.7C200.6,279.5,194.8,280,188.9,280.1z M203.2,249.8c-8-4.4-15.7-9.4-23-15
		c7.3-5.6,15-10.6,23-15c-0.3,4.9-0.4,9.9-0.4,15C202.8,239.9,202.9,244.9,203.2,249.8z M204.4,205.7c-11.8,6-23,13.1-33.5,21.2
		c-11.2-10.6-16.4-20.5-14-26.8c2.5-6.6,14.6-10.5,31.3-10.5c6.1,0.1,12.2,0.6,18.2,1.4C205.6,195.8,204.9,200.7,204.4,205.7
		L204.4,205.7z M276.6,199.5c-3.4-1.5-6.8-3-10.3-4.4c3.1-0.8,6.3-1.5,9.3-2.1C275.9,195.2,276.3,197.3,276.6,199.5L276.6,199.5z
		 M225.6,164.5c6.1-16.3,14-26.1,21.3-26.1s15.2,9.8,21.3,26.1c2,5.5,3.7,11.1,5,16.8c-8.9,1.8-17.7,4.1-26.3,6.9
		c-8.6-2.8-17.4-5.1-26.3-6.9C221.9,175.6,223.6,170,225.6,164.5z M218.2,193c3.1,0.6,6.2,1.3,9.3,2.1c-3.5,1.4-6.9,2.9-10.3,4.4
		C217.5,197.3,217.8,195.2,218.2,193L218.2,193z M217.2,270.2c3.4,1.5,6.8,3,10.3,4.4c-3.1,0.8-6.3,1.5-9.3,2.1
		C217.8,274.6,217.5,272.4,217.2,270.2L217.2,270.2z M268.2,305.2c-6.1,16.3-14,26.1-21.3,26.1s-15.2-9.8-21.3-26.1
		c-2-5.5-3.7-11.1-5-16.8c8.9-1.8,17.7-4.1,26.3-6.9c8.6,2.8,17.4,5.1,26.3,6.9C271.9,294.1,270.2,299.7,268.2,305.2L268.2,305.2z
		 M275.6,276.7c-3.1-0.6-6.2-1.3-9.3-2.1c3.5-1.4,6.9-2.9,10.3-4.4C276.3,272.4,275.9,274.6,275.6,276.7L275.6,276.7z M278.1,256.3
		c-6.3,3-12.9,5.9-19.7,8.5l0,0c-3.9,1.5-7.7,2.9-11.5,4.2c-3.8-1.3-7.7-2.7-11.5-4.2c-6.8-2.6-13.4-5.5-19.7-8.5
		c-0.6-6.9-0.9-14.1-0.9-21.4s0.3-14.5,0.9-21.4c6.3-3,12.9-5.9,19.7-8.5c3.9-1.5,7.7-2.9,11.5-4.2c3.8,1.3,7.7,2.7,11.5,4.2
		c6.8,2.6,13.4,5.5,19.7,8.5c0.6,6.9,0.9,14.1,0.9,21.4S278.6,249.3,278.1,256.3L278.1,256.3z M305.6,189.7
		c16.7,0,28.8,3.9,31.3,10.5c2.4,6.3-2.8,16.2-14,26.8c-10.4-8.2-21.6-15.3-33.5-21.2c-0.5-5-1.2-9.9-2-14.7
		C293.4,190.2,299.5,189.8,305.6,189.7L305.6,189.7z M290.5,219.9c8,4.4,15.7,9.4,23,15c-7.3,5.6-15,10.6-23,15
		c0.3-4.9,0.4-9.9,0.4-15S290.8,224.8,290.5,219.9z M336.9,269.6c-2.6,6.8-14.6,10.7-32,10.5c-5.8-0.1-11.7-0.6-17.5-1.4
		c0.8-4.7,1.5-9.6,2-14.7c11.8-6,23-13.1,33.5-21.2C334.1,253.4,339.3,263.3,336.9,269.6L336.9,269.6z"/>
	<path d="M299.5,273.1C299,273.1,300,273.1,299.5,273.1z"/>
	<path d="M182.3,273.1C181.8,273.1,182.8,273.1,182.3,273.1z"/>
	<path d="M244.9,207c-14.3,0-25.9,11.6-25.9,25.9c0,14.3,11.6,25.9,25.9,25.9c14.3,0,25.9-11.6,25.9-25.9
		C270.8,218.6,259.2,207,244.9,207z M244.9,246.8c-7.7,0-13.9-6.2-13.9-13.9s6.2-13.9,13.9-13.9c7.7,0,13.9,6.2,13.9,13.9
		c0,0,0,0,0,0C258.8,240.5,252.6,246.7,244.9,246.8z"/>
	<path d="M437.7,264.5c-1.6-2-3.2-4-5-5.8c15.7-24.5,8.2-50.2-6.2-64.5c-8-8-18.6-13-29.9-14.1c-3.4-22.6-12.2-39.7-26.2-50.8
		c-15.8-12.6-38.3-17.6-67-15c-11.7-15.3-33-25.8-56.5-27.5c-33.9-2.5-63.7,13.3-71.7,36.8c-28.4-8.2-58.1,8.3-66.2,36.7
		c-0.4,1.2-0.7,2.5-0.9,3.8c-31.9,6.9-54.6,35.1-54.6,67.7c0.1,38.2,31.8,68.8,70,68.8h23c2.2,18.8,11.7,35.1,27.3,47.2
		c18.8,14.5,44.7,21.1,69.2,17.5c9.2-1.3,18.6,1,26,6.6c3.1,2.3,6.2,4.9,9.3,7.6c2.5,2.2,6.3,2,8.5-0.5c2.2-2.5,2-6.3-0.5-8.5
		c-3.3-2.9-6.7-5.7-10.1-8.3c-10-7.5-22.5-10.7-34.9-8.9c-21.4,3.1-43.9-2.5-60.2-15.1c-13.1-10.2-21-23.8-22.8-39.4
		c-0.2-5.8-5-10.4-10.8-10.4h-24.2c-31.7,0-58-25.4-57.9-57.1c0.1-31.3,25.4-56.7,56.7-56.8c3.3,0,6-2.5,6.3-5.8
		c0.1-3.3-2.5-6.1-5.8-6.2c-0.1,0-0.2,0-0.2,0c-0.5,0-1.1,0-1.6,0c6.1-19,24.8-31,44.6-28.7c9.1,1.1,17.6,5.2,24.1,11.7
		c2.3,2.4,6,2.5,8.5,0.4c2.4-2.2,2.6-6,0.4-8.5c-0.1-0.1-0.1-0.1-0.2-0.2c-3.5-3.5-7.5-6.6-11.9-9c2.5-8.2,8.8-15.5,18.1-20.9
		c11.5-6.7,26.2-9.7,41.5-8.6c21.4,1.6,40.4,11.3,49.6,25.2c1.2,1.9,3.4,2.9,5.7,2.7c27.1-3.1,47.8,1,61.7,12
		c11.2,8.9,18.4,23,21.5,41.7c-10.2,1.4-20.3,5.9-29.7,13.2c-2.5,1.9-3.2,5.3-1.6,7.9c1.7,2.8,5.4,3.8,8.2,2.1
		c0.2-0.1,0.4-0.3,0.6-0.4c23.3-18.2,44.8-11.6,56-0.4c11.1,11,16.4,29.6,5.5,48c-6.6-4.7-13.9-8.1-21.7-10.2
		c-3.2-0.9-6.5,1-7.3,4.2c0,0.1,0,0.2-0.1,0.2c-0.6,3.2,1.4,6.4,4.5,7.2c11.6,3.1,21.9,10,29.3,19.6c18.7,24.2,14.2,59-10,77.6
		c-24.1,18.6-58.7,14.3-77.4-9.7c-2-2.6-5.7-3.3-8.4-1.4c-2.7,1.9-3.3,5.7-1.4,8.4c0,0.1,0.1,0.1,0.1,0.2c6.9,8.9,15.9,16,26.3,20.5
		c-6.9,16.5,2.8,42.7,17.2,74.8h-32.2c-6.3-10.1-13.1-20.5-20.4-30.6c-1.9-2.7-5.6-3.5-8.3-1.6c-2.7,1.9-3.5,5.6-1.6,8.3
		c0.1,0.1,0.1,0.2,0.2,0.3c7.8,10.8,15.1,22.1,21.8,32.8c1.1,1.8,3,2.8,5.1,2.8h44.6c1.6,0,3.1-0.5,4.2-1.5c1.9-1.8,2.5-4.6,1.4-7
		c-11.7-25.7-27.5-60.3-20.5-74.5c5.1,1.2,10.4,1.8,15.6,1.8c37.2,0,67.3-30.2,67.3-67.4C451.8,290.8,446.8,276.3,437.7,264.5
		L437.7,264.5z"/>
</g>
<g id="Шар_2">
	
		<image style="overflow:visible;" width="612" height="792" xlink:href="2023-04-26 20.48.09.jpg"  transform="matrix(0.1896 0 0 0.2005 188.2737 155.3866)">
	</image>
</g>
</svg>
