<svg id="Layer_1" data-name="Layer 1" xmlns="http://www.w3.org/2000/svg" viewBox="0 0 512 512"><path d="M50.357,166.624c19.837,0,35.976-15.553,35.976-34.67s-16.139-34.67-35.976-34.67-35.974,15.553-35.974,34.67S30.521,166.624,50.357,166.624Zm0-57.34c13.22,0,23.976,10.17,23.976,22.67s-10.756,22.67-23.976,22.67-23.974-10.17-23.974-22.67S37.138,109.284,50.357,109.284Z"/><path d="M460.646,166.624c19.837,0,35.976-15.553,35.976-34.67s-16.139-34.67-35.976-34.67-35.975,15.553-35.975,34.67S440.81,166.624,460.646,166.624Zm0-57.34c13.22,0,23.976,10.17,23.976,22.67s-10.756,22.67-23.976,22.67-23.975-10.17-23.975-22.67S447.427,109.284,460.646,109.284Z"/><path d="M256,502A246,246,0,0,0,502,256c0-26.491-4.246-54.17-11.955-77.938a6,6,0,0,0-11.415,3.7C485.962,204.368,490,230.732,490,256A234,234,0,0,1,90.537,421.463,234.359,234.359,0,0,1,34,181.814a6,6,0,1,0-11.381-3.8A246.071,246.071,0,0,0,256,502Z"/><path d="M88.514,89.139a5.977,5.977,0,0,0,4.162-1.679A232.855,232.855,0,0,1,255,22c58.356,0,115.252,23.266,160.209,65.512a6,6,0,0,0,8.218-8.745C376.24,34.422,316.425,10,255,10A244.793,244.793,0,0,0,84.351,78.818a6,6,0,0,0,4.163,10.321Z"/><path d="M385.94,377.739c-.247-1.4-.442-2.749-.58-4.017a6,6,0,0,0-11.93,1.294c.167,1.535.4,3.156.695,4.817a6,6,0,1,0,11.815-2.094Z"/><path d="M391.126,428.045a6,6,0,0,0,10.963-4.88c-5.395-12.117-8.988-21-11.651-28.811a6,6,0,1,0-11.358,3.874C381.864,406.39,385.579,415.586,391.126,428.045Z"/><path d="M342.075,254.923c4.279-11.085-1.45-24.838-16.142-39.062,14.692-14.225,20.421-27.978,16.142-39.063-4.63-11.993-20.046-18.43-43.365-18.137a156.456,156.456,0,0,0-19.691,1.6,156.561,156.561,0,0,0-5.6-18.946c-8.125-21.876-19.68-33.923-32.537-33.923s-24.411,12.047-32.536,33.923a156.381,156.381,0,0,0-5.6,18.946,156.456,156.456,0,0,0-19.691-1.6c-23.333-.277-38.734,6.144-43.365,18.137-4.279,11.085,1.45,24.839,16.142,39.063-14.692,14.223-20.421,27.977-16.142,39.062,4.528,11.729,20.121,18.142,42.6,18.142a168.423,168.423,0,0,0,20.461-1.606,156.4,156.4,0,0,0,5.6,18.947c8.125,21.875,19.68,33.923,32.536,33.923s24.412-12.048,32.537-33.923a156.578,156.578,0,0,0,5.6-18.947,168.423,168.423,0,0,0,20.461,1.606C321.952,273.065,337.547,266.651,342.075,254.923Zm-159.169,6.138c-17.434.223-29.4-3.687-32.017-10.459-2.428-6.292,2.793-16.181,14.019-26.815a202.313,202.313,0,0,0,33.451,21.241c.538,5.017,1.214,9.911,2.024,14.651A143.632,143.632,0,0,1,182.906,261.061Zm14.317-30.239a184.018,184.018,0,0,1-22.988-14.961A184.021,184.021,0,0,1,197.223,200.9q-.39,7.377-.4,14.962T197.223,230.822Zm1.136-44.129a202.313,202.313,0,0,0-33.451,21.241c-11.226-10.633-16.447-20.523-14.019-26.814,2.544-6.589,14.643-10.464,31.315-10.464a154.9,154.9,0,0,1,18.179,1.386C199.573,176.782,198.9,181.676,198.359,186.693Zm72.207-6.176q-5.061-2.268-10.319-4.374,4.719-1.167,9.319-2.1Q270.111,177.229,270.566,180.517ZM219.6,145.494c6.07-16.344,14.028-26.1,21.287-26.1s15.218,9.757,21.288,26.1a143.776,143.776,0,0,1,5,16.8,249.04,249.04,0,0,0-26.292,6.879,249.12,249.12,0,0,0-26.293-6.879A143.776,143.776,0,0,1,219.6,145.494Zm-7.394,28.55q4.594.927,9.319,2.1-5.25,2.106-10.319,4.374Q211.662,177.234,212.2,174.044Zm-1,77.161q5.061,2.268,10.319,4.373-4.719,1.169-9.319,2.1Q211.659,254.493,211.2,251.205Zm50.969,35.023c-6.07,16.343-14.028,26.1-21.288,26.1s-15.217-9.758-21.287-26.1a143.852,143.852,0,0,1-5-16.8,249.109,249.109,0,0,0,26.293-6.878,249.029,249.029,0,0,0,26.292,6.878A143.852,143.852,0,0,1,262.172,286.228Zm7.394-28.551q-4.594-.927-9.319-2.1,5.25-2.106,10.319-4.374Q270.107,254.488,269.566,257.677Zm2.524-20.413c-6.281,3.023-12.855,5.878-19.66,8.5h0q-5.788,2.235-11.545,4.152-5.751-1.929-11.546-4.152c-6.805-2.627-13.379-5.482-19.66-8.5-.558-6.948-.854-14.109-.854-21.4s.3-14.455.854-21.4c6.281-3.023,12.855-5.877,19.66-8.5q5.79-2.235,11.546-4.153,5.75,1.929,11.545,4.153c6.805,2.627,13.379,5.481,19.66,8.5.558,6.949.854,14.109.854,21.4S272.648,230.316,272.09,237.264Zm27.475-66.613c16.67,0,28.771,3.88,31.315,10.469,2.428,6.291-2.793,16.181-14.019,26.814a202.313,202.313,0,0,0-33.451-21.241c-.538-5.017-1.214-9.911-2.024-14.651A155.164,155.164,0,0,1,299.565,170.651ZM284.546,200.9a184.021,184.021,0,0,1,22.988,14.962,184.018,184.018,0,0,1-22.988,14.961q.39-7.375.4-14.961T284.546,200.9Zm46.334,49.7c-2.614,6.772-14.575,10.673-32.017,10.459a143.632,143.632,0,0,1-17.477-1.382c.811-4.74,1.486-9.634,2.024-14.651a202.271,202.271,0,0,0,33.451-21.241C328.087,234.421,333.308,244.31,330.88,250.6Z"/><path d="M299.48,273.065c-.509,0,.516.006,0,0Z"/><path d="M182.289,273.065c-.515.006.508,0,0,0Z"/><path d="M240.884,189.967a25.894,25.894,0,1,0,25.894,25.894A25.922,25.922,0,0,0,240.884,189.967Zm0,39.787a13.894,13.894,0,1,1,13.894-13.893A13.908,13.908,0,0,1,240.884,229.754Z"/><path d="M437.729,253.506a68.684,68.684,0,0,0-5.023-5.785c15.68-24.459,8.191-50.192-6.237-64.48a49.443,49.443,0,0,0-29.9-14.136c-3.414-22.578-12.194-39.652-26.152-50.786-15.791-12.6-38.3-17.621-66.952-14.951-11.748-15.333-33.018-25.774-56.534-27.534-33.895-2.529-63.675,13.273-71.7,36.84a53.533,53.533,0,0,0-67.168,40.441,69.091,69.091,0,0,0-54.558,67.66c.114,38.176,31.786,68.771,69.963,68.771h22.981c2.226,18.8,11.67,35.118,27.339,47.239,18.788,14.533,44.672,21.08,69.238,17.515a34.876,34.876,0,0,1,25.993,6.628c3.145,2.341,6.231,4.882,9.26,7.587a6,6,0,0,0,8.014-8.932c-3.3-2.945-6.665-5.718-10.109-8.281a46.82,46.82,0,0,0-34.882-8.878c-21.413,3.11-43.906-2.549-60.172-15.131-13.123-10.152-21-23.767-22.792-39.388a10.782,10.782,0,0,0-10.759-10.359H123.4c-31.671,0-57.963-25.446-57.889-57.116a57.045,57.045,0,0,1,56.725-56.843,6.178,6.178,0,0,0,6.251-5.772,6,6,0,0,0-6-6.229c-.545,0-1.084.029-1.626.042a41.725,41.725,0,0,1,44.567-28.736,40.939,40.939,0,0,1,24.106,11.672,6.2,6.2,0,0,0,8.512.393,6,6,0,0,0,.2-8.654,53.4,53.4,0,0,0-11.894-9.017c2.521-8.178,8.825-15.492,18.148-20.9,11.5-6.677,26.25-9.727,41.535-8.58,21.4,1.6,40.394,11.254,49.558,25.19a5.992,5.992,0,0,0,5.688,2.666c27.054-3.06,47.8.991,61.653,12.043,11.21,8.943,18.425,22.958,21.52,41.682-10.165,1.447-20.269,5.922-29.673,13.216a6.141,6.141,0,0,0-1.637,7.946,6,6,0,0,0,8.843,1.652c23.313-18.191,44.757-11.6,56.035-.429,11.068,10.961,16.448,29.553,5.472,48.03a66.944,66.944,0,0,0-21.675-10.17,6,6,0,0,0-7.4,4.476,6.173,6.173,0,0,0,4.544,7.183,54.849,54.849,0,0,1,29.267,19.56,55.358,55.358,0,0,1-87.429,67.927,6.179,6.179,0,0,0-8.39-1.417,6,6,0,0,0-1.261,8.554,66.909,66.909,0,0,0,26.291,20.472c-6.857,16.456,2.809,42.745,17.159,74.783h-32.19c-6.336-10.1-13.141-20.519-20.434-30.642a6,6,0,1,0-9.762,6.972c7.8,10.828,15.061,22.06,21.777,32.841a6,6,0,0,0,5.094,2.829h44.588a6.285,6.285,0,0,0,4.242-1.536,6.007,6.007,0,0,0,1.446-6.957c-11.745-25.716-27.53-60.294-20.464-74.466a67.958,67.958,0,0,0,15.615,1.834,67.327,67.327,0,0,0,53.212-108.534Z"/></svg>