<svg id="Layer_1" data-name="Layer 1" xmlns="http://www.w3.org/2000/svg" viewBox="0 0 512 512"><path d="M286.773,11.121l-.074,0-4.608-.107A181.6,181.6,0,0,0,98.542,182.429c-.186,3.047-.265,29.259-.281,35.684L64.927,305.262A13.812,13.812,0,0,0,77.83,324H124v51.568a44.5,44.5,0,0,0,46.128,44.824c1-.031,7.223-.392,38.256-.392h.138a31.9,31.9,0,0,1,19.285,6.706A31.358,31.358,0,0,1,240,451.493V495a5.824,5.824,0,0,0,5.789,6H402.621a6,6,0,0,0,5.99-6.346c-.061-1.07-6.1-107.771-.016-173.017,1.656-17.755,18.615-60.262,20.12-64A168.562,168.562,0,0,0,424.824,94.2C395.791,44.24,344.183,13.182,286.773,11.121Zm131.17,241.213c-.089.171-.171.347-.243.526-.782,1.927-19.166,47.424-21.053,67.663-5.3,56.86-1.547,144.342-.348,168.477H252V451.493a42.991,42.991,0,0,0-16.843-34.123c-.585-.453-1.238-.885-1.844-1.307a73.867,73.867,0,0,0,49.109-63.521,6,6,0,0,0-11.968-.982c-2.614,31.825-29.706,56.683-61.727,56.683-.076,0-.16,0-.231,0l-38.829.305A32.737,32.737,0,0,1,136,375.568V317.984A6.3,6.3,0,0,0,129.647,312H77.83a1.775,1.775,0,0,1-1.5-.792,1.753,1.753,0,0,1-.2-1.655l33.726-88.179a6.011,6.011,0,0,0,.4-2.13c.031-13.29.127-33.867.264-36.125A169.6,169.6,0,0,1,279.972,23c.636,0,1.275,0,1.912.011l4.5.1a151.7,151.7,0,0,1,75.824,22.957,157.672,157.672,0,0,1,55.738,206.262Z"/><path d="M390.042,154.839,368,150.953a93.847,93.847,0,0,0-5.583-14.336l13.623-18.927a6,6,0,0,0-.625-7.746l-28.573-28.6a6,6,0,0,0-7.709-.657L320.18,94.1A94.849,94.849,0,0,0,305.8,88.443l-3.884-22.465A6,6,0,0,0,296,61H255.44a6,6,0,0,0-5.911,4.972L245.62,88.453a95.631,95.631,0,0,0-14.415,5.81L212.211,80.782a6,6,0,0,0-7.706.641l-28.682,28.553a6,6,0,0,0-.657,7.728l13.43,18.9a97.174,97.174,0,0,0-5.843,14.337l-22.765,3.894A6,6,0,0,0,155,160.748v40.441a6,6,0,0,0,4.986,5.914l22.771,3.9a96.968,96.968,0,0,0,5.907,14.351L175.2,244.273a6,6,0,0,0,.651,7.727l28.664,28.6a6,6,0,0,0,7.7.654l19-13.414a96.877,96.877,0,0,0,14.409,5.687l3.9,22.5A6,6,0,0,0,255.44,301H296a6,6,0,0,0,5.911-4.974l3.91-22.515a97.739,97.739,0,0,0,14.413-5.823l19,13.475a6,6,0,0,0,7.706-.642l28.681-28.557a6,6,0,0,0,.657-7.727L362.818,225.3a92.2,92.2,0,0,0,5.212-14.327l22.009-3.872A6,6,0,0,0,395,201.189V160.748A6,6,0,0,0,390.042,154.839ZM383,196.152l-20.747,3.65a6,6,0,0,0-4.737,4.286c-2.047,7.285-3.858,13.29-6.938,18.746a6,6,0,0,0,.335,6.425l12.639,17.787-21.5,21.405L324.162,255.76a6,6,0,0,0-6.407-.339,84.307,84.307,0,0,1-18.821,7.623,6,6,0,0,0-4.3,4.753L290.954,289H260.489l-3.678-21.2a6,6,0,0,0-4.3-4.753A83.6,83.6,0,0,1,233.7,255.58a6,6,0,0,0-6.4.331l-17.88,12.624-21.493-21.443,12.673-17.81a6,6,0,0,0,.337-6.428,84.871,84.871,0,0,1-7.731-18.756,6,6,0,0,0-4.763-4.29L167,196.13V165.808l21.441-3.668a6,6,0,0,0,4.765-4.291,84.854,84.854,0,0,1,7.658-18.745,6,6,0,0,0-.335-6.425L187.892,114.9l21.5-21.4,17.89,12.7a6,6,0,0,0,6.409.34,84.314,84.314,0,0,1,18.821-7.608,6,6,0,0,0,4.3-4.751L260.487,73H290.95l3.659,21.167a6,6,0,0,0,4.3,4.757,83.646,83.646,0,0,1,18.794,7.433,6,6,0,0,0,6.4-.335L341.93,93.409l21.391,21.409L350.5,132.627a6,6,0,0,0-.356,6.455,82.512,82.512,0,0,1,7.37,18.756,6,6,0,0,0,4.734,4.286L383,165.782Z"/><path d="M314.256,180.968a38.574,38.574,0,1,0-38.574,38.477A38.57,38.57,0,0,0,314.256,180.968Zm-65.148,0a26.574,26.574,0,1,1,26.574,26.477A26.556,26.556,0,0,1,249.108,180.968Z"/><path d="M275.682,111.175A69.736,69.736,0,0,0,210.039,156.9a6.008,6.008,0,0,0,11.251,4.221,57.718,57.718,0,1,1-.49,37.921A5.969,5.969,0,0,0,215.129,195h-.014a5.989,5.989,0,0,0-5.73,7.813,69.829,69.829,0,1,0,66.3-91.638Z"/></svg>