<?xml version="1.0" encoding="UTF-8"?>
<svg id="Layer_2" data-name="Layer 2" xmlns="http://www.w3.org/2000/svg" viewBox="0 0 5000 5000">
  <defs>
    <style>
      .cls-1, .cls-2, .cls-3, .cls-4, .cls-5, .cls-6, .cls-7, .cls-8, .cls-9, .cls-10, .cls-11, .cls-12, .cls-13, .cls-14, .cls-15, .cls-16, .cls-17, .cls-18, .cls-19, .cls-20, .cls-21, .cls-22, .cls-23, .cls-24, .cls-25, .cls-26, .cls-27, .cls-28, .cls-29, .cls-30, .cls-31 {
        fill: none;
      }

      .cls-2 {
        stroke: #9e754e;
        stroke-width: 3.62px;
      }

      .cls-2, .cls-3, .cls-5, .cls-6, .cls-7, .cls-8, .cls-9, .cls-10, .cls-11, .cls-12, .cls-13, .cls-14, .cls-15, .cls-16, .cls-17, .cls-18, .cls-19, .cls-20, .cls-21, .cls-22, .cls-23, .cls-24, .cls-25, .cls-26, .cls-27, .cls-28, .cls-29, .cls-30, .cls-31 {
        stroke-miterlimit: 10;
      }

      .cls-3 {
        stroke: #af7045;
        stroke-width: 3.9px;
      }

      .cls-4 {
        stroke: #d86231;
        stroke-miterlimit: 10;
        stroke-width: 4.59px;
      }

      .cls-5 {
        stroke: #4b9077;
        stroke-width: 2.24px;
      }

      .cls-6 {
        stroke: #2a9b88;
        stroke-width: 1.69px;
      }

      .cls-7 {
        stroke: #7d805e;
        stroke-width: 3.07px;
      }

      .cls-8 {
        stroke: #857d5a;
        stroke-width: 3.21px;
      }

      .cls-9 {
        stroke: #11a495;
        stroke-width: 1.28px;
      }

      .cls-10 {
        stroke: #e95d28;
        stroke-width: 4.86px;
      }

      .cls-11 {
        stroke: #f15a24;
        stroke-width: 5px;
      }

      .cls-12 {
        stroke: #329984;
        stroke-width: 1.83px;
      }

      .cls-13 {
        stroke: #5b8b6f;
        stroke-width: 2.52px;
      }

      .cls-14 {
        stroke: #19a190;
        stroke-width: 1.41px;
      }

      .cls-15 {
        stroke: #8d7b56;
        stroke-width: 3.34px;
      }

      .cls-16 {
        stroke: #a6734a;
        stroke-width: 3.76px;
      }

      .cls-17 {
        stroke: #64886b;
        stroke-width: 2.66px;
      }

      .cls-18 {
        stroke: #b76d41;
        stroke-width: 4.03px;
      }

      .cls-19 {
        stroke: #219e8c;
        stroke-width: 1.55px;
      }

      .cls-20 {
        stroke: #bf6a3d;
        stroke-width: 4.17px;
      }

      .cls-21 {
        stroke: #08a699;
        stroke-width: 1.14px;
      }

      .cls-22 {
        stroke: #00a99d;
      }

      .cls-23 {
        stroke: #748363;
        stroke-width: 2.93px;
      }

      .cls-24 {
        stroke: #c76839;
        stroke-width: 4.31px;
      }

      .cls-25 {
        stroke: #42937c;
        stroke-width: 2.1px;
      }

      .cls-26 {
        stroke: #d06535;
        stroke-width: 4.45px;
      }

      .cls-27 {
        stroke: #967852;
        stroke-width: 3.48px;
      }

      .cls-28 {
        stroke: #e05f2c;
        stroke-width: 4.72px;
      }

      .cls-29 {
        stroke: #538e73;
        stroke-width: 2.38px;
      }

      .cls-30 {
        stroke: #3a9680;
        stroke-width: 1.97px;
      }

      .cls-31 {
        stroke: #6c8667;
        stroke-width: 2.79px;
      }
    </style>
  </defs>
  <g id="Layer_1-2" data-name="Layer 1">
    <rect class="cls-1" y="0" width="5000" height="5000"/>
    <g>
      <g>
        <path class="cls-11" d="m4461,3088.73c-70.51-48.61-535.06-37.73-597.64-153.19-34.14-62.99,18.93-313.91,4.59-599.18-8.15-162.26-17.64-408.55-153.38-439.07-177.67-39.95-234,190.2-261.47,262.33-77.55,203.62-110.99,554.39-261.79,530.42-207.13-32.92-96.93-770.51-295.41-794.92-224.84-27.66-178.64,771.52-389.1,809.83-109.56,19.94-143.75-177.89-161.58-223.84"/>
        <path class="cls-11" d="m539.28,3097.05c70.16-48.95,534.3-40.48,596.17-156.22,33.75-63.14-20.67-313.67-7.94-598.89,7.24-162.23,15.34-408.46,150.76-439.67,177.27-40.85,234.82,188.9,262.67,260.86,78.61,203.13,113.98,553.57,264.5,528.84,206.74-33.98,92.52-770.68,290.66-796.11,224.46-28.81,191.48,816.2,393.04,807.88,111.79-4.61,142.81-178.98,160.36-225"/>
      </g>
      <g>
        <path class="cls-10" d="m4417.65,3075.09c-68.95-47.53-523.2-36.89-584.39-149.8-33.38-61.6,18.51-306.95,4.49-585.9-7.97-158.66-17.25-399.49-149.98-429.34-173.73-39.06-228.81,185.98-255.67,256.52-75.83,199.11-108.53,542.1-255.99,518.67-202.54-32.19-94.78-753.43-288.86-777.3-219.86-27.04-174.68,754.42-380.48,791.88-107.13,19.5-140.57-173.95-158-218.88"/>
        <path class="cls-10" d="m582.84,3083.23c68.61-47.87,522.46-39.59,582.96-152.76,33.01-61.74-20.21-306.72-7.76-585.62,7.08-158.64,15-399.41,147.42-429.93,173.34-39.95,229.62,184.72,256.85,255.08,76.87,198.63,111.45,541.3,258.63,517.12,202.15-33.22,90.47-753.6,284.21-778.46,219.49-28.17,187.24,798.11,384.33,789.98,109.32-4.51,139.64-175.01,156.81-220.01"/>
      </g>
      <g>
        <path class="cls-28" d="m4374.29,3061.45c-67.38-46.45-511.34-36.06-571.15-146.4-32.63-60.2,18.09-299.99,4.39-572.62-7.79-155.07-16.86-390.44-146.58-419.61-169.8-38.18-223.62,181.77-249.88,250.7-74.11,194.59-106.07,529.81-250.19,506.91-197.95-31.46-92.64-736.36-282.32-759.69-214.88-26.43-170.72,737.32-371.86,773.93-104.71,19.06-137.38-170-154.42-213.92"/>
        <path class="cls-28" d="m626.41,3069.4c67.05-46.78,510.62-38.69,569.75-149.3,32.26-60.34-19.75-299.77-7.59-572.35,6.92-155.04,14.66-390.36,144.08-420.18,169.41-39.04,224.41,180.53,251.03,249.3,75.13,194.13,108.93,529.04,252.77,505.4,197.57-32.47,88.42-736.52,277.77-760.82,214.51-27.53,183,780.02,375.62,772.07,106.84-4.41,136.48-171.04,153.25-215.02"/>
      </g>
      <g>
        <path class="cls-4" d="m4330.94,3047.81c-65.82-45.38-499.49-35.22-557.9-143.01-31.87-58.81,17.67-293.03,4.29-559.34-7.61-151.47-16.47-381.38-143.18-409.88-165.86-37.29-218.44,177.55-244.08,244.89-72.39,190.08-103.61,517.53-244.39,495.15-193.36-30.73-90.49-719.28-275.77-742.07-209.9-25.82-166.76,720.22-363.23,755.98-102.28,18.62-134.2-166.06-150.84-208.96"/>
        <path class="cls-4" d="m669.97,3055.57c65.5-45.7,498.78-37.79,556.53-145.83,31.51-58.95-19.29-292.82-7.41-559.07,6.76-151.44,14.32-381.31,140.74-410.44,165.48-38.14,219.21,176.34,245.21,243.52,73.38,189.62,106.4,516.77,246.91,493.67,192.99-31.72,86.37-719.44,271.33-743.18,209.54-26.89,178.75,761.93,366.91,754.17,104.36-4.31,133.31-167.08,149.7-210.04"/>
      </g>
      <g>
        <path class="cls-26" d="m4287.59,3034.16c-64.26-44.3-487.63-34.38-544.66-139.61-31.11-57.41,17.25-286.08,4.18-546.06-7.43-147.87-16.08-372.33-139.78-400.14-161.92-36.41-213.25,173.34-238.29,239.07-70.67,185.57-101.15,505.24-238.59,483.4-188.77-30-88.34-702.2-269.22-724.45-204.91-25.2-162.8,703.12-354.61,738.04-99.85,18.17-131.01-162.12-147.26-203.99"/>
        <path class="cls-26" d="m713.53,3041.75c63.94-44.61,486.94-36.89,543.32-142.37,30.76-57.55-18.83-285.86-7.24-545.8,6.6-147.85,13.98-372.25,137.4-400.7,161.55-37.23,214,172.16,239.38,237.74,71.64,185.12,103.87,504.5,241.05,481.95,188.41-30.96,84.32-702.36,264.89-725.53,204.56-26.25,174.51,743.84,358.2,736.26,101.88-4.2,130.15-163.11,146.15-205.05"/>
      </g>
      <g>
        <path class="cls-24" d="m4244.23,3020.52c-62.69-43.22-475.77-33.55-531.41-136.22-30.36-56.01,16.83-279.12,4.08-532.78-7.25-144.28-15.69-363.28-136.38-390.41-157.98-35.52-208.07,169.12-232.49,233.26-68.96,181.06-98.69,492.95-232.78,471.64-184.18-29.27-86.19-685.13-262.67-706.83-199.93-24.59-158.84,686.02-345.99,720.09-97.42,17.73-127.82-158.18-143.68-199.03"/>
        <path class="cls-24" d="m757.09,3027.92c62.39-43.53,475.1-36,530.11-138.91,30.01-56.15-18.38-278.91-7.06-532.53,6.44-144.25,13.64-363.2,134.06-390.95,157.62-36.32,208.8,167.97,233.56,231.96,69.9,180.62,101.35,492.23,235.19,470.23,183.83-30.21,82.27-685.28,258.45-707.89,199.59-25.62,170.26,725.75,349.49,718.36,99.41-4.1,126.98-159.14,142.59-200.06"/>
      </g>
      <g>
        <path class="cls-20" d="m4200.88,3006.88c-61.13-42.14-463.91-32.71-518.17-132.82-29.6-54.62,16.41-272.16,3.98-519.5-7.07-140.68-15.3-354.22-132.98-380.68-154.05-34.64-202.88,164.91-226.7,227.45-67.24,176.54-96.23,480.67-226.98,459.89-179.59-28.54-84.04-668.05-256.13-689.22-194.95-23.98-154.89,668.93-337.36,702.14-94.99,17.29-124.64-154.23-140.1-194.07"/>
        <path class="cls-20" d="m800.65,3014.09c60.83-42.44,463.25-35.1,516.9-135.45,29.27-54.75-17.92-271.96-6.88-519.26,6.28-140.66,13.3-354.15,130.72-381.21,153.69-35.42,203.6,163.78,227.74,226.17,68.16,176.12,98.82,479.96,229.33,458.51,179.24-29.46,80.22-668.2,252.01-690.24,194.61-24.98,166.02,707.67,340.78,700.45,96.93-4,123.82-155.18,139.04-195.08"/>
      </g>
      <g>
        <path class="cls-18" d="m4157.53,2993.24c-59.57-41.07-452.05-31.88-504.92-129.43-28.84-53.22,15.99-265.21,3.88-506.22-6.89-137.09-14.91-345.17-129.58-370.95-150.11-33.75-197.69,160.69-220.9,221.63-65.52,172.03-93.77,468.38-221.18,448.13-175-27.81-81.89-650.97-249.58-671.6-189.96-23.37-150.93,651.83-328.74,684.19-92.57,16.85-121.45-150.29-136.52-189.11"/>
        <path class="cls-18" d="m844.22,3000.27c59.28-41.36,451.41-34.2,503.68-131.99,28.52-53.35-17.46-265.01-6.71-505.98,6.12-137.06,12.96-345.09,127.37-371.46,149.77-34.51,198.39,159.6,221.92,220.39,66.41,171.62,96.3,467.69,223.46,446.79,174.66-28.71,78.17-651.12,245.56-672.6,189.64-24.34,161.78,689.58,332.07,682.55,94.45-3.9,120.65-151.21,135.48-190.09"/>
      </g>
      <g>
        <path class="cls-3" d="m4114.17,2979.59c-58.01-39.99-440.19-31.04-491.68-126.03-28.09-51.83,15.57-258.25,3.78-492.94-6.71-133.49-14.52-336.11-126.18-361.22-146.17-32.87-192.51,156.48-215.11,215.82-63.8,167.52-91.31,456.09-215.38,436.38-170.41-27.08-79.75-633.9-243.03-653.98-184.98-22.75-146.97,634.73-320.11,666.24-90.14,16.41-118.27-146.35-132.93-184.15"/>
        <path class="cls-3" d="m887.78,2986.44c57.72-40.27,439.57-33.31,490.47-128.52,27.77-51.95-17-258.06-6.53-492.71,5.95-133.47,12.62-336.04,124.03-361.72,145.84-33.61,193.19,155.41,216.1,214.61,64.67,167.11,93.77,455.42,217.6,435.07,170.08-27.95,76.11-634.04,239.12-654.96,184.66-23.7,157.53,671.49,323.36,664.64,91.97-3.8,117.49-147.24,131.93-185.1"/>
      </g>
      <g>
        <path class="cls-16" d="m4070.82,2965.95c-56.44-38.91-428.34-30.2-478.43-122.64-27.33-50.43,15.15-251.29,3.68-479.66-6.53-129.89-14.12-327.06-122.79-351.49-142.23-31.98-187.32,152.26-209.31,210.01-62.08,163-88.85,443.81-209.58,424.62-165.82-26.35-77.6-616.82-236.49-636.36-180-22.14-143.01,617.63-311.49,648.3-87.71,15.97-115.08-142.41-129.35-179.19"/>
        <path class="cls-16" d="m931.34,2972.61c56.17-39.19,427.73-32.41,477.26-125.06,27.02-50.55-16.54-251.11-6.36-479.44,5.79-129.87,12.28-326.99,120.69-351.97,141.91-32.7,187.98,151.22,210.28,208.83,62.93,162.61,91.24,443.16,211.74,423.35,165.5-27.2,74.06-616.96,232.68-637.31,179.69-23.06,153.29,653.4,314.65,646.74,89.5-3.69,114.32-143.28,128.38-180.12"/>
      </g>
      <g>
        <path class="cls-2" d="m4027.47,2952.31c-54.88-37.84-416.48-29.37-465.19-119.24-26.57-49.03,14.73-244.34,3.57-466.38-6.35-126.3-13.73-318-119.39-341.76-138.29-31.1-182.14,148.05-203.52,204.19-60.36,158.49-86.39,431.52-203.77,412.87-161.23-25.62-75.45-599.74-229.94-618.75-175.01-21.53-139.05,600.53-302.87,630.35-85.28,15.52-111.89-138.46-125.77-174.23"/>
        <path class="cls-2" d="m974.9,2958.79c54.61-38.1,415.89-31.51,464.04-121.6,26.27-49.15-16.09-244.15-6.18-466.16,5.63-126.28,11.94-317.94,117.35-342.23,137.98-31.8,182.78,147.04,204.46,203.05,61.19,158.11,88.72,430.89,205.88,411.63,160.92-26.45,72.01-599.87,226.24-619.67,174.71-22.42,149.05,635.31,305.93,628.83,87.02-3.59,111.16-139.31,124.82-175.13"/>
      </g>
      <g>
        <path class="cls-27" d="m3984.11,2938.67c-53.32-36.76-404.62-28.53-451.94-115.85-25.82-47.64,14.31-237.38,3.47-453.1-6.17-122.7-13.34-308.95-115.99-332.03-134.36-30.21-176.95,143.83-197.72,198.38-58.64,153.98-83.93,419.23-197.97,401.11-156.64-24.89-73.3-582.67-223.39-601.13-170.03-20.91-135.09,583.43-294.24,612.4-82.85,15.08-108.71-134.52-122.19-169.27"/>
        <path class="cls-27" d="m1018.46,2944.96c53.06-37.02,404.05-30.61,450.83-118.14,25.52-47.75-15.63-237.2-6-452.89,5.47-122.68,11.6-308.88,114.01-332.49,134.05-30.89,177.58,142.85,198.63,197.27,59.45,153.61,86.19,418.62,200.02,399.91,156.34-25.69,69.96-582.79,219.8-602.02,169.74-21.78,144.8,617.22,297.22,610.93,84.54-3.49,107.99-135.34,121.27-170.15"/>
      </g>
      <g>
        <path class="cls-15" d="m3940.76,2925.02c-51.76-35.68-392.76-27.7-438.7-112.45-25.06-46.24,13.89-230.42,3.37-439.82-5.99-119.11-12.95-299.89-112.59-322.3-130.42-29.32-171.76,139.61-191.93,192.56-56.92,149.47-81.47,406.95-192.17,389.35-152.04-24.16-71.15-565.59-216.84-583.51-165.05-20.3-131.13,566.33-285.62,594.45-80.42,14.64-105.52-130.58-118.61-164.31"/>
        <path class="cls-15" d="m1062.03,2931.13c51.5-35.93,392.2-29.72,437.62-114.67,24.78-46.35-15.17-230.25-5.83-439.62,5.31-119.09,11.26-299.83,110.67-322.74,130.12-29.99,172.37,138.66,192.81,191.49,57.7,149.11,83.67,406.35,194.15,388.19,151.75-24.94,67.91-565.71,213.36-584.38,164.77-21.15,140.56,599.13,288.51,593.03,82.06-3.39,104.83-131.38,117.71-165.16"/>
      </g>
      <g>
        <path class="cls-8" d="m3897.41,2911.38c-50.19-34.6-380.9-26.86-425.45-109.06-24.3-44.84,13.47-223.46,3.27-426.55-5.81-115.51-12.56-290.84-109.19-312.57-126.48-28.44-166.58,135.4-186.14,186.75-55.21,144.95-79.01,394.66-186.37,377.6-147.45-23.43-69-548.51-210.3-565.89-160.06-19.69-127.17,549.23-277,576.51-78,14.2-102.34-126.64-115.03-159.35"/>
        <path class="cls-8" d="m1105.59,2917.3c49.95-34.85,380.36-28.82,424.41-111.21,24.03-44.95-14.71-223.3-5.65-426.34,5.15-115.49,10.92-290.78,107.33-313,126.19-29.08,167.17,134.48,186.99,185.71,55.96,144.61,81.14,394.08,188.29,376.47,147.17-24.19,65.86-548.63,206.91-566.74,159.79-20.51,136.31,581.04,279.8,575.12,79.58-3.28,101.66-127.41,114.16-160.17"/>
      </g>
      <g>
        <path class="cls-7" d="m3854.05,2897.74c-48.63-33.53-369.04-26.02-412.21-105.66-23.55-43.45,13.05-216.51,3.17-413.27-5.62-111.91-12.17-281.79-105.79-302.84-122.54-27.55-161.39,131.18-180.34,180.94-53.49,140.44-76.55,382.37-180.57,365.84-142.86-22.7-66.86-531.44-203.75-548.28-155.08-19.07-123.21,532.13-268.37,558.56-75.57,13.76-99.15-122.69-111.45-154.39"/>
        <path class="cls-7" d="m1149.15,2903.48c48.39-33.76,368.52-27.92,411.19-107.75,23.28-43.55-14.25-216.35-5.48-413.07,4.99-111.89,10.58-281.73,103.99-303.25,122.26-28.18,161.96,130.29,181.17,179.92,54.22,140.1,78.61,381.81,182.43,364.75,142.59-23.43,63.81-531.55,200.47-549.09,154.82-19.87,132.07,562.95,271.09,557.22,77.11-3.18,98.5-123.44,110.61-155.19"/>
      </g>
      <g>
        <path class="cls-23" d="m3810.7,2884.1c-47.07-32.45-357.19-25.19-398.96-102.27-22.79-42.05,12.64-209.55,3.06-399.99-5.44-108.32-11.78-272.73-102.39-293.1-118.61-26.67-156.21,126.97-174.55,175.12-51.77,135.93-74.09,370.09-174.76,354.09-138.27-21.97-64.71-514.36-197.2-530.66-150.1-18.46-119.25,515.04-259.75,540.61-73.14,13.31-95.96-118.75-107.87-149.43"/>
        <path class="cls-23" d="m1192.71,2889.65c46.84-32.68,356.68-27.03,397.98-104.29,22.53-42.15-13.8-209.4-5.3-399.8,4.83-108.3,10.24-272.67,100.64-293.51,118.34-27.27,156.76,126.11,175.35,174.14,52.48,135.6,76.09,369.54,176.57,353.03,138.01-22.68,61.76-514.47,194.03-531.45,149.84-19.23,127.83,544.86,262.38,539.31,74.63-3.08,95.33-119.48,107.05-150.2"/>
      </g>
      <g>
        <path class="cls-31" d="m3767.35,2870.45c-45.51-31.37-345.33-24.35-385.72-98.87-22.03-40.66,12.22-202.59,2.96-386.71-5.26-104.72-11.39-263.68-98.99-283.37-114.67-25.78-151.02,122.75-168.75,169.31-50.05,131.42-71.63,357.8-168.96,342.33-133.68-21.25-62.56-497.29-190.66-513.04-145.11-17.85-115.29,497.94-251.13,522.66-70.71,12.87-92.78-114.81-104.29-144.46"/>
        <path class="cls-31" d="m1236.27,2875.82c45.28-31.59,344.84-26.13,384.77-100.83,21.78-40.75-13.34-202.44-5.12-386.53,4.67-104.7,9.9-263.62,97.3-283.76,114.41-26.37,151.55,121.92,169.53,168.36,50.73,131.1,73.56,357.28,170.71,341.31,133.43-21.93,59.71-497.39,187.59-513.81,144.87-18.59,123.58,526.77,253.67,521.41,72.15-2.98,92.17-115.51,103.5-145.21"/>
      </g>
      <g>
        <path class="cls-17" d="m3723.99,2856.81c-43.94-30.29-333.47-23.51-372.47-95.48-21.28-39.26,11.8-195.64,2.86-373.43-5.08-101.13-11-254.62-95.59-273.64-110.73-24.9-145.83,118.54-162.96,163.49-48.33,126.9-69.17,345.51-163.16,330.58-129.09-20.52-60.41-480.21-184.11-495.42-140.13-17.24-111.34,480.84-242.5,504.71-68.28,12.43-89.59-110.87-100.7-139.5"/>
        <path class="cls-17" d="m1279.83,2862c43.73-30.51,333-25.23,371.56-97.36,21.04-39.35-12.88-195.49-4.95-373.25,4.51-101.11,9.56-254.57,93.96-274.02,110.48-25.46,146.35,117.73,163.71,162.58,48.99,126.6,71.04,345.01,164.84,329.59,128.85-21.18,57.66-480.31,181.15-496.16,139.89-17.95,119.34,508.69,244.96,503.5,69.67-2.88,89-111.54,99.94-140.23"/>
      </g>
      <g>
        <path class="cls-13" d="m3680.64,2843.17c-42.38-29.22-321.61-22.68-359.23-92.08-20.52-37.86,11.38-188.68,2.76-360.15-4.9-97.53-10.61-245.57-92.19-263.91-106.79-24.01-140.65,114.32-157.16,157.68-46.61,122.39-66.71,333.23-157.36,318.82-124.5-19.79-58.26-463.13-177.56-477.81-135.15-16.62-107.38,463.74-233.88,486.77-65.86,11.99-86.41-106.92-97.12-134.54"/>
        <path class="cls-13" d="m1323.4,2848.17c42.17-29.42,321.16-24.33,358.34-93.9,20.29-37.95-12.42-188.54-4.77-359.98,4.35-97.51,9.22-245.52,90.62-264.28,106.55-24.55,141.15,113.55,157.88,156.8,47.25,122.1,68.51,332.74,158.98,317.87,124.26-20.42,55.61-463.23,174.71-478.52,134.92-17.32,115.1,490.6,236.25,485.6,67.2-2.77,85.84-107.58,96.39-135.24"/>
      </g>
      <g>
        <path class="cls-29" d="m3637.29,2829.53c-40.82-28.14-309.75-21.84-345.98-88.69-19.76-36.47,10.96-181.72,2.66-346.87-4.72-93.93-10.21-236.51-88.79-254.18-102.86-23.13-135.46,110.11-151.37,151.87-44.89,117.88-64.25,320.94-151.56,307.07-119.91-19.06-56.11-446.06-171.02-460.19-130.17-16.01-103.42,446.64-225.26,468.82-63.43,11.55-83.22-102.98-93.54-129.58"/>
        <path class="cls-29" d="m1366.96,2834.34c40.62-28.34,309.31-23.44,345.13-90.44,19.54-36.55-11.96-181.59-4.6-346.71,4.19-93.92,8.88-236.46,87.28-254.53,102.62-23.65,135.94,109.36,152.06,151.02,45.51,117.59,65.98,320.47,153.12,306.15,119.68-19.67,53.56-446.15,168.26-460.87,129.94-16.68,110.85,472.51,227.54,467.69,64.72-2.67,82.67-103.61,92.84-130.25"/>
      </g>
      <g>
        <path class="cls-5" d="m3593.93,2815.88c-39.26-27.06-297.89-21.01-332.73-85.29-19.01-35.07,10.54-174.77,2.56-333.59-4.54-90.34-9.82-227.46-85.39-244.45-98.92-22.24-130.28,105.89-145.57,146.05-43.18,113.36-61.79,308.65-145.75,295.31-115.32-18.33-53.97-428.98-164.47-442.57-125.18-15.4-99.46,429.54-216.63,450.87-61,11.1-80.03-99.04-89.96-124.62"/>
        <path class="cls-5" d="m1410.52,2820.52c39.06-27.25,297.47-22.54,331.92-86.98,18.79-35.16-11.51-174.64-4.42-333.43,4.03-90.32,8.54-227.41,83.94-244.79,98.69-22.74,130.74,105.17,146.24,145.24,43.77,113.09,63.46,308.2,147.26,294.43,115.1-18.92,51.51-429.07,161.82-443.23,124.97-16.04,106.61,454.42,218.83,449.79,62.24-2.57,79.51-99.64,89.28-125.27"/>
      </g>
      <g>
        <path class="cls-25" d="m3550.58,2802.24c-37.69-25.99-286.04-20.17-319.49-81.9-18.25-33.68,10.12-167.81,2.45-320.31-4.36-86.74-9.43-218.4-81.99-234.72-94.98-21.36-125.09,101.68-139.78,140.24-41.46,108.85-59.33,296.37-139.95,283.56-110.73-17.6-51.82-411.9-157.92-424.95-120.2-14.78-95.5,412.44-208.01,432.92-58.57,10.66-76.85-95.1-86.38-119.66"/>
        <path class="cls-25" d="m1454.08,2806.69c37.51-26.17,285.63-21.64,318.71-83.51,18.04-33.76-11.05-167.68-4.25-320.16,3.87-86.73,8.2-218.36,80.6-235.04,94.76-21.84,125.53,100.99,140.42,139.45,42.02,108.59,60.93,295.93,141.4,282.71,110.52-18.16,49.46-411.99,155.38-425.59,119.99-15.4,102.36,436.33,210.12,431.88,59.76-2.47,76.34-95.68,85.73-120.28"/>
      </g>
      <g>
        <path class="cls-30" d="m3507.22,2788.6c-36.13-24.91-274.18-19.33-306.24-78.5-17.49-32.28,9.7-160.85,2.35-307.03-4.18-83.15-9.04-209.35-78.59-224.99-91.04-20.47-119.91,97.46-133.98,134.42-39.74,104.34-56.87,284.08-134.15,271.8-106.14-16.87-49.67-394.83-151.37-407.34-115.22-14.17-91.54,395.34-199.39,414.97-56.14,10.22-73.66-91.15-82.8-114.7"/>
        <path class="cls-30" d="m1497.64,2792.86c35.95-25.08,273.79-20.74,305.49-80.05,17.3-32.36-10.59-160.73-4.07-306.89,3.71-83.13,7.86-209.31,77.25-225.3,90.84-20.93,120.33,96.8,134.6,133.67,40.28,104.09,58.41,283.66,135.53,270.99,105.94-17.41,47.41-394.91,148.94-407.94,115.02-14.76,98.12,418.24,201.4,413.98,57.29-2.36,73.18-91.71,82.17-115.29"/>
      </g>
      <g>
        <path class="cls-12" d="m3463.87,2774.96c-34.57-23.83-262.32-18.5-293-75.1-16.74-30.88,9.28-153.9,2.25-293.75-4-79.55-8.65-200.3-75.2-215.26-87.11-19.59-114.72,93.25-128.19,128.61-38.02,99.83-54.41,271.79-128.35,260.04-101.55-16.14-47.52-377.75-144.83-389.72-110.23-13.56-87.58,378.25-190.76,397.03-53.71,9.78-70.48-87.21-79.22-109.74"/>
        <path class="cls-12" d="m1541.21,2779.04c34.4-24,261.95-19.85,292.28-76.59,16.55-30.96-10.13-153.78-3.89-293.61,3.55-79.54,7.52-200.25,73.91-215.55,86.91-20.03,115.12,92.61,128.78,127.89,38.54,99.59,55.88,271.4,129.67,259.27,101.35-16.66,45.36-377.83,142.5-390.3,110.04-14.12,93.88,400.15,192.69,396.07,54.81-2.26,70.01-87.74,78.62-110.31"/>
      </g>
      <g>
        <path class="cls-6" d="m3420.52,2761.31c-33-22.75-250.46-17.66-279.75-71.71-15.98-29.49,8.86-146.94,2.15-280.47-3.82-75.95-8.26-191.24-71.8-205.53-83.17-18.7-109.53,89.03-122.39,122.8-36.3,95.31-51.95,259.51-122.55,248.29-96.96-15.41-45.37-360.67-138.28-372.1-105.25-12.95-83.62,361.15-182.14,379.08-51.29,9.34-67.29-83.27-75.64-104.78"/>
        <path class="cls-6" d="m1584.77,2765.21c32.84-22.91,250.11-18.95,279.07-73.13,15.8-29.56-9.67-146.83-3.72-280.34,3.39-75.94,7.18-191.2,70.57-205.81,82.98-19.12,109.92,88.43,122.96,122.11,36.8,95.08,53.35,259.13,123.81,247.55,96.77-15.9,43.31-360.75,136.06-372.66,105.07-13.48,89.63,382.06,183.98,378.17,52.33-2.16,66.85-83.78,75.07-105.32"/>
      </g>
      <g>
        <path class="cls-19" d="m3377.16,2747.67c-31.44-21.68-238.6-16.82-266.51-68.31-15.22-28.09,8.44-139.98,2.05-267.19-3.64-72.36-7.87-182.19-68.4-195.8-79.23-17.81-104.35,84.82-116.6,116.98-34.58,90.8-49.49,247.22-116.74,236.53-92.37-14.68-43.23-343.6-131.73-354.48-100.27-12.33-79.66,344.05-173.52,361.13-48.86,8.89-64.1-79.33-72.06-99.82"/>
        <path class="cls-19" d="m1628.33,2751.38c31.29-21.83,238.27-18.05,265.85-69.66,15.05-28.16-9.22-139.88-3.54-267.07,3.23-72.34,6.84-182.15,67.23-196.07,79.05-18.22,104.72,84.24,117.13,116.33,35.05,90.58,50.83,246.86,117.95,235.83,92.19-15.15,41.26-343.67,129.61-355.01,100.09-12.85,85.39,363.97,175.27,360.26,49.85-2.06,63.68-79.81,71.51-100.33"/>
      </g>
      <g>
        <path class="cls-14" d="m3333.81,2734.03c-29.88-20.6-226.74-15.99-253.26-64.92-14.47-26.7,8.02-133.02,1.95-253.92-3.46-68.76-7.48-173.13-65-186.07-75.29-16.93-99.16,80.6-110.8,111.17-32.86,86.29-47.03,234.93-110.94,224.78-87.78-13.95-41.08-326.52-125.19-336.87-95.28-11.72-75.7,326.95-164.89,343.18-46.43,8.45-60.92-75.38-68.47-94.86"/>
        <path class="cls-14" d="m1671.89,2737.55c29.73-20.74,226.42-17.16,252.64-66.2,14.3-26.76-8.76-132.93-3.37-253.8,3.07-68.75,6.5-173.1,63.89-186.32,75.12-17.31,99.51,80.05,111.31,110.55,33.31,86.08,48.3,234.59,112.09,224.11,87.61-14.4,39.21-326.59,123.17-337.37,95.12-12.21,81.15,345.88,166.56,342.36,47.38-1.96,60.52-75.85,67.96-95.35"/>
      </g>
      <g>
        <path class="cls-9" d="m3290.46,2720.39c-28.32-19.52-214.89-15.15-240.02-61.52-13.71-25.3,7.6-126.07,1.84-240.64-3.28-65.16-7.09-164.08-61.6-176.33-71.35-16.04-93.98,76.39-105.01,105.35-31.14,81.78-44.57,222.65-105.14,213.02-83.19-13.22-38.93-309.44-118.64-319.25-90.3-11.11-71.74,309.85-156.27,325.24-44,8.01-57.73-71.44-64.89-89.9"/>
        <path class="cls-9" d="m1715.45,2723.73c28.18-19.66,214.58-16.26,239.43-62.74,13.56-25.36-8.3-125.97-3.19-240.52,2.91-65.15,6.16-164.04,60.55-176.58,71.19-16.41,94.31,75.87,105.49,104.77,31.57,81.58,45.78,222.32,106.22,212.39,83.03-13.65,37.16-309.51,116.73-319.72,90.15-11.57,76.9,327.79,157.85,324.45,44.9-1.85,57.35-71.88,64.4-90.36"/>
      </g>
      <g>
        <path class="cls-21" d="m3247.1,2706.74c-26.75-18.44-203.03-14.32-226.77-58.13-12.95-23.9,7.18-119.11,1.74-227.36-3.09-61.57-6.69-155.02-58.2-166.6-67.42-15.16-88.79,72.17-99.21,99.54-29.43,77.26-42.11,210.36-99.34,201.27-78.6-12.49-36.78-292.37-112.09-301.63-85.32-10.49-67.78,292.75-147.64,307.29-41.57,7.57-54.55-67.5-61.31-84.93"/>
        <path class="cls-21" d="m1759.02,2709.9c26.62-18.57,202.74-15.36,226.22-59.28,12.81-23.96-7.84-119.02-3.01-227.25,2.75-61.56,5.82-154.99,57.21-166.83,67.26-15.5,89.1,71.68,99.67,98.98,29.83,77.08,43.25,210.05,100.36,200.67,78.45-12.89,35.11-292.43,110.29-302.08,85.17-10.93,72.66,309.71,149.14,306.55,42.42-1.75,54.19-67.91,60.85-85.37"/>
      </g>
      <g>
        <path class="cls-22" d="m3203.75,2693.1c-25.19-17.37-191.17-13.48-213.53-54.73-12.2-22.51,6.76-112.15,1.64-214.08-2.91-57.97-6.3-145.97-54.8-156.87-63.48-14.27-83.6,67.95-93.42,93.73-27.71,72.75-39.65,198.07-93.54,189.51-74.01-11.76-34.63-275.29-105.55-284.01-80.33-9.88-63.83,275.65-139.02,289.34-39.15,7.13-51.36-63.56-57.73-79.97"/>
        <path class="cls-22" d="m1802.58,2696.07c25.07-17.49,190.9-14.46,213-55.82,12.06-22.56-7.38-112.07-2.84-213.98,2.59-57.96,5.48-145.94,53.87-157.09,63.33-14.6,83.9,67.49,93.85,93.2,28.09,72.58,40.72,197.78,94.5,188.95,73.86-12.14,33.06-275.35,103.85-284.44,80.2-10.29,68.41,291.62,140.43,288.64,39.94-1.65,51.02-63.95,57.3-80.39"/>
      </g>
    </g>
  </g>
</svg>