<?xml version="1.0" encoding="UTF-8"?>
<svg id="Layer_2" data-name="Layer 2" xmlns="http://www.w3.org/2000/svg" viewBox="0 0 5000 5000">
  <defs>
    <style>
      .cls-1, .cls-2, .cls-3, .cls-4, .cls-5, .cls-6, .cls-7, .cls-8, .cls-9, .cls-10, .cls-11, .cls-12, .cls-13, .cls-14, .cls-15, .cls-16, .cls-17, .cls-18, .cls-19, .cls-20, .cls-21, .cls-22, .cls-23, .cls-24, .cls-25 {
        fill: none;
      }

      .cls-2 {
        stroke: #32abdb;
        stroke-miterlimit: 10;
        stroke-width: 3.36px;
      }

      .cls-3 {
        stroke: #44accd;
        stroke-width: 3.37px;
      }

      .cls-3, .cls-4, .cls-5, .cls-6, .cls-7, .cls-8, .cls-9, .cls-10, .cls-11, .cls-12, .cls-13, .cls-14, .cls-15, .cls-16, .cls-17, .cls-18, .cls-19, .cls-20, .cls-21, .cls-22, .cls-23, .cls-24, .cls-25 {
        stroke-miterlimit: 10;
      }

      .cls-4 {
        stroke: #67adb1;
        stroke-width: 3.38px;
      }

      .cls-5 {
        stroke: #82ad9c;
        stroke-width: 3.4px;
      }

      .cls-6 {
        stroke: #8bad95;
        stroke-width: 3.4px;
      }

      .cls-7 {
        stroke: #79ada3;
        stroke-width: 3.39px;
      }

      .cls-8 {
        stroke: #3babd4;
        stroke-width: 3.37px;
      }

      .cls-9 {
        stroke: #4cacc6;
        stroke-width: 3.37px;
      }

      .cls-10 {
        stroke: #55acbf;
        stroke-width: 3.38px;
      }

      .cls-11 {
        stroke: #29abe2;
        stroke-width: 3.36px;
      }

      .cls-12 {
        stroke: #a5ae7f;
        stroke-width: 3.41px;
      }

      .cls-13 {
        stroke: #e3b04e;
        stroke-width: 3.43px;
      }

      .cls-14 {
        stroke: #b7ae71;
        stroke-width: 3.42px;
      }

      .cls-15 {
        stroke: #daaf55;
        stroke-width: 3.43px;
      }

      .cls-16 {
        stroke: #ecb047;
        stroke-width: 3.44px;
      }

      .cls-17 {
        stroke: #c0af6a;
        stroke-width: 3.42px;
      }

      .cls-18 {
        stroke: #9cae86;
        stroke-width: 3.41px;
      }

      .cls-19 {
        stroke: #93ae8d;
        stroke-width: 3.4px;
      }

      .cls-20 {
        stroke: #aeae78;
        stroke-width: 3.41px;
      }

      .cls-21 {
        stroke: #5eacb8;
        stroke-width: 3.38px;
      }

      .cls-22 {
        stroke: #c9af63;
        stroke-width: 3.42px;
      }

      .cls-23 {
        stroke: #70adaa;
        stroke-width: 3.39px;
      }

      .cls-24 {
        stroke: #d2af5c;
        stroke-width: 3.43px;
      }

      .cls-25 {
        stroke: #f5b040;
        stroke-width: 3.44px;
      }
    </style>
  </defs>
  <g id="Layer_1-2" data-name="Layer 1">
    <rect class="cls-1" y="0" width="5000" height="5000"/>
    <g>
      <path class="cls-11" d="m4276.89,3058.41c-480.79,887.61-1590.09,1217.4-2477.7,736.61-710.09-384.63-973.92-1272.07-589.29-1982.16,307.7-568.07,1017.66-779.14,1585.73-471.43,454.46,246.16,623.31,814.13,377.15,1268.58-196.93,363.56-651.3,498.65-1014.87,301.72-290.85-157.54-398.92-521.04-241.37-811.89,126.04-232.68,416.83-319.13,649.51-193.1,186.15,100.83,255.31,333.47,154.48,519.61-80.66,148.92-266.77,204.25-415.69,123.58-119.13-64.53-163.4-213.42-98.87-332.55"/>
      <path class="cls-2" d="m4232.4,3029.31c-463.62,867.09-1542.37,1194.16-2409.46,730.53-693.67-370.9-955.33-1233.9-584.43-1927.57,296.72-554.93,987.12-764.26,1542.05-467.54,443.95,237.37,611.41,789.7,374.03,1233.64-189.9,355.16-631.76,489.13-986.91,299.23-284.13-151.92-391.3-505.41-239.38-789.53,121.54-227.3,404.32-313.04,631.63-191.51,181.84,97.23,250.43,323.46,153.2,505.3-77.78,145.47-258.77,200.35-404.24,122.56-116.38-62.23-160.28-207.01-98.05-323.39"/>
      <path class="cls-8" d="m4187.91,3000.21c-446.46,846.56-1494.66,1170.91-2341.22,724.45-677.25-357.17-936.73-1195.72-579.56-1872.97,285.73-541.8,956.58-749.38,1498.38-463.65,433.44,228.59,599.51,765.26,370.92,1198.7-182.87,346.75-612.21,479.6-958.96,296.74-277.4-146.29-383.68-489.77-237.39-767.17,117.04-221.92,391.81-306.95,613.74-189.91,177.54,93.63,245.56,313.45,151.93,490.99-74.9,142.03-250.76,196.45-392.79,121.54-113.62-59.92-157.16-200.61-97.23-314.23"/>
      <path class="cls-3" d="m4143.42,2971.1c-429.29,826.04-1446.94,1147.66-2272.97,718.37-660.83-343.43-918.13-1157.55-574.7-1818.38,274.75-528.66,926.04-734.51,1454.7-459.76,422.93,219.8,587.6,740.83,367.81,1163.76-175.84,338.35-592.67,470.08-931.01,294.25-270.68-140.67-376.07-474.13-235.4-744.81,112.54-216.54,379.31-300.85,595.85-188.32,173.23,90.03,240.68,303.44,150.65,476.68-72.02,138.59-242.76,192.55-381.34,120.52-110.87-57.62-154.04-194.2-96.42-305.07"/>
      <path class="cls-9" d="m4098.92,2942c-412.13,805.51-1399.22,1124.42-2204.73,712.29-644.41-329.7-899.53-1119.37-569.83-1763.79,263.76-515.53,895.5-719.63,1411.03-455.87,412.42,211.01,575.7,716.4,364.69,1128.82-168.81,329.94-573.12,460.56-903.06,291.76-263.95-135.05-368.45-458.5-233.4-722.45,108.04-211.16,366.8-294.76,577.96-186.72,168.93,86.43,235.81,293.44,149.38,462.37-69.14,135.14-234.75,188.65-369.89,119.5-108.11-55.31-150.92-187.8-95.6-295.91"/>
      <path class="cls-10" d="m4054.43,2912.9c-394.96,784.99-1351.5,1101.17-2136.49,706.21-627.99-315.97-880.94-1081.2-564.97-1709.19,252.77-502.39,864.96-704.75,1367.35-451.98,401.92,202.22,563.8,691.97,361.58,1093.88-161.78,321.53-553.57,451.04-875.11,289.26-257.23-129.42-360.83-442.86-231.41-700.08,103.54-205.78,354.29-288.67,560.07-185.13,164.62,82.83,230.93,283.43,148.1,448.05-66.26,131.7-226.74,184.75-358.44,118.48-105.36-53.01-147.8-181.4-94.79-286.75"/>
      <path class="cls-21" d="m4009.94,2883.8c-377.79,764.47-1303.78,1077.93-2068.25,700.13-611.57-302.24-862.34-1043.02-560.11-1654.6,241.79-489.26,834.42-689.87,1323.68-448.08,391.41,193.43,551.9,667.54,358.47,1058.94-154.74,313.13-534.03,441.52-847.15,286.77-250.5-123.8-353.22-427.22-229.42-677.72,99.04-200.4,341.78-282.57,542.18-183.54,160.32,79.23,226.06,273.42,146.83,433.74-63.38,128.26-218.74,180.85-346.99,117.46-102.6-50.71-144.68-174.99-93.97-277.6"/>
      <path class="cls-4" d="m3965.45,2854.7c-360.63,743.94-1256.06,1054.68-2000,694.05-595.15-288.5-843.74-1004.85-555.24-1600,230.8-476.12,803.88-675,1280-444.19,380.9,184.64,540,643.1,355.35,1024-147.71,304.72-514.48,432-819.2,284.28-243.78-118.17-345.6-411.59-227.43-655.36,94.54-195.02,329.27-276.48,524.29-181.94,156.02,75.63,221.18,263.41,145.55,419.43-60.5,124.81-210.73,176.95-335.54,116.44-99.85-48.4-141.56-168.59-93.15-268.44"/>
      <path class="cls-23" d="m3920.96,2825.6c-343.46,723.42-1208.34,1031.43-1931.76,687.97-578.74-274.77-825.15-966.67-550.38-1545.41,219.82-462.99,773.34-660.12,1236.33-440.3,370.39,175.85,528.09,618.67,352.24,989.06-140.68,296.31-494.94,422.48-791.25,281.79-237.05-112.55-337.98-395.95-225.43-633,90.04-189.64,316.76-270.38,506.4-180.35,151.71,72.03,216.31,253.41,144.28,405.12-57.62,121.37-202.73,173.05-324.1,115.42-97.1-46.1-138.44-162.18-92.34-259.28"/>
      <path class="cls-7" d="m3876.47,2796.5c-326.3,702.9-1160.62,1008.19-1863.52,681.89-562.32-261.04-806.55-928.5-545.51-1490.81,208.83-449.85,742.8-645.24,1192.65-436.41,359.88,167.06,516.19,594.24,349.13,954.12-133.65,287.91-475.39,412.95-763.3,279.3-230.32-106.92-330.36-380.31-223.44-610.64,85.54-184.26,304.25-264.29,488.51-178.75,147.41,68.43,211.43,243.4,143,390.81-54.74,117.93-194.72,169.15-312.65,114.4-94.34-43.79-135.32-155.78-91.52-250.12"/>
      <path class="cls-5" d="m3831.98,2767.4c-309.13,682.37-1112.9,984.94-1795.28,675.81-545.9-247.31-787.95-890.32-540.65-1436.22,197.84-436.72,712.26-630.36,1148.98-432.52,349.37,158.28,504.29,569.81,346.02,919.18-126.62,279.5-455.85,403.43-735.34,276.81-223.6-101.3-322.75-364.68-221.45-588.28,81.04-178.88,291.74-258.2,470.62-177.16,143.1,64.83,206.56,233.39,141.73,376.5-51.86,114.48-186.71,165.25-301.2,113.38-91.59-41.49-132.2-149.37-90.71-240.96"/>
      <path class="cls-6" d="m3787.49,2738.3c-291.97,661.85-1065.18,961.7-1727.03,669.73-529.48-233.57-769.36-852.15-535.79-1381.63,186.86-423.58,681.72-615.49,1105.3-428.63,338.87,149.49,492.39,545.37,342.9,884.24-119.59,271.09-436.3,393.91-707.39,274.32-216.87-95.67-315.13-349.04-219.46-565.91,76.54-173.5,279.23-252.1,452.73-175.57,138.8,61.23,201.68,223.39,140.45,362.19-48.98,111.04-178.71,161.35-289.75,112.36-88.83-39.19-129.08-142.97-89.89-231.8"/>
      <path class="cls-19" d="m3743,2709.2c-274.8,641.32-1017.47,938.45-1658.79,663.65-513.06-219.84-750.76-813.97-530.92-1327.03,175.87-410.45,651.18-600.61,1061.63-424.74,328.36,140.7,480.49,520.94,339.79,849.3-112.56,262.69-416.75,384.39-679.44,271.83-210.15-90.05-307.51-333.4-217.47-543.55,72.04-168.12,266.72-246.01,434.84-173.97,134.5,57.63,196.81,213.38,139.18,347.87-46.1,107.6-170.7,157.45-278.3,111.34-86.08-36.88-125.96-136.56-89.07-222.64"/>
      <path class="cls-18" d="m3698.51,2680.1c-257.63,620.8-969.75,915.21-1590.55,657.57-496.64-206.11-732.16-775.8-526.06-1272.44,164.89-397.31,620.64-585.73,1017.95-420.85,317.85,131.91,468.59,496.51,336.68,814.36-105.53,254.28-397.21,374.87-651.49,269.34-203.42-84.42-299.89-317.77-215.47-521.19,67.54-162.74,254.21-239.92,416.95-172.38,130.19,54.03,191.93,203.37,137.9,333.56-43.22,104.15-162.7,153.55-266.85,110.32-83.32-34.58-122.84-130.16-88.26-213.48"/>
      <path class="cls-12" d="m3654.01,2650.99c-240.47,600.28-922.03,891.96-1522.3,651.49-480.22-192.38-713.57-737.62-521.19-1217.84,153.9-384.18,590.1-570.85,974.28-416.95,307.34,123.12,456.68,472.08,333.56,779.42-98.5,245.87-377.66,365.35-623.54,266.85-196.7-78.8-292.28-302.13-213.48-498.83,63.04-157.36,241.7-233.82,399.06-170.78,125.89,50.43,187.06,193.36,136.63,319.25-40.34,100.71-154.69,149.65-255.4,109.3-80.57-32.28-119.72-123.75-87.44-204.32"/>
      <path class="cls-20" d="m3609.52,2621.89c-223.3,579.75-874.31,868.71-1454.06,645.41-463.8-178.64-694.97-699.45-516.33-1163.25,142.91-371.04,559.56-555.98,930.6-413.06,296.83,114.33,444.78,447.65,330.45,744.48-91.46,237.47-358.12,355.82-595.58,264.36-189.97-73.17-284.66-286.49-211.49-476.47,58.54-151.98,229.19-227.73,381.17-169.19,121.58,46.83,182.18,183.36,135.35,304.94-37.46,97.27-146.68,145.75-243.95,108.28-77.81-29.97-116.6-117.35-86.63-195.16"/>
      <path class="cls-14" d="m3565.03,2592.79c-206.14,559.23-826.59,845.47-1385.82,639.33-447.38-164.91-676.37-661.27-511.46-1108.66,131.93-357.91,529.02-541.1,886.92-409.17,286.33,105.54,432.88,423.21,327.34,709.54-84.43,229.06-338.57,346.3-567.63,261.87-183.25-67.55-277.04-270.86-209.5-454.11,54.04-146.6,216.69-221.63,363.28-167.6,117.28,43.23,177.31,173.35,134.08,290.63-34.58,93.82-138.68,141.85-232.5,107.26-75.06-27.67-113.48-110.94-85.81-186"/>
      <path class="cls-17" d="m3520.54,2563.69c-188.97,538.71-778.87,822.22-1317.58,633.25-430.96-151.18-657.78-623.1-506.6-1054.06,120.94-344.77,498.48-526.22,843.25-405.28,275.82,96.75,420.98,398.78,324.22,674.6-77.4,220.65-319.03,336.78-539.68,259.38-176.52-61.92-269.43-255.22-207.5-431.74,49.54-141.22,204.18-215.54,345.39-166,112.97,39.63,172.43,163.34,132.8,276.32-31.7,90.38-130.67,137.95-221.05,106.24-72.3-25.36-110.36-104.54-84.99-176.84"/>
      <path class="cls-22" d="m3476.05,2534.59c-171.81,518.18-731.15,798.98-1249.33,627.17-414.55-137.44-639.18-584.92-501.74-999.47,109.96-331.64,467.94-511.34,799.57-401.39,265.31,87.96,409.08,374.35,321.11,639.66-70.37,212.25-299.48,327.26-511.73,256.89-169.8-56.3-261.81-239.58-205.51-409.38,45.04-135.84,191.67-209.45,327.51-164.41,108.67,36.03,167.56,153.33,131.53,262-28.82,86.94-122.67,134.05-209.6,105.22-69.55-23.06-107.24-98.13-84.18-167.68"/>
      <path class="cls-24" d="m3431.56,2505.49c-154.64,497.66-683.43,775.73-1181.09,621.09-398.13-123.71-620.58-546.75-496.87-944.87,98.97-318.5,437.4-496.47,755.9-397.5,254.8,79.18,397.17,349.92,318,604.72-63.34,203.84-279.93,317.74-483.78,254.4-163.07-50.67-254.19-223.95-203.52-387.02,40.54-130.46,179.16-203.35,309.62-162.81,104.37,32.43,162.68,143.33,130.25,247.69-25.94,83.49-114.66,130.15-198.15,104.2-66.79-20.76-104.12-91.73-83.36-158.52"/>
      <path class="cls-15" d="m3387.07,2476.39c-137.47,477.13-635.71,752.48-1112.85,615.01-381.71-109.98-601.99-508.57-492.01-890.28,87.98-305.37,406.86-481.59,712.22-393.61,244.29,70.39,385.27,325.49,314.88,569.78-56.31,195.43-260.39,308.22-455.82,251.91-156.35-45.05-246.57-208.31-201.53-364.66,36.04-125.08,166.65-197.26,291.73-161.22,100.06,28.83,157.81,133.32,128.98,233.38-23.06,80.05-106.66,126.25-186.71,103.18-64.04-18.45-101-85.32-82.55-149.36"/>
      <path class="cls-13" d="m3342.58,2447.29c-120.31,456.61-588,729.24-1044.61,608.93-365.29-96.25-583.39-470.4-487.14-835.69,77-292.23,376.32-466.71,668.55-389.71,233.78,61.6,373.37,301.05,311.77,534.84-49.28,187.03-240.84,298.7-427.87,249.42-149.62-39.42-238.96-192.67-199.53-342.3,31.54-119.7,154.14-191.17,273.84-159.63,95.76,25.23,152.93,123.31,127.7,219.07-20.18,76.61-98.65,122.35-175.26,102.16-61.29-16.15-97.88-78.92-81.73-140.2"/>
      <path class="cls-16" d="m3298.09,2418.19c-103.14,436.09-540.28,705.99-976.36,602.85-348.87-82.51-564.79-432.22-482.28-781.09,66.01-279.1,345.78-451.83,624.87-385.82,223.28,52.81,361.47,276.62,308.66,499.9-42.25,178.62-221.3,289.17-399.92,246.93-142.9-33.8-231.34-177.04-197.54-319.93,27.04-114.32,141.63-185.07,255.95-158.03,91.45,21.63,148.06,113.3,126.43,204.76-17.3,73.16-90.64,118.45-163.81,101.14-58.53-13.84-94.76-72.51-80.91-131.05"/>
      <path class="cls-25" d="m3253.59,2389.09c-85.98,415.56-492.56,682.75-908.12,596.77-332.45-68.78-546.2-394.05-477.41-726.5,55.03-265.96,315.24-436.96,581.2-381.93,212.77,44.02,349.57,252.19,305.55,464.96-35.22,170.21-201.75,279.65-371.97,244.44-136.17-28.17-223.72-161.4-195.55-297.57,22.54-108.94,129.12-178.98,238.06-156.44,87.15,18.03,143.18,103.3,125.15,190.45-14.42,69.72-82.64,114.55-152.36,100.12-55.78-11.54-91.64-66.11-80.1-121.89"/>
    </g>
  </g>
</svg>